<?xml version="1.0" encoding="utf-8" ?><svg xmlns="http://www.w3.org/2000/svg" xmlns:xlink="http://www.w3.org/1999/xlink" width="1024" height="1024" viewBox="0 0 1024 1024"><path fill="white" d="M0 0L1024 0L1024 1024L808.591 1024L808.149 1024L0 1024L0 896.744L0 896.133L0 328.944L0 323.927L0 0Z"/><path d="M0 896.133C1.21835 893.863 0.684603 893.975 2.54913 893.135C5.15197 893.884 5.55266 895.645 4.55091 898.011C2.26839 898.978 1.84167 898.244 0 896.744L0 896.133Z"/><path d="M0 323.927C1.7069 324.458 2.18646 324.444 3.21227 325.909C3.32286 327.652 3.55415 326.879 2.42749 328.284C1.20186 328.715 1.29072 328.71 0 328.944L0 323.927Z"/><path fill="#BEBEC1" d="M808.149 1024C807.961 1021.86 806.598 1019.28 806.836 1017.85C808.042 1020.17 808.298 1021.36 808.591 1024L808.149 1024Z"/><path d="M27.8186 24.4944L996.095 25.0865C996.987 33.5603 996.517 51.3867 996.514 60.358L996.557 125.818C996.561 128.721 996.213 146.178 996.844 147.994C998.191 148.437 1000.22 147.615 1001.71 147.187L1001.94 147.665C1000.51 150.258 999.152 150.962 996.623 152.351C996.919 178.119 996.501 204.7 996.454 230.517L996.739 350.643L996.508 452.319L996.556 486.155C996.608 493.133 996.945 500.843 996.64 507.713L996.784 508.383C996.409 512.17 996.586 520.679 996.563 524.814L996.4 555.299L996.122 653.67L996.083 995.778C967.832 996.016 939.579 996.057 911.328 995.901C899.54 995.92 885.715 995.025 873.927 997.324C873.732 997.363 867.212 995.826 864.807 995.812C842.34 995.678 819.871 996.064 797.411 995.631C793.683 995.557 795.744 997.115 793.215 997.15L793.255 995.757C791.899 995.407 778.776 995.508 776.553 995.5C756.246 995.328 735.939 995.485 715.638 995.969C712.896 1001.49 708.685 1003.45 707.261 995.913L565.94 995.361C559.799 995.352 522.668 994.87 519.143 995.761L518.954 997.331L518.273 997.771L517.034 997.456C515.593 994.568 512.618 995.402 509.41 995.425L27.9789 995.93L27.4558 353.74C26.9352 243.992 27.0561 134.241 27.8186 24.4944Z"/><path fill="white" d="M40.074 50.2009C42.4083 51.6402 47.2295 57.2057 49.5015 59.4936C58.165 68.2179 66.5314 77.8173 75.2929 86.3986L212.299 223.166C230.997 241.644 255.191 268.007 275.389 283.982C284.835 277.978 296.164 269.868 301.912 284.202C299.529 293.217 297.2 308.028 296.979 317.571L297.498 317.938C303.506 314.041 314.947 295.143 325.077 297.539C329.125 298.496 334.468 316.347 336.27 320.926C339.074 328.051 341.784 335.261 345.381 342.13C345.325 343.039 345.251 343.946 345.159 344.851C344.718 348.909 343.059 350.018 340.03 352.426C343.003 355.03 344.783 356.48 347.209 359.557C368.258 358.615 395.44 367.818 408.443 385.186C415.508 394.642 418.515 406.524 416.797 418.203C419.686 421.959 426.096 427.811 429.791 431.404C435.924 437.344 441.964 443.38 447.908 449.51C478.663 480.67 509.598 511.652 540.711 542.454C622.804 623.917 704.311 705.967 785.226 788.6C802.96 806.96 821.915 824.259 839.14 843.06C841.712 845.867 846.47 849.103 848.326 852.3C847.507 853.416 847.704 852.952 847.362 854.277C848.473 853.892 848.67 853.892 849.849 853.745C854.361 856.705 862.228 865.891 866.5 870.018C881.529 884.536 896.64 899.103 911.132 914.156C914.575 917.733 920.721 922.704 923.503 926.126L923.099 927.489C927.467 929.779 945.741 949.047 950.809 953.755C960.676 962.921 971.506 973.231 981.222 982.617C968.575 983.106 955.823 983.288 943.166 983.152C897.465 982.661 851.724 983.359 806.034 983.012C812.004 969.086 821.234 951.104 827.969 937.46C836.417 919.978 844.99 902.557 853.69 885.2C848.214 880.192 842.923 874.391 837.495 869.311C831.977 864.147 826.479 859.182 821.05 853.91C810.476 860.054 799.74 865.52 789.281 871.494C747.86 895.634 706.177 919.321 664.239 942.549C648.172 951.608 632.253 961.269 615.924 969.933C609.999 973.077 598.617 980.005 592.489 981.515C588.789 982.427 575.133 982.326 570.54 982.377C553.594 982.52 536.647 982.574 519.701 982.538C526.423 969.425 539.227 949.424 548.656 937.74C550.624 935.301 566.55 928.719 570.675 926.688C596.082 914.176 629.66 895.366 646.464 871.977C639.104 857.348 633.503 841.528 625.568 826.231C620.99 824.693 613.243 822.641 608.486 822.382C600.468 799.563 582.62 787.986 559.329 784.721C558.924 785.857 558.38 788.28 558.061 789.523C576.801 792.566 593.187 800.428 601.115 819.265C603.18 824.17 604.728 832.955 602.433 837.855C601.366 840.133 597.668 845.446 595.251 846.308L594.473 845.702C593.61 841.833 596.128 831.984 597.018 827.708C592.055 809.065 572.554 800.982 555.203 798.48C551.819 802.072 546.159 808.474 542.198 811.536C528.332 822.251 511.781 831.307 495.877 838.689C493.852 839.629 491.495 840.01 489.475 839.062C488.078 837.108 487.916 834.072 490.06 832.61C494.425 829.635 499.862 828.122 504.484 825.532C517.282 818.359 530.259 811.259 541.241 801.402C544.077 798.85 548.095 793.977 550.659 791.03C549.842 786.111 546.944 774.338 543.355 771.077C540.438 770.371 537.038 776.584 534.612 778.636C504.894 803.77 464.72 818.453 427.432 828.247C420.587 830.045 389.438 835.716 385.102 833.029L384.932 832.009C387.488 827.95 397.205 823.929 401.785 821.79C399.041 804.776 394.324 788.893 390.783 772.201C378.349 712.51 363.417 653.366 346.026 594.926L352.926 593.35C356.618 604.083 359.542 614.481 362.698 625.355C377.098 674.963 388.899 725.384 400.242 775.767C403.664 790.97 407.778 806.937 410.209 822.256C445.282 817.535 488.256 801.155 517.439 781.234C485.837 719.993 453.714 659.433 425.324 596.575C421.302 587.67 418.32 577.473 413.656 568.925L419.418 566.244C425.603 578.849 432.411 591.449 438.342 604.126C452.379 633.762 466.161 663.646 480.714 693.034C493.67 719.195 508.355 744.787 521.303 770.986C522.247 772.895 523.474 774.822 525.542 775.362C527.268 774.789 527.278 775.094 528.284 773.894C528.173 772.5 527.769 770.965 527.096 769.737C498.27 717.131 471.729 663.636 446.389 609.269C439.553 594.603 431.303 576.414 423.117 562.726C437.762 553.505 457.569 542.325 463.744 525.895C462.987 521.648 461.914 516.874 458.233 514.233C444.949 504.704 434.156 511.074 421.742 512.272L420.978 512.341C416.625 507.489 413.076 501.517 410.12 495.734C412.979 491.97 415.372 490.203 416.288 484.918C416.957 481.094 415.996 477.164 413.638 474.08C409.657 468.954 403.951 468.204 398.072 467.386C396.214 462.268 395.955 460.064 393.085 455.292C403.3 443.822 410.164 432.325 410.548 416.678C411.079 395.016 397.448 381.669 378.342 374.962C361.558 369.146 351.875 370.551 335.019 372.39C332.986 372.612 323.362 370.881 320.367 370.592C313.392 363.927 301.886 349.057 297.016 340.904C308.068 340.205 325.543 340.52 336.059 342.563C331.2 330.631 327.171 318.834 322.513 306.867C315.383 312.793 304.07 322.911 296.825 329.405C295.934 330.204 296.939 334.686 296.609 337.02L295.769 337.451L294.829 337.018C294.117 335.458 294.283 334.811 294.358 333.104L294.389 332.494C293.565 331.145 291.601 330.346 290.064 329.469C289.925 327.176 290.416 324.605 290.244 322.352C289.128 307.714 287.9 300.082 292.591 286.33C281.49 291.225 271.748 295.57 260.146 299.222C253.236 301.396 252.556 300.842 249.888 306.322C263.745 311.248 268.415 321.934 278.443 330.319C276.961 333.507 276.303 334.498 274.342 337.357C262.316 340.168 254.929 338.935 242.794 337.782C245.142 342.899 257.6 371.311 260.252 372.438C262.29 370.836 266.343 365.457 268.331 363.097C272.961 357.586 277.68 352.151 282.486 346.793C287.325 356.613 286.621 370.924 289.8 381.42C284.789 385.351 284.075 386.516 280.875 392.02C272.249 395.347 263.665 403.771 257.409 410.23C229.121 439.432 240.641 471.256 276.824 484.919C281.682 486.753 290.693 488.175 294.809 490.685C298.412 492.883 304.947 499.946 308.497 503.226C305.435 505.286 299.182 507.27 299.039 510.877C298.891 514.605 302.234 519.731 304.718 522.374C308.762 526.677 311.116 527.484 316.651 527.767C322.013 542.375 325.976 539.726 325.999 558.856C321.219 566.091 300.351 571.516 294.407 578.766C289.704 583.774 290.641 594.577 296.928 598.018C306.934 603.494 329.245 598.332 340.03 596.158C346.5 613.242 351.68 634.311 356.398 652.199C365.744 687.116 374.324 722.233 382.132 757.526L390.585 794.994C392.052 801.339 395.001 811.808 395.508 817.886C388.329 822.143 382.121 824.691 378.625 832.371C379.163 840.679 381.036 846.162 384.195 853.792C408.161 861.161 444.284 847.648 467.175 841.372C468.362 841.047 469.855 842.438 470.577 843.284C470.871 844.724 470.737 845.692 469.902 846.941C464.813 854.553 420.464 862.095 410.824 863.212C403.986 864.005 396.983 863.303 390.208 864.558L389.463 864.702C383.988 873.515 376.951 885.43 378.477 896.145C379.541 903.613 382.735 917.437 385.366 924.444L385.806 924.459C438.79 926.263 520.592 895.858 566.778 869.553C573.866 865.515 582.699 860.552 589.255 855.704C590.798 854.562 592.504 852.468 593.955 851.112L596.053 852.755C597.977 852.595 600.807 849.628 602.24 848.096C607.979 841.962 609.584 836.7 609.448 828.614C613.634 828.939 616.576 829.305 620.722 829.996C625.603 837.23 636.737 863.01 639.107 871.828C634.782 877.89 628.62 883.669 622.879 888.362C573.437 928.783 466.895 964.966 403.996 969.29C391.534 970.146 378.822 969.031 366.415 967.833C362.029 958.281 354.12 932.544 352.614 921.932C355.409 916.398 358.23 912.072 361.618 906.863C322.586 900.501 285.628 891.608 247.011 884.764C242.871 895.759 237.469 906.884 232.552 917.607C222.654 939.189 213.594 962.24 203.155 983.477L187.595 983.506C198.134 955.96 214.343 926.505 224.898 898.43C213.932 903.365 193.805 915.289 182.718 921.472L108.889 962.565C99.2367 967.982 83.3684 978.041 73.698 981.681C70.1294 983.025 45.9369 982.461 40.2698 982.44L40.5019 825.117C52.1412 826.48 65.6092 829.639 77.2354 831.971C98.489 836.181 119.719 840.508 140.925 844.952L209.148 858.371C220.274 860.522 231.582 862.403 242.612 864.933C251.263 843.371 260.869 822.905 270.199 801.686L314.072 701.291L331.897 660.785C335.342 652.967 340.741 641.484 343.052 633.654C342.304 632.029 342.069 631.264 340.835 629.932C338.1 629.713 293.18 656.369 286.991 659.923C261 674.513 235.14 689.335 209.413 704.387L115.642 757.713L67.3586 786.078C58.9701 790.937 49.2149 796.755 40.5746 800.913C40.0865 792.358 39.1016 755.752 41.2217 749.059C44.0033 740.279 52.4191 729.302 57.419 721.224C64.9017 709.134 72.0922 696.876 79.6315 684.805C106.002 643.199 131.883 601.285 157.27 559.072C144.492 557.552 129.679 554.185 116.754 551.922L40.2969 538.796L40.4658 460.148C40.4799 443.492 40.7293 426.104 40.0779 409.544C51.9436 402.273 63.3399 396.247 75.3552 389.428C99.7565 375.383 124.24 361.482 148.805 347.725C169.993 335.587 190.648 322.728 212.06 310.973C228.858 301.751 241.978 294.217 260.281 288.18C231.951 271.188 208.095 267.909 176.608 260.551C145.034 253.032 113.399 245.768 81.7073 238.759C71.0142 236.406 49.0976 232.284 39.6147 229.067C39.4071 223.887 38.8094 189.949 39.9213 187.377C48.1198 168.416 65.3133 138.36 73.7924 120.317C66.4071 111.929 59.1131 102.884 51.8467 94.341C48.7798 90.7354 43.0253 84.4786 40.5251 81.0324C39.7084 71.7106 40.0676 59.7458 40.074 50.2009Z"/><path d="M494.97 527.079C526.407 559.059 558.175 590.711 590.27 622.03C605.908 637.427 622.095 654.541 638.553 668.965C631.364 668.081 624.164 666.268 617.073 664.75L589.923 659.127C565.494 654.038 541.016 649.184 516.494 644.567C500.91 641.573 485.291 638.893 469.771 635.51C459.639 612.269 446.615 587.147 435.736 563.887C444.669 560.231 451.447 552.827 459.4 548.07C470.869 541.209 484.059 534.828 494.97 527.079Z"/><path d="M233.161 457.322C233.738 457.869 235.894 462.49 236.371 463.496C243.744 479.143 259.98 487.678 275.11 494.267C283.106 497.75 288.843 498.165 294.695 505.187C290.148 512.669 292.422 529.135 301.782 532.177C312.648 535.707 317.046 541.666 315.331 553.228C307.481 564.3 290.714 562.163 283.785 579.564C277.391 578.691 270.743 577.276 264.386 576.041L208.212 565.368C198.825 563.589 184 560.299 174.841 559.357C179.771 548.04 190.573 530.81 197.028 519.275C204.749 505.497 212.578 491.781 220.515 478.126C223.65 472.732 229.704 461.787 233.161 457.322Z"/><path d="M619.167 841.851C622.59 843.342 629.648 866.849 630.748 871.252C623.527 876.608 615.097 884.853 607.618 889.566C555.442 922.321 495.546 945.22 435.126 956.921C425.613 958.763 377.63 963.217 372.2 959.337C369.383 949.136 366.319 939.004 363.011 928.952C384.02 937.173 431.516 929.749 453.551 923.621C503.785 909.649 583.589 880.589 619.167 841.851Z"/><path d="M650.464 689.004L650.979 689.546C647.846 694.791 644.831 700.784 641.802 706.18L619.272 747.045C611.702 761.099 603.767 774.917 596.249 789.006C586.357 780.83 569.95 775.251 557.158 773.857C555.657 769.319 555.045 768.115 551.903 764.683C546.027 760.083 538.67 758.378 531.309 758.19C529.917 754.309 529.314 753.702 526.754 750.571C550.546 738.993 574.234 727.204 597.815 715.205C615.057 706.49 632.912 697.033 650.464 689.004Z"/><path d="M377.938 807.457L379.243 807.764C379.531 810.582 372.051 823.206 370.334 826.566C366.303 834.452 370.565 845.192 373.452 853.173C363.967 867.599 359.913 870.178 355.824 888.361C331.531 884.748 305.007 878.982 280.61 874.526C273.364 873.383 266.548 872.024 259.2 871.048C263.707 868.058 270.961 864.535 275.941 861.816C288.106 855.135 300.338 848.574 312.634 842.135C333.501 831.075 356.952 817.443 377.938 807.457Z"/><path d="M379.969 860.312C381.04 860.87 381.788 862.2 382.595 863.276C381.907 864.02 381.232 864.775 380.57 865.542C366.635 881.771 368.628 898.895 375.334 917.579C376.167 919.898 377.156 922.535 375.122 924.319C373.113 924.662 370.288 923.532 368.217 922.905C365.099 922.071 364.064 921.456 363.572 918.329C364.279 916.592 363.7 917.241 365.422 916.366C367.208 916.366 368.269 917.528 369.77 918.666C367.098 904.752 362.021 892.6 367.189 878.365C370.12 870.29 373.852 866.1 379.969 860.312Z"/><path d="M251.113 316.144C252.665 316.557 274.184 328.165 275.586 329.345C276.07 330.961 275.936 330.416 274.991 332.415C267.594 331.422 254.652 324.961 249.948 319.698C249.681 317.901 249.987 318.167 251.113 316.144Z"/><path d="M792.109 823.122C794.061 824.176 795.977 824.496 797.269 825.911C797.471 827.855 796.997 828.02 796.094 830.117C791.389 828.936 790.916 827.115 792.109 823.122Z"/><path d="M740.691 783.517C742.212 783.499 743.463 784.71 743.495 786.231C743.527 787.752 742.328 789.015 740.808 789.062C739.267 789.109 737.983 787.89 737.95 786.348C737.918 784.807 739.149 783.534 740.691 783.517Z"/><path d="M719.018 805.157C720.849 805.342 721.525 806.017 722.309 807.596C722.469 809.62 722.252 809.773 721.22 811.638C719.407 810.838 718.325 810.327 717.55 808.532C717.844 806.259 717.594 807.096 719.018 805.157Z"/><path d="M869.242 900.339C871.931 900.292 873.697 901.101 874.707 903.67L873.96 905.25C871.86 906.186 871.651 905.895 870.008 904.574C869.048 902.487 869.049 902.613 869.242 900.339Z"/><path d="M691.191 836.261C692.908 837.397 696.094 841.648 696.105 843.733L694.524 843.764C691.405 841.32 690.13 840.098 691.191 836.261Z"/><path d="M853.869 925.149C854.946 925.242 854.854 925.275 855.905 925.599C856.985 927.188 857.249 927.386 857.369 929.344C856.52 931.011 857.148 930.526 855.635 931.091C855.283 930.924 854.912 930.604 854.584 930.358L855.646 929.872L855.827 929.276C855.019 928.929 854.21 928.719 853.353 928.526C852.895 926.83 853.137 927.175 853.869 925.149Z"/><path d="M861.876 944.508C864.396 944.52 866.227 944.411 867.686 946.848C867.874 948.497 868.025 948.596 867.245 950.091C863.096 947.164 868.063 949.155 864.891 946.822C864.432 946.485 862.504 947.086 861.585 946.024L861.876 944.508Z"/><path d="M852.078 975.16C853.987 975.366 853.746 974.635 855.346 975.636L855.77 978.46C854.457 978.977 854.151 979.268 852.786 978.999C851.814 977.532 852.156 977.261 852.078 975.16Z"/><path d="M873.136 948.986C874.577 951.062 875.199 951.245 875.345 953.527L874.562 954.542C872.801 954.65 873.519 954.913 872.262 953.962C872.039 952.41 871.929 953.145 872.694 951.697L873.136 948.986Z"/><path d="M720.157 780.878C721.717 781.134 721.954 781.037 723.212 782.014C723.388 783.799 723.472 782.884 722.426 784.777C720.257 784.529 720.427 784.904 719.099 783.725C719.172 781.848 719.008 782.778 720.157 780.878Z"/><path d="M762.854 832.62C765.002 834.352 764.941 835.447 765.039 838.023C764.239 837.75 763.784 837.515 763.019 837.158C762.213 835.845 762.667 834.269 762.854 832.62Z"/><path d="M917.134 965.766C917.989 965.639 918.792 966.21 918.953 967.06C919.114 967.909 918.576 968.735 917.733 968.93C917.157 969.063 916.555 968.87 916.163 968.427C915.771 967.984 915.654 967.363 915.856 966.807C916.059 966.252 916.549 965.852 917.134 965.766Z"/><path d="M699.812 890.96L700.675 890.887L701.003 891.528C699.877 893.284 700.603 892.537 698.501 893.582C697.542 892.767 697.559 892.854 697.116 891.688C698.225 891.049 698.514 891.134 699.812 890.96Z"/><path d="M842.583 974.366C843.88 974.866 843.907 974.978 845.103 975.737C845.722 977.468 845.692 976.58 844.91 978.491L843.755 978.106C842.882 976.518 842.568 976.205 842.583 974.366Z"/><path d="M698.917 783.691C699.942 783.985 699.7 783.944 700.631 784.55C700.583 785.959 700.388 785.685 699.127 787.034C698.858 786.948 697.965 786.444 697.677 786.29C697.588 784.854 697.756 785.175 698.917 783.691Z"/><path d="M692.507 753.129C695.374 752.817 695.366 752.576 697.145 754.823C694.162 755.177 693.866 755.733 692.507 753.129Z"/><path d="M843.919 922.277C845.982 922.605 845.733 922.261 847.163 923.389L847.076 924.436L844.952 924.822L844.179 924.246L843.919 922.277Z"/><path d="M706.042 738.45C708.064 738.55 709.255 738.231 710.117 740.152C708.547 740.549 708.457 740.838 707.083 740.483L706.042 738.45Z"/><path fill="white" d="M868.867 923.898L869.406 924.745C868.832 926.302 867.676 927.07 866.41 928.204C865.837 927.771 866.049 928.06 865.831 927.298C867.451 925.996 867.794 925.665 868.867 923.898Z"/><path fill="#BEBEC1" d="M846.199 859.824C847.471 861.321 847.004 862.791 847.016 865.208C845.602 863.558 846.043 862.069 846.199 859.824Z"/><path fill="#69696D" d="M788.533 862.932L789.183 863.309C790.071 865.071 789.866 864.104 789.36 866.379C789.09 866.325 788.466 866.015 788.183 865.888C788.502 864.699 788.55 864.165 788.533 862.932Z"/><path fill="white" d="M872.694 951.697C872.306 949.555 872.245 948.533 872.884 946.523L873.111 947.652L873.192 946.683C873.484 947.83 873.347 947.805 873.136 948.986L872.694 951.697Z"/><path d="M761.167 772.225C762.19 773.454 761.849 773.229 761.923 775.252C761.434 774.526 761.12 773.951 760.689 773.191L761.167 772.225Z"/><path fill="white" d="M826.136 969.723L827.004 969.744L826.849 971.325L826.349 971.235L826.136 969.723Z"/><path fill="#0047AB" d="M492.091 37.2512C507.178 36.6472 523.317 37.3243 538.506 37.1536C541.947 37.1149 560.351 36.8572 562.603 37.4309L568.771 37.4773C577.732 37.3966 595.398 36.8275 603.941 37.5853L604.367 38.0936L604.042 40.0569L604.5 40.6424L605.835 40.694C606.491 39.6155 606.108 39.4228 605.749 37.7394C608.668 37.0668 625.752 37.1134 629.01 37.4669L634.801 37.5493C652.823 37.7235 676.216 38.5703 693.821 37.8047L701.055 37.8556C719.955 37.3614 740.44 37.9093 759.745 37.6029L770.606 37.577C803.551 36.6289 839.228 37.8651 872.498 37.4737L879.321 37.4947C914.695 37.8762 950.073 37.8838 985.448 37.5175L985.297 94.2393C985.287 98.1516 985.559 114.85 984.95 117.726C984.264 118.368 983.639 118.944 982.924 119.554C984.355 122.357 985.532 119.863 985.042 125.951C984.352 134.523 984.682 143.075 984.841 151.665C982.881 153.55 982.626 151.309 981.062 153.48L981.205 154.508C982.557 155.16 982.769 154.92 984.418 154.819C984.606 155.041 984.793 155.264 984.981 155.487C984.496 163.381 984.6 171.291 984.667 179.196C984.716 185.062 984.78 190.93 984.843 196.797C985.255 224.568 985.436 252.342 985.385 280.115C985.362 291.919 985.74 306.841 985.086 318.439C982.888 318.108 978.963 317.223 977.155 318.287L976.165 319.674C979.598 318.52 981.494 318.983 985.068 319.644C985.066 322.755 984.918 328 985.261 330.908C986.177 339.922 985.03 348.801 984.655 357.794C984.508 361.318 985.518 365.478 985.37 368.99C984.741 383.868 986.701 401.661 985.257 416.232C985.223 419.069 985.155 421.923 985.234 424.757C985.753 434.194 985.374 447.067 985.34 456.751L985.391 503.141L984.505 666.379L984.637 886.617C984.626 913.256 985.614 943.32 984.943 969.532C971.051 956.822 958.63 943.023 945.331 929.751L871.692 856.97C861.238 846.638 850.589 836.701 840.227 826.498C823.04 809.463 806.012 792.268 789.143 774.917C778.292 763.775 766.567 752.621 756.454 740.817C759.384 739.662 763.847 738.525 765.943 737.613L766.805 737.357C775.292 735.574 797.062 727.299 805.153 724.094C838.336 710.951 894.383 684.609 915.079 655.04C912.019 641.756 905.074 619.494 901.097 606.027C899.434 600.396 881.396 592.678 874.887 590.68C873.801 588.572 872.554 586.338 871.457 584.26C863.922 569.991 839.57 560.73 824.449 556.906C820.945 538.697 812.593 531.851 794.77 529.583C795.05 524.174 796.742 506.848 797.835 501.651C802.761 498.215 807.79 492.205 811.681 487.591L812.509 486.888L815.624 486.902C835.654 463.596 845.343 421.355 849.46 390.851C856.803 336.435 844.639 279.231 817.264 231.669C814.013 226.021 809.105 219.755 805.135 214.533C764.99 161.735 697.182 131.616 631.752 128.539C630.056 128.46 629.48 126.369 628.494 124.941L627.39 124.783C626.068 126.077 625.871 127.288 625.29 129.057C619.052 129.547 610.013 129.73 604.318 131.756C601.937 132.604 601.489 134.543 600.702 136.781C586.468 130.483 571.883 128.193 556.666 125.904C558.93 112.896 552.3 110.899 544.785 101.277C536.778 91.0261 528.59 80.7665 519.955 71.0419L514.132 63.6421C508.315 56.4351 498.138 43.7548 492.091 37.2512Z"/><path fill="white" d="M872.498 37.4737L879.321 37.4947L875.52 44.5268C862.572 68.3033 847.074 91.2287 833.085 114.305L815.432 143.592C812.575 148.295 810.262 153.331 806.794 157.47C798.907 166.822 784.352 164.873 779.455 153.499C774.637 142.31 781.732 135.909 788.932 128.558C792.992 124.414 797.166 120.106 801.152 115.868C820.461 95.5581 839.321 74.8268 857.719 53.6889C861.979 48.8584 869.159 42.485 872.498 37.4737Z"/><path fill="white" d="M985.234 424.757C980.324 424.987 964.135 421.575 958.184 420.75C932.195 417.153 906.326 416.47 881.182 408.219C865.825 403.778 865.925 386.367 880.282 380.584C887.326 377.747 896.218 383.154 902.911 385.642C916.088 390.54 928.937 395.833 942.301 400.267C949.268 402.579 956.413 406.63 963.491 408.882C970.686 411.503 978.19 413.264 985.257 416.232C985.223 419.069 985.155 421.923 985.234 424.757Z"/><path fill="white" d="M985.261 330.908C980.979 331.384 977.523 332.562 973.393 333.209C948.735 337.071 923.944 342.046 899.382 346.126C890.763 347.141 878.889 347.942 875.517 337.755C871.611 325.956 877.648 319.934 888.474 318.811C905.222 317.075 922.181 318.518 938.815 318.62C945.608 318.688 952.403 318.692 959.196 318.63C963.924 318.566 971.345 317.602 975.259 319.885L976.165 319.674C979.598 318.52 981.494 318.983 985.068 319.644C985.066 322.755 984.918 328 985.261 330.908Z"/><path d="M939.12 327.845C939.744 328.375 939.94 328.809 940.425 329.511C940.669 331.189 940.478 331.244 939.727 332.742L938.506 332.218C937.982 330.156 938.375 330.263 939.12 327.845Z"/><path fill="#69696D" d="M939.105 321.387C940.27 323.005 939.929 322.086 939.831 324.344L939.52 324.418L939.02 324.057L939.105 321.387Z"/><path fill="white" d="M759.745 37.6029L770.606 37.577C765.812 57.2249 762.65 78.2902 758.218 98.0933C754.883 112.998 757.169 123.955 740.121 128.687C739.417 128.5 738.714 128.307 738.013 128.109C725.79 124.641 721.606 116.173 726.909 104.586C734.867 87.1971 745.025 71.0272 752.85 53.5547C755.177 48.357 757.694 44.047 759.458 38.5151L759.745 37.6029Z"/><path fill="white" d="M693.821 37.8047L701.055 37.8556C700.766 54.6568 703.742 73.35 703.483 90.4064C703.398 95.9703 703.885 99.3136 702.852 104.938C695.367 113.936 685.496 115.362 678.41 104.334C677.059 102.232 677.209 98.0561 677.736 95.6059C680.831 81.2247 686.354 67.2861 689.585 52.8546C690.697 47.9287 692.295 42.552 693.821 37.8047Z"/><path fill="white" d="M562.603 37.4309L568.771 37.4773C569.577 39.5808 570.608 41.4405 571.642 43.4307C578.301 56.2403 584.526 69.2944 590.887 82.2482C593.441 87.5451 597.061 92.9401 598.799 98.5534C600.209 103.108 595.706 109.695 591.413 111.028C588.207 111.961 583.598 111.661 580.822 109.712C577.036 107.089 576.701 102.331 575.687 98.292C570.626 78.1176 566.682 57.8285 562.603 37.4309Z"/><path fill="white" d="M629.01 37.4669L634.801 37.5493C637.542 50.426 640.175 63.3253 642.7 76.246C643.81 82.1125 646.927 92.8611 643.785 97.8909C642.159 100.472 639.55 102.278 636.562 102.891C620.906 106.041 620.403 86.2642 623.108 76.3473C624.033 72.9567 623.844 66.599 625.274 63.5854L625.252 62.4251C624.973 57.6333 628.902 46.4193 629.01 37.4669Z"/><path fill="#0047AB" d="M514.132 63.6421C516.125 62.2459 515.095 62.4931 517.194 62.4285C519.686 63.7369 522.321 66.0039 521.673 69.1816L519.955 71.0419L514.132 63.6421Z"/><path fill="#062485" d="M811.681 487.591L812.509 486.888L815.624 486.902C814.262 489.771 813.298 491.668 811.675 494.401C812.222 492.615 813.629 489.591 813.386 487.956C812.776 487.808 812.303 487.666 811.681 487.591Z"/><path fill="#05042A" d="M765.943 737.613L766.805 737.357C767.144 739.23 767.803 741.439 767.191 743.147C765.782 742.261 765.949 739.139 765.943 737.613Z"/><path fill="#030C4F" d="M625.274 63.5854C623.503 62.9914 622.234 62.4965 621.505 60.6643C623.188 60.6575 623.543 61.3237 625.252 62.4251L625.274 63.5854Z"/><path fill="white" d="M976.147 65.4831L976.257 66.2178C960.791 90.2796 940.768 112.779 923.15 135.357C913.189 147.384 904.37 160.202 893.835 171.752C881.812 185.208 872.927 200.814 860.899 214.236C853.542 222.446 843.654 225.597 834.364 217.986C827.654 210.163 827.583 201.071 835.465 194.058C849.759 181.34 864.764 169.59 878.522 156.249C883.576 151.349 889.716 147.144 894.839 142.276C916.731 121.319 938.607 100.271 960.84 79.6874C964.94 75.8998 972.225 68.4329 976.147 65.4831Z"/><path fill="white" d="M852.729 492.101C856.055 492.122 859.341 492.287 861.78 494.802C870.44 503.73 878.589 513.203 886.789 522.549L929.429 571.589C937.61 581.188 952.513 596.48 959.059 605.592L951.722 600.226C930.661 584.999 913.553 570.36 893.583 554.645L862.354 529.801C856.529 525.126 844.572 517.199 842.042 510.41C839.007 502.268 844.315 494.392 852.729 492.101Z"/><path fill="white" d="M868.121 449.562C871.397 449.287 874.911 449.74 877.906 451.148C909.015 465.763 939.804 480.488 971.542 493.763C968.453 493.424 965.168 492.651 962.103 492.019C940.146 486.679 918.129 481.59 896.055 476.751C887.783 474.902 864.458 473.138 860.229 463.87C857.349 457.557 861.985 452.113 868.121 449.562Z"/><path fill="white" d="M962.161 201.102L964.564 201.646L964.709 202.215C959.679 203.941 941.546 216.928 936.414 220.333L878.324 258.178C873.214 261.446 870.848 262.498 864.85 261.156C863.602 259.853 862.62 258.638 861.869 256.982C860.902 254.851 859.858 252.205 860.832 249.914C862.338 246.374 951.581 205.719 962.161 201.102Z"/><path fill="white" d="M967.822 259.561L968.573 259.372L968.877 259.797C964.423 263.262 949.535 267.712 943.708 270.399C923.336 279.791 902.297 287.204 881.8 296.273C877.926 297.988 875.947 298.044 872.057 296.299C871.054 295.593 869.57 294.348 868.566 293.554C868.378 291.33 868.439 289.061 868.445 286.824C880.181 280.035 907.185 274.842 920.97 271.081C923.518 270.385 929.27 269.774 932.113 269.372C932.605 268.812 933.097 268.252 933.589 267.693C944.109 265.818 957.869 262.188 967.822 259.561Z"/><path fill="#0047AB" d="M946.882 352.382C947.275 352.073 946.985 352.256 947.869 352.095L947.796 352.649C940.561 357.11 945.331 356.097 944.185 360.759C942.058 359.691 941.915 359.175 940.862 356.961C941.025 353.474 943.99 352.863 946.882 352.382Z"/><path d="M768.108 54.7653C770.169 54.8326 770.611 55.0707 771.807 56.3345C771.723 58.4116 771.764 57.7472 770.25 59.7246C769.582 59.8096 769.277 59.7267 768.597 59.6646L767.816 58.5703C767.563 56.6194 767.603 56.6987 768.108 54.7653Z"/><path d="M561.622 78.2667C563.469 78.2749 565.061 78.8669 566.175 80.3062L565.389 81.2865C563.604 82.0905 563.044 82.2342 561.417 81.3232C560.903 79.4136 560.952 80.3997 561.622 78.2667Z"/><path d="M804.155 54.8038C805.811 55.0367 806.093 54.9573 807.556 55.8045C808.001 57.4324 807.894 56.8669 806.867 58.8425C804.729 58.8017 805.227 59.1233 803.745 58.0767C803.387 56.2221 803.49 56.8104 804.155 54.8038Z"/><path d="M918.249 533.033L919.808 533.186C920.969 533.979 920.606 533.447 920.895 534.857C919.863 536.102 920.484 535.611 918.867 536.25C917.418 535.815 916.276 535.683 915.341 534.555C916.306 533.385 916.562 533.614 918.249 533.033Z"/><path d="M926.987 354.299L927.855 354.99C927.923 357.307 926.641 358.234 924.924 359.457C924.015 358.607 924.072 358.676 923.702 357.484C924.54 355.578 924.999 355.742 926.987 354.299Z"/><path d="M969.618 622.186C970.953 622.553 970.899 622.764 971.799 623.893C972.059 625.945 972.26 625.032 971.308 626.753C969.843 626.345 969.57 626.368 968.306 625.485C968.113 623.803 968.419 624.044 969.618 622.186Z"/><path d="M918.251 383.126C921.062 384.544 921.488 385.626 921.027 388.502C919.346 388.048 919.411 388.153 918.2 386.93C917.566 385.161 917.754 384.909 918.251 383.126Z"/><path d="M886.351 114.836C886.787 115.084 887.054 115.416 887.432 115.783L887.426 117.001C886.563 118.498 886.689 118.49 885.181 119.276C883.437 117.816 883.938 118.682 883.277 116.81C884.416 115.314 884.352 115.693 886.351 114.836Z"/><path d="M960.227 223.623L962.177 224.208C963.294 226.129 962.846 226.193 962.734 228.871C961.45 228.682 961.521 228.733 960.432 228.042C959.601 226.632 960.019 225.329 960.227 223.623Z"/><path d="M885.904 492.847C886.815 492.656 887.73 493.15 888.071 494.016C888.411 494.882 888.076 495.867 887.279 496.347C886.629 496.738 885.81 496.707 885.192 496.268C884.574 495.829 884.275 495.067 884.429 494.325C884.584 493.583 885.163 493.003 885.904 492.847Z"/><path fill="#0047AB" d="M942.295 234.24L942.692 234.359L942.814 234.84C942.091 235.862 941.562 236.488 940.761 237.434L938.677 237.033L938.161 237.177L938.186 236.178C939.424 234.921 940.594 234.761 942.295 234.24Z"/><path fill="#062485" d="M938.455 198.774C939.534 199.142 939.19 198.919 939.929 199.787C939.382 201.496 938.116 202.041 936.984 203.584L936.387 204.409L936.044 204.444L935.667 204.036C936.641 201.915 937.237 200.761 938.455 198.774Z"/><path d="M950.247 156.409C951.001 155.867 952.046 156 952.638 156.715C953.231 157.43 953.168 158.482 952.495 159.121C952.017 159.575 951.326 159.725 950.703 159.51C950.079 159.295 949.628 158.75 949.532 158.098C949.437 157.446 949.712 156.794 950.247 156.409Z"/><path fill="#05042A" d="M897.586 205.46C898.827 206.798 898.923 206.809 899.781 208.506L899.354 209.622C898.35 209.31 897.353 208.977 896.363 208.624C896.052 207.181 896.511 207.184 897.586 205.46Z"/><path d="M936.175 130.311C937.03 130.021 937.961 130.465 938.275 131.312C938.588 132.159 938.17 133.102 937.332 133.439C936.769 133.665 936.128 133.567 935.657 133.184C935.186 132.801 934.961 132.192 935.069 131.595C935.176 130.998 935.6 130.506 936.175 130.311Z"/><path d="M939.5 365.794C940.179 365.982 939.794 365.812 940.549 366.496C940.539 368.006 939.601 369.032 938.734 370.351C937.619 368.811 937.333 369.002 937.447 367.547L939.5 365.794Z"/><path d="M953.788 39.3926L955.722 40.0664C957.129 41.7645 956.693 41.2272 957.105 43.6865C955.998 43.4885 956.116 43.4347 955.064 42.931C953.924 41.6113 954.008 41.113 953.788 39.3926Z"/><path d="M941.014 166.892L941.697 167.127L942.048 168.007C941.329 169.618 941.061 169.605 939.599 170.578L938.425 169.525L938.526 168.675L941.014 166.892Z"/><path d="M969.248 282.685C969.675 282.968 970.478 283.686 970.9 284.042C971.569 285.981 971.503 285.01 971.03 287.064C970.558 287.009 969.871 286.811 969.388 286.692C968.602 284.921 968.966 284.961 969.248 282.685Z"/><path d="M826.901 794.898C829.597 795.363 831.186 795.904 832.943 798.025C829.811 798.269 829.086 796.951 826.901 794.898Z"/><path d="M852.777 92.2456C853.502 92.7279 853.999 93.1455 854.678 93.687L854.561 94.4928L853.216 95.3974L851.149 95.3664L850.914 94.8825L852.777 92.2456Z"/><path fill="#0047AB" d="M980.257 75.0088L980.335 75.7893C979.55 77.6466 977.849 78.7474 976.263 80.0638L976.199 78.9807C977.223 77.0238 978.487 76.3357 980.257 75.0088Z"/><path d="M920.776 719.183C922.824 719.917 922.06 719.317 923.337 720.789L923.204 722.404L920.438 721.91L919.983 721.083L920.776 719.183Z"/><path d="M933.635 125.366C934.432 125.544 934.957 125.774 935.725 126.055C936.917 127.228 936.8 127.448 937.119 129.084C934.48 128.397 934.336 127.798 933.635 125.366Z"/><path d="M972.816 249.665C974.212 249.866 975.227 250.028 975.742 251.365L974.785 252.044C973.298 252.814 974.027 252.752 972.562 252.48C972.028 250.888 972.2 251.696 972.816 249.665Z"/><path fill="#0047AB" d="M641.654 120.312C644.695 120.114 645.201 119.671 646.377 122.497C644.333 121.474 643.612 121.414 641.328 120.926L641.654 120.312Z"/><path d="M951.998 257.663L952.535 257.382C954.042 258.222 954.441 259.127 955.394 260.566C953.397 259.997 951.851 259.957 951.998 257.663Z"/><path d="M897.005 185.666C897.959 185.941 897.452 185.733 898.489 186.374C898.295 187.93 897.574 188.182 896.27 189.62L895.832 189.699C895.657 188.221 896.383 187.078 897.005 185.666Z"/><path fill="#05042A" d="M917.123 265.656C919.415 266.53 919.197 267.577 919.487 269.833L918.101 269.169C916.94 267.536 917.306 267.963 917.123 265.656Z"/><path fill="#05042A" d="M861.526 287.952C862.227 288.428 864.321 291.76 864.419 292.46C862.283 292.256 861.262 289.948 861.526 287.952Z"/><path d="M739.516 134.741C741.49 135.721 741.975 136.7 742.521 138.67L740.722 138.045C739.431 136.384 739.822 137.031 739.516 134.741Z"/><path fill="#05042A" d="M963.94 679.989C965.11 678.235 964.748 678.17 966.357 677.473C966.62 679.447 966.024 680.003 964.77 681.597L963.94 679.989Z"/><path fill="#0047AB" d="M816.459 174.441L817.18 174.584L817.154 175.251C815.779 176.475 814.967 176.562 813.215 177.085L813.211 176.129C815.555 175.535 814.853 176.03 816.459 174.441Z"/><path fill="#05042A" d="M911.596 613.836C913.026 616.681 912.393 616.788 910.809 619.15L910.29 618.449L911.596 613.836Z"/><path fill="#062485" d="M850.092 253.946C850.542 254.075 850.252 253.958 850.852 254.496C849.526 255.611 847.866 255.708 846.104 256.059L845.545 255.9L845.63 255.395L850.092 253.946Z"/><path d="M948.82 642.765L949.525 643.09L949.63 643.961L947.67 646.236L946.838 645.71C946.945 644.182 947.443 644.208 948.82 642.765Z"/><path d="M962.119 110.254C963.005 110.507 964.777 110.69 965.759 110.827L966.293 111.704C964.156 112.521 963.569 111.527 962.119 110.254Z"/><path fill="#05042A" d="M919.818 256.821C921.889 257.217 922.232 257.329 922.746 259.259L922.232 259.483C920.658 258.789 920.947 258.59 919.818 256.821Z"/><path fill="#05042A" d="M857.386 328.017C858.379 326.917 859.358 327.045 860.728 327.586L859.932 328.891C858.23 328.871 859.077 329.029 857.386 328.017Z"/><path d="M864.736 283.875C866.594 284.199 866.558 283.849 867.376 284.971L866.748 286.213C865.09 285.651 864.919 285.834 863.829 284.649L864.736 283.875Z"/><path fill="#0047AB" d="M896.497 564.43C899.269 564.822 899.759 565.44 901.221 567.644C899.439 567.116 897.742 565.8 896.497 564.43Z"/><path fill="#0047AB" d="M949.973 131.954C950.814 131.728 952.291 131.968 953.251 132.048L953.775 132.69C952.43 133.301 951.059 132.862 949.973 131.954Z"/><path fill="#05042A" d="M670.739 119.828C672.996 120.715 672.896 121.222 673.751 123.117C671.387 122.734 671.435 121.75 670.739 119.828Z"/><path fill="#0047AB" d="M969.003 141.799C969.641 141.755 969.311 141.689 969.955 142.137C968.63 142.807 967.691 142.668 966.113 142.777L965.218 142.432C966.129 141.756 967.625 141.905 969.003 141.799Z"/><path fill="#05042A" d="M956.174 107.368C957.627 108.57 957.7 109.841 957.992 111.616L956.977 111.423C956.047 110.279 956.314 109.185 956.174 107.368Z"/><path fill="#062485" d="M919.664 644.322C921.324 643.818 921.796 644.007 922.921 645.115C922.295 645.258 920.965 645.082 920.249 645.027L919.664 644.322Z"/><path d="M833.586 729.62C834.853 730.178 834.363 729.773 834.99 730.96L834.106 732.816L832.908 732.317L832.634 731.555L833.586 729.62Z"/><path fill="#05042A" d="M920.284 59.3931L920.599 59.8056C920.78 61.3989 920.337 61.5319 919.48 63.2558L918.759 62.5458C918.69 60.8193 918.899 61.1846 920.284 59.3931Z"/><path fill="#0047AB" d="M652.457 102.358C654.038 104.122 654.063 105.902 653.925 108.15C652.805 105.816 652.697 104.919 652.457 102.358Z"/><path fill="#05042A" d="M854.531 331.428C855.224 329.705 855.998 329.242 857.386 328.017C857.037 330.751 857.197 330.875 854.531 331.428Z"/><path fill="#030C4F" d="M975.69 92.2218C977.348 93.2532 977.05 93.6264 976.651 95.2394L975.938 95.3913C975.831 94.3142 975.759 93.3021 975.69 92.2218Z"/><path fill="#0047AB" d="M961.05 183.045C962.649 182.964 962.612 182.913 964.136 183.333L964.052 183.865L962.849 184.326C961.246 184.518 961.769 184.631 960.313 184.241L961.05 183.045Z"/><path fill="#062485" d="M964.77 681.597L965.601 683.502L965.188 683.881C963.906 682.351 964.031 681.969 963.94 679.989L964.77 681.597Z"/><path fill="#030C4F" d="M972.5 209.492C974.126 210.336 974.201 210.314 975.603 211.62C973.563 211.528 972.894 211.434 972.5 209.492Z"/><path fill="#062485" d="M794.761 87.6574L795.166 87.5632C795.995 88.6289 795.852 89.5978 796.076 91.165C794.737 90.0286 794.874 89.2974 794.761 87.6574Z"/><path fill="#062485" d="M971.287 156.789C971.827 157.268 971.589 156.946 971.841 157.855L970.047 160.11L969.553 159.449C970.1 158.222 970.473 157.85 971.287 156.789Z"/><path fill="#0047AB" d="M904.908 368.778C907.132 369.337 907.164 369.54 908.57 371.318C906.643 371.243 906.11 370.165 904.908 368.778Z"/><path fill="#0047AB" d="M976.966 134.357C978.131 135.667 978.117 136.173 978.254 137.828L977.747 137.93C976.882 136.542 977.097 136.136 976.966 134.357Z"/><path fill="#0047AB" d="M963.514 122.293C964.356 124.145 964.059 124.876 963.503 126.694C962.721 124.801 962.982 124.147 963.514 122.293Z"/><path fill="#0047AB" d="M880.048 354.575C880.662 354.231 880.267 354.375 881.295 354.385L882.183 355.478C881.112 355.771 880.704 355.178 880.048 354.575Z"/><path fill="#030C4F" d="M966.299 778.448L966.629 778.68C966.309 779.844 965.436 780.136 964.227 781.072L963.867 780.797C964.102 779.601 964.955 779.415 966.299 778.448Z"/><path fill="#0047AB" d="M965.174 564.501L965.486 564.328C967.126 564.455 967.172 564.885 968.746 565.996C966.889 565.639 966.076 565.721 965.174 564.501Z"/><path fill="#0047AB" d="M858.084 408.814C859.778 409.937 859.719 410.511 859.816 412.338L859.112 412.002L858.084 408.814Z"/><path fill="#062485" d="M957.696 781.337C958.181 783.026 957.424 783.646 956.559 785.213C955.977 783.622 956.923 782.77 957.696 781.337Z"/><path fill="#062485" d="M879.903 230.073L879.93 230.559C879.042 231.81 878.771 231.533 876.943 232.123L877.135 231.183L879.903 230.073Z"/><path fill="#05042A" d="M945.245 606.577C946.494 606.388 946.464 606.38 947.711 606.554L947.896 607.553C946.311 607.619 946.992 607.585 945.245 606.577Z"/><path fill="#062485" d="M962.035 243.876C961.968 244.222 962.061 243.961 961.452 244.836L959.708 244.865L959.097 244.484L959.17 243.997L962.035 243.876Z"/><path fill="#05042A" d="M949.052 710.25C949.533 710.385 949.715 710.621 950.158 710.959L950 712.182L949.532 712.562L949 712.325L949.052 710.25Z"/><path fill="#062485" d="M869.665 331.844C870.049 334.119 870.326 333.205 869.313 334.805C869.164 334.543 869.016 334.282 868.867 334.021L869.665 331.844Z"/><path fill="#062485" d="M851.437 227.208C851.694 227.171 851.49 227.171 852.252 227.374L851.552 229.595L851.196 229.543L850.791 228.765L851.437 227.208Z"/><path fill="#05042A" d="M865.939 748.746L866.449 748.404L866.973 748.684L866.785 750.344C866.261 750.457 866.579 750.458 865.883 750.033L865.939 748.746Z"/><path fill="#030C4F" d="M884.673 696.357L885.165 697.549L884.722 698.451L883.414 698.721L883.143 698.539L884.673 696.357Z"/><path fill="#0047AB" d="M897.059 199.521L897.303 197.809L898.075 197.66C897.802 199.164 898.16 198.582 897.059 199.521Z"/><path fill="#062485" d="M931.973 85.3255L933.257 84.941L933.854 85.6573C932.576 85.9919 933.198 86.0277 931.973 85.3255Z"/><path fill="#0047AB" d="M896.286 201.914L896.146 200.517L897.059 199.521L896.995 201.51L896.286 201.914Z"/><path fill="#0047AB" d="M893.982 419.017L894.866 418.758L895.107 419.531C894.437 419.631 894.849 419.654 893.982 419.017Z"/><path fill="#062485" d="M903.639 313.261L904.521 313.236L904.294 314.722L903.388 314.761L903.639 313.261Z"/><path fill="#0047AB" d="M558.978 62.0674L559.671 62.2075L560.588 63.75L559.217 63.1332L558.978 62.0674Z"/><path fill="#0047AB" d="M372.528 36.9174C402.663 36.3443 433.051 37.3324 463.213 36.9328C466.523 36.8889 480.519 36.6243 482.847 37.3455C486.209 37.4298 488.741 37.4719 492.091 37.2512C498.138 43.7548 508.315 56.4351 514.132 63.6421L519.955 71.0419C528.59 80.7665 536.778 91.0261 544.785 101.277C552.3 110.899 558.93 112.896 556.666 125.904C554.78 125.863 552.64 125.527 551.165 126.534C551.05 126.961 550.756 127.954 550.696 128.353C562.509 140.434 575.913 169.166 581.593 185.165C581.108 185.364 580.625 185.569 580.144 185.781C563.157 193.344 546.865 204.164 529.647 211.501C517.5 217.216 521.813 233.928 518.925 243.85C512.715 265.186 497.238 287.354 482.637 303.784C472.736 314.926 462.336 312.589 456.135 328.381C457.515 334.538 459.143 337.797 462.526 343.131C463.524 344.703 465.73 348.886 466.001 350.523C469.251 370.113 466.493 404.505 497.449 385.606C508.754 390.634 528.374 397.718 537.179 387.38C552.213 369.726 561.428 358.823 583.59 349.072C605.172 339.577 626.049 340.305 648.486 333.277C645.841 352.95 636.325 372.064 627.129 389.517C604.069 433.282 580.312 472.513 575.905 523.178C574.645 537.673 575.644 546.467 575.711 560.267C564.06 549.728 555.35 539.529 544.396 528.564L489.51 473.98C473.02 457.603 456.682 441.073 440.499 424.393C435.158 418.871 429.526 413.427 424.25 407.856C421.456 404.905 420.458 398.178 419.132 394.017C417.138 387.901 413.787 382.315 409.328 377.677C398.791 366.886 377.099 356.707 361.656 356.448C348.456 344.968 349.007 346.755 344.127 330.234C339.955 319.885 336.466 302.552 329.519 294.056C320.88 283.49 307.291 304.341 303.777 308.177C303.537 306.249 303.152 301.726 303.512 299.956C304.808 293.584 308.557 287.658 306.191 281.007C304.786 277.057 302.466 274.207 298.644 272.233C293.429 269.54 286.426 273.399 281.043 275.576C271.162 267.05 255.961 250.434 246.463 240.667L189.67 182.941L75.0359 67.8454C65.0673 57.7903 54.78 48.16 44.9633 37.9974C108.736 37.0087 173.073 37.7682 236.899 37.4003C265.333 37.1462 293.767 37.053 322.201 37.1208C333.866 37.1166 350.133 36.4266 361.382 37.0783C363.902 37.0687 370.327 37.1956 372.528 36.9174Z"/><path fill="white" d="M361.382 37.0783C363.902 37.0687 370.327 37.1956 372.528 36.9174C394.665 54.0265 416.655 71.3261 438.494 88.8142C451.054 98.9165 463.17 109.284 475.896 119.552C484.534 126.52 495.907 135.215 504.714 142.501C505.308 142.992 506.438 146.342 506.771 147.289C515.335 148.644 517.087 153.111 518.867 160.934C517.184 166.75 512.025 173.432 506.818 176.612C500.442 176.934 497.116 176.07 492.063 171.704C484.795 165.425 478.898 157.676 472.154 150.935C462.217 141.004 452.776 130.725 443 120.635L393.139 69.6226C382.657 58.9826 371.444 48.0342 361.382 37.0783Z"/><path d="M502.516 158.583C503.452 159.039 503.229 158.978 504.012 159.748C504.252 161.578 504.107 161.14 503.353 163.094L502.152 162.11C501.495 160.469 501.808 160.777 502.516 158.583Z"/><path fill="white" d="M482.847 37.3455C486.209 37.4298 488.741 37.4719 492.091 37.2512C498.138 43.7548 508.315 56.4351 514.132 63.6421L519.955 71.0419C528.59 80.7665 536.778 91.0261 544.785 101.277C552.3 110.899 558.93 112.896 556.666 125.904C554.78 125.863 552.64 125.527 551.165 126.534C551.05 126.961 550.756 127.954 550.696 128.353C550.269 137.025 536.623 138.975 532.774 132.601C523.175 116.706 515.882 99.4183 506.794 83.1915C498.388 68.1822 490.62 52.6841 482.847 37.3455Z"/><path fill="white" d="M336.307 213.861C346.594 215.252 366.897 224.111 376.969 227.916L408.544 239.521C420.697 244.037 432.885 248.141 444.808 253.278C458.612 259.224 454.394 265.586 449.505 276.534C449.282 276.868 449.053 277.198 448.818 277.524C445.849 281.626 440.848 282.742 436.423 280.196C429.307 276.101 422.422 271.163 415.596 266.57L382.144 244.228C368.224 234.851 349.236 223.652 336.307 213.861Z"/><path fill="white" d="M370.886 154.364C372.911 154.697 389.222 162.273 392.071 163.548L427.026 178.889C442.679 185.802 458.563 192.246 474.26 199.051C486.41 204.318 484.053 209.666 479.04 219.812C475.246 223.744 471.873 224.649 467.039 221.604C456.796 215.152 446.817 208.136 437.052 200.98L408.053 180.164C400.828 175.025 393.534 169.984 386.174 165.041C381.524 161.918 374.999 157.907 370.886 154.364Z"/><path fill="white" d="M347.547 309.661C357.817 308.582 370.379 310.195 380.9 310.289C394.088 310.477 407.294 310.835 420.475 311.118C429.859 311.318 434.778 315.868 430.032 325.17C428.78 326.626 426.537 328.994 424.681 329.396C424.024 329.538 423.657 329.617 423.002 329.446C417.228 327.93 409.687 325.396 404.111 324.115C396.404 322.343 351.271 312.197 347.547 309.661Z"/><path d="M332.974 115.347C334.46 114.902 336.028 115.731 336.495 117.21C336.963 118.688 336.157 120.268 334.685 120.758C333.714 121.081 332.643 120.856 331.884 120.168C331.125 119.481 330.796 118.438 331.022 117.439C331.247 116.441 331.994 115.641 332.974 115.347Z"/><path fill="#0047AB" d="M482.635 269.852C483.667 270.676 483.307 270.178 483.598 271.458C482.175 273.328 478.395 275.625 476.096 276.334C476.389 274.208 476.469 274.126 477.562 272.23C479.063 271.362 479.444 271.455 481.109 271.429L482.635 269.852Z"/><path d="M269.36 85.1421C271.327 85.2513 271.975 85.635 273.151 87.1815C273.393 89.1803 273.579 88.2686 272.57 90.0132C270.289 90.1204 269.439 90.4769 267.995 88.597C268.032 86.8189 268.352 86.584 269.36 85.1421Z"/><path d="M154.171 55.5705L155.477 55.9834C157.051 57.6984 157.852 58.7208 156.788 60.9737C154.413 60.8605 154.549 60.9332 153.278 59.6828C153.013 57.8212 153.426 57.2899 154.171 55.5705Z"/><path d="M280.422 114.256C281.159 113.882 282.041 113.939 282.724 114.405C283.407 114.871 283.781 115.672 283.701 116.494C283.621 117.317 283.099 118.03 282.34 118.356C281.217 118.838 279.914 118.341 279.396 117.234C278.878 116.127 279.332 114.809 280.422 114.256Z"/><path d="M542.412 518.417C544.098 519.791 544.936 520.144 545.338 521.934L544.207 523.472C543.387 523.468 542.567 523.459 541.747 523.444L541.218 522.609C541.605 521.208 542.002 519.811 542.412 518.417Z"/><path d="M172.414 115.027C174.329 114.824 174.837 114.632 176.65 115.352C177.677 117.005 177.408 116.085 177.138 118.288C175.852 118.6 175.933 118.561 174.626 118.285C173.207 117.265 173.102 116.627 172.414 115.027Z"/><path d="M190.349 72.8507C191.454 73.8451 192.298 74.3791 193.508 75.226L193.365 75.8629L191.094 76.6395C190.302 77.0879 190.573 76.8601 189.236 76.5952C188.306 75.376 188.59 76.073 188.587 74.3567L190.349 72.8507Z"/><path d="M469.759 87.2394C468.693 86.6513 469.028 86.8768 468.171 85.9931C468.238 83.3363 470.013 81.9435 472.576 81.6544C471.964 83.9397 470.793 83.6345 470.294 86.4315L469.759 87.2394Z"/><path fill="#0047AB" d="M226.913 172.723L227.787 172.628C228.024 174.376 228.241 176.411 227.198 177.923L226.808 177.263C226.139 174.256 226.391 175.028 223.757 173.584C224.286 172.859 225.693 172.918 226.913 172.723Z"/><path fill="#030C4F" d="M243.802 144.416C248.413 147.199 248.614 143.429 252.187 145.172L252.125 146.38C249.217 144.793 248.477 146.699 245.304 147.215C243.954 146.298 244.37 146.473 243.802 144.416Z"/><path d="M163.341 48.6444C164.423 48.8223 164.823 48.9909 165.875 49.3228C166.999 50.8525 166.673 49.9909 166.656 52.0719C164.94 52.1596 164.676 52.278 163.002 51.7933C162.424 50.327 162.704 50.5953 163.341 48.6444Z"/><path fill="#0047AB" d="M117.748 52.3694C120.104 53.2321 122.413 53.9299 124.805 54.6724L124.875 55.6279C122.965 55.0725 120.585 54.9068 118.593 54.7618C117.444 53.6324 117.849 54.3389 117.748 52.3694Z"/><path fill="#062485" d="M185.889 142.185C186.795 142.845 187.282 143.292 188.112 144.051C187.378 144.468 186.737 144.805 185.981 145.183L185.196 147.94L185.527 148.794L185.079 148.535L185.508 149.528L185.226 149.707L184.776 149.106C184.337 146.368 184.746 144.676 185.889 142.185Z"/><path d="M317.197 147.708C317.956 147.181 318.995 147.339 319.561 148.069C320.128 148.798 320.025 149.844 319.327 150.449C318.841 150.87 318.162 150.988 317.562 150.757C316.962 150.525 316.539 149.98 316.463 149.342C316.386 148.703 316.669 148.075 317.197 147.708Z"/><path d="M233.334 186.488C236.493 186.401 237.338 186.915 238.199 189.706C235.626 189.314 234.31 188.986 233.334 186.488Z"/><path d="M425.243 161.191C427.358 162.29 426.926 164.619 425.983 166.466L424.56 164.936C424.123 162.935 424.309 163.48 425.243 161.191Z"/><path d="M318.735 265.999C319.538 265.668 320.461 266.017 320.844 266.797C321.227 267.577 320.938 268.52 320.185 268.953C319.652 269.259 318.993 269.243 318.475 268.912C317.957 268.581 317.667 267.989 317.722 267.377C317.776 266.765 318.167 266.234 318.735 265.999Z"/><path d="M556.873 530.21C557.338 529.823 557.98 529.729 558.536 529.967C559.092 530.204 559.468 530.734 559.509 531.337C559.551 531.94 559.25 532.516 558.732 532.827C558.011 533.26 557.078 533.065 556.591 532.379C556.104 531.693 556.227 530.748 556.873 530.21Z"/><path d="M194.524 49.8565L195.533 50.4724C196.46 52.6224 196.321 54.4141 195.846 56.6312L194.877 55.9355C194.848 53.7027 194.744 52.08 194.524 49.8565Z"/><path d="M398.095 161.974C401.464 162.072 401.678 162.193 402.988 165.061C400.286 164.565 399.685 164.032 398.095 161.974Z"/><path d="M419.61 101.356C420.221 101.579 420.155 101.686 420.672 102.249C420.128 103.866 420.183 103.426 418.578 104.685L417.308 103.926L417.293 103.191L419.61 101.356Z"/><path fill="#062485" d="M244.79 201.703L245.783 202.237C246.831 203.616 246.643 205.452 246.705 207.26C245.312 205.2 245.226 204.134 244.79 201.703Z"/><path d="M200.309 131.188L201.462 131.794C202.082 133.176 201.775 132.952 201.112 134.875L200.29 134.989L199.75 134.424L200.309 131.188Z"/><path d="M242.7 223.285C244.863 223.618 244.875 223.922 245.404 225.807C243.477 225.38 243.309 225.66 242.042 224.532L242.7 223.285Z"/><path fill="#0047AB" d="M499.201 184.834C501.129 186.215 501.66 187.572 502.589 189.74C500.454 188.814 499.836 186.904 499.201 184.834Z"/><path fill="#0047AB" d="M596.066 357.887C597.524 358.188 598.728 358.593 599.439 359.926L598.917 360.219C597.167 359.794 597.52 359.62 596.066 357.887Z"/><path fill="#030C4F" d="M459.937 51.4595C461.588 52.8334 461.743 52.8865 462.689 54.7543C461.234 54.2491 460.554 54.1684 459.552 52.9962L459.937 51.4595Z"/><path fill="#062485" d="M524.539 482.066L525.053 483.022C524.11 483.979 523.454 483.706 521.722 483.897L521.347 483.452L521.633 482.757L524.539 482.066Z"/><path fill="#030C4F" d="M376.362 215.775C377.091 217.238 377.577 218.772 376.95 220.345C375.526 218.053 375.315 218.051 376.362 215.775Z"/><path fill="#030C4F" d="M120.102 45.3699C121.422 46.4764 121.295 48.0137 121.418 49.6316L120.551 49.3701C119.638 47.9807 120.036 47.4262 120.102 45.3699Z"/><path fill="#030C4F" d="M555.591 184.59L556.472 184.506C557.566 185.906 557.247 185.926 557.556 187.969C556.586 186.866 555.593 185.902 555.591 184.59Z"/><path fill="#062485" d="M202.915 166.947C204.261 167.045 206.045 167.509 206.941 168.569C205.163 169.068 204.225 167.998 202.915 166.947Z"/><path fill="#0047AB" d="M470.294 86.4315C471.861 87.341 472.254 87.2281 473.062 88.5822C471.429 88.5438 471.306 88.1726 469.759 87.2394L470.294 86.4315Z"/><path fill="#062485" d="M555.406 381.929C556.666 383.3 556.21 383.781 555.801 385.364L554.907 385.399C554.371 384.426 555.001 383.397 555.406 381.929Z"/><path fill="#0047AB" d="M234.122 97.8352C234.636 98.365 234.382 98.0059 234.677 99.0331L233.315 101.075L232.908 100.829C232.912 99.1868 233.082 99.4891 234.122 97.8352Z"/><path fill="#0047AB" d="M126.427 54.359C127.85 55.2782 128 56.1764 128.641 57.766C126.642 57.078 126.938 56.31 126.427 54.359Z"/><path fill="#05042A" d="M376.801 72.7261L377.279 72.5372L378.015 72.9391L378.639 75.1433C376.953 74.3564 377.048 74.316 376.801 72.7261Z"/><path fill="#062485" d="M264.163 167.206L264.574 167.565L264.224 171.254C263.638 169.541 263.263 168.739 264.163 167.206Z"/><path fill="#0047AB" d="M521.529 445.305C522.171 445.095 521.822 445.103 522.57 445.435L522.394 447.333L521.699 447.221L521.529 445.305Z"/><path fill="#0047AB" d="M223.093 167.9C224.433 167.917 223.844 167.731 224.839 168.604C224.023 169.005 224.343 168.872 223.331 168.842L223.093 167.9Z"/><path fill="#0047AB" d="M279.145 228.874C279.987 230.176 279.734 229.449 279.517 231.222C278.896 231.407 279.215 231.424 278.57 231.081L279.145 228.874Z"/><path fill="#0047AB" d="M221.478 200.567C222.633 200.475 222.854 200.504 224.015 200.627L224.373 201.553C223.284 201.634 222.632 201.094 221.478 200.567Z"/><path fill="#0047AB" d="M558.252 377.823L559.777 377.531L559.84 378.181L558.225 378.492L558.252 377.823Z"/><path fill="white" d="M608.898 137.429L609.487 137.529C631.538 141.436 651.504 166.118 663.672 183.46C749.607 211.661 784.797 292.61 793.342 376.739C797.81 420.725 794.161 460.894 788.48 504.377L784.556 536.866C776.553 544.008 769.759 547.598 760.307 552.625C723.429 572.239 683.416 582.763 642.529 589.967C631.432 591.922 620.567 592.604 609.693 594.468C609.547 594.393 588.442 572.529 586.742 570.591C586.271 559.866 584.863 549.486 584.941 538.68C585.254 495.17 597.12 464.825 617.004 426.943C622.47 416.53 628.397 406.389 633.678 395.873C646.649 369.931 652.31 357.079 658.859 329.17C691.002 304.204 693.335 268.186 671.262 235.208C677.315 259.313 684.826 278.073 672.17 302.298C660.041 326.623 634.147 328.965 610.159 332.472C587.902 335.726 570.326 344.556 553.099 359.101C548.325 363.124 543.853 367.493 539.718 372.171C537.188 375.083 534.401 379.076 531.594 381.616C524.421 388.108 511.966 384.127 504.656 379.888C510.283 375.554 516.73 371.645 522.42 367.367C525.827 364.806 535.1 361.682 529.986 356.399C523.306 355.333 498.079 375.083 491.862 379.978C472.137 395.507 476.238 355.804 473.052 346.112C471.22 340.539 466.379 335.77 464.282 328.824C469.028 321.628 483.222 316.413 491.165 307.031C503.67 292.834 523.685 265.401 527.154 246.739C532.231 219.422 520.444 224.589 550.377 209.615L577.112 196.182C587.77 190.77 600.513 182.98 611.053 178.585C608.126 170.057 605.03 145.733 608.898 137.429Z"/><path d="M649.839 417.928C650.046 418.185 650.367 419.053 650.286 419.263C634.583 459.763 622.145 502.504 624.317 546.389C624.799 556.119 624.579 563.699 628.174 573.183C623.565 574.331 617.911 574.748 613.118 575.252L612.458 575.373C610.47 573.415 609.593 561.35 609.343 558.206C606.276 519.549 616.519 477.039 634.338 442.705C638.726 434.25 643.526 425.216 649.839 417.928Z"/><path d="M672.705 210.07C685.582 216.64 693.665 220.879 705.599 229.773C736.369 252.706 756.592 289.033 768.234 325.015C772.1 336.964 774.511 353.849 776.239 366.064C775.944 367.033 775.715 367.996 775.266 368.889C762.292 322.507 747.69 282.954 710.855 249.642C698.768 238.711 680.844 224.212 672.705 210.07Z"/><path d="M604.969 242.591L605.479 242.625L605.796 243.154C601.514 253.245 579.468 257.114 576.974 260.277C576.539 262.985 576.568 267.861 580.061 268.625C587.415 270.232 592.536 256.548 595.652 254.731C602.46 267.398 575.677 281.703 567.733 276.104C568.259 274.153 570.472 274.31 572.497 271.726L572.228 270.885L569.878 269.828C567.993 271.886 561.247 277.038 558.472 275.475C558.32 273.803 559.418 272.482 560.324 270.942C554.15 277.888 549.763 283.008 541.44 287.316C541.95 286.275 542.485 285.246 543.043 284.23C546.909 277.353 559.565 262.879 565.336 257.095C573.542 248.872 593.419 245.761 604.969 242.591Z"/><path d="M663.795 265.188C664.615 265.526 664.422 265.521 665.103 266.229C666.095 269.159 665.499 274.899 664.939 277.997C660.515 302.499 632.023 320.904 607.883 315.678C606.327 315.577 605.71 315.806 604.599 315.068C606.414 313.816 618.335 312.226 621.46 311.181C645.247 303.232 658.127 290.071 663.795 265.188Z"/><path d="M590.354 224.737C599.337 225.315 607.212 227.209 614.842 232.446C616.019 233.254 615.813 233.196 615.913 234.263C614.011 234.851 609.795 233.417 607.358 233.144C590.397 231.248 581.194 230.306 567.433 240.39C562.057 245.662 556.443 250.686 550.609 255.445C552.168 251.408 553.364 249.585 555.651 246.074C564.269 232.842 574.395 225.517 590.354 224.737Z"/><path d="M498.159 323.601C500.555 323.381 503.206 323.033 504.918 325.091C509.436 330.521 502.804 332.581 499.45 335.421C498.273 336.417 496.853 339.221 496.122 340.707C494.696 343.6 493.789 344.59 491.309 346.68C478.527 349.819 480.723 330.451 498.159 323.601Z"/><path fill="white" d="M497.852 331.35L498.565 331.53C498.584 332.939 493.57 338.242 492.316 339.692L491.364 339.341L491.222 338.36C492.824 335.145 495.042 333.451 497.852 331.35Z"/><path d="M620.058 153.32C632.319 157.624 642.006 182.868 645.095 194.276C643.663 192.486 642.628 190.704 641.423 188.762C637.557 182.123 630.574 172.458 625.558 166.796L623.199 172.716C621.349 165.643 617.84 161.552 620.058 153.32Z"/><path d="M727.981 441.273C731.531 441.972 733.363 442.909 734.086 446.515C730.519 445.551 728.544 445.3 727.981 441.273Z"/><path d="M757.26 449.7L758.993 450.104C759.391 451.623 758.472 452.592 757.603 454.327C755.614 453.83 756.331 454.359 755.185 452.995C755.36 451.539 756.256 450.836 757.26 449.7Z"/><path d="M742.105 479.16C744.835 479.92 745.471 480.338 746.637 482.947C745.176 483.379 745.161 483.532 743.724 483.178C742.464 482.092 742.456 480.851 742.105 479.16Z"/><path d="M774.16 424.736C775.464 425.33 775.392 425.324 776.429 426.334C776.626 428.299 776.595 427.647 775.671 429.665C774.936 429.133 774.177 428.524 773.453 427.967C773.066 426.295 773.265 426.704 774.16 424.736Z"/><path d="M765.698 501.052C766.486 500.865 767.289 501.3 767.563 502.063C767.837 502.825 767.494 503.672 766.767 504.029C766.218 504.298 765.564 504.23 765.084 503.852C764.603 503.475 764.38 502.856 764.511 502.259C764.642 501.663 765.104 501.194 765.698 501.052Z"/><path d="M715.277 541.223L716.561 541.949C717.693 543.832 717.657 544.023 718.012 546.249C715.359 544.801 715.16 544.036 715.277 541.223Z"/><path d="M698.683 558.841C699.492 559.021 699.984 559.259 700.76 559.559C701.699 561.206 701.431 560.601 701.294 562.777C698.986 561.633 699.031 561.198 698.683 558.841Z"/><path d="M663.858 496.94C664.442 496.471 665.296 496.558 665.772 497.137C666.248 497.716 666.17 498.57 665.597 499.053C665.22 499.37 664.702 499.461 664.24 499.29C663.778 499.119 663.444 498.712 663.365 498.226C663.286 497.74 663.474 497.249 663.858 496.94Z"/><path d="M702.346 419.071C705.117 418.918 705.177 418.797 706.912 420.954C704.312 421.109 703.994 420.855 702.346 419.071Z"/><path d="M776.239 366.064L776.981 374.779C776.27 372.718 775.602 371.052 775.266 368.889C775.715 367.996 775.944 367.033 776.239 366.064Z"/><path d="M781.784 425.329L782.468 426.258C781.939 427.433 781.789 427.696 781.602 428.935L781.48 429.791C780.481 428.135 780.329 428.45 780.314 426.795L781.784 425.329Z"/><path fill="white" d="M627.02 136.243C642.549 137.972 658.721 139.167 673.915 142.827C765.024 164.773 824.324 229.869 838.589 322.132C845.167 366.712 841.24 412.213 827.12 455.007C823.737 465.234 818.8 478.309 812.509 486.888L811.681 487.591C807.79 492.205 802.761 498.215 797.835 501.651C799.367 488.095 802.36 474.218 803.289 460.751C810.122 361.696 793.579 240.794 697.811 187.835C689.251 183.101 680.053 180.075 671.753 175.566C670.358 174.809 664.112 165.981 662.641 164.334C652.526 152.933 640.464 143.422 627.02 136.243Z"/><path d="M829.276 329.099C830.139 329.375 829.963 329.35 830.74 329.87C833.912 340.218 817.07 368.973 812.958 378.356L812.781 378.77C804.202 371.181 825.347 337.55 829.276 329.099Z"/><path d="M835.176 361.809C835.977 362.498 836.609 363.315 836.494 364.426C834.921 379.522 823.814 399.448 813.884 410.691C805.741 406.306 829.361 375.682 831.373 369.676C832.106 367.488 834.016 363.771 835.176 361.809Z"/><path d="M822.1 290.297C824.072 292.187 823.574 297.607 823.363 300.253C822.156 315.344 816.455 327.775 809.988 341.168L809.786 340.588C805.377 327.623 812.56 314.634 817.359 302.918C819.078 298.721 820.079 294.354 822.1 290.297Z"/><path d="M788.961 218.664C791.145 219.395 792.136 222.384 792.876 224.502C797.15 236.75 795.98 252.606 790.634 264.296C790.089 265.12 789.505 265.894 788.923 266.69L788.222 266.723C785.731 259.01 788.425 242.911 788.633 234.179C788.735 229.941 788.667 222.537 788.961 218.664Z"/><path d="M809.438 255.102L810.657 256.091C815.535 270.889 809.706 287.221 803.989 301.101L803.172 300.677C798.543 290.431 806.585 266.624 809.438 255.102Z"/><path d="M754.974 187.656C756.444 188.346 758.653 191.3 759.553 192.741C767.435 205.365 766.917 211.993 764.581 225.401L763.808 226.317L763.236 225.951C760.43 219.982 753.778 193.372 754.974 187.656Z"/><path d="M730.632 171.625C732.05 172.284 734.764 175.444 735.807 176.802C742.865 185.991 743.575 196.758 742.345 207.736C737.681 204.709 730.063 177.492 730.632 171.625Z"/><path d="M776.131 208.27C785.69 213.129 783.279 232.194 779.561 240.463C778.393 241.848 777.758 243.031 776.294 243.394C775.424 240.75 775.65 212.406 776.131 208.27Z"/><path d="M832.715 411.356L833.266 412.295C831.807 421.836 819.556 439.815 813.029 446.627C808.671 441.354 827.961 415.251 832.715 411.356Z"/><path d="M709.277 159.805C720.544 164.476 721.754 181.365 721.357 191.616L719.833 191.352C715.145 186.482 710.277 166.675 709.277 159.805Z"/><path d="M686.033 153.957C692.928 155.978 705.294 169.376 703.71 176.079C696.556 175.948 693.614 170.201 690.824 164.426C689.198 161.063 687.073 157.516 686.033 153.957Z"/><path fill="white" d="M822.598 563.897C837.451 567.628 865.141 582.749 866.927 600.512C868.614 617.292 843.61 631.767 830.563 638.829C790.329 660.608 745.566 675.219 701.132 685.602C700.075 685.85 699.936 685.288 699.125 684.583C688.505 672.821 675.955 661.999 665.05 650.446C660.51 645.635 655.864 640.864 651.254 636.119C656.104 634.613 664.159 633.321 669.325 632.317C678.131 630.624 686.9 628.742 695.626 626.672C713.166 622.434 730.406 617.041 747.234 610.525C777.13 599.019 800.468 588.09 822.598 563.897Z"/><path fill="white" d="M895.791 616.839C897.405 618.405 906.525 649.445 907.857 653.986C878.625 686.661 824.841 707.877 784.362 723.247C773.464 727.385 761.085 731.013 749.891 735.097C746.558 732.084 744.177 729.598 741.101 726.299C734.77 719.124 727.493 712.189 720.555 705.617C726.855 703.26 739.845 700.349 747.164 698.192C762.143 693.777 777.373 688.518 791.972 683.139C819.585 672.966 883.198 644.024 895.791 616.839Z"/><path fill="white" d="M793.329 537.404C801.662 539.36 813.955 544.649 815.135 553.196C817.458 570.026 776.478 589.974 765.188 595.002C726.341 612.301 686.611 622.36 644.901 629.102C644.418 628.8 643.936 628.498 643.453 628.195C635.476 620.406 626.529 610.652 618.755 602.528C667.242 597.373 716.643 586.399 760.276 564.02C772.03 557.992 789.063 550.383 793.329 537.404Z"/><path fill="white" d="M402.183 473.693C408.839 473.01 411.767 478.151 410.732 484.262C409.888 489.244 407.441 491.612 403.57 494.481C407.737 504.193 411.388 509.389 418.415 517.366C420.731 519.995 416.217 525.023 413.423 523.576C409.889 521.748 406.549 516.134 404.519 512.887C401.827 508.58 401.999 507.727 403.155 503.452L402.757 503.152C400.777 503.588 379.693 514.241 376.053 515.932C360.103 523.343 349.789 527.222 332.817 531.349C336.106 538.577 339.264 545.863 342.29 553.205C337.314 556.547 336.68 556.764 330.761 557.647C330.384 554.718 330.407 551.007 330.162 547.954C329.423 538.721 325.348 534.367 321.116 526.854C333.261 524.142 354.576 516.229 366.145 511.384C374.381 508.088 393.583 499.279 400.59 494.534C402.603 489.246 403.123 485.111 403.952 479.506L318.61 513.27C316.989 513.901 317.287 513.542 316.772 514.691C318.139 517.946 320.349 519.77 321.953 523.3C312.089 521.763 307.995 521.703 304.438 511.277C314.039 508.44 324.743 503.383 334.139 499.55C350.791 492.825 367.539 486.339 384.377 480.092C390.764 477.777 395.502 474.929 402.183 473.693Z"/><path fill="white" d="M876.621 600.146C880.304 600.708 892.445 606.86 894.402 609.227C894.387 610.416 894.158 611.267 893.541 612.272C869.852 650.873 767.667 686.976 724.113 697.08C720.693 697.928 716.869 698.537 713.373 699.166C711.234 697.194 709.322 695.084 707.334 692.962C749.879 683.962 794.551 666.82 832.859 646.238C851.623 636.157 876.14 624.115 876.621 600.146Z"/><path fill="white" d="M456.481 520.221C465.356 527.984 443.738 543.775 438.23 547.464C400.397 572.802 355.637 591.312 309.952 594.994C305.8 595.329 301.557 595.192 298.279 592.386C297.358 589.567 296.162 585.461 298.144 582.906C300.321 583.038 301.538 584.833 303.517 585.668C314.967 590.501 356.669 577.882 368.65 573.403C394.595 563.703 420.529 552.292 442.496 535.142C447.997 530.848 453.531 526.726 456.481 520.221Z"/><path fill="white" d="M437.696 513.688C439.783 513.298 445.436 513.028 446.803 514.639C444.119 517.562 435.941 522.768 432.479 525.285C411.723 540.379 390.454 551.809 366.107 560.069C348.043 566.197 330.159 572.734 311.112 575.951C309.113 576.234 306.923 576.798 305.299 575.73C305.73 574.618 321.505 564.164 323.895 562.597L324.028 563.86C325.393 564.204 325.337 560.907 328.503 559.751C329.244 560.529 329.394 560.643 330.269 561.274C355.48 558.099 387.127 542.917 409.581 531.243C418.148 526.79 421.191 526.738 423.994 517.485C426.878 514.749 433.822 514.141 437.696 513.688Z"/><path fill="white" d="M376.048 617.702C377.297 618.108 378.514 618.508 379.487 619.431C380.9 620.771 381.503 622.957 382.096 624.763C385.6 635.424 411.313 727.803 410.816 734.196C410.699 735.695 409.253 736.611 408.176 737.503C403.716 737.469 403.29 734.784 402.233 731.178C400.387 724.877 398.896 718.464 397.172 712.127C391.823 692.815 386.637 673.458 381.614 654.059C379.06 644.576 374.602 632.392 373.24 622.459C372.973 620.508 374.683 618.898 376.048 617.702Z"/><path fill="white" d="M565.401 133.776C572.069 135.44 594.817 142.161 600.08 144.963C600.411 154.247 601.362 163.498 602.927 172.656L598.33 175.179C595.524 176.473 592.116 178.331 589.307 179.759C582.061 158.884 577.046 151.726 565.401 133.776Z"/><path fill="white" d="M299.942 486.554C299.068 486.519 298.196 486.455 297.326 486.362C282.295 484.753 262.634 477.651 253.484 464.917C233.023 436.445 259.314 412.715 280.688 396.3C281.408 398.888 282.267 401.001 283.232 403.493C281.84 404.414 278.077 406.597 277.039 407.457C267.216 415.459 254.789 429.584 252.838 442.67C249.287 466.479 288.552 483.096 306.439 485.691L306.531 486.563C304.371 486.484 302.112 486.54 299.942 486.554Z"/><path fill="white" d="M350.273 375.707C359.736 374.044 378.845 378.617 387.333 383.882C395.463 388.462 402.421 396.851 404.866 405.984C409.983 425.095 395.47 453.138 375.984 458.399L375.992 457.856L377.333 456.69C387.685 448.59 397.919 431.631 399.431 418.513C402.689 390.25 368.59 381.005 346.728 380.442C344.622 380.387 340.346 379.742 339.003 378.109C340.697 375.958 347.47 375.915 350.273 375.707Z"/><path fill="white" d="M320.83 376.09C324.541 375.946 329.437 376.773 333.068 377.453C334.441 380.354 334.806 381.654 335.693 384.715C328.713 398.728 302.402 412.321 288.249 403.856C285.564 398.703 286.697 395.107 287.999 389.775C289.697 388.973 291.755 387.739 293.487 388.219C294.967 390.334 294.181 393.718 293.924 396.519C304.277 396.027 320.157 393.268 325.86 383.5C324.663 380.357 319.376 379.922 320.83 376.09Z"/><path fill="white" d="M295.226 413.566C308.55 412.645 308.063 421.857 302.971 431.885C300.722 436.316 296.912 439.503 292.073 440.857C275.714 443.496 280.41 419.524 295.226 413.566Z"/><path fill="white" d="M418.205 882.862C428.269 884.778 430.383 904.018 425.089 911.246C420.109 911.511 417.81 907.343 416.703 902.981C414.941 896.039 414.568 889.328 418.205 882.862Z"/><path fill="white" d="M409.773 749.321C416.95 750.151 418.154 761.045 418.245 766.957C418.268 768.508 416.686 769.704 415.567 770.646C410.258 770.214 408.511 761.495 407.99 757.2C407.536 753.462 407.449 752.276 409.773 749.321Z"/><path fill="#69696D" d="M306.439 485.691C308.925 485.792 311.223 485.769 313.643 486.337L312.75 486.596C309.582 487.407 303.211 487.067 299.942 486.554C302.112 486.54 304.371 486.484 306.531 486.563L306.439 485.691Z"/><path fill="#BEBEC1" d="M306.439 485.691C308.925 485.792 311.223 485.769 313.643 486.337L312.75 486.596L306.531 486.563L306.439 485.691Z"/><path fill="#69696D" d="M387.927 457.867C389.357 458.962 391.409 465.102 392.231 467.189C389.871 465.08 388.632 460.833 387.927 457.867Z"/><path d="M17.0532 286.302C20.3497 286.159 22.7213 286.408 23.8315 289.965C23.2963 292.234 23.8058 291.264 22.2468 292.992C20.6839 293.616 20.7068 293.769 19.0899 293.514C16.0822 291.488 16.2066 289.613 17.0532 286.302Z"/><path d="M365.843 10.991C367.322 12.6207 367.64 13.0084 366.843 14.9467C363.861 16.7277 361.356 16.6856 358.342 15.4441C356.984 14.2749 357.028 14.2214 356.148 12.7519L356.514 12.0741C361.241 12.7442 362.558 14.641 365.843 10.991Z"/><path d="M14.8065 314.27C17.4394 314.533 18.8795 314.312 19.9384 316.925C19.7078 318.746 19.068 319.181 17.8431 320.56C16.3867 321.007 16.7955 320.888 15.2181 320.927C12.367 319.202 13.4956 316.727 14.8065 314.27Z"/><path d="M736.126 1017.12C737.221 1018.08 737.555 1018.14 738.973 1018.46C740.488 1019.94 740.343 1019.21 740.4 1020.68C739.232 1022.13 737.997 1022.2 736.153 1022.68L735.698 1023.4C733.736 1023.01 733.107 1022.99 732.633 1021.14C733.538 1018.78 734.054 1018.88 736.126 1017.12Z"/><path d="M265.686 1003.93C267.229 1003.15 269.118 1003.73 269.952 1005.25C270.785 1006.76 270.26 1008.67 268.767 1009.55C267.761 1010.14 266.513 1010.14 265.509 1009.54C264.505 1008.95 263.904 1007.85 263.941 1006.68C263.978 1005.52 264.647 1004.46 265.686 1003.93Z"/><path d="M20.7062 143.373C22.379 143.321 23.8014 144.584 23.9485 146.251C24.0957 147.918 22.9165 149.41 21.2606 149.652C20.1019 149.822 18.9446 149.336 18.254 148.39C17.5634 147.444 17.4531 146.194 17.9673 145.142C18.4815 144.09 19.5358 143.409 20.7062 143.373Z"/><path d="M19.807 403.632C21.3842 404.302 22.3385 404.553 22.5336 406.279C18.6743 411.138 22.5567 408.534 22.886 414.256C20.9019 414.197 20.0549 413.995 18.72 412.561C18.4258 410.251 19.482 406.72 19.807 403.632Z"/><path d="M7.13619 767.272C9.74836 767.454 10.0564 767.271 11.6002 769.43C11.9384 771.443 11.6522 771.897 11.0651 773.935C10.0913 773.984 9.47383 773.929 8.50047 773.878C5.59948 771.917 6.02571 770.29 7.13619 767.272Z"/><path d="M756.44 1003.57C759.47 1007.79 761.903 1004.12 764.052 1007.2L763.758 1007.1L763.375 1008.02C763.32 1008.67 763.19 1008.83 762.957 1009.46C761.271 1010.23 758.724 1009.96 756.781 1009.93C756.845 1007.47 756.679 1005.99 756.44 1003.57Z"/><path d="M14.2714 675.615C16.9101 676.683 20.4224 675.595 20.8355 678.327L19.991 679.358C17.6679 679.813 16.4992 681.437 13.5911 679.401C13.1458 677.439 13.3808 677.884 14.2714 675.615Z"/><path d="M828.876 1012.76C831.453 1013.87 834.701 1015.56 833.821 1018.75C832.602 1019.22 832.256 1019.23 830.949 1019.44C827.549 1018.19 828.287 1015.79 828.876 1012.76Z"/><path d="M1009.2 320.853C1010.52 321.152 1010.71 321.676 1011.61 322.758C1011.57 326.272 1010.68 324.083 1011.74 327.918C1009.21 327.078 1006.85 326.916 1006.28 324.13C1007.05 322.315 1007.65 322.05 1009.2 320.853Z"/><path d="M649.131 1013.75C651.738 1013.92 652.275 1013.66 653.243 1016.16C652.994 1018.23 652.716 1018.45 651.572 1020.29C648.364 1019.5 647.727 1016.5 649.131 1013.75Z"/><path fill="white" d="M539.393 1016.82C540.35 1015.2 540 1014.54 539.824 1012.48L540.546 1011.63L541.778 1011.6C543.103 1012.49 543.211 1013.06 543.878 1014.5L543.239 1016.01C542.626 1017.91 543.012 1017.68 541.712 1018.77C539.988 1018.16 540.808 1018.57 539.393 1016.82Z"/><path d="M543.239 1016.01C542.626 1017.91 543.012 1017.68 541.712 1018.77C539.988 1018.16 540.808 1018.57 539.393 1016.82C540.768 1016.58 541.894 1016.33 543.239 1016.01Z"/><path d="M597.289 1009.26C601.683 1009.57 603.408 1009.82 604.991 1013.98C600.356 1013.64 598.761 1014.1 597.289 1009.26Z"/><path d="M8.30679 452.327C10.9027 452.421 11.5267 452.245 12.9582 454.524C12.5666 456.585 12.9081 455.827 11.122 457.419C10.2185 457.037 10.4682 457.097 9.71293 456.902L7.92391 456.443C7.2898 454.757 7.76555 454.497 8.30679 452.327Z"/><path d="M18.4301 625.348C19.5672 626.103 20.1448 627.076 20.6009 628.301C20.2391 630.485 20.4249 629.75 18.7175 631.633C16.8577 630.192 15.8687 629.55 15.4788 627.305C16.4912 625.746 16.3254 626.198 18.4301 625.348Z"/><path d="M723.411 14.3842C724.882 15.4078 725.145 15.5237 726.392 16.8745C726.482 18.848 726.112 18.7221 724.968 20.7847C724.434 20.8554 723.928 20.746 723.365 20.6842C721.074 18.6559 721.771 16.5451 723.411 14.3842Z"/><path d="M9.18736 711.847C10.4006 711.12 11.9739 711.515 12.6997 712.729C13.4254 713.943 13.0282 715.516 11.813 716.24C10.6001 716.963 9.0311 716.567 8.30677 715.355C7.58244 714.143 7.9765 712.573 9.18736 711.847Z"/><path d="M13.1176 406.339C14.1626 407.2 14.6986 407.921 14.8006 409.354C14.9782 411.691 14.2018 414.001 12.6485 415.756C13.0998 412.87 12.3605 412.416 11.2637 409.745C11.5428 407.624 11.4901 408.256 13.1176 406.339Z"/><path d="M6.4844 247.797C8.25355 247.966 8.90301 247.89 10.431 248.831C11.392 250.298 11.0888 251.168 10.9181 252.945C9.1047 252.711 8.04862 252.761 6.57585 251.687C5.81659 250.151 6.14335 249.495 6.4844 247.797Z"/><path d="M499.225 16.8437C500.983 16.8919 501.11 16.7982 502.785 17.4794C504.064 19.2496 503.665 18.864 503.956 21.3393C502.337 21.6983 501.884 21.9292 500.274 21.4619C499.039 19.6271 499.433 19.4151 499.225 16.8437Z"/><path d="M379.582 1005.62C381.584 1005.91 383.156 1005.82 383.685 1007.98C382.605 1009.45 381.423 1009.55 379.641 1010.08L378.516 1010.83L377.904 1010.02C378.298 1008.88 378.354 1008.77 379.109 1007.88L379.715 1007.17L379.582 1005.62Z"/><path d="M1001.52 810.198C1003.18 810.445 1003.61 810.574 1005.17 811.044L1005.58 811.896C1005.01 813.271 1004.69 813.786 1003.95 815.051L1003.8 815.673L1002.69 816.097L1002.53 815.958L1003.52 815.788L1002.18 815.566C1001.13 813.873 1001.31 812.046 1001.52 810.198Z"/><path d="M21.7372 487.365C23.6941 489.889 25.0265 491.54 22.8098 494.317C20.6088 493.705 21.3842 494.319 20.1815 492.73C19.9713 490.858 20.9653 489.149 21.7372 487.365Z"/><path d="M339.129 1008.32C338.166 1009.35 337.782 1009.3 336.398 1009.66C334.839 1009.21 335.428 1009.66 334.585 1008.25C334.821 1006.27 334.409 1007.08 335.835 1005.73C337.633 1005.48 337.6 1005.42 339.449 1005.88L339.129 1008.32Z"/><path d="M20.1561 615.767L20.4439 615.838C21.9154 617.21 21.6053 616.424 21.8015 618.088C20.6716 620.016 21.4589 619.318 19.2614 620.146C17.8978 619.055 16.7983 618.659 16.6363 617.394C17.8153 616.864 18.9887 616.322 20.1561 615.767Z"/><path d="M341.391 1005.41L341.945 1005.39C343.537 1008.12 341.658 1005.89 342.538 1008.35L344.327 1008.03L344.633 1008.52C343.63 1009.74 342.723 1010.26 341.071 1009.83L340.442 1008.42L339.129 1008.32L339.449 1005.88L341.391 1005.41Z"/><path fill="white" d="M339.449 1005.88L341.391 1005.41L340.442 1008.42L339.129 1008.32L339.449 1005.88Z"/><path d="M591.569 11.2528C594.041 11.4413 593.736 11.0341 595.378 12.2956C595.451 14.3512 595.321 13.8623 594.21 15.958C592.945 15.2537 592.349 14.8394 591.187 14.021C590.616 12.2966 590.627 13.1932 591.569 11.2528Z"/><path d="M388.812 1006.19L389.367 1006.49C390.535 1008.67 390.48 1006.39 392.659 1008.88L392.323 1009.49C391.465 1009.9 390.848 1010.12 389.963 1010.46C387.816 1010.07 388.544 1010.6 387.359 1009.32C387.298 1007.47 387.315 1008.06 388.812 1006.19Z"/><path d="M347.462 1004.78C349.605 1005.15 349.554 1005.26 350.024 1007.19C349.542 1009.14 349.539 1009.03 348.235 1010.59C346.993 1009.98 347.06 1009.95 346.104 1008.92L346.208 1007.88C347.216 1006.57 347.293 1006.42 347.462 1004.78Z"/><path d="M20.1395 513.173C22.3642 513.704 23.9411 513.914 24.5651 516.207L23.7139 517.636C21.2526 517.133 20.0843 516.801 19.1282 514.342L20.1395 513.173Z"/><path d="M290.254 8.60871L291.191 9.22918C292.087 11.1609 293.058 13.4268 292.664 15.4939C291.384 15.6524 291.476 15.6527 290.264 15.202C289.001 13.0261 289.751 11.3016 290.254 8.60871Z"/><path d="M2.13872 492.422C2.93096 492.735 3.95801 493.37 4.72874 493.803C6.64415 493.586 5.85382 493.965 7.22145 492.71L8.66241 493.616C7.21406 496.05 5.28382 496.449 2.75236 495.495C1.62069 493.742 1.90434 494.71 2.13872 492.422Z"/><path d="M21.8712 162.364C22.3528 163.865 22.2804 163.84 22.2171 165.443C21.3764 166.986 20.866 167.057 19.2817 167.812C18.4637 166.451 18.3077 166.482 18.315 164.94C19.0491 163.461 20.3199 163.122 21.8712 162.364Z"/><path d="M998.455 686.007C999.477 685.408 1000.79 685.755 1001.38 686.779C1001.98 687.804 1001.63 689.116 1000.6 689.706C999.579 690.292 998.276 689.943 997.686 688.924C997.095 687.906 997.439 686.602 998.455 686.007Z"/><path d="M215.489 1002.22L216.903 1002.7C217.803 1004.14 217.733 1004.87 217.9 1006.54L217.468 1007.01C215.073 1005.37 215.267 1006.69 213.58 1004.88C213.84 1003.59 214.53 1003.15 215.489 1002.22Z"/><path d="M963.528 1000.79C964.661 1001.38 964.596 1001.31 965.284 1002.39C964.571 1004.31 964.537 1003.88 962.71 1005.41C961.423 1004.39 961.457 1004.4 960.501 1003.06L960.74 1002.21C961.667 1001.73 962.596 1001.26 963.528 1000.79Z"/><path d="M19.815 370.874C20.8176 372.192 20.4831 371.444 20.6095 373.284C19.8925 374.947 19.3612 375.181 17.9462 376.283C16.7055 374.344 16.9813 375.349 16.8496 373.233C17.5391 371.856 18.431 371.601 19.815 370.874Z"/><path d="M818.972 17.0444C819.444 15.1216 818.927 15.8265 820.427 14.7573C822.414 14.8544 821.499 14.5894 823.248 15.6722L823.424 16.7964C822.05 18.1237 821.914 17.7925 819.741 18.3346L818.972 17.0444Z"/><path d="M786.457 1005.76C789.517 1006.63 789.868 1007.48 790.311 1010.29C788.554 1010.5 788.631 1010.59 787.008 1009.96C786.043 1008.16 786.412 1008.14 786.457 1005.76Z"/><path d="M1001.4 712.37C1002.32 713.282 1002.23 713.421 1002.82 714.67C1002.45 716.671 1002.58 716.035 1000.92 717.751C999.986 716.849 999.732 716.519 998.942 715.48C999.262 713.828 999.861 713.802 1001.4 712.37Z"/><path d="M3.19193 633.123C5.00225 633.917 5.05236 636.096 4.4445 637.748L4.03227 637.292L2.49736 638.16L1.61017 637.775C0.886133 635.432 1.82812 634.648 3.19193 633.123Z"/><path d="M21.3618 220.294C22.2989 219.733 23.5132 220.035 24.0794 220.969C24.6457 221.902 24.3514 223.118 23.4207 223.69C22.4825 224.266 21.2546 223.969 20.6838 223.028C20.1129 222.086 20.4171 220.86 21.3618 220.294Z"/><path d="M22.8564 543.639C24.3078 544.247 23.651 543.828 24.6413 545.213C24.9472 546.953 24.7771 547.035 24.1993 548.67C22.8079 548.227 21.9295 548.146 21.1336 546.958C21.3112 545.186 21.6188 545.334 22.8564 543.639Z"/><path d="M939.054 1017.36C940.725 1017.41 940.998 1017.4 942.705 1017.76C943.507 1019.12 943.224 1018.8 943.005 1020.76C941.579 1020.65 940.815 1020.54 939.441 1020.3C938.408 1018.79 938.732 1019.68 939.054 1017.36Z"/><path fill="white" d="M9.03508 481.794C10.8291 482.036 11.3598 482.739 11.9763 484.246L11.4476 485.04C9.91237 485.106 8.8184 485.334 7.48247 484.635C7.60689 483.076 7.86512 483.264 9.03508 481.794Z"/><path d="M247.028 14.8198C248.617 15.9897 248.666 16.7931 248.836 18.5331L248.31 19.0461L247.43 18.2736C246.631 18.8093 245.481 19.626 244.577 19.202C245.039 17.1788 245.819 17.2566 246.668 15.5578L247.028 14.8198Z"/><path d="M1001.6 150.226C1003 150.337 1003.75 150.232 1004.8 151.131C1005.07 153.079 1004.88 152.659 1004.08 154.757C1003.36 154.777 1003.3 154.662 1002.58 154.431C1001.46 152.952 1001.65 152.093 1001.6 150.226Z"/><path d="M1002.79 857.196C1004.92 857.757 1005.42 857.874 1006.39 859.494L1005.82 860.792C1003.65 861.381 1004.59 861.503 1002.78 860.989C1002.09 859.204 1002.41 859.42 1002.79 857.196Z"/><path d="M273.471 12.175C274.519 12.6565 274.044 12.3049 274.845 13.2944C274.781 15.176 274.846 15.058 273.748 16.5769L273.638 15.5697C272.139 15.0329 271.838 15.5487 270.382 14.6254C270.919 13.394 272.229 12.8961 273.471 12.175Z"/><path d="M623.797 7.6791L624.525 8.03862C625.557 9.67136 626.349 11.1205 625.247 12.894C623.43 12.5824 623.218 12.902 622.417 11.8191C622.856 10.4322 623.316 9.05206 623.797 7.6791Z"/><path d="M441.248 1005.87L442.209 1006.36L442.303 1007.81C441.492 1009.54 441.596 1009.65 439.891 1010.62L438.373 1009.32C438.596 1007.75 439.815 1007.16 441.248 1005.87Z"/><path d="M1007.88 881.634C1008.43 881.148 1009.21 881.031 1009.88 881.336C1010.55 881.64 1010.97 882.308 1010.96 883.039C1010.95 883.771 1010.52 884.43 1009.84 884.719C1009.01 885.079 1008.04 884.779 1007.55 884.011C1007.06 883.244 1007.2 882.236 1007.88 881.634Z"/><path d="M131.17 1003.25C133.659 1003.98 134.157 1005.76 133.52 1008.1C131.848 1007.55 131.902 1007.66 130.746 1006.36C130.41 1004.38 130.389 1005.38 131.17 1003.25Z"/><path d="M876.913 1013.19C878.044 1013.81 877.885 1013.71 878.506 1014.78C879.336 1015.22 879.837 1015.37 880.759 1015.55L881.045 1016.98L880.169 1017.58C878.835 1017.72 878.887 1017.61 877.67 1016.97C876.258 1014.78 876.465 1015.79 876.913 1013.19Z"/><path d="M855.745 1012.21C857.065 1012.31 857.136 1012.35 858.406 1012.76C858.868 1014.1 858.5 1014.04 857.698 1015.8C856.162 1015.68 856.243 1015.7 854.829 1015.09C854.554 1013.57 854.747 1013.92 855.745 1012.21Z"/><path d="M1007.43 521.097C1008.04 520.799 1008.77 520.873 1009.31 521.286C1009.85 521.7 1010.11 522.383 1009.98 523.051C1009.85 523.72 1009.36 524.26 1008.71 524.446C1007.81 524.702 1006.86 524.229 1006.53 523.358C1006.2 522.486 1006.59 521.505 1007.43 521.097Z"/><path d="M788.352 999.936C788.984 1000.01 789.338 1000.61 790.005 1001.25C790.118 1003.24 790.33 1002.26 788.882 1004.14C788.3 1003.86 787.425 1003.33 786.835 1002.99L786.718 1002.17C787.675 1001.34 787.831 1001.09 788.352 999.936Z"/><path d="M1001.59 520.119C1003.79 520.95 1004.45 522.492 1004.25 524.695L1001.13 523.233C1000.57 521.76 1000.83 522.092 1001.59 520.119Z"/><path d="M29.2331 6.88083C29.8779 10.1331 29.6198 9.56405 27.432 11.9329C26.3155 10.3609 26.6948 11.2459 26.5844 9.06912C27.8376 7.04868 26.9932 7.76145 29.2331 6.88083Z"/><path d="M1015.6 409.478C1017.84 409.359 1020.92 410.556 1022.09 412.523L1020.94 412.826C1018.47 412.295 1017.28 411.354 1015.6 409.478Z"/><path d="M125.969 16.4548C127.624 16.6107 128.795 16.5481 129.756 17.9087L129.339 18.7919C127.779 19.2673 127.351 19.5352 125.751 19.155C125.265 17.4883 125.318 18.3609 125.969 16.4548Z"/><path d="M15.9703 894.679C16.7144 894.126 17.7614 894.253 18.3519 894.967C18.9425 895.682 18.8695 896.734 18.186 897.361C17.7115 897.795 17.036 897.933 16.4292 897.719C15.8224 897.504 15.3833 896.973 15.2872 896.337C15.1912 895.7 15.4538 895.063 15.9703 894.679Z"/><path d="M426.359 10.5527C427.994 10.2942 428.065 10.2335 429.784 10.4108C430.659 11.6325 430.289 11.5866 430.02 13.6016C427.802 12.8832 427.138 12.8095 426.359 10.5527Z"/><path d="M15.6039 269.77C16.9515 269.959 16.875 269.898 17.8884 270.796C18.5429 272.383 18.4559 272.289 18.1182 273.999L15.8295 272.612C14.9346 270.996 15.1379 271.89 15.6039 269.77Z"/><path d="M1010.62 72.3698L1012.84 72.8895C1014.31 74.2866 1013.89 74.1508 1014.47 76.5003C1011.84 75.9905 1011.33 74.6678 1010.62 72.3698Z"/><path d="M1000.45 525.182C1001.35 525.366 1001.97 525.584 1002.84 525.857C1004.12 527.459 1003.72 527.005 1004 529.369L1002.73 529.225C1001.22 527.959 1001.1 527.048 1000.45 525.182Z"/><path d="M1003.82 292.614C1006.02 292.461 1006.4 292.078 1008.12 292.873L1008.59 294.437L1006.46 294.87C1004.59 294.167 1005.2 294.45 1003.82 292.614Z"/><path d="M306.485 1005.11C307.265 1005.42 307.672 1005.69 308.403 1006.1C309.531 1007.62 309.404 1008.08 309.488 1009.95L308.13 1009.36C306.799 1007.92 306.839 1007.04 306.485 1005.11Z"/><path fill="#BEBEC1" d="M935.036 18.426C936.721 18.3298 936.817 18.3401 938.485 18.6155C939.769 19.9107 939.332 19.1161 939.469 21.2579L938.607 21.2422C937.285 19.9538 936.279 19.5538 935.036 18.426Z"/><path d="M892.919 14.3232C894.476 15.4924 894.825 17.6305 893.511 19.1401L893.73 18.0996C893.629 17.0699 893.748 17.6144 893.3 16.4838L890.721 16.4098C891.481 15.0277 891.47 15.2988 892.919 14.3232Z"/><path d="M158.958 14.152C160.89 14.9689 161.792 15.8439 161.762 18.0128C159.662 17.3052 159.255 17.6015 158.342 16.17L158.958 14.152Z"/><path fill="#BEBEC1" d="M66.0411 1013.41L67.697 1013.93L67.8401 1014.69C67.0477 1016.49 66.722 1017.43 66.1433 1019.31L65.9338 1019.73L65.5268 1019.35C65.8556 1017.04 65.9912 1015.74 66.0411 1013.41Z"/><path d="M235.027 18.3598C235.556 18.1119 236.179 18.1783 236.644 18.5322C237.11 18.8861 237.34 19.4689 237.242 20.0452C237.145 20.6215 236.735 21.096 236.18 21.277C235.39 21.5341 234.537 21.1326 234.232 20.3604C233.926 19.5882 234.275 18.7119 235.027 18.3598Z"/><path d="M906.273 15.6056L907.638 16.3027C908.396 17.71 908.735 17.9732 908.621 19.5487C907.561 19.5589 907.682 19.5233 906.627 19.2974C905.664 17.7583 906.046 17.9088 906.273 15.6056Z"/><path d="M17.9277 117.609C19.5318 118.229 18.9239 117.736 19.8919 119.041C19.9181 121.259 20.1715 120.235 19.0169 122.206L18.4472 122.186C18.8719 121.078 18.8774 121.16 18.7894 119.982C17.5614 120.114 18.0403 120.306 17.2065 119.739L17.9277 117.609Z"/><path d="M3.40822 641.122C4.81627 641.202 5.57313 641.237 6.9813 641.474L7.81166 642.752L5.80133 643.81C4.21488 643.352 4.55602 643.102 3.40822 641.122Z"/><path d="M369.499 1005.44C371.609 1005.58 372.035 1005.23 373.36 1006.3L373.25 1007.48C371.258 1007.76 371.178 1008.14 369.8 1007.35L369.499 1005.44Z"/><path d="M921.438 1020.06L924.067 1019.95C925.733 1020.79 925.042 1020.15 925.848 1022.28C923.036 1022.4 923.025 1022.36 921.438 1020.06Z"/><path d="M131.963 17.9864C135.547 18.3142 135.385 17.329 137.275 19.254L135.455 20.0941C133.437 19.705 133.779 19.5245 131.963 17.9864Z"/><path d="M206.74 1004.18L208.334 1004.52L208.757 1005.18C208.11 1006.26 207.888 1006.63 207.475 1007.79L207.168 1008.67C205.625 1007.48 206.127 1005.58 206.74 1004.18Z"/><path d="M145.718 8.57986C147.852 8.51644 147.832 8.14412 149.173 9.12742L149.1 10.5806C147.753 10.9433 148.217 10.8645 146.803 10.8122C145.613 9.6777 146.026 10.3639 145.718 8.57986Z"/><path d="M716.134 14.6609C718.063 16.9205 718.225 16.5616 718.711 19.236L717.202 19.0678C715.974 17.699 716.351 16.9909 716.134 14.6609Z"/><path d="M42.154 1008.34C44.9345 1008.39 44.9853 1009.03 46.427 1011C43.1635 1010.94 43.521 1011.03 42.154 1008.34Z"/><path d="M819.741 18.3346L818.713 18.8176C817.003 18.3191 815.877 18.2379 814.871 16.8225C816.266 16.7304 817.58 16.9129 818.972 17.0444L819.741 18.3346Z"/><path d="M144.655 1005.43C145.059 1005.55 145.49 1005.9 145.877 1006.16C145.588 1007.43 145.222 1007.34 143.96 1008.4L142.442 1007.84L142.303 1007.21L144.655 1005.43Z"/><path d="M678.978 1017.61C679.507 1017.75 680.269 1018.08 680.803 1018.28L681 1019.14L679.743 1020.97L678.475 1020.91L678.034 1020.06L678.978 1017.61Z"/><path d="M501.936 4.59737C503.697 5.09489 503.148 4.59835 504.174 5.72469L503.727 7.88443L502.496 8.40845C501.701 7.43975 501.988 6.19744 501.936 4.59737Z"/><path d="M161.772 1016.61L163.091 1017.51C163.657 1019.22 163.497 1018.65 162.832 1020.73L161.982 1020.47C161.125 1018.97 161.537 1018.77 161.772 1016.61Z"/><path d="M189.043 999.856C190.399 1001.1 190.284 1003.01 190.432 1004.87C189.545 1004.25 189.684 1004.3 188.948 1003.47C188.396 1001.82 188.635 1001.56 189.043 999.856Z"/><path d="M366.797 1018.26L367.216 1019.15C367.046 1020.73 367.097 1020.22 365.406 1021.61C364.437 1020.4 364.592 1021.07 364.662 1019.65L366.797 1018.26Z"/><path d="M18.6143 942.613C20.4825 943.044 19.8249 942.542 20.9847 943.722L20.6418 945.183C20.0513 945.601 20.3906 945.48 19.6077 945.498L18.6143 942.613Z"/><path d="M890.89 17.7535C891.378 18.6492 891.857 19.5493 892.328 20.4536L891.654 21.4579C890.205 20.1613 889.848 20.3355 889.731 18.9142L890.89 17.7535Z"/><path d="M772.616 15.3258L774.054 17.1119C773.356 17.2295 772.943 17.3183 772.239 17.4944L771.559 17.6686L771.459 18.6128L770.922 18.7184C771.143 16.7284 771.227 17.1902 772.616 15.3258Z"/><path d="M210.959 16.8298C211.594 16.5663 212.324 16.8478 212.618 17.4694C212.912 18.091 212.667 18.834 212.06 19.1578C211.64 19.3818 211.132 19.3567 210.736 19.0925C210.341 18.8282 210.123 18.3678 210.17 17.8945C210.216 17.4213 210.519 17.012 210.959 16.8298Z"/><path d="M782.751 13.2818C784.786 14.1267 785.254 14.6554 787 16.0822C783.706 16.163 784.098 16.0595 782.751 13.2818Z"/><path d="M76.5708 1003.24L77.2923 1003.92C77.5565 1005.44 76.8343 1006.36 76.1132 1007.79L75.8235 1007.67C75.3393 1006.61 76.1828 1004.65 76.5708 1003.24Z"/><path d="M201.86 1007.1C203.137 1007.34 203.066 1007.33 204.192 1007.99L204.52 1009.6C203.034 1009.33 202.948 1009.45 201.813 1008.52L201.86 1007.1Z"/><path fill="#BEBEC1" d="M423.238 11.3559C423.878 11.2994 423.459 11.3004 424.48 11.5577C423.408 12.5756 421.698 12.8582 420.206 13.289C419.485 13.0068 419.859 13.2275 419.164 12.5048C421.045 12.2525 421.436 12.0529 423.238 11.3559Z"/><path d="M996.64 507.713C998.259 507.472 999.216 507.111 1000.6 507.907C999.611 509.012 998.177 508.561 996.784 508.383L996.64 507.713Z"/><path fill="white" d="M234.208 6.79165C236.901 7.15767 237.188 8.1008 238.672 10.2222C236.893 9.59837 235.607 8.11662 234.208 6.79165Z"/><path d="M614.363 1018.05C615.178 1019.09 614.964 1018.67 615.29 1019.93L614.612 1020.66L613.69 1021.2C613.846 1019.78 613.994 1019.41 614.363 1018.05Z"/><path d="M205.784 16.1412C206.647 16.7448 206.419 16.6126 207.086 17.4886L206.644 18.8017C205.939 18.9421 206.309 18.9746 205.556 18.5649L205.784 16.1412Z"/><path d="M6.27294 946.241C7.59538 946.702 7.16583 946.424 8.20059 947.336L7.35343 948.807C6.05789 948.77 6.56889 949.031 5.68727 948.261L6.27294 946.241Z"/><path d="M15.1285 343.878C16.367 344.775 16.2021 345.197 15.9941 346.429L15.162 346.434L14.6599 345.75L15.1285 343.878Z"/><path fill="#464649" d="M1004.55 1015.78L1005.24 1016.3C1005.94 1017.98 1005.92 1017.16 1005.44 1018.82L1004.83 1018.89L1004.55 1015.78Z"/><path d="M25.106 614.315C25.5688 614.684 25.6665 614.963 26.0155 615.486L25.6778 616.696L24.9962 616.888L24.5198 616.566L25.106 614.315Z"/><path fill="#69696D" d="M5.72746 456.871L6.20123 457.545L4.77359 459.706C4.23866 459.224 4.48968 459.546 4.16666 458.642L5.72746 456.871Z"/><path fill="#BEBEC1" d="M985.501 15.9668C987.012 15.9587 986.454 15.662 987.365 16.5602L986.635 16.7174L985.501 15.9668Z"/><path fill="#858788" d="M315.015 11.9186L315.906 12.7917L315.891 14.2739L315.122 14.2663L315.015 11.9186Z"/><path fill="#858788" d="M13.6257 598.955L14.505 598.747L15.4174 599.564C14.0897 599.569 14.694 599.716 13.6257 598.955Z"/><path fill="#BEBEC1" d="M945.166 1001.22L945.885 1001.14L945.814 1002.79L944.962 1002.76L945.166 1001.22Z"/></svg>