<svg width="1820" height="1024" viewBox="0 0 1820 1024" fill="none" xmlns="http://www.w3.org/2000/svg">
<g clip-path="url(#clip0_106_74634)">
<path d="M0 0H506.198H515.996H724.547H733.696H768.002H777.726H1208.39H1220.46H1405.89H1417.1H1437.04H1446.7H1452.85H1471.49H1628.14H1643.07H1651.69H1667.18H1698.42H1708.11H1746.73H1760.6H1770.52H1785.23H1820V227.124V239.326V408.721V417.638V487.422V497.461V1024H1765.72H1756.52H1724.27H1694.83H1647.55H1639.18H1588.07H1580.98H1335.95H1326.91H1249.4H1240.32H994.697H984.429H919.519H908.929H714.148H705.123H498.858H489.296H471.875H462.349H104.813H94.7226H40.8808H30.7586H0V691.517V680.055V282.792V272.897V133.098V121.496V0Z" fill="#004B9B"/>
<path d="M0 282.792C20.7319 287.172 41.223 292.509 62.0322 296.143C244.653 328.037 435.553 294.78 591.405 192.651C650.702 153.794 703.985 107.487 745.631 49.582C757.162 70.6342 768.322 91.4079 781.901 111.26C846.089 205.341 934.132 280.66 1037.01 329.499C1047.3 334.313 1060.41 340.722 1070.94 344.723C1062.66 492.355 1120.73 646.219 1218.97 756.028C1239.28 778.664 1261.37 799.635 1285.03 818.739C1257.6 883.816 1242.44 953.407 1240.32 1024H994.697H984.429H919.519H908.929H714.148H705.123H498.858H489.296H471.875H462.349H104.813H94.7226H40.8808H30.7586H0V691.517V680.055V282.792Z" fill="#F2F1F0"/>
<path d="M476.066 450.251C475.465 448.169 472.491 434.116 472.356 433.924C437.988 385.13 444.459 314.727 498.892 283.43C540.157 259.704 585.659 261.282 623.844 289.792C640.653 281.934 691.676 265.901 665.093 305.377C658.86 314.633 648.27 325.681 639.778 332.934C642.597 340.088 645.532 347.238 649.512 353.843C666.165 359.864 680.145 357.226 670.491 379.095C670.319 379.483 670.141 379.869 669.957 380.252C676.263 384.619 674.444 388.858 681.822 396.62C681.646 400.517 681.566 405.197 680.972 408.988C686.061 415.625 697.645 432.21 686.541 438.513C658.766 454.277 648.904 436.455 643.267 476.648C643.098 477.858 642.966 479.073 642.871 480.292C650.259 485.82 657.756 491.202 665.357 496.434C674.784 502.891 684.223 505.743 681.402 519.686C679.864 527.284 677.973 534.753 676.045 542.268C682.264 552.781 690.292 562.728 696.229 572.792C714.062 603.024 729.587 635.947 739.92 669.518C751.042 666.981 766.552 664.216 776.376 659.056C784.294 654.898 787.75 644.568 797.864 640.132C811.396 634.196 824.53 625.474 837.773 618.983C840.294 617.71 844.453 619.579 846.645 620.836L848.59 624.253C853.08 621.88 873.87 600.421 878.599 595.898C898.905 576.481 918.632 556.481 939.309 537.409C950.571 537.913 990.015 538.451 997.154 542.101C997.924 543.948 997.912 544.101 997.149 545.961C993.397 555.1 915.847 625.214 901.984 639.943C895.051 647.309 894.186 655.454 888.918 663.467C880.809 675.802 850.098 708.515 838.677 717.499C834.803 720.545 830.383 722.598 825.795 724.32C813.316 729.003 799.922 732.003 786.727 733.757C785.213 743.89 782.298 750.862 776.12 759.093C769.662 761.595 760.494 765.436 754.067 767.281C755.949 779.533 757.735 792.303 759.852 804.475C842.916 843.443 912.584 893.199 964.446 970.464C975.968 987.63 986.467 1004.98 994.697 1024H984.429H919.519H908.929H714.148H705.123H498.858H489.296H471.875H462.349H104.813H94.7226H40.8808H30.7586H0V691.517V680.055C21.8239 669.278 37.3303 660.227 60.7058 651.343C146.22 619.236 240.227 617.83 326.662 647.364C365.771 660.779 402.48 680.372 435.394 705.4C435.307 632.955 433.383 557.367 488.531 500.881C500.416 488.708 510.484 482.71 525.74 475.684C513.223 470.522 511.322 463.77 508.429 451.391C496.954 452.865 487.47 453.245 476.066 450.251Z" fill="#004B9B"/>
<path d="M0 691.517C11.9478 684.448 23.604 677.447 36.1714 671.487C117.631 633.312 209.912 624.988 296.886 647.969C344.46 660.167 397.142 685.956 435.473 716.901C435.641 730.051 436.31 743.051 436.511 756.035C417.194 757.135 393.811 761.756 374.783 765.674C275.178 786.187 168.583 842.279 100.302 918.787C72.2041 950.347 48.7839 985.78 30.7586 1024H0V691.517Z" fill="#F2F1F0"/>
<path d="M104.813 1024C120.575 998.191 132.855 978.644 153.578 955.925C214.034 889.647 292.284 847.499 378.554 826.624C397.653 821.889 417.082 818.604 436.676 816.796C430.738 840.387 419.413 888.401 419.537 912.253C428.751 923.184 433.195 927.696 446.652 933.81C446.835 944.913 446.783 965.306 450.392 975.313C457.37 994.659 460.468 1002.83 462.349 1024H104.813Z" fill="#F2F1F0"/>
<path d="M477.404 916.779C526.192 889.691 543.329 881.364 599.13 897.243C612.267 901.053 625.174 905.62 637.785 910.919C647.318 915 701.29 941.783 706.509 941.99C710.627 937.406 712.918 918.908 713.903 912.028C720.077 914.033 723.9 915.23 729.747 918.101C722.653 952.819 711.551 989.974 705.123 1024H498.858C498.009 1020.06 496.826 1015.23 496.196 1011.33C517.05 1000.42 546.333 958.914 564.136 941.804C566.09 939.926 565.584 938.383 564.952 936.164C562.53 934.009 563.664 934.442 560.723 934.274C555.855 936.165 509.707 987.989 501.312 996.109C485.288 972.459 480.879 944.546 477.404 916.779Z" fill="#F2F1F0"/>
<path d="M40.8809 1024C88.4008 917.201 191.583 837.804 298.824 797.266C344.77 779.899 389.059 770.921 437.336 764.016C437.946 777.475 439.847 794.935 439.976 807.458C326.596 817.546 211.105 872.539 137.978 960.624C119.67 982.676 109.087 999.613 94.7227 1024H40.8809Z" fill="#F2F1F0"/>
<path d="M765.953 875.094C817.322 908.49 856.632 941.517 890.775 993.582C896.203 1001.86 905.269 1015.34 908.929 1024H714.148C721.591 994.344 731.576 955.703 737.258 926.111C747.133 923.762 758.685 920.184 767.56 915.138C767.118 901.786 766.582 888.438 765.953 875.094Z" fill="#F2F1F0"/>
<path d="M761.127 815.817C773.711 820.54 786.909 827.85 798.837 834.188C871.105 872.585 947.868 943.436 982.23 1018.93C982.995 1020.61 983.728 1022.3 984.429 1024H919.519C909.778 1006.89 900.613 991.302 889.016 975.31C860.316 935.732 809.399 886.849 765.488 864.745C764.498 848.397 763.044 832.082 761.127 815.817Z" fill="#F2F1F0"/>
<path d="M456.781 931.985C460.726 928.789 464.857 925.317 468.899 922.288C471.087 942.599 475.464 963.15 482.866 982.283C484.921 987.593 491.224 995.806 492.166 1000.54C487.622 1001.25 487.639 1000.04 484.687 1002.36C483.56 1006.55 488.284 1018.22 489.296 1024H471.875C470.494 1014.71 469.733 1005.34 469.598 995.947C457.078 981.258 455.464 950.437 456.781 931.985Z" fill="#F2F1F0"/>
<path d="M540.965 482.016C543.233 481.824 545.506 481.705 547.782 481.658C575.003 481.299 603.145 499.987 620.562 519.555C626.52 526.249 631.729 533.784 637.667 540.437C638.847 541.759 638.691 541.355 640.591 541.33C642.292 539.459 642.99 538.311 645.387 537.566C645.871 537.797 646.355 538.027 646.839 538.258C683.336 582.478 704.517 634.713 719.649 689.454C706.902 692.144 657.204 699.624 644.743 696.055C643.53 693.74 643.132 692.262 640.801 691.269C637.002 691.496 636.438 692.853 632.685 695.215L631.104 694.59C629.344 690.996 632.626 684.95 631.907 681.377C630.788 675.755 625.029 670.362 625.262 664.424C626.107 642.828 628.324 621.111 629.567 599.503C630.022 591.595 631.615 583.505 630.696 575.667C629.066 573.086 627.961 572.115 625.008 572.729C622.832 574.956 621.817 578.091 621.429 581.171C619.953 592.904 619.864 604.612 619.093 616.56C618.783 629.387 615.177 652.55 615.959 664.712C617.372 685.082 635.599 688.458 603.083 689.583C593.504 689.914 565.858 713.219 571.184 722.751C585.343 726.279 590.87 687.95 622.138 700.087C611.105 706.999 589.285 729.722 591.926 743.926C594.03 746.563 592.925 745.851 596.035 746.733C603.714 743.786 609.996 715.76 624.921 709.457C638.977 703.521 642.292 705.441 657.971 705.335C666.858 705.271 675.737 704.807 684.582 703.944C698.868 702.579 713.056 700.334 727.065 697.222C748.533 722.164 742.451 739.728 730.635 766.604C677.12 783.571 613.882 799.524 557.396 796.557C541.081 795.7 536.336 777.487 532.332 764.31C517.833 716.597 514.364 666.469 510.428 617.027C509.732 608.284 509.499 596.43 506.823 588.192C506.254 586.832 504.748 586.915 503.542 586.83C497.215 590.478 499.487 599.977 500.209 606.009C504.262 659.914 507.901 715.073 523.442 767.133C527.038 779.181 532 796.268 543.923 802.49C576.591 819.54 691.207 788.192 727.79 776.871C729.903 826.461 727.522 856.499 720.905 905.413C702.083 898.11 682.891 891.801 663.408 886.512C594.215 867.886 494.005 861.384 430.369 897.999C435.352 843.117 458.492 778.251 473.435 725.164C477.595 711.14 482.277 697.133 485.958 682.976C487.458 677.205 492.727 665.25 489.213 660.443C486.324 659.216 487.571 659.476 484.11 659.863C482.504 661.137 481.479 663.169 480.964 665.134C472.804 696.257 462.881 726.871 454.059 757.812C452.238 764.198 450.501 770.457 447.957 776.584C445.428 757.925 445.15 730.645 444.862 711.26C443.927 648.412 442.385 577.735 480.899 524.485C495.467 504.343 515.868 486.277 540.965 482.016Z" fill="#F2F1F0"/>
<path d="M562.17 518.481C582.518 520.801 607.415 536.903 618.706 554.446C620.145 556.682 619.313 558.044 618.543 560.303C614.76 558.194 600.696 541.306 590.579 534.774C585.999 531.854 581.104 529.461 575.987 527.64C571.864 526.135 564.006 524.881 561.43 522.814C560.671 520.262 560.64 521.361 562.17 518.481Z" fill="#004B9B"/>
<path d="M540.064 522.432C541.569 522.357 542.209 522.648 543.69 522.995C545.195 525.954 541.869 527.963 539.414 529.62C523.311 540.487 516.565 553.592 512.089 572.415C509.413 572.932 508.651 572.089 507.178 570.326C507.057 569.55 506.945 568.267 507.13 567.55C512.249 547.699 524.081 533.332 540.064 522.432Z" fill="#004B9B"/>
<path d="M557.993 275.942C583.615 276.016 603.708 284.455 623.025 300.886C632.639 295.068 641.348 292.598 652.232 290.74C604.108 320.029 559.726 352.671 520.097 392.85C505.769 408.473 496.156 420.12 483.174 436.946C481.274 430.253 477.437 424.894 474.257 418.769C436.701 346.437 479.549 280.481 557.993 275.942Z" fill="#F2F1F0"/>
<path d="M526.67 294.557C544.734 292.832 575.12 298.1 584.561 317.109C585.486 318.971 585.284 319.846 584.463 321.547C579.606 322.743 577.076 320.334 573.913 317.152C550.368 295.051 520.278 308.004 513.024 303.508C511.351 300.7 511.575 301.886 511.805 298.971C514.899 295.264 521.819 295.14 526.67 294.557Z" fill="#004B9B"/>
<path d="M493.409 308.064C496.424 308.323 498.46 309.424 499.958 312.058C499.702 316.979 489.039 326.341 485.807 331.272C476.625 345.282 478.422 364.151 473.741 370.249C471.788 369.906 468.134 369.555 467.577 367.52C461.851 346.611 480.374 320.07 493.409 308.064Z" fill="#004B9B"/>
<path d="M611.691 329.436C613.761 325.966 612.643 326.824 615.786 325.421C623.491 325.528 635.301 335.948 635.745 343.28L635.109 343.867C643.871 376.319 668.1 352.825 661.776 380.317C660.748 384.782 665.766 389.867 668.926 393.15C664.419 396.102 654.111 399.302 652.529 403.03L653.506 404.855C661.421 409.568 669.804 402.502 672.443 402.571C672.954 410.733 671.865 412.986 676.908 419.339C695.446 442.694 640.125 438.987 629.917 435.813C626.389 434.716 625.783 433.901 623.074 432.55C617.753 429.897 605.431 415.844 600.259 416.943C599.943 420.926 602.974 426.867 605.41 429.873C615.144 441.88 627.743 445.903 642.195 447.775C637.263 458.346 636.483 464.093 636.553 475.507C613.523 462.031 601.072 456.013 574.798 451.282C585.305 438.557 584.36 431.274 583.41 415.464C590.055 415.659 591.711 414.817 597.599 412.226C598.858 413.188 600.139 414.122 601.439 415.028L603.205 414.35C606.36 410.2 606.189 407.185 602.07 404.137L600.396 404.395L597.753 408.216C595.343 408.445 587.872 409.529 586.009 409.284C567.782 406.885 552.408 378.019 584.072 383.33C594.092 369.597 594.919 358.229 592.57 341.96C596.871 338.897 608.71 332.361 611.691 329.436Z" fill="#F2F1F0"/>
<path d="M611.691 329.436C613.761 325.966 612.643 326.824 615.786 325.421C623.491 325.528 635.301 335.948 635.745 343.28L635.109 343.867C633.823 341.116 633.254 338.55 631.061 337.219C628.782 342.843 620.486 348.626 614.636 346.921C610.119 337.188 622.467 336.497 626.89 333.765L626.423 332.256C620.602 327.069 618.665 325.152 611.691 329.436Z" fill="#003887"/>
<path d="M575.196 384.786C584.596 384.604 597.249 392.326 591.686 402.288C589.335 403.775 588.028 404.938 585.22 404.738C581.971 403.194 578.449 401.806 577.426 398.067C578.252 395.192 578.474 394.457 578.588 391.485L577.841 390.695L573.328 394.212L571.862 393.828C570.6 388.712 572.07 388.251 575.196 384.786Z" fill="#003887"/>
<path d="M626.998 347.008L630.017 347.542C640.558 355.571 631.685 358.025 629.564 363.181L628.835 364.137L627.03 364.048L625.768 362.285C626.127 357.086 625.196 350.434 626.998 347.008Z" fill="#003887"/>
<path d="M652.871 376.581C654.294 376.103 655.865 376.437 656.972 377.452C658.078 378.467 658.546 380.004 658.192 381.464C657.838 382.924 656.718 384.076 655.27 384.471C653.117 385.059 650.887 383.827 650.238 381.692C649.589 379.557 650.755 377.292 652.871 376.581Z" fill="#003887"/>
<path d="M892.917 622.097C895.884 638.53 839.92 661.562 844.066 673.691C851.801 678.526 866.827 668.067 874.183 664.13C865.575 672.67 854.693 678.789 847.026 687.208C845.994 688.342 847.795 692.51 848.478 694.196C847.445 695.683 846.367 697.138 845.245 698.559C830.902 716.551 810.006 721.346 788.046 723.964C786.118 709.306 785.032 703.344 777.334 690.447C775.439 688.05 771.91 684.605 769.68 682.299C778.008 673.655 791.231 655.394 799.568 649.426C798.412 650.253 841.699 627.778 838.521 628.536L839.436 629.822C838.757 640.63 809.893 651.776 806.286 657.228L806.974 659.15C807.786 659.821 809.051 660.637 810.064 660.714C838.304 662.851 872.589 636.235 892.917 622.097Z" fill="#F2F1F0"/>
<path d="M942.383 547.652L982.491 548.72C957.066 574.722 929.073 599.746 903.383 625.735C900.924 603.501 889.739 612.217 878.26 621.511C867.374 629.886 855.761 636.089 843.789 642.709C866.376 621.71 888.278 598.95 910.826 577.793C921.092 568.161 931.669 556.498 942.383 547.652Z" fill="#F2F1F0"/>
<path d="M562.431 459.94C601.25 463.456 628.205 479.426 658.689 503.343C648.59 512.794 647.105 515.436 639.838 527.714C633.861 520.246 627.441 513.146 620.612 506.45C595.84 482.18 575.484 472.442 541.062 472.802C549.582 468.778 555.396 466.242 562.431 459.94Z" fill="#F2F1F0"/>
<path d="M762.227 689.198C763.017 689.098 763.406 688.863 764.075 689.513C778.618 703.652 781.658 726.636 773.341 744.87C772.215 747.339 770.751 749.931 769.398 752.344C761.597 755.68 753.89 758.155 745.86 760.83L744.221 761.319L743.3 760.643C754.019 732.38 752.927 720.96 737.427 695.107C746.276 693.315 753.51 691.57 762.227 689.198Z" fill="#F2F1F0"/>
<path d="M658.436 297.001L658.727 297.233L658.504 298.689C653.809 304.664 639.772 323.573 633.534 325.467L631.335 323.974L625.073 318.993C634.217 312.213 648.452 303.669 658.436 297.001Z" fill="#F2F1F0"/>
<path d="M665.442 510.013C668.131 510.847 668.799 510.974 671.04 512.64C673.085 516.347 669.044 532.996 667.068 534.828L665.629 533.63C662.167 529.921 657.818 526.02 654.082 522.505C658.142 517.056 660.592 514.716 665.442 510.013Z" fill="#F2F1F0"/>
<path d="M763.26 673.065L764.638 672.742L765.32 673.558C761.592 678.917 752.132 683.063 745.788 684.547C744.605 684.144 744.009 683.448 742.999 682.613C742.759 681.289 742.685 681.346 743.099 680.083C745.59 676.635 758.71 674.177 763.26 673.065Z" fill="#F2F1F0"/>
<path d="M0 0H506.198H515.996H724.547C729.617 13.8975 735.283 27.5695 741.532 40.9781C720.22 67.4956 702.004 90.613 676.863 114.204C568.355 216.017 422.884 279.889 275.121 294.728C175.143 304.768 96.0458 296.863 0 272.897V133.098V121.496V0Z" fill="#F2F1F0"/>
<path d="M0 0H506.198C479.945 75.6891 425.917 132.687 354.335 167.488C276.037 205.251 186.024 210.669 103.763 182.569C65.5458 169.129 30.3046 148.387 0 121.496L0 0Z" fill="#F2F1F0"/>
<path d="M506.198 0H515.996C491.462 76.4789 434.948 136.415 364.262 172.723C283.79 213.148 190.635 220.231 104.978 192.438C66.0915 179.898 31.4232 158.912 0 133.098V121.496C30.3046 148.387 65.5458 169.129 103.763 182.569C186.024 210.669 276.037 205.251 354.335 167.488C425.917 132.687 479.945 75.6891 506.198 0Z" fill="#004B9B"/>
<path d="M777.726 0H1208.39C1122.3 100.923 1080.55 204.233 1071.06 335.975C1039.33 321.01 1008.72 305.975 978.742 287.23C899.833 237.891 831.106 171.462 780.728 93.0697C770.217 76.7132 760.793 58.1947 751.725 40.9894C762.258 26.2211 768.964 15.7812 777.726 0Z" fill="#F2F1F0"/>
<path d="M1654.31 554.546C1698.22 531.112 1770.24 503.487 1820 497.461V1024H1765.72C1753.66 979.616 1742.83 927.11 1732.12 882.07L1654.31 554.546Z" fill="#F2F1F0"/>
<path d="M1335.95 1024C1345.96 874.877 1400.06 763.783 1504.81 656.885C1509.48 674.695 1513.21 695.902 1516.9 714.164L1532.99 791.611L1580.98 1024H1335.95Z" fill="#F2F1F0"/>
<path d="M1220.46 0H1405.89C1397.03 13.7287 1386.31 27.527 1376.98 41.2013C1350.76 79.6344 1322.83 117.574 1296.56 155.913L1212.67 276.074C1201.96 291.601 1191.37 307.212 1180.91 322.903C1174.36 332.707 1167.67 343.088 1160.42 352.382C1157.6 356.007 1153.14 358.018 1149.15 362.529L1148.54 363.223C1123.58 355.687 1104.76 349.566 1080.55 339.724C1081.56 247.535 1119.9 139.271 1170.93 63.4534C1185.29 42.1252 1203.95 19.8797 1220.46 0Z" fill="#F2F1F0"/>
<path d="M1785.23 0H1820V227.124C1815.93 230.23 1811.83 233.354 1807.83 236.552C1747.14 285.157 1677.01 318.746 1604.23 344.767C1597.41 308.584 1586.77 266.109 1578.49 229.799C1585.66 230.435 1595.86 232.337 1603.19 233.485C1609.65 229.005 1623.39 221.556 1630.71 217.309L1682.93 186.953C1681.51 177.415 1677.2 161.013 1674.91 151.34L1659.97 87.896C1667.29 83.0211 1674.54 77.9429 1681.63 72.7488C1715.67 47.8199 1751.03 24.6703 1785.23 0Z" fill="#F2F1F0"/>
<path d="M1249.4 1024C1250.99 996.737 1252.65 973.102 1257.37 946.146C1283.33 797.872 1362.07 675.3 1473.21 576.28C1477.15 572.768 1481.22 569.398 1485.41 566.174C1492.6 591.954 1496.99 620.476 1503.48 646.606C1491.31 656.779 1470.8 679.644 1460.27 691.971C1390.36 773.84 1338.69 883.487 1329.03 991.456C1328.08 1002.29 1327.37 1013.14 1326.91 1024H1249.4Z" fill="#F2F1F0"/>
<path d="M1606.21 353.345C1662.88 334.048 1717.08 308.128 1767.68 276.125C1786.64 263.938 1801.91 252.518 1820 239.326V408.721C1765.87 412.439 1680.52 438.873 1631.81 462.529C1622.83 426.241 1614.29 389.844 1606.21 353.345Z" fill="#F2F1F0"/>
<path d="M1417.1 0H1437.04C1436.43 48.6361 1432.3 97.9543 1432.27 146.781C1348.82 208.019 1266.24 270.434 1184.55 334.007C1203.96 303.263 1229.75 267.919 1250.76 237.933L1349.45 96.5509C1371.25 65.5358 1396.29 31.3748 1417.1 0Z" fill="#F2F1F0"/>
<path d="M1511.25 650.472C1522.44 640.443 1533.87 630.676 1545.51 621.181C1565.69 710.891 1586.61 800.434 1608.25 889.801L1629.89 984.87C1632.29 995.14 1636.24 1014.62 1639.18 1024H1588.07C1581.55 987.712 1572.88 949.754 1565.39 913.464L1525.98 720.979C1521.16 697.492 1515.59 674.046 1511.25 650.472Z" fill="#F2F1F0"/>
<path d="M1633.09 471.436C1680.03 446.756 1767.32 422.928 1820 417.638V487.422C1762.26 497.289 1704.32 520.082 1651.98 545.881C1645.09 521.56 1639.15 496.055 1633.09 471.436Z" fill="#F2F1F0"/>
<path d="M1471.49 0H1628.14C1614.78 11.0094 1598.64 21.8264 1584.52 32.1468L1518.57 81.1028C1503.13 53.9197 1487.44 26.8842 1471.49 0Z" fill="#F2F1F0"/>
<path d="M1643.07 0H1651.69C1645.93 4.13543 1640.2 8.29741 1634.37 12.3306C1615.89 25.115 1598.95 39.8901 1580.87 53.3133L1269.57 287.669C1245.47 305.945 1221.48 324.359 1197.59 342.91C1185.77 352.066 1164.51 369.513 1152.16 375.895C1162.38 359.78 1193.47 338.084 1209.4 325.916L1283.97 268.993C1357.44 212.889 1431.28 157.262 1505.47 102.116C1550.22 68.8683 1599.45 33.8408 1643.07 0Z" fill="#F2F1F0"/>
<path d="M1446.7 0H1452.85C1459.66 24.5356 1467.49 48.851 1474.15 73.4418C1477.26 84.9368 1480.38 96.4274 1483.95 107.788C1470.54 118.469 1454.68 129.419 1440.69 140.14C1441.81 128.465 1441.47 115.459 1442.22 103.594C1444.38 69.4793 1444.39 33.9926 1446.7 0Z" fill="#F2F1F0"/>
<path d="M1703.71 1000.3C1713.31 984.662 1729.36 960.064 1737.12 944.51C1742.64 966.513 1752.75 1002.65 1756.52 1024H1724.27L1703.71 1000.3Z" fill="#F2F1F0"/>
<path d="M1647.55 1024C1643.24 1003.36 1638.74 982.764 1634.06 962.206C1648.16 971.836 1676.8 990.409 1688.91 1000.61C1690.79 1008.21 1692.68 1016.53 1694.83 1024H1647.55Z" fill="#F2F1F0"/>
<path d="M1760.6 0H1770.52C1731.64 26.7175 1693.07 53.8728 1654.8 81.4606C1648.8 85.8303 1643.37 89.8621 1637.8 94.7492C1634.99 96.7146 1629.47 103.923 1626.78 105.267C1606.59 115.351 1584.17 122.953 1566.63 137.376C1565.95 137.933 1561.03 137.206 1559.97 136.403C1565.95 131.605 1572.49 129.74 1578.7 125.855C1641.08 86.8676 1698.75 40.0316 1760.6 0Z" fill="#F2F1F0"/>
<path d="M1667.18 0H1698.42C1699.98 3.95526 1706.61 15.8434 1708.89 20.2019C1692.02 18.3014 1660.11 18.3301 1642.14 17.8619C1650.42 11.8104 1658.76 5.85602 1667.18 0Z" fill="#F2F1F0"/>
<path d="M733.696 0H768.002C763.812 8.0709 752.831 23.599 747.431 31.1484C742.984 23.3258 737.437 8.80933 733.696 0Z" fill="#F2F1F0"/>
<path d="M1708.11 0H1746.73C1737.51 6.17677 1728.32 12.406 1719.17 18.6872C1716.07 12.3464 1711.89 6.01366 1708.11 0Z" fill="#F2F1F0"/>
<path d="M1079.74 348.505C1091.12 353.425 1102.72 357.806 1114.51 361.635C1123.33 364.512 1132.86 367.161 1141.33 370.774C1146.37 372.924 1140.17 376.742 1148.87 380.869L1149.7 381.256C1149.91 391.753 1149.1 406.128 1153.49 415.349C1137.57 435.085 1140 460.789 1164.08 472.116C1173.51 476.477 1184.3 476.871 1194.02 473.212C1217.15 464.593 1220.59 443.636 1212.95 422.584C1208.81 428.557 1206.19 431.973 1201.4 437.43C1200.99 445.595 1194.96 453.236 1186.83 454.898C1181.35 456.03 1175.64 454.886 1171.02 451.73C1164.21 447.02 1163.55 442.754 1162.14 435.233C1164.5 427.421 1165.04 425.843 1171.01 420.402C1171.83 421.373 1172.67 422.325 1173.53 423.259C1176.46 426.408 1181.06 429.686 1185.59 429.45C1210.28 428.165 1205.77 404.917 1205.81 387.369C1214.04 387.474 1229.51 389.396 1238.46 390.179C1254.96 391.602 1271.49 392.614 1288.03 393.214C1342.92 395.387 1392.61 392.15 1447.16 386.333L1468.62 486.496C1473.02 506.92 1480.03 535.994 1482.77 556.015L1455.1 580.652C1380.36 647.993 1330.75 719.476 1288.59 809.817C1272.89 796.984 1257.89 783.319 1243.66 768.881C1130.45 653.991 1078.64 508.092 1079.74 348.505Z" fill="#F2F1F0"/>
<path d="M1417.12 249.671L1418.37 249.977C1419.53 251.474 1443.19 365.768 1445.67 377.426C1373.49 386.17 1316.77 386.959 1243.92 382.105L1210.84 378.673C1279.19 335.025 1347.95 292.023 1417.12 249.671Z" fill="#F2F1F0"/>
<path d="M1440.46 169.83C1442.62 172.499 1450.64 212.789 1451.8 218.368C1432.64 228.96 1410.13 243.341 1391.39 254.877L1249.66 343.397C1231.34 354.838 1213.32 367.015 1194.7 377.909L1182.18 376.348L1169.44 374.848L1440.46 169.83Z" fill="#F2F1F0"/>
<path d="M1486.14 380.799L1488.98 380.395C1489.37 380.708 1489.9 380.902 1490.16 381.336C1491.44 383.499 1521.52 516.012 1522.88 526.979C1512.69 532.282 1500.66 542.268 1491.35 549.488L1490.12 549.795C1487.43 545.82 1458.48 404.014 1454.34 385.156C1464.66 383.537 1475.74 382.207 1486.14 380.799Z" fill="#F2F1F0"/>
<path d="M1453.73 226.802C1455.63 228.991 1485.48 361.257 1487.6 371.23C1478.71 372.627 1469.81 373.893 1460.89 375.027C1458.02 375.524 1455.53 376.369 1453.04 375.185C1449.96 366.833 1444.81 339.033 1442.75 328.927L1425.24 243.812C1434.78 238.213 1444.28 232.542 1453.73 226.802Z" fill="#F2F1F0"/>
<path d="M1619.09 167.942C1626.51 167.971 1662.59 171.664 1669.36 173.686C1671.66 175.635 1672.28 179.402 1673.13 182.426C1654.97 193.945 1631.66 206.669 1612.78 217.674L1600.74 224.372C1588.53 222.253 1576.22 220.252 1564.14 217.512C1563.68 211.936 1564.09 202.983 1564.05 196.991C1582.3 187.588 1600.65 176.639 1619.09 167.942Z" fill="#F2F1F0"/>
<path d="M1525.43 535.007C1526.72 537.376 1532.27 564.927 1533.32 569.621C1536.54 583.675 1539.88 597.703 1543.34 611.701C1531.82 620.776 1520.86 630.452 1509.78 640.056C1508.15 638.271 1493.92 569.395 1491.71 560.627C1502.12 551.46 1514.11 543.06 1525.43 535.007Z" fill="#F2F1F0"/>
<path d="M1595.9 94.6104C1601.25 94.236 1608.08 94.239 1613.55 94.0845C1601.35 102.23 1590.41 109.718 1577.8 117.283C1565.37 124.742 1549.79 132.289 1538.02 140.173L1544.41 167.689C1540.81 164.392 1536.91 160.342 1533.4 156.867C1522.6 145.801 1511.69 134.83 1500.69 123.956C1543.89 89.9599 1542.35 97.6297 1595.9 94.6104Z" fill="#F2F1F0"/>
<path d="M1649.67 576.462C1653.16 578.778 1672.84 670.119 1675.22 681.479C1670.15 678.479 1661.59 671.892 1656.54 668.229C1643.8 659.828 1631.51 650.213 1618.8 642.138C1617.59 637.322 1616.85 632.957 1616 628.091C1625.46 615.415 1640.01 591.041 1649.67 576.462Z" fill="#F2F1F0"/>
<path d="M1605.87 838.616C1609.09 840.04 1622.26 850.158 1625.55 852.625C1637.02 861.23 1648.53 869.774 1660.1 878.255L1664.02 895.363C1657.6 904.991 1651.07 914.536 1644.41 923.998L1630.44 944.731C1629.22 940.366 1628.06 935.507 1627.08 931.06C1620.31 900.435 1611.39 869.449 1605.87 838.616Z" fill="#F2F1F0"/>
<path d="M1577.02 716.991C1588.69 722.681 1618.97 744.471 1630.96 752.61C1632.71 758.522 1633.69 763.576 1634.88 769.608C1628.65 779.616 1621.4 790.213 1614.89 800.136C1610.41 807.005 1605.73 813.743 1600.85 820.339C1592.55 787.867 1584.29 749.841 1577.02 716.991Z" fill="#F2F1F0"/>
<path d="M1708.38 824.602C1711.05 830.444 1715.23 850.261 1716.92 857.47C1722.61 881.132 1727.91 904.889 1732.8 928.731C1726.79 923.691 1719.85 918.669 1713.53 913.923C1707.25 908.917 1676.49 886.888 1675.74 882.237C1674.24 873.028 1702.17 833.363 1708.38 824.602Z" fill="#F2F1F0"/>
<path d="M1679.87 701.848C1681.93 706.444 1686.18 725.856 1687.5 731.555C1693.3 755.921 1698.67 780.386 1703.61 804.94L1683.34 789.999C1679.3 786.878 1641.14 759.802 1644.94 754.318C1656.85 737.123 1668.56 719.378 1679.87 701.848Z" fill="#F2F1F0"/>
<path d="M1597.72 356.668C1599.89 358.647 1616.37 436.053 1618.21 446.049C1611.72 440.279 1604.48 434.371 1597.82 428.721C1585.69 418.274 1573.45 407.952 1561.11 397.758L1557.97 386.157C1561.85 378.442 1566.2 370.976 1571.01 363.802C1579.85 361.205 1588.76 358.826 1597.72 356.668Z" fill="#F2F1F0"/>
<path d="M1565.27 606.481C1569.18 608.004 1595.94 627.557 1601.23 631.368L1605.06 646.845C1598.4 658.298 1589.09 671.607 1581.77 683.143L1572.85 697.805L1553.42 615.82L1565.27 606.481Z" fill="#F2F1F0"/>
<path d="M1460.78 213.175C1469.29 216.14 1508.88 249.001 1517.89 256.235L1497.21 290.63C1492.66 297.819 1488.26 305.48 1483.91 312.824C1475.82 279.608 1468.78 246.371 1460.78 213.175Z" fill="#F2F1F0"/>
<path d="M1522.9 374.526L1525.39 374.138C1530.32 375.397 1542.28 389.09 1546.47 393.559L1548.76 404.279C1542.66 413.06 1526.42 444.509 1520.46 455.353C1519.43 457.463 1519.27 458.237 1517.48 459.638C1515.62 455.344 1512.02 437.891 1510.84 432.63L1498.71 378.527L1522.9 374.526Z" fill="#F2F1F0"/>
<path d="M1551.3 214.956C1551.8 215.628 1551.77 215.447 1551.97 216.082L1554.98 225.385C1557.26 227.802 1566.02 228.197 1569.88 228.648C1574.27 252.937 1581.84 278.138 1585.4 302.366C1581.3 299.152 1576.66 294.995 1572.64 291.55C1558.89 279.096 1543.23 266.162 1529.09 253.916C1535.94 240.881 1543.85 227.723 1551.3 214.956Z" fill="#F2F1F0"/>
<path d="M1622.81 476.439C1624.38 476.536 1623.62 476.406 1625.12 477.351C1629.16 494.298 1633.37 511.206 1637.73 528.073C1638.92 532.691 1644.02 547.669 1642.61 550.882L1640.12 551.733C1634.02 551.264 1625.88 543.515 1620.81 539.392C1610.32 531.222 1597.45 521.67 1587.6 513.071C1592.7 503.626 1599.73 494.075 1605.41 484.651C1611.49 481.52 1616.53 479.142 1622.81 476.439Z" fill="#F2F1F0"/>
<path d="M1616.18 37.1172C1619.12 39.5633 1627.63 71.0747 1630.41 77.5341C1634.61 87.2984 1572.6 87.1586 1564.08 87.7827C1558.62 88.0098 1552.02 88.7313 1546.48 89.201C1568.58 74.1107 1594.7 53.4878 1616.18 37.1172Z" fill="#F2F1F0"/>
<path d="M1565.19 508.301C1568.33 508.988 1571.87 511.722 1574.67 513.592C1575.08 516.154 1575.81 519.138 1576.36 521.713C1565.15 538.589 1555.93 559.714 1545.06 577.218C1542.07 575.046 1534.19 535.016 1532.95 529.332C1541.06 521.964 1555.44 514.051 1565.19 508.301Z" fill="#F2F1F0"/>
<path d="M1634.6 26.521C1657.69 26.5724 1681.48 28.134 1704.74 28.5403L1681.8 44.6071L1647.18 68.9003C1643.78 55.2624 1638.62 40.2768 1634.6 26.521Z" fill="#F2F1F0"/>
<path d="M1489.61 137.349C1492.26 139.836 1503.56 190.496 1505.32 197.888C1496.74 198.767 1486.71 200.465 1478.06 201.706C1474.1 202.389 1468.55 203.913 1465.02 202.499C1464.29 199.943 1486.62 144.641 1489.61 137.349Z" fill="#F2F1F0"/>
<path d="M1500.47 134.779C1501.89 135.772 1509.32 143.138 1510.55 144.641C1517.23 152.878 1550.43 181.566 1549.31 190.509L1546.97 191.294C1536.37 192.765 1525.76 194.163 1515.14 195.488C1510.46 176.187 1504.32 153.977 1500.47 134.779Z" fill="#F2F1F0"/>
<path d="M1465.07 7.68115C1469.4 12.067 1505.55 77.1181 1511.27 86.9072L1502.32 93.9808L1492.57 101.867C1488.26 90.273 1482.96 69.4797 1479.32 56.9524C1475.04 42.2183 1468.1 21.7901 1465.07 7.68115Z" fill="#F2F1F0"/>
<path d="M1606.35 125.274C1607.89 126.697 1613.99 155.199 1615.1 159.652C1606.08 163.668 1597.24 168.076 1588.61 172.863C1585.12 161.902 1582.64 149.883 1580.15 138.611C1588.78 135.103 1598.07 129.761 1606.35 125.274Z" fill="#F2F1F0"/>
<path d="M1651.82 93.312C1653.2 94.7007 1666.92 157.221 1668.35 163.949C1664.19 163.696 1659.65 162.974 1655.5 162.409L1653.55 162.236C1650.68 159.085 1641.55 112.651 1638.48 103.61C1642.89 100.348 1647.45 96.6894 1651.82 93.312Z" fill="#F2F1F0"/>
<path d="M1649.63 774.455C1653.79 776.454 1694.49 808.233 1698.08 812.252L1697.91 813.443L1695.61 813.861L1659.89 819.434C1656.24 805.358 1652.19 788.646 1649.63 774.455Z" fill="#F2F1F0"/>
<path d="M1550.33 418.336C1553.47 421.042 1560.64 454.502 1562.11 460.846C1552.89 462.783 1543.81 464.264 1534.53 465.808L1522.63 468.195C1531.67 451.471 1540.91 434.851 1550.33 418.336Z" fill="#F2F1F0"/>
<path d="M1621.09 654.373C1627.17 656.922 1663.75 683.24 1669.66 688.484L1669.31 689.602L1666.14 690.44C1654.86 692.729 1642.7 694.55 1631.29 696.459C1627.66 683.579 1624.66 667.989 1621.09 654.373Z" fill="#F2F1F0"/>
<path d="M1578.62 534.73C1580.98 536.876 1588.27 571.587 1589.47 576.796L1560.84 583.287L1549.92 585.904L1578.62 534.73Z" fill="#F2F1F0"/>
<path d="M1563.74 411.245C1565.88 412.487 1576.6 421.669 1579.06 423.728L1610.39 449.816L1610.12 450.958L1606.52 451.833C1597.34 453.097 1584.61 456.09 1575.28 457.99C1571.51 442.388 1567.66 426.806 1563.74 411.245Z" fill="#F2F1F0"/>
<path d="M1608.13 658.484C1609.18 659.888 1616.8 693.884 1617.96 698.382C1607.84 699.381 1597.46 701.183 1587.38 702.78L1578.82 704.015C1586.85 691.245 1599.3 669.979 1608.13 658.484Z" fill="#F2F1F0"/>
<path d="M1679.37 898.363C1684.39 900.314 1717.38 927.341 1724.34 932.611L1724.02 933.687L1721.16 934.438L1688.95 940.049C1685.58 927.913 1681.51 910.632 1679.37 898.363Z" fill="#F2F1F0"/>
<path d="M1727.18 941.494L1728.64 941.723C1727.08 946.433 1704.53 984.845 1700.72 985.993L1699.86 983.743C1696.56 972.317 1693.72 960.309 1690.82 948.745C1703.26 946.201 1714.58 944.483 1727.18 941.494Z" fill="#F2F1F0"/>
<path d="M1636.33 782.706C1639.16 785.058 1645.45 815.333 1646.99 821.8C1637.91 822.779 1628.85 823.965 1619.83 825.359L1607.92 827.043C1616.72 814.987 1628.18 795.582 1636.33 782.706Z" fill="#F2F1F0"/>
<path d="M1520.29 268.265C1521.52 269.549 1528.02 299.921 1529.16 304.346C1518.62 308.757 1509.63 312.111 1498.87 315.885L1489.48 319.026C1499.51 302.106 1510.11 285.17 1520.29 268.265Z" fill="#F2F1F0"/>
<path d="M1669.57 698.993L1670.94 699.116C1670.02 703.33 1645.75 738.73 1642.34 740.713L1641.16 739.295C1637.85 728.933 1635.5 715.413 1633.31 704.559L1669.57 698.993Z" fill="#F2F1F0"/>
<path d="M1551.3 145.523C1556.63 145.199 1565.32 145.631 1570.89 145.754C1573.82 156.686 1576.2 167.868 1578.65 178.924C1577.08 180.047 1573.59 181.99 1571.8 183.054L1561.18 189.014C1557.84 174.45 1554.83 160.096 1551.3 145.523Z" fill="#F2F1F0"/>
<path d="M1697.66 821.546L1698.34 821.615L1698.93 822.524C1689.7 836.666 1681.52 851.475 1672.35 865.341L1671.33 865.213L1670.41 862.878C1667.52 852.029 1664.89 839.086 1662.23 827.941C1672.83 826.556 1687.25 823.747 1697.66 821.546Z" fill="#F2F1F0"/>
<path d="M1631.32 113.859C1634.07 116.502 1641.9 154.214 1643.47 161.149L1629.62 159.729L1627.06 159.302C1623.87 155.377 1618.37 126.237 1616.9 119.374C1621.66 117.421 1626.47 115.582 1631.32 113.859Z" fill="#F2F1F0"/>
<path d="M1666.59 906.33C1669.66 914.466 1673.5 933.679 1675.49 942.662L1646.04 948.142L1638.31 949.723C1647.31 935.177 1657.22 920.713 1666.59 906.33Z" fill="#F2F1F0"/>
<path d="M1531.01 267.325C1534.37 269.258 1545.13 278.921 1548.39 281.774C1557.93 290.183 1567.54 298.507 1577.23 306.746C1564.45 306.955 1551.6 305.42 1538.92 303.936C1537.24 293.153 1533.59 277.974 1531.01 267.325Z" fill="#F2F1F0"/>
<path d="M1592.63 529.123C1597.39 531.242 1623.91 552.41 1630.37 557.255L1621.33 561.714C1615.24 565.382 1608.83 568.976 1602.67 572.541C1599.1 560.009 1595.58 542.092 1592.63 529.123Z" fill="#F2F1F0"/>
<path d="M1548.69 199.524L1549.76 199.631C1549.91 203.2 1529.55 237.79 1525.44 239.42L1524.54 237.093C1521.75 225.647 1519.35 215.501 1517.23 203.899L1548.69 199.524Z" fill="#F2F1F0"/>
<path d="M1639.09 574.346C1639.41 574.397 1639.96 574.853 1640.28 575.076C1636.96 580.801 1616.6 614.087 1612.8 616.295L1611.8 614.891C1609.43 603.943 1607.35 594.676 1604.28 583.875C1614.82 581.514 1628.45 577.323 1639.09 574.346Z" fill="#F2F1F0"/>
<path d="M1506.24 205.78C1508.35 207.617 1514.01 237.944 1515.05 243.396C1509.83 239.745 1502.58 233.548 1497.44 229.422C1489.47 223.446 1481.61 217.322 1473.86 211.052C1484.32 208.653 1495.58 207.26 1506.24 205.78Z" fill="#F2F1F0"/>
<path d="M1674.02 952.303L1676.4 952.058C1679.47 954.446 1684.98 981.395 1686.66 988.04L1669.37 975.482C1660.78 969.933 1652.38 964.089 1644.19 957.961C1654.09 955.828 1664.03 953.941 1674.02 952.303Z" fill="#F2F1F0"/>
<path d="M1643.97 830.571C1646.19 830.065 1646.27 830.079 1648.49 830.494C1649.98 833.237 1656.27 860.418 1657.52 865.528L1640.95 853.504C1632.7 847.303 1624.38 841.199 1615.99 835.193C1625.27 833.367 1634.6 831.826 1643.97 830.571Z" fill="#F2F1F0"/>
<path d="M1578.94 328.185L1580.78 328.233C1580.84 330.528 1568.24 350.555 1565.78 354.659L1551.02 358.767C1549.47 350.748 1547.76 342.761 1545.87 334.812C1556.55 333.139 1568.28 330.423 1578.94 328.185Z" fill="#F2F1F0"/>
<path d="M1612.57 706.986C1615.06 706.522 1617.69 706.226 1619.8 707.424C1622.31 714.259 1625.45 731.279 1627.22 739.212L1611.75 729.116C1604.12 723.939 1592.64 716.636 1585.73 711.014L1612.57 706.986Z" fill="#F2F1F0"/>
<path d="M1521.89 480.623C1528.1 483.273 1550.8 498.542 1556.99 502.639L1547.1 508.78L1530.66 519.373C1527.69 509.179 1524.57 491.906 1521.89 480.623Z" fill="#F2F1F0"/>
<path d="M1530.89 336.406L1533.39 336.254C1536.16 338.598 1538.69 355.639 1539.87 360.942C1536.14 361.583 1532.23 362.539 1528.51 363.378L1521.67 356.869L1502.36 338.937C1511.33 338.453 1521.85 337.224 1530.89 336.406Z" fill="#F2F1F0"/>
<path d="M1560.11 469.626C1562.57 469.199 1561.72 469.009 1563.84 469.885C1566.11 477.573 1568.85 487.35 1569.66 495.226C1564.06 499.624 1556.26 492.237 1551.26 488.804C1544.12 484.322 1537.02 479.777 1529.97 475.168C1538.17 474.353 1551.19 471.122 1560.11 469.626Z" fill="#F2F1F0"/>
<path d="M1478.5 140.42C1478.97 140.914 1478.85 141.232 1479.02 142.149C1476.42 148.876 1461.12 188.963 1458 190.932L1457.18 189.097C1454.78 180.102 1452.82 170.308 1450.81 161.166L1478.5 140.42Z" fill="#F2F1F0"/>
<path d="M1159.24 382.643C1168.74 383.349 1178.2 384.452 1187.61 385.947C1182.52 390.965 1177.75 395.945 1171.96 400.137C1167.04 404.15 1167.28 411.949 1160.4 412.044C1156.35 407.88 1157.27 388.197 1159.24 382.643Z" fill="#F2F1F0"/>
<path d="M1605.42 460.682C1607.69 460.345 1606.65 460.195 1608.67 460.97C1608.32 464.321 1602.41 474.129 1600.41 477.74L1583.24 487.426C1581.08 480.447 1579.07 473.1 1577.04 466.057C1585.27 464.057 1596.86 462.271 1605.42 460.682Z" fill="#F2F1F0"/>
<path d="M1490.08 340.039C1494.41 342.202 1515.08 360.805 1517.57 364.724L1516.69 365.793C1510.1 367.074 1503.11 368.16 1496.46 369.301C1494.19 359.578 1492.06 349.823 1490.08 340.039Z" fill="#F2F1F0"/>
<path d="M1193.04 386.387C1194.47 386.862 1195.26 387.478 1196.55 388.265C1199.21 392.948 1200.31 413.422 1194.95 416.376C1190.43 415.412 1187.23 414.491 1182.81 413.111C1186.29 411.731 1193.13 408.723 1190.68 403.988C1186.35 402.042 1187.46 402.652 1182.21 403.189L1181.13 401.768C1181.71 396.896 1189.46 390.006 1193.04 386.387Z" fill="#F2F1F0"/>
<path d="M1591.16 590.968C1593.58 594.081 1598.1 614.887 1599.28 619.956L1587.61 611.762C1582.75 608.223 1578.27 605.032 1573.7 601.092C1579.81 598.151 1585.4 594.532 1591.16 590.968Z" fill="#F2F1F0"/>
<path d="M1591.19 327.788C1593.21 329.854 1595.46 343.337 1596.22 347.091L1581.21 350.897L1578.53 350.964C1578.28 347.447 1588.65 331.863 1591.19 327.788Z" fill="#F2F1F0"/>
<path d="M1624.83 29.7793C1628.4 31.8113 1639.61 70.6775 1639.47 76.2117C1635.46 71.8653 1625.03 36.1231 1624.83 29.7793Z" fill="#F2F1F0"/>
<path d="M1579.88 587.839L1580.39 588.098L1580.4 589.061C1576.58 591.699 1571.98 595.077 1568.07 597.422L1565.5 596.171C1563.11 595.113 1562.71 595.054 1560.86 593.284C1563.28 589.882 1575 588.711 1579.88 587.839Z" fill="#F2F1F0"/>
</g>
<defs>
<clipPath id="clip0_106_74634">
<rect width="1820" height="1024" fill="white"/>
</clipPath>
</defs>
</svg>
