<?xml version="1.0" encoding="utf-8" ?><svg xmlns="http://www.w3.org/2000/svg" xmlns:xlink="http://www.w3.org/1999/xlink" width="985" height="985" viewBox="0 0 985 985"><path fill="#FEFEFD" transform="matrix(0.961914 0 0 0.961914 -0.00390625 0)" d="M0 0L1024 0L1024 1024L0 1024L0 0Z"/><path fill="#071E50" transform="matrix(0.961914 0 0 0.961914 -0.00390625 0)" d="M528.348 232.287C528.147 232.214 550.093 232.583 552.419 232.619C569.69 232.889 585.966 236.762 603.078 238.084C610.378 247.135 618.781 261.924 624.776 272.029L649.15 312.818L680.186 364.881C686.434 375.579 693.058 386.536 698.355 397.732C706.502 414.952 697.463 435.904 685.925 449.062C697.542 454.823 719.923 460.966 732.983 465.275C743.892 468.875 754.395 473.287 764.773 476.826L800.751 489.375C807.136 491.647 813.52 493.85 819.869 496.317C825.719 498.477 831.108 502.059 836.679 504.645C874.517 522.212 908.488 549.589 930.917 585.038C937.91 596.092 944.425 617.184 946.003 629.996C950.037 662.778 938.88 694.497 918.465 719.99C910.764 729.606 896.617 742.052 886.057 747.709C872.906 754.754 856.688 758.295 842.321 762.218C836.68 763.758 830.306 764.438 824.611 765.996C807.668 770.51 790.37 774.966 773.166 778.312C769.761 778.974 765.981 780.464 762.857 780.835C762.017 780.291 761.69 780.096 760.788 779.671C760.534 780.176 760.202 780.856 759.856 781.344C758.597 783.116 745.979 782.514 745.84 784.729C745.035 797.552 745.804 810.848 746 823.748L746.944 930.205C746.951 934.909 747.927 971.015 746.617 972.719C743.579 973.224 739.4 972.975 736.23 972.899C735.441 965.911 735.644 954.983 735.617 947.664L735.526 907L734.33 791.422C734.151 773.309 735.281 755.105 734.375 736.873C724.201 718.997 723.333 735.947 718.028 737.915C717.024 737.731 716.744 737.978 716.28 737.103C711.75 728.579 722.703 720.624 730.643 722.678C735.299 723.883 736.682 728.341 738.882 732.255C740.189 726.654 740.745 721.705 739.086 716.064C733.99 698.734 714.104 682.494 698.632 674.111C609.8 625.978 496.6 632.046 403.505 664.283C397.88 666.231 391.846 669.241 386.23 670.795L385.401 670.045C383.859 670.789 384.031 671.911 383.6 672.141C379.528 674.315 375.014 676.444 371.075 678.778C362.527 683.912 354.389 689.699 346.733 696.087C341.265 700.634 334.681 709.397 328.432 713.077C327.788 713.456 327.442 713.1 326.584 712.769C326.053 711.912 325.376 711.061 326.016 709.96C336.225 692.397 352.569 680.949 368.566 669.153C373.029 665.861 378.531 663.605 383.232 660.748C369.55 663.676 346.615 678.507 335.953 687.632C326.818 695.284 321.165 703.725 316.253 714.546C313.027 721.652 311.901 725.419 307.497 731.915C301.521 698.401 337.398 671.506 364.133 659.591C367.415 658.128 370.676 656.675 373.937 655.146C370.543 653.032 365.504 648.534 361.732 645.794C357.601 647.179 354.677 649.441 350.833 651.196C326.279 662.385 300.626 686.675 299.511 715.314C298.991 728.658 306.314 737.605 316.302 745.188C315.763 742.521 315.517 739.803 315.569 737.082C315.71 731.953 317.313 719.502 324.054 719.774C324.867 720.637 325.023 721.516 324.843 722.746C322.734 737.133 323.833 751.191 323.465 765.724C322.845 790.195 323.676 814.746 323.696 839.231L323.16 972.627L312.51 972.796C312.685 966.022 312.465 958.673 312.569 951.785C313.068 921.814 313.239 891.838 313.081 861.863C313.049 846.434 314.293 823.395 312.437 808.901C309.162 805.653 277.068 799.907 270.698 798.614C268.262 798.12 268.659 798.402 267.647 796.787C260.748 796.917 252.263 793.756 245.383 792.48C239.683 791.423 234.465 790.945 229.532 787.806C232.977 783.546 237.345 778.102 240.877 774.09C248.313 765.643 267.175 720.536 262.031 711.308C260.937 712.269 260.598 713.152 260.241 714.589C257.226 726.704 254.241 738.994 249.181 750.488C241.626 767.682 229.707 782.603 214.607 793.771C220.758 794.309 233.107 796.994 239.483 798.142C257.325 801.356 274.704 805.035 292.756 807.271C296.405 807.723 307.99 808.728 309.866 810.63L309.652 811.341C304.818 813.614 299.343 812.009 294.143 811.766C271.576 810.588 249.107 807.973 226.873 803.936C219.492 802.619 205.358 798.902 198.442 798.911C167.869 798.953 159.046 763.024 156.993 738.735C154.96 713.208 158.828 687.556 168.299 663.764C178.257 638.63 200.509 606.909 215.995 584.753L258.475 523.923L287.99 481.021C292.477 474.565 298.332 465.564 303.255 459.719C300.376 450.1 299.856 441.604 298.21 431.983L290.338 386.978C289.136 380.05 288.646 372.332 286.44 365.863C293.195 345.327 329.554 313.882 347.221 300.225C391.413 266.454 443.289 244.166 498.205 235.357C505.425 234.246 520.54 232 527.287 233.18L528.348 232.287Z"/><path fill="#FEFEFD" transform="matrix(0.961914 0 0 0.961914 -0.00390625 0)" d="M414.227 390.269C420.05 389.725 425.713 390.154 431.516 390.102C484.125 389.627 535.179 410.134 584.235 426.86L678.85 458.588L756.785 484.671C826.325 507.97 905.77 537.44 930.703 613.906C932.626 619.806 933.552 628.371 934.388 634.511C942.738 695.841 880.264 773.411 814.489 742.314C756.61 714.95 750.523 637.667 793.89 593.783C807.275 580.238 818.071 580.79 835.013 576.283C840.352 578.558 846.007 579.905 851.337 582.584C888.652 601.319 896.027 665.198 863.452 691.59C855.005 698.434 841.929 701.024 832.096 695.612C824.709 691.508 819.197 684.703 816.719 676.624C812.266 661.891 815.877 652.691 822.28 639.206C824.654 633.842 834.449 626.122 840.822 625.758C851.949 625.123 858.883 633.067 860.935 642.545C864.412 658.607 850.062 659.955 846.96 664.857C846.884 667.065 846.519 666.215 847.582 667.677C851.015 668.935 856.655 665.363 859.228 663.348C867.71 656.732 870.065 645.943 866.548 635.933C860.485 618.674 835.293 613.493 821.795 625.05C796.858 646.404 801.56 696.163 836.48 703.84C857.272 708.411 882.221 691.766 889.09 672.267C893.655 659.332 894.168 646.014 893.264 632.491C892.427 610.505 880.808 590.476 862.683 578.074C856.493 574.413 849.492 572.037 842.81 569.377C822.745 561.392 802.129 554.684 781.782 547.517C757.165 537.642 726.588 528.484 701.204 520.223L619.774 492.876C601.755 486.979 584.901 480.264 567.319 474.133C534.645 462.761 501.702 452.178 468.518 442.391C462.13 440.559 428.885 432.424 425.066 434.075C422.593 435.143 418.654 433.728 415.914 433.64C407.045 433.355 391.352 440.657 384.889 446.998C372.295 459.354 368.083 476.271 368.083 493.452C368.082 515.173 379.797 535.764 394.873 550.777C408.321 564.17 428.054 571.77 447.002 571.631C454.475 571.577 463.155 570.215 468.531 564.589C474.917 557.907 477.761 547.551 477.46 538.485C476.898 521.615 468.943 504.448 456.484 493.078C448.907 486.164 441.704 481.823 432.208 478.099C430.096 477.271 427.633 476.144 425.403 475.775C422.451 475.286 418.943 475.544 415.946 475.736C411.309 476.034 406.697 478.11 403.72 481.743C400.477 485.702 399.31 491.845 399.928 496.839C401.056 505.956 409.962 517.611 416.987 523.269C420.382 526.004 427.93 531.805 432.326 531.321L432.835 530.566C432.178 527.796 423.099 521.545 420.406 519.101C418.018 516.949 415.879 514.534 414.032 511.903C408.19 503.546 406.515 497.358 408.331 487.474C418.705 478.862 435.402 485.728 444.834 493.093C456.551 502.241 468.858 519.295 469.65 534.756C471.88 578.317 427.8 567.729 405.469 549.527C389.841 535.851 381.183 517.886 379.666 497.248C377.806 471.938 390.84 445.552 418.2 442.869C434.655 441.256 456.489 455.699 468.239 466.035C486.522 482.116 501.713 503.868 509.568 526.948C517.084 551.152 518.579 584.227 500.493 604.154C490.206 615.489 475.792 620.197 460.803 620.44C393.245 621.536 334.965 565.405 329.413 498.77C327.651 476.65 328.99 454.129 340.137 434.853C343.201 428.524 347.132 423.762 351.504 418.356C366.74 399.517 389.755 391.472 414.227 390.269Z"/><path fill="#FEFEFD" transform="matrix(0.961914 0 0 0.961914 -0.00390625 0)" d="M321.696 448.485C321.779 449.39 317.455 467.355 317.022 468.862C315.517 474.104 316.591 494.455 315.239 496.918C309.137 508.031 298.248 523.259 290.715 533.803C278.111 551.444 266.241 571.062 253.9 588.495L232.07 619.179C226.422 626.967 220.366 634.443 215.709 642.827C214.091 645.74 211.497 647.082 209.152 649.409C192.143 666.286 181.652 695.123 181.821 719.004C182.064 730.68 183.067 744.389 192.16 752.887C200.885 761.041 211.541 757.704 218.7 749.457C229.31 737.236 231.423 720.749 230.503 705.11C230.086 698.022 226.325 685.165 217.031 686.776C215.144 687.354 212.149 686.416 210.431 687.37C197.829 694.368 191.214 719.118 205.761 727.146C208.671 728.752 219.368 722.96 214.844 717.562L213.626 717.537C211.529 718.864 210.957 719.716 208.544 718.938C204.445 714.878 204.617 706.579 206.965 701.604C209.367 696.515 211.511 695.251 216.486 693.467C225.883 699.458 223.112 721.7 220.496 730.939C217.729 740.713 214.082 746.283 205.091 751.208C201.441 750.438 199.777 750.093 197.107 747.263C191.777 741.614 190.77 728.137 191.273 720.765C191.886 714.877 191.265 706.66 191.64 700.499C191.3 706.083 195.051 691.402 194.123 694.588C195.315 690.492 196.669 686.74 198.304 682.793C201.52 675.226 205.755 668.135 210.892 661.716C214.58 657.111 217.211 653.439 223.721 652.313C243.15 648.952 252.049 673.607 252.945 690.511C253.753 717.398 241.388 754.553 223.278 774.515C186.034 815.571 167.357 768.807 166.489 734.269C165.845 708.66 167.951 689.05 177.86 665.39C188.056 641.044 201.431 621.254 216.141 599.749C224.543 586.842 232.195 575.919 241.045 563.345L272.709 517.488C282.628 502.827 292.703 488.272 302.93 473.824C308.178 466.324 315.655 454.961 321.696 448.485Z"/><path fill="#FEFEFD" transform="matrix(0.961914 0 0 0.961914 -0.00390625 0)" d="M527.229 237.733C546.064 235.714 573.751 241.089 592.79 243.354C598.36 244.017 601.119 251.408 603.959 256.266C607.573 262.526 611.274 268.735 615.06 274.893C636.059 309.159 655.676 344.395 676.105 378.955C670.946 378.004 665.65 376.317 660.509 375.328C640.779 371.533 621.068 372.239 601.514 376.713C599.19 377.245 595.711 378.19 593.411 378.469C590.816 379.402 585.964 380.389 582.878 381.383C568.125 386.131 548.184 391.079 535.12 399.147C529.718 397.865 526.872 397.538 521.251 395.785C527.648 392.751 533.958 389.068 540.454 386.257C552.802 380.914 565.729 376.465 578.686 372.833C582.575 371.742 587.175 371.043 590.869 369.585C589.253 361.558 577.6 343.105 574.544 336.8C567.885 323.066 526.859 246.666 526.321 238.613L527.229 237.733Z"/><path fill="#071E50" transform="matrix(0.961914 0 0 0.961914 -0.00390625 0)" d="M540.287 243.225C540.533 243.297 540.783 243.358 541.026 243.442C547.955 245.83 575.99 302.254 581.416 312.193C591.195 330.108 602.637 347.78 610.444 366.635C609.919 366.669 609.393 366.694 608.867 366.71C604.086 366.83 602.56 362.547 600.379 358.807C584.774 332.038 570.063 304.355 556.018 276.761C553.339 271.498 540.017 247.697 540.287 243.225Z"/><path fill="#FEFEFD" transform="matrix(0.961914 0 0 0.961914 -0.00390625 0)" d="M497.368 617.204C501.262 614.836 505.935 612.297 509.044 608.89C511.108 606.626 513.006 600.706 515.579 599.445C518.548 597.989 527.526 598.619 531.144 598.591C546.181 598.472 561.209 598.474 576.211 599.661C588.675 600.647 601.229 602.597 613.586 604.509C621.152 605.68 628.92 606.561 636.363 608.361C673.549 617.35 729.725 638.791 750.261 672.98C762.504 693.363 759.294 694.415 759.961 716.075C753.933 689.495 733.67 671.787 711.616 657.645C654.735 621.169 578.402 609.931 512.007 616.691C508.198 617.079 500.508 618.985 497.451 618.568L497.368 617.204Z"/><path fill="#FEFEFD" transform="matrix(0.961914 0 0 0.961914 -0.00390625 0)" d="M627.974 380.706C644.944 380.147 669.605 380.56 682.718 392.839C698.802 407.899 689.036 433.096 676.316 446.883C672.195 445.672 669.138 444.632 665.129 443.09C680.784 426.729 683.48 407.251 656.855 400.859C651.605 400.117 647.834 398.881 642.058 398.695C617.654 397.909 592.909 402.325 570.233 410.843C563.174 409.291 551.03 406.817 545.224 403.207C565.662 392.007 604.575 381.899 627.974 380.706Z"/><path fill="#FEFEFD" transform="matrix(0.961914 0 0 0.961914 -0.00390625 0)" d="M595.075 524.231C600.998 525.001 611.863 527.163 617.574 528.658C624.867 530.568 631.028 533.825 639.006 534.819C639.827 535.462 640.607 536.155 641.342 536.896C653.326 548.747 652.611 567.474 644.996 581.202C642.234 586.181 638.936 592.305 634.82 596.257C634.177 596.671 633.317 597.249 632.506 597.06C619.749 594.085 606.738 590.952 593.612 590.11C600.014 581.572 606.355 573.28 607.584 562.281C609.585 544.378 605.147 537.499 595.075 524.231Z"/><path fill="#FEFEFD" transform="matrix(0.961914 0 0 0.961914 -0.00390625 0)" d="M652.111 538.48C658.16 539.675 691.539 550.697 695.641 553.65C699.32 556.299 700.599 561.123 701.299 565.38C704.27 583.443 693.657 595.52 683.82 609.174C683.161 610.427 683.234 610.464 682.175 611.363C679.401 610.949 671.206 607.761 667.892 606.737C662.337 605.019 657.189 603.766 651.526 602.328C649.619 601.844 646.864 600.581 644.351 599.891C656.136 583.281 665.367 560.781 653.303 541.258C652.562 540.06 652.344 539.952 652.111 538.48Z"/><path fill="#FEFEFD" transform="matrix(0.961914 0 0 0.961914 -0.00390625 0)" d="M320.982 333.363C321.878 333.968 323.487 335.525 323.779 336.553C331.07 362.268 334.424 388.775 341.28 414.641C330.873 423.327 319.833 438.196 311.729 449.325C310.139 447.314 300.531 386.194 300.765 379.94C300.801 378.976 300.825 378.232 300.516 377.301C300.429 377.041 300.326 376.786 300.231 376.528C299.737 372.33 298.953 368.212 298.428 364.013C297.958 360.244 303.05 350.544 306.492 350.532C308.707 355.068 313.21 381.767 314.599 388.989C316.431 398.971 318.736 408.861 321.505 418.625C322.071 420.646 323.013 425.886 323.64 426.951L324.796 427.169C331.309 424.227 327.226 415.532 326.095 409.589C324.472 400.625 322.627 391.704 320.563 382.831C318.565 374.558 312.4 350.901 312.295 343.582L312.29 342.83C314.971 339.42 317.859 337.536 320.982 333.363Z"/><path fill="#FEFEFD" transform="matrix(0.961914 0 0 0.961914 -0.00390625 0)" d="M551.81 518.931C559.106 519.061 584.626 521.534 589.351 527.046C606.76 547.358 602.687 570.616 584.843 588.877C581.765 589.391 570.141 588.03 566.251 587.816C560.94 587.524 557.081 587.622 551.735 587.789C557.242 581.309 561.064 577.961 562.909 569.347C567.277 548.959 564.946 534.763 551.81 518.931Z"/><path fill="#FEFEFD" transform="matrix(0.961914 0 0 0.961914 -0.00390625 0)" d="M461.624 450.495C464.648 450.73 472.87 453.011 476.232 453.876C492.412 458.092 508.447 462.846 524.311 468.128C582.558 486.882 640.227 506.65 698.266 525.992C724.238 534.464 750.048 543.421 775.685 552.858C781.251 554.873 821.427 567.692 823.311 571.244L822.606 571.666C821.923 571.816 820.333 572.174 819.65 572.017C803.345 568.285 786.723 562.168 770.929 556.985L617.159 505.151C602.504 500.15 587.314 496.028 572.662 490.989C556.882 485.561 541.182 480.446 525.277 475.426C506.866 469.614 488.561 463.012 470.276 456.808C467.234 455.776 463.695 452.934 461.624 450.495Z"/><path fill="#FEFEFD" transform="matrix(0.961914 0 0 0.961914 -0.00390625 0)" d="M534.674 519.124C546.558 517.793 554.125 532.817 556.514 542.497C559.369 553.817 557.503 565.811 551.344 575.729C548.988 579.59 546.124 582.966 543.777 586.9L543.498 587.376C540.143 587.664 536.511 587.762 533.124 587.914C528.429 588.125 523.732 588.29 519.034 588.411C525.516 568.582 526.485 550.195 519.671 530.609C518.746 527.952 517.766 524.405 517.408 521.613C519.217 519.574 531.123 520.038 534.674 519.124Z"/><path fill="#FEFEFD" transform="matrix(0.961914 0 0 0.961914 -0.00390625 0)" d="M538.539 624.759C550.289 624.905 562.625 624.59 574.536 625.708C629.293 630.849 692.605 645.455 734.236 683.435C743.366 691.764 755.239 706.368 755.627 719.406C755.851 726.923 749.706 732.319 744.83 737.358C749.912 718.573 743.799 703.262 730.894 689.362C729.298 687.545 727.55 685.958 725.735 684.365C675.722 640.48 583.304 629.56 519.082 630.487C503.078 630.718 486.999 632.639 471.019 633.68L470.805 633.213L469.952 633.454L470.196 633.618C476.243 629.708 528.207 625.379 538.539 624.759Z"/><path fill="#FEFEFD" transform="matrix(0.961914 0 0 0.961914 -0.00390625 0)" d="M708.658 559.265C713.796 560.148 726.029 567.893 729.75 572.473C735.336 579.347 735.467 585.336 735.198 593.401C734.865 603.363 724.798 623.464 717.68 629.384L716.809 629.172C708.137 624.797 698.28 618.876 689.541 615.208C692.393 612.774 701.214 600.231 703.407 596.476C712.006 581.753 712.388 574.933 708.658 559.265Z"/><path fill="#FEFEFD" transform="matrix(0.961914 0 0 0.961914 -0.00390625 0)" d="M740.254 576.388C750.938 580.333 758.095 589.236 764.79 598.043C767.082 601.058 768.758 605.051 770.816 608.437C767.816 613.412 764.928 617.98 762.436 623.249C758.299 631.996 755.637 641.575 749.431 649.091C748.735 649.542 746.072 650.103 745.097 650.346C743.72 649.798 727.549 636.42 724.929 634.337C730.711 628.879 736.574 619.669 739.847 612.428C745.425 600.09 745.089 588.849 740.254 576.388Z"/><path fill="#FEFEFD" transform="matrix(0.961914 0 0 0.961914 -0.00390625 0)" d="M328.86 579.961C329.693 581.844 326.241 594.07 326.718 599.403C327.797 610.456 333.202 620.634 341.754 627.717C346.422 631.544 351.184 634.21 356.045 638.494L356.739 639.112C353.609 640.624 350.89 642.384 347.546 643.276C346.4 642.344 346.891 642.572 345.505 642.162C345.342 642.795 345.233 643.389 345.151 644.035C340.142 647.178 334.999 650.652 330.078 653.997C328.945 654.767 328.178 654.291 327.25 653.883C325.225 650.911 319.444 648.343 315.637 643.91C309.117 636.319 302.305 626.752 302.519 616.375C302.386 613.18 302.657 609.982 303.324 606.855C304.428 601.863 311.332 594.943 315.428 592.24C315.324 594.431 315.24 600.963 315.973 602.822C323.093 620.895 323.722 630.851 341.273 640.787L341.97 640.521C342.379 635.689 320.296 618.875 321.347 596.54C321.689 589.281 323.48 584.816 328.86 579.961Z"/><path fill="#FEFEFD" transform="matrix(0.961914 0 0 0.961914 -0.00390625 0)" d="M320.688 508.324C322.441 509.767 323.027 513.703 323.541 515.964C337.215 576.17 385.096 622.385 447.33 628.294C449.959 628.543 457.275 628.042 459.307 629.143L458.874 629.799C452.56 630.736 445.652 631.755 439.474 631.668C393.221 631.016 351.61 597.001 332.088 556.579C324.895 541.685 318.127 525.359 320.688 508.324Z"/><path fill="#FEFEFD" transform="matrix(0.961914 0 0 0.961914 -0.00390625 0)" d="M349.047 310.265C351.788 310.737 351.895 316.177 352.587 318.619C359.292 342.257 364.05 367.684 370.891 391.127C367.148 393.092 363.864 395.005 360.228 397.17L358.907 397.801L358.005 397.475C356.799 394.691 357.189 392.754 356.303 389.303C350.491 366.656 343.732 342.693 340.545 319.59C340.229 317.298 346.828 312.208 349.047 310.265Z"/><path fill="#FEFEFD" transform="matrix(0.961914 0 0 0.961914 -0.00390625 0)" d="M312.126 515.871C314.443 519.08 313.986 521.695 314.089 525.771C308.631 531.831 304.182 539.741 299.239 546.285C285.898 563.948 274.274 582.652 261.964 600.98C252.412 615.204 241.686 625.602 233.951 641.413C231.166 641.405 228.381 641.44 225.598 641.52L224.733 641.967C224.663 640.839 299.145 535.385 307.078 524.158C308.531 522.102 310.818 518.713 312.126 515.871Z"/><path fill="#FEFEFD" transform="matrix(0.961914 0 0 0.961914 -0.00390625 0)" d="M277.749 633.327C278.507 635.365 278.414 637.368 278.89 639.864C280.026 645.813 280.862 649.786 283.388 655.6C287.206 664.389 293.954 673.616 302.191 678.831C303.933 679.934 302.218 678.177 303.545 679.723C301.081 686.145 296.111 690.277 293.823 697.852C293.907 698.758 294.021 698.353 293.5 699.073C288.467 696.932 275.627 679.161 272.973 673.146C267.04 659.698 268.956 650.415 273.782 637.439C275.741 635.713 276.005 635.579 277.749 633.327Z"/><path fill="#FEFEFD" transform="matrix(0.961914 0 0 0.961914 -0.00390625 0)" d="M295.781 613.893C296.391 617.172 296.016 624.671 297.37 628.571C301.824 641.402 309.288 652.153 320.738 659.122C316.609 664.228 311.178 668.366 307.595 673.249C307.38 673.691 307.564 673.377 306.776 673.966C305.542 673.483 304.499 672.673 303.612 671.606C293.22 659.1 285.47 647.797 285.461 630.919C285.457 623.499 290.811 618.618 295.781 613.893Z"/><path fill="#FEFEFD" transform="matrix(0.961914 0 0 0.961914 -0.00390625 0)" d="M261.625 660.769C263.64 662.398 263.264 671.494 264.368 674.79C267.639 684.551 274.443 693.258 282.688 699.358C285.867 701.711 289.222 703.692 292.166 706.341C292.592 708.127 292.574 707.182 291.619 709.255C281.982 703.689 270.595 701.473 264.721 690.532C259.914 681.577 258.967 670.481 261.625 660.769Z"/><path fill="#FEFEFD" transform="matrix(0.961914 0 0 0.961914 -0.00390625 0)" d="M770.312 717.214C771.358 717.939 779.594 727.169 781.151 728.753C793.77 741.592 802.095 747.128 818.09 754.482L818.091 755.45C804.41 759.676 767.883 729.662 770.312 717.214Z"/><path fill="#FEFEFD" transform="matrix(0.961914 0 0 0.961914 -0.00390625 0)" d="M765.775 764.502L766.024 764.704L766.082 765.468C764.252 767.928 759.139 771.76 756.425 773.346C755.446 772.12 755.19 772.051 755.104 770.486C756.608 767.833 762.008 766.515 765.775 764.502Z"/><path fill="#D2CFCE" transform="matrix(0.961914 0 0 0.961914 -0.00390625 0)" d="M497.451 618.568C495.673 618.893 495.986 619.41 493.239 619.496C494.417 618.333 495.808 617.907 497.368 617.204L497.451 618.568Z"/><path fill="#071E50" transform="matrix(0.961914 0 0 0.961914 -0.00390625 0)" d="M366.687 52.7201C373.977 53.2469 382.2 55.2871 389.449 56.236C415.412 59.6349 441.285 64.4695 467.117 68.7521C551.261 82.5577 635.113 98.0823 718.622 115.316L773.074 125.984C779.919 127.359 793.909 129.811 799.937 132.294C804.799 138.965 810.829 150.088 814.541 157.429C810.741 161.225 806.542 166.14 802.801 170.164L770.751 205.179L701.222 279.492L678.866 303.414C675.241 307.244 668.322 314.651 664.308 317.493C662.275 315.157 660.44 312.523 658.763 309.921C644.52 287.832 632.017 264.648 617.15 242.956C614.367 238.895 611.366 234.543 608.993 230.249C573.879 224.82 540.744 220.386 504.928 224.895C476.365 228.6 448.425 236.107 421.852 247.218C380.913 264.252 338.402 293.311 305.388 323.219C294.476 333.104 285.496 344.025 276.521 355.657C276.712 365.012 278.883 373.9 280.35 383.039C282.097 394.8 284.149 406.885 286.128 418.531C286.968 423.472 293.023 449.298 291.548 451.88C288.206 452.695 261.005 453.433 256.256 453.693C224.388 455.509 192.497 456.91 160.592 457.896C152.299 458.131 140.223 459.927 132.577 458.073C131.879 451.075 133.701 437.413 133.409 427.749C141.533 423.685 154.157 420.519 162.97 417.328C176.043 412.595 189.564 407.142 202.608 402.472C213.259 398.7 223.856 394.774 234.393 390.695C237.654 389.449 253.685 383.844 254.408 381.51C253.415 379.412 252.028 378.399 250.316 376.805C243.63 378.332 222.33 386.778 214.901 389.658L162.319 409.859C157.793 411.645 139.491 419.241 135.906 419.736L135.273 419.249C135.242 417.052 136.847 388.375 136.622 388.685C150.109 370.138 164.889 351.485 178.894 333.258L216.501 284.355C221.297 278.06 235.385 261.173 238.293 255.634L238.66 254.927C234.553 257.152 219.244 264.427 217.267 267.185C198.332 293.588 179.117 319.939 158.267 344.933C151.34 353.238 147.963 360.526 139.075 367.897C138.941 364.875 138.439 358.909 139.475 356.44C142.974 348.103 150.663 339.704 156.122 332.617L177.475 304.808C184.116 296.389 190.601 287.745 197.486 279.541C192.123 281.844 187.144 285.231 182.119 288.236C171.406 294.642 160.818 301.489 150.546 308.59C145.011 312.416 138.303 315.882 133.151 319.585C131.721 328.099 131.803 340.253 131.451 349.215C129.775 391.906 129.533 434.736 127.369 477.388C126.96 485.444 126.204 493.593 126.385 501.66C128.157 502.765 129.638 502.228 131.538 502.646C135.317 503.479 139.983 507.594 142.118 510.553C147.135 517.385 149.178 525.955 147.782 534.316C146.098 543.995 140.697 549.036 133.232 554.309C137.132 568.9 141.788 610.323 139.89 625.45C139.621 627.593 139.255 629.924 137.485 631.343C135.742 631.674 134.306 631.815 132.517 631.519C131.324 631.321 130.558 630.632 130.213 629.456C128.997 625.31 128.98 619.728 128.842 615.542C128.463 604.082 129.268 568.592 124.598 559.361L123.904 559.582C120.559 570.238 127.793 627.633 124.405 631.573C120.42 634.07 116.26 632.702 113.202 629.521C113.487 617.106 114.5 604.641 115.064 592.305C115.343 586.206 117.294 566.085 116.105 560.802L115.3 560.666C114.461 561.72 113.846 562.562 113.08 563.652C113.231 571.774 110.873 576.12 110.239 583.144C108.938 599.036 109.312 615.357 107.648 631.13C107.384 633.632 89.5198 632.911 89.3611 627.196C88.8193 607.689 91.1568 588.476 98.8657 570.402C101.559 564.086 102.831 559.498 106.804 553.494C97.7297 549.605 92.3851 544.374 91.3803 534.013C90.5413 525.36 92.2192 517.969 97.8074 511.169C102.186 505.851 108.493 502.485 115.348 501.806C115.316 483.057 117.156 456.685 117.963 437.606C118.481 425.376 120.977 315.316 122.934 314.01C163.46 286.957 206.732 260.346 248.577 236.253L319.96 195.606C324.88 192.774 352.643 177.7 353.993 174.319C351.966 171.377 352.119 172.028 353.687 169.002L353.016 168.633C346.199 170.719 320.95 186.539 313.827 191.001C304.713 196.472 295.62 202.074 286.451 207.444C283.436 209.21 270.986 217.692 268.408 216.158C268.713 214.005 291.319 183.248 295.119 177.939C318.391 145.428 344.875 114.043 365.673 79.7992C364.401 74.9044 364.511 72.2248 364.483 67.2139L283.361 178.691C269.698 197.399 256.433 216.901 241.082 234.279C238.664 237.015 228.489 241.753 224.994 243.29C229.901 235.062 234.664 228.95 240.19 221.386L266.224 186.485L325.071 106.601C337.796 89.6442 349.402 71.706 361.829 54.5314C363.027 52.8749 364.782 52.8964 366.687 52.7201Z"/><path fill="#FEFEFD" transform="matrix(0.961914 0 0 0.961914 -0.00390625 0)" d="M371.287 62.9497C377.684 62.7456 387.253 65.0845 393.964 66.2451C408.748 68.8019 423.766 71.5533 438.589 73.8737C513.52 85.8545 588.208 99.3012 662.612 114.206L758.187 133.509C765.228 134.915 772.249 136.415 779.249 138.01C783.574 138.977 789.464 140.545 793.77 140.73C796.894 146.475 798.246 150.891 801.968 156.996C801.651 157.159 801.334 157.321 801.017 157.484C784.77 154.646 760.931 149.317 745.432 146.364L502.187 99.6495C463.903 91.993 425.93 83.2518 387.382 76.8372C382.389 76.0063 377.825 74.6776 372.687 74.2709C372.914 71.957 371.63 65.9667 371.287 62.9497Z"/><path fill="#FEFEFD" transform="matrix(0.961914 0 0 0.961914 -0.00390625 0)" d="M762.688 156.48C765.03 157.135 769.715 157.59 772.985 158.327C765.948 162.354 759.212 167.188 752.305 171.468C728.764 186.056 704.205 199.341 679.662 212.151C671.681 216.318 646.677 231.02 638.62 229.768C637.453 230.036 629.16 229.501 627.386 229.402C641.393 221.914 655.732 215.131 669.808 207.816C690.539 197.042 711.013 185.643 731.605 174.61C742.158 168.955 752.011 161.833 762.688 156.48Z"/><path fill="#FEFEFD" transform="matrix(0.961914 0 0 0.961914 -0.00390625 0)" d="M416.12 146.709C429.004 146.194 438.191 146.693 443.371 160.153C443.119 161.156 442.842 162.153 442.542 163.143C439.303 173.722 428.17 178.289 419.25 183.104C425.008 175.911 427.415 175.35 427.56 164.751C420.904 150.641 391.842 160.121 380.939 161.714C389.971 153.116 403.883 148.223 416.12 146.709Z"/><path fill="#FEFEFD" transform="matrix(0.961914 0 0 0.961914 -0.00390625 0)" d="M120.348 508.182C130.526 506.321 139.171 520.573 139.071 529.719C138.983 534.476 136.959 538.991 133.466 542.22C128.102 547.112 121.404 546.742 114.693 546.461C114.698 546.153 114.704 545.846 114.709 545.538C119.039 543.513 124.685 542.676 127.575 538.504C128.799 536.737 129.039 534.354 128.599 532.641C126.328 523.802 116.635 517.529 109.558 513.108C113.456 509.21 115.254 508.762 120.348 508.182Z"/><path fill="#FEFEFD" transform="matrix(0.961914 0 0 0.961914 -0.00390625 0)" d="M194.787 433.563C195.888 434.512 196.736 435.446 197.042 436.775C196.035 438.067 194.5 437.879 192.23 439.16L191.714 441.2L191.626 440.759L191.272 440.56L191.266 439.958C189.925 439.618 189.721 439.878 188.659 440.353C188.569 439.029 193.529 435.505 194.787 433.563Z"/><path fill="#FEFEFD" transform="matrix(0.961914 0 0 0.961914 -0.00390625 0)" d="M717.283 238.973C718.551 239.076 719.761 240.042 720.365 241.135C719.99 242.965 720.369 242.14 719.034 243.621C717.386 243.935 718.181 243.998 716.572 243.347L716.116 241.267C714.946 242.013 714.373 242.359 713.331 243.284L712.616 243.927L712.1 243.813L712.474 241.469C714.985 240.95 715.542 240.872 717.283 238.973Z"/><path fill="#FEFEFD" transform="matrix(0.961914 0 0 0.961914 -0.00390625 0)" d="M702.235 247.752L703.555 248.422C704.271 249.803 704.191 249.108 703.892 250.564C702.203 252.531 700.019 253.012 697.56 253.905C696.668 252.999 696.644 252.955 695.985 251.863C699.4 250.289 699.42 250.334 702.235 247.752Z"/><path fill="#152B5A" transform="matrix(0.961914 0 0 0.961914 -0.00390625 0)" d="M580.381 197.708C582.596 198.093 583.882 198.035 584.402 200.436C583.347 202.159 584.028 201.409 582.019 202.501C580.342 202.988 581.139 203.037 579.545 202.376C579.07 201.055 579.919 199.172 580.381 197.708Z"/><path fill="#FEFEFD" transform="matrix(0.961914 0 0 0.961914 -0.00390625 0)" d="M714.6 157.615L715.013 157.88C716.522 158.862 718.053 159.7 718.44 161.506C717.035 161.257 716.321 160.124 715.299 159.005C711.745 161.187 714.447 161.324 712.103 162.299C710.653 161.069 710.92 161.782 710.688 160.315C711.555 158.901 713.056 158.402 714.6 157.615Z"/><path fill="#FEFEFD" transform="matrix(0.961914 0 0 0.961914 -0.00390625 0)" d="M691.492 232.061C692.939 232.79 693.197 232.762 694.759 232.949L695.215 233.001L695.303 233.464L692.349 235.526C691.308 236.594 691.288 236.546 689.956 237.263L689.339 237.046C689.455 235.149 690.62 233.815 691.492 232.061Z"/><path fill="#FEFEFD" transform="matrix(0.961914 0 0 0.961914 -0.00390625 0)" d="M609.497 193.169C611.089 194.047 612.405 194.334 613.553 195.251L611.411 196.358C610.681 197.156 610.41 197.345 609.547 198.01L608.462 197.668C607.523 195.569 608.379 194.713 609.497 193.169Z"/><path fill="#FEFEFD" transform="matrix(0.961914 0 0 0.961914 -0.00390625 0)" d="M678.955 243.005L679.158 243.001C679.657 244.347 679.477 244.613 679.038 245.873L679.659 245.617L679.318 246.207L679.684 245.986L679.46 246.407L679.732 246.749L678.592 246.105C677.125 246.096 676.892 246.336 675.631 247.084C675.736 247.866 675.748 247.431 675.475 248.378L675.015 247.32C675.212 245.226 674.822 246.085 676.001 244.563C677.567 244.205 677.836 244.273 678.955 243.005Z"/><path fill="#FEFEFD" transform="matrix(0.961914 0 0 0.961914 -0.00390625 0)" d="M470 124.503C471.209 124.47 471.175 124.477 472.346 124.795C473.692 126.121 473.736 127.838 474.072 129.744C472.755 128.208 470.428 126.261 470 124.503Z"/><path fill="#152B5A" transform="matrix(0.961914 0 0 0.961914 -0.00390625 0)" d="M443.378 105.354C443.91 105.814 443.657 105.495 443.936 106.44L442.484 108.216C441.632 107.688 441.882 108.054 441.645 107.184L443.378 105.354Z"/><path fill="#071E50" transform="matrix(0.961914 0 0 0.961914 -0.00390625 0)" d="M480.905 669.225C488.816 669.435 491.402 676.141 494.805 682.426C497.606 687.601 493.8 691.046 493.713 694.958C493.475 705.685 492.656 716.543 492.6 727.271C492.44 743.344 492.51 759.418 492.811 775.489C493.041 785.273 493.705 795.078 493.852 804.839C494.684 854.474 494.593 904.121 493.579 953.754C493.479 957.076 493.848 969.554 492.818 971.856C490.023 973.582 480.426 972.801 476.922 972.442C478.062 954.749 477.167 933.619 477.1 915.749L476.209 807.755L476.545 723.843L476.543 698.504C476.577 694.626 476.798 690.555 476.829 686.666C476.847 684.504 474.953 683.01 473.402 681.542C466.083 682.279 468.176 699.117 467.935 704.725C467.411 716.877 467.637 729.174 467.653 741.336L468.614 849.998C468.823 883.881 468.561 917.734 469.493 951.618C469.688 958.7 469.247 965.556 470.049 972.646C466.941 972.914 462.882 972.822 459.692 972.833C460.949 934.715 460.527 896.657 460.481 858.523C460.477 855.33 461.654 851.083 459.971 848.814C460.439 836.211 460.255 822.237 460.382 809.529C460.473 800.53 458.926 790.899 459.116 781.549C459.754 750.063 460.135 718.552 460.733 687.084C460.783 684.182 462.653 679.152 464.431 676.766C468.61 671.157 474.408 670.128 480.905 669.225Z"/><path fill="#071E50" transform="matrix(0.961914 0 0 0.961914 -0.00390625 0)" d="M408.808 685.625C418.037 686.042 422.615 693.464 424.22 701.586C420.431 708.501 421.899 721.176 421.969 729.367L422.088 763.325L422.488 848.25C422.651 864.023 422.653 879.968 422.295 895.727C422.221 898.986 422.959 902.512 422.95 905.714C422.892 927.354 422.105 950.923 423.118 972.428C417.285 972.928 412.366 973.053 406.542 972.439L406.385 885.143C406.271 872.295 405.624 859.23 405.706 846.382L405.754 752.368C405.712 736.797 405.912 721.182 405.702 705.601C405.667 702.996 405.291 698.802 402.357 698.137C400.427 699.356 400.968 699.124 399.715 701.394C397.489 708.774 398.696 715.916 398.613 723.658C398.367 738.313 398.362 752.971 398.598 767.627L399.338 897.023C399.65 921.708 401.311 948.304 400.193 972.953C397.328 973.021 394.317 972.924 391.441 972.881L391.607 854.933C391.63 841.719 392.657 828.73 392.514 815.471C392.409 805.877 391.812 796.431 391.655 786.961C391.48 768.098 391.403 749.234 391.423 730.369C391.434 721.595 391.238 712.718 391.117 703.941C391.081 701.324 394.272 695.318 395.884 693.234C399.436 688.642 402.999 686.348 408.808 685.625Z"/><path fill="#152B5A" transform="matrix(0.961914 0 0 0.961914 -0.00390625 0)" d="M550.02 667.255C552.351 667.418 553.933 668.154 556.04 668.801C565.793 671.798 567.62 677.371 568.418 686.652C569.147 695.143 568.424 702.916 568.223 711.37C568.013 721.667 568.022 731.968 568.248 742.265C568.626 760.388 568.726 778.516 568.548 796.641C567.925 848.835 568.681 900.923 567.821 953.065C567.713 959.617 567.514 965.902 567.573 972.499C562.821 972.628 558.777 972.556 554.041 972.399L553.443 772.408C553.517 748.515 554.381 724.554 554.432 700.722C554.453 690.912 558.117 683.922 549.343 677.529C546.987 675.813 547.419 675.761 544.23 675.995C536.525 684.018 539.133 698.322 539.467 708.762C539.665 717.445 539.769 726.13 539.781 734.816L539.237 855.108C539.276 893.663 539.478 932.263 539.422 970.823C539.421 971.718 539.261 971.943 538.848 972.675C537.327 973.399 535.953 973.069 534.225 972.93C533.182 972.145 532.291 971.24 532.279 969.737C532.283 949.316 533.871 929.41 532.788 908.951C531.74 889.156 533.039 868.785 532.186 848.897C531.966 843.786 533.087 837.996 532.937 832.826C532.515 818.344 533.493 803.669 533.387 789.255L532.419 712.759C532.366 702.621 531.29 691.705 532.908 681.722C534.514 671.809 540.691 668.486 550.02 667.255Z"/><path fill="#071E50" transform="matrix(0.961914 0 0 0.961914 -0.00390625 0)" d="M349.771 711.701C354.504 710.135 361.934 718.416 363.285 722.494C364.838 727.179 360.983 729.792 360.751 732.989C360.725 741.524 359.479 750.841 359.669 759.321C360.007 774.369 360.034 788.989 359.519 803.994C359.061 817.322 359.745 831.323 359.683 844.694L359.511 887.5C359.344 900.464 358.57 912.668 359.652 925.628C360.2 932.2 361.537 968.363 359.683 972.042C357.331 972.72 351.252 972.877 349.26 971.336C347.139 964.668 349.209 931.965 349.408 923.411L350.234 870.765C350.389 862.539 349.519 853.763 349.758 845.663C350.129 833.015 350.712 820.466 350.923 807.794C351.168 781.99 351.23 756.184 351.109 730.378C351.424 727.947 352.222 721.597 348.023 722.102C346.612 723.774 346.384 725.986 346.36 728.114C346.017 758.822 346.385 789.602 345.988 820.303L344.426 929.25C344.292 943.997 343.896 957.655 344.114 972.518C341.062 972.769 338.166 972.751 335.108 972.767C334.362 951.876 335.225 932.146 335.413 911.339C335.646 872.425 336.222 833.513 337.141 794.608C337.687 772.479 338.092 750.435 337.376 728.287C337.126 720.565 341.389 712.96 349.771 711.701Z"/><path fill="#152B5A" transform="matrix(0.961914 0 0 0.961914 -0.00390625 0)" d="M619.767 676.713C631.814 674.05 641.983 685.779 642.093 697.039C642.571 745.993 640.545 795.048 640.546 844.033C640.547 857.414 641.279 870.646 641.198 884.062C641.021 913.275 639.685 943.379 641.091 972.526L632.1 972.48L633.468 782.852C633.778 753.615 635.278 723.848 633.749 694.594C633.537 690.533 630.838 687.268 628.281 684.345C626.648 683.778 624.827 683.026 623.192 682.397C621.627 683.151 620.094 683.36 618.67 684.266C611.728 688.485 615.833 692.615 615.827 697.018C615.794 719.281 615.146 741.712 615.141 763.997L614.296 918.501L614.274 950.266C614.29 952.76 615.02 971.814 612.954 972.575C605.723 975.241 607.683 968.874 607.723 964.43L607.905 943.621L608.465 773.9C608.469 763.385 609.788 701.226 607.591 696.551C606.38 693.973 606.099 691.699 605.913 688.912C608.73 684.682 613.748 676.961 619.396 677.375L619.767 676.713Z"/><path fill="#071E50" transform="matrix(0.961914 0 0 0.961914 -0.00390625 0)" d="M682.177 699.062C695.868 697.468 702.182 705.756 702.296 718.47C702.373 727.095 702.292 735.708 702.267 744.334L702.426 782.978L702.515 877.784C702.676 900.378 702.569 922.974 702.194 945.566C702.118 952.149 702.63 967.319 701.848 973.018C699.635 973.078 697.221 972.926 694.992 972.836C694.89 969.494 694.909 965.983 694.875 962.625C694.774 945.863 695.37 929.569 695.412 912.956L695.594 787.5L695.49 737.773C695.534 729.155 697.875 715.683 693.426 708.365C691.516 705.223 685.074 704.105 682.277 706.691C678.257 710.407 678.412 710.512 678.175 715.368L677.317 715.946C672.782 715.447 669.408 711.403 672.118 706.979C674.833 702.548 677.393 700.694 682.177 699.062Z"/><path fill="#071E50" transform="matrix(0.961914 0 0 0.961914 -0.00390625 0)" d="M109.255 394.117C109.902 392.084 110.171 390.447 111.663 388.992L112.585 388.876C113.567 390.511 112.766 392.661 112.171 394.317C117.375 411.753 83.7385 438.083 84.1201 445.33C88.6528 446.813 107.553 428.224 109.569 423.167C110.003 422.079 110.079 421.664 111.245 421.1L111.726 421.564C112.138 427.593 111.234 451.776 109.503 457.254C107.507 459.304 83.5765 459.503 79.083 459.578C78.1427 458.137 77.7854 457.657 77.1318 456.015C78.3837 447.059 74.137 449.491 72.3447 443C71.5597 440.157 83.5401 427.508 85.6114 424.795L100.479 405.214C103.312 401.452 105.911 397.435 109.255 394.117Z"/><path fill="#152B5A" transform="matrix(0.961914 0 0 0.961914 -0.00390625 0)" d="M924.498 804.965C926.865 805.2 927.424 805.112 928.673 807.01C928.591 812.824 886.934 846.581 881.197 853.184C879.259 856.323 874.937 858.221 872.26 860.904C857.561 875.638 842.972 888.638 826.582 901.457C825.347 902.262 825.792 902.034 824.361 902.443L823.676 901.878C823.705 897.436 839.438 883.568 843.033 879.913C860.931 861.717 878.359 843.444 897.857 826.917C907.035 819.137 914.143 811.739 924.498 804.965Z"/><path fill="#152B5A" transform="matrix(0.961914 0 0 0.961914 -0.00390625 0)" d="M936.802 840.361C937.697 841.018 937.589 840.975 938.343 841.811C938.056 848.843 918.604 864.07 914.009 870.136C912.356 872.82 907.484 874.453 905.772 876.536C900.316 883.036 893.899 889.017 887.627 894.758C880.764 901.04 873.582 909.879 864.808 913.111C863.982 913.125 864.1 913.058 863.269 912.777L862.859 911.548C863.455 908.121 876.933 895.466 880.588 892.476C881.931 891.377 880.416 893.711 882.807 892.024C882.708 891.704 882.554 891.396 882.511 891.064C882.286 889.301 921.073 852.484 925.026 849.11C928.437 846.201 934.691 844.104 936.802 840.361Z"/><path fill="#152B5A" transform="matrix(0.961914 0 0 0.961914 -0.00390625 0)" d="M140.044 130.956C145.21 123.775 167.304 103.953 174.768 99.5674C176.22 99.653 175.588 99.386 176.664 100.527C175.337 105.191 156.99 122.439 152.601 125.982C152.3 126.224 150.872 126.223 150.38 126.236C147.028 128.822 142.314 135.593 139.393 139.046C131.202 148.73 121.747 157.215 112.541 165.922C109.049 169.225 104.702 171.821 101.452 175.294C99.8033 175.779 98.3126 176.492 96.7796 175.975C96.1824 174.209 96.2889 175.133 96.776 173.09C108.089 160.852 118.357 148.868 131.147 137.92C133.279 136.095 136.978 132.873 138.786 130.866L140.044 130.956Z"/><path fill="#D2CFCE" transform="matrix(0.961914 0 0 0.961914 -0.00390625 0)" d="M138.786 130.866L140.044 130.956C140.87 131.928 141.345 132.365 141.897 133.514L141.515 134.05C139.658 132.992 139.835 133.072 138.786 130.866Z"/><path fill="#152B5A" transform="matrix(0.961914 0 0 0.961914 -0.00390625 0)" d="M192.892 120.812L194.254 121.478C194.941 122.45 195.152 122.699 195.024 123.96C194.497 129.185 145.019 174.707 139.265 178.426C138.253 177.854 137.746 177.716 137.158 176.765C136.825 176.226 136.872 175.342 137.137 175.002C144.152 166.007 186.839 123.264 192.892 120.812Z"/><path fill="#152B5A" transform="matrix(0.961914 0 0 0.961914 -0.00390625 0)" d="M125.274 186.744C126.879 187.365 127.562 187.711 128.295 189.182C127.605 194.25 97.6463 220.501 91.7567 225.059C90.5088 225.487 90.8167 225.39 89.4884 225.519L89.1004 224.825C90.128 217.131 118.089 192.492 125.274 186.744Z"/><path fill="#152B5A" transform="matrix(0.961914 0 0 0.961914 -0.00390625 0)" d="M887.745 203.132C891.976 203.412 898.131 211.255 891.066 212.708C890.913 210.911 890.685 210.407 891.105 208.701L892.698 208.999L892.894 208.39C891.533 206.762 891.176 207.637 888.247 206.631C887.123 205.061 887.46 205.635 887.745 203.132Z"/><path fill="#071E50" transform="matrix(0.961914 0 0 0.961914 -0.00390625 0)" d="M877.739 405.408C878.953 405.223 880.099 406.02 880.349 407.223C880.599 408.425 879.864 409.613 878.677 409.927C877.85 410.145 876.97 409.89 876.389 409.261C875.808 408.633 875.622 407.736 875.905 406.929C876.187 406.121 876.893 405.536 877.739 405.408Z"/><path fill="#152B5A" transform="matrix(0.961914 0 0 0.961914 -0.00390625 0)" d="M894.549 849.28C896.418 849.402 896.623 849.258 898.189 850.322C899.181 851.862 899.015 852.392 898.985 854.216C897.411 854.163 897.118 854.281 895.707 853.561C894.571 852.256 894.703 851.052 894.549 849.28Z"/><path fill="#152B5A" transform="matrix(0.961914 0 0 0.961914 -0.00390625 0)" d="M171.378 912.973C174.921 914.127 175.264 915.777 174.521 919.162C172.936 918.998 172.811 918.993 172.032 917.661C171.202 916.247 170.966 914.561 171.378 912.973Z"/><path fill="#071E50" transform="matrix(0.961914 0 0 0.961914 -0.00390625 0)" d="M871.727 401.845C872.716 401.746 872.204 401.701 873.267 402.45C873.574 404.502 873.027 405.465 871.192 406.22C870.013 405.233 869.064 404.704 868.674 403.261C869.749 401.974 869.69 402.348 871.727 401.845Z"/><path fill="#152B5A" transform="matrix(0.961914 0 0 0.961914 -0.00390625 0)" d="M804.28 437.301C806.058 437.56 806.495 437.532 808.11 438.416C808.688 439.992 808.631 439.143 807.768 441.058C806.203 441.214 805.355 441.447 803.885 440.881C803.369 439.27 803.725 439.287 804.28 437.301Z"/><path fill="#071E50" transform="matrix(0.961914 0 0 0.961914 -0.00390625 0)" d="M826.384 383.346C828.071 383.45 828.894 383.362 830.398 384.159C831.092 385.695 830.867 385.224 830.36 387.277C828.955 387.502 828.824 387.312 827.423 386.885C826.187 385.241 826.573 385.736 826.384 383.346Z"/><path fill="#152B5A" transform="matrix(0.961914 0 0 0.961914 -0.00390625 0)" d="M804.72 309.691C807.428 310.661 808.667 312.642 808.078 315.469C804.554 314.798 804.289 312.81 804.72 309.691Z"/><path fill="#071E50" transform="matrix(0.961914 0 0 0.961914 -0.00390625 0)" d="M951.175 527.752C952.08 527.181 953.269 527.385 953.932 528.225C954.594 529.064 954.516 530.268 953.751 531.016C953.179 531.574 952.339 531.757 951.586 531.488C950.833 531.218 950.3 530.543 950.213 529.748C950.126 528.953 950.499 528.178 951.175 527.752Z"/><path fill="#071E50" transform="matrix(0.961914 0 0 0.961914 -0.00390625 0)" d="M801.558 349.361C802.468 348.66 803.774 348.834 804.47 349.748C805.166 350.662 804.985 351.967 804.067 352.658C803.156 353.343 801.864 353.163 801.174 352.257C800.484 351.35 800.655 350.057 801.558 349.361Z"/><path fill="#152B5A" transform="matrix(0.961914 0 0 0.961914 -0.00390625 0)" d="M887.81 849.683C889.422 850.267 891.456 851.139 892.474 852.507L892.214 854.047L888.466 852.754C887.383 851.431 887.716 851.905 887.81 849.683Z"/><path fill="#071E50" transform="matrix(0.961914 0 0 0.961914 -0.00390625 0)" d="M203.415 154.756L204.163 155.263L204.259 156.566C203.339 158.156 202.42 158.536 200.871 159.524L200.308 159.201C200.655 157.67 202.321 156.038 203.415 154.756Z"/></svg>