<svg height="63" id="a" viewBox="0 0 348 63" width="348" xmlns="http://www.w3.org/2000/svg" xmlns:xlink="http://www.w3.org/1999/xlink"><defs><style>.c{fill:none;}.d{fill:#f9b036;}.e{fill:#005492;}.f{fill:#010101;}.g{fill:#0070b3;}.h{fill:#a81127;}.i{fill:#de9d00;}.j{fill:#d31a2b;}.k{fill:#20211e;}.l{fill:#702a72;}.m{fill:#7b2182;}.n{fill:#4f4d4d;}.o{clip-path:url(#b);}</style><clipPath id="b"><rect class="c" height="54.19" rx="10.21" ry="10.21" width="54.19" y=".43"></rect></clipPath></defs><path class="f" d="M85.81,36.25h-1.41c-.37-1.1-.97-2.28-1.8-3.54-.83-1.26-1.59-1.93-2.29-2.03-.39-.05-.86-.09-1.43-.13-.57-.04-1.06-.05-1.47-.05h-.85v20.18c0,.43,.08,.82,.24,1.15,.16,.33,.47,.6,.92,.79,.28,.11,.71,.22,1.3,.34,.59,.12,1.08,.2,1.5,.24v1.41h-14.34v-1.41c.35-.04,.84-.09,1.48-.15,.63-.07,1.07-.15,1.3-.24,.47-.19,.79-.45,.94-.78,.16-.33,.24-.71,.24-1.16V30.5h-.85c-.41,0-.9,.02-1.47,.05-.57,.04-1.04,.08-1.43,.13-.7,.1-1.46,.77-2.29,2.03-.83,1.26-1.43,2.44-1.8,3.54h-1.41v-7.36h24.93v7.36Z"></path><path class="f" d="M107.82,54.23c-.53,.23-1.16,.44-1.88,.63s-1.49,.29-2.3,.29c-1.48,0-2.58-.22-3.27-.66-.7-.44-1.18-1.07-1.43-1.89h-.11c-.41,.41-.81,.76-1.19,1.05s-.79,.54-1.23,.74c-.57,.27-1.12,.47-1.64,.6-.53,.13-1.26,.2-2.21,.2-1.4,0-2.6-.41-3.6-1.24-.99-.83-1.49-1.93-1.49-3.3,0-.79,.11-1.46,.33-2.01,.22-.55,.53-1.04,.93-1.46,.36-.39,.78-.71,1.26-.96,.48-.25,1-.49,1.57-.71,1.09-.4,2.4-.81,3.92-1.24,1.52-.43,2.64-.81,3.34-1.15v-1.74c0-.3-.02-.7-.07-1.2-.05-.5-.15-.91-.31-1.25-.17-.39-.44-.71-.8-.98-.36-.27-.84-.4-1.43-.4-.53,0-.98,.08-1.33,.23-.36,.15-.64,.31-.86,.46,.04,.24,.14,.61,.31,1.11,.17,.5,.25,.97,.25,1.43,0,.21-.05,.46-.16,.77-.11,.31-.27,.55-.47,.73-.28,.24-.59,.43-.94,.56-.35,.13-.88,.2-1.59,.2-1.02,0-1.79-.24-2.31-.73-.52-.49-.78-1.13-.78-1.91,0-.68,.27-1.28,.81-1.82,.54-.54,1.19-.98,1.97-1.33,.76-.36,1.64-.64,2.63-.84s1.91-.3,2.76-.3c1.17,0,2.25,.07,3.23,.21,.98,.14,1.86,.43,2.65,.86,.75,.42,1.34,1.04,1.79,1.84,.44,.8,.66,1.85,.66,3.15,0,1.37-.03,2.99-.08,4.86-.05,1.87-.08,3.11-.08,3.7,0,.54,.08,.97,.24,1.29,.16,.31,.41,.55,.75,.71,.21,.1,.53,.15,.97,.17,.44,.02,.84,.03,1.21,.03v1.32Zm-8.99-9.45c-.68,.23-1.35,.49-2.02,.79-.67,.3-1.21,.61-1.64,.94-.45,.34-.8,.77-1.06,1.3s-.38,1.15-.38,1.86c0,.95,.22,1.63,.65,2.05s.96,.64,1.59,.64c.67,0,1.22-.14,1.65-.41,.43-.27,.81-.61,1.14-1.01l.07-6.16Z"></path><path class="f" d="M129.88,54.61h-11.33v-1.32c.59-.04,1.09-.09,1.49-.15,.4-.07,.6-.2,.6-.41,0-.1-.05-.25-.15-.45-.1-.21-.23-.44-.39-.69-.23-.38-.63-.97-1.19-1.78-.56-.81-1.09-1.56-1.59-2.25-.7,.81-1.29,1.51-1.76,2.09-.47,.58-.97,1.21-1.49,1.87-.18,.22-.31,.42-.38,.6-.07,.18-.11,.29-.11,.33,0,.28,.2,.49,.59,.63,.39,.15,.86,.22,1.41,.22v1.32h-7.36v-1.32c.98-.21,1.76-.53,2.35-.98,.59-.45,.98-.79,1.19-1.03,.88-.95,1.63-1.73,2.24-2.36,.61-.63,1.43-1.5,2.46-2.63-.69-.95-1.52-2.11-2.5-3.49-.98-1.37-1.79-2.5-2.44-3.38-.33-.44-.73-.77-1.2-1.01-.47-.24-1.09-.39-1.84-.46v-1.32h11.08v1.32c-.4,0-.79,.02-1.18,.07-.39,.05-.58,.13-.58,.25,0,.1,.03,.22,.09,.36,.06,.15,.14,.3,.23,.45,.23,.39,.59,.95,1.08,1.7s1.02,1.53,1.59,2.36c.54-.66,1-1.21,1.37-1.63,.37-.42,.84-1.02,1.42-1.79,.22-.29,.35-.51,.41-.65,.05-.14,.08-.24,.08-.27,0-.21-.13-.39-.39-.55-.26-.16-.77-.26-1.53-.3v-1.32h7.22v1.32c-.59,.1-1.17,.3-1.72,.6-.56,.3-1.14,.77-1.74,1.41-.94,.98-1.63,1.69-2.05,2.15-.43,.45-1.14,1.21-2.13,2.26,.56,.79,1.36,1.93,2.41,3.43,1.05,1.5,1.96,2.76,2.72,3.79,.33,.46,.69,.83,1.1,1.12,.4,.29,1.05,.48,1.93,.58v1.32Z"></path><path class="f" d="M162.3,37.95c-.56,.08-1.07,.27-1.54,.55-.47,.28-.87,.81-1.2,1.59-.85,2.07-1.52,3.73-2.03,5-.51,1.27-1.22,3.1-2.14,5.49-.19,.5-.43,1.18-.7,2.05-.27,.87-.49,1.58-.64,2.14h-3.54l-4.57-12.34-4.28,12.34h-3.49c-1.22-3.3-2.18-5.86-2.88-7.68-.7-1.82-1.64-4.22-2.81-7.21-.22-.57-.59-1.02-1.11-1.34s-1.07-.53-1.62-.6v-1.32h11.13v1.32c-.41,.04-.9,.13-1.47,.29-.57,.16-.85,.37-.85,.63,0,.12,.01,.23,.05,.32,.03,.09,.08,.26,.15,.5,.33,.94,.77,2.17,1.34,3.66,.57,1.5,1.23,3.24,2,5.22l4.03-11.95h3.6l4.57,12.31c.7-1.86,1.24-3.32,1.62-4.39,.38-1.07,.86-2.45,1.44-4.14,.08-.25,.14-.48,.15-.68,.02-.2,.02-.33,0-.39,0-.22-.11-.41-.33-.59-.22-.18-.48-.32-.78-.43-.3-.11-.59-.19-.88-.25-.28-.06-.52-.1-.71-.13v-1.32h7.49v1.32Z"></path><path class="f" d="M174.55,54.61h-11.46v-1.32c.31-.02,.62-.05,.92-.09,.3-.04,.56-.1,.78-.18,.39-.14,.66-.35,.82-.63,.16-.27,.24-.63,.24-1.08v-10.55c0-.42-.1-.79-.29-1.11-.19-.32-.43-.58-.73-.77-.22-.15-.55-.28-.99-.42-.44-.13-.84-.22-1.21-.25v-1.32l8.88-.47,.27,.27v14.39c0,.42,.09,.78,.27,1.08,.18,.3,.44,.52,.78,.66,.24,.11,.51,.21,.8,.29,.29,.08,.59,.14,.91,.18v1.32Zm-2.65-24.73c0,.92-.35,1.7-1.06,2.35-.71,.65-1.54,.97-2.51,.97s-1.82-.32-2.53-.97c-.71-.65-1.06-1.43-1.06-2.35s.35-1.7,1.06-2.36c.71-.65,1.55-.98,2.53-.98s1.82,.33,2.52,.98c.7,.65,1.05,1.44,1.05,2.36Z"></path><path class="f" d="M184.62,55.23c-1.17,0-2.32-.17-3.44-.52-1.12-.34-1.99-.71-2.6-1.1l-.54,1.23h-1.41l-.24-6.76h1.32c.18,.54,.48,1.16,.91,1.84,.42,.68,.91,1.3,1.45,1.84,.57,.54,1.22,1,1.95,1.38,.73,.37,1.51,.56,2.35,.56,1.1,0,1.92-.21,2.46-.64,.54-.43,.81-1.09,.81-1.99,0-.48-.12-.88-.36-1.2-.24-.31-.57-.59-1-.82-.47-.24-.99-.45-1.55-.62-.56-.17-1.25-.37-2.08-.62-.82-.24-1.53-.49-2.11-.73-.59-.25-1.19-.64-1.82-1.17-.54-.47-.98-1.04-1.31-1.7-.33-.66-.49-1.46-.49-2.38,0-1.7,.72-3.08,2.15-4.13,1.43-1.05,3.31-1.58,5.63-1.58,1.1,0,2.11,.11,3.04,.34,.92,.22,1.7,.47,2.33,.73l.38-1.07h1.38l.29,6.18h-1.27c-.42-1.26-1.15-2.34-2.18-3.25-1.03-.91-2.13-1.37-3.32-1.37-.93,0-1.66,.19-2.19,.58-.53,.39-.8,.92-.8,1.61,0,.92,.39,1.58,1.17,1.99,.78,.41,1.87,.8,3.27,1.16,2.16,.56,3.74,1.31,4.74,2.28,1,.96,1.5,2.18,1.5,3.67,0,1.98-.78,3.52-2.33,4.6-1.55,1.09-3.58,1.63-6.08,1.63Z"></path><path class="f" d="M214.75,50.28c-.42,.69-.93,1.34-1.53,1.95-.6,.61-1.28,1.13-2.04,1.57-.81,.46-1.63,.81-2.46,1.04-.83,.24-1.78,.35-2.86,.35-1.79,0-3.33-.25-4.63-.76-1.3-.51-2.37-1.19-3.22-2.05-.85-.86-1.48-1.87-1.89-3.04-.42-1.17-.63-2.43-.63-3.8,0-1.23,.23-2.41,.68-3.54,.45-1.13,1.1-2.14,1.93-3.02,.82-.86,1.86-1.55,3.11-2.08,1.25-.53,2.65-.8,4.2-.8,1.69,0,3.08,.21,4.17,.62,1.09,.41,1.99,.98,2.7,1.7,.69,.69,1.19,1.5,1.5,2.44,.31,.94,.47,1.92,.47,2.95v1.18h-12.26c0,2.48,.48,4.36,1.43,5.66,.95,1.29,2.47,1.94,4.55,1.94,1.14,0,2.16-.31,3.06-.93,.91-.62,1.68-1.41,2.32-2.37l1.38,1Zm-6.93-6.89c0-.73-.04-1.47-.11-2.23-.07-.76-.2-1.38-.38-1.87-.21-.57-.49-1-.84-1.29-.36-.29-.81-.43-1.35-.43-.93,0-1.67,.47-2.23,1.41-.56,.94-.86,2.44-.91,4.48l5.82-.07Z"></path><path class="f" d="M227.78,46.2h-10.8v-2.86h10.8v2.86Z"></path><path class="f" d="M246.96,38.86c.71,.85,1.27,1.83,1.66,2.95,.39,1.12,.59,2.4,.59,3.83s-.24,2.7-.71,3.87c-.47,1.17-1.09,2.16-1.87,2.98-.81,.83-1.71,1.47-2.7,1.92-.99,.45-2.04,.67-3.15,.67s-1.96-.12-2.65-.36-1.25-.53-1.69-.85h-.14v5.38c0,.44,.08,.8,.25,1.09,.17,.29,.43,.5,.78,.64,.29,.11,.7,.21,1.24,.32,.54,.1,.98,.16,1.33,.17v1.2h-9.99v-1.2c.37-.02,.74-.05,1.09-.09,.35-.04,.66-.1,.94-.18,.36-.12,.62-.33,.76-.63,.15-.3,.22-.66,.22-1.07v-19.02c0-.36-.09-.71-.27-1.05-.18-.34-.42-.61-.71-.82-.22-.15-.52-.26-.91-.34-.39-.08-.76-.13-1.12-.15v-1.2l6.09-.4,.25,.22v2.01l.14,.04c.63-.73,1.41-1.33,2.34-1.81,.93-.48,1.86-.73,2.77-.73,1.11,0,2.13,.24,3.05,.71s1.72,1.11,2.38,1.9Zm-2.96,12.85c.48-.75,.84-1.62,1.07-2.61,.23-.99,.34-2.1,.34-3.32,0-.89-.1-1.81-.29-2.74-.19-.93-.5-1.74-.91-2.43-.41-.7-.95-1.27-1.61-1.7-.66-.43-1.46-.65-2.39-.65s-1.66,.2-2.28,.59c-.63,.39-1.17,.86-1.63,1.41v10.57c.11,.33,.29,.66,.53,1.02,.25,.35,.52,.65,.82,.91,.37,.3,.78,.55,1.21,.73,.44,.19,.97,.28,1.6,.28,.68,0,1.33-.18,1.96-.53,.63-.36,1.15-.86,1.58-1.51Z"></path><path class="f" d="M265.52,39.04c0,.62-.15,1.16-.45,1.64-.3,.48-.77,.72-1.4,.72-.68,0-1.19-.18-1.55-.53-.36-.35-.53-.74-.53-1.16,0-.27,.02-.51,.06-.73,.04-.22,.08-.43,.12-.65-.57,0-1.23,.23-1.99,.69-.76,.46-1.41,1.11-1.94,1.96v10.41c0,.42,.08,.77,.24,1.03,.16,.27,.42,.47,.77,.6,.3,.12,.69,.21,1.17,.27,.48,.06,.89,.1,1.24,.13v1.2h-9.43v-1.2c.28-.02,.56-.05,.86-.07,.3-.02,.55-.07,.77-.14,.34-.11,.59-.3,.75-.57,.16-.27,.24-.62,.24-1.06v-11.03c0-.37-.09-.74-.26-1.1-.18-.36-.42-.65-.73-.87-.23-.14-.5-.25-.82-.32-.31-.07-.65-.11-1.02-.14v-1.2l5.95-.4,.25,.25v2.52h.09c.75-.98,1.58-1.72,2.5-2.23,.92-.51,1.76-.76,2.52-.76s1.38,.25,1.86,.74c.48,.5,.72,1.16,.72,1.99Z"></path><path class="f" d="M284.49,45.49c0,1.26-.2,2.49-.6,3.71-.4,1.21-.97,2.25-1.71,3.09-.84,.97-1.8,1.69-2.9,2.16s-2.34,.71-3.7,.71c-1.14,0-2.22-.21-3.25-.64-1.03-.43-1.94-1.05-2.74-1.88-.79-.81-1.41-1.8-1.88-2.96-.47-1.17-.7-2.47-.7-3.93,0-2.79,.81-5.08,2.44-6.85,1.63-1.78,3.76-2.67,6.4-2.67s4.57,.84,6.2,2.53c1.63,1.69,2.44,3.93,2.44,6.74Zm-3.75,.04c0-.91-.09-1.86-.27-2.87-.18-1.01-.45-1.86-.82-2.57-.39-.75-.9-1.35-1.53-1.8-.63-.45-1.4-.68-2.31-.68s-1.73,.23-2.39,.69c-.66,.46-1.2,1.09-1.61,1.89-.39,.74-.66,1.58-.82,2.52-.16,.94-.24,1.86-.24,2.74,0,1.16,.09,2.23,.28,3.22,.19,.99,.49,1.86,.9,2.64,.41,.77,.93,1.38,1.55,1.82,.62,.44,1.4,.66,2.32,.66,1.51,0,2.71-.73,3.6-2.19,.88-1.46,1.33-3.48,1.33-6.06Z"></path><path class="f" d="M298.1,53.83c-.79,.33-1.53,.6-2.23,.82-.7,.22-1.56,.34-2.57,.34-1.5,0-2.55-.38-3.16-1.13-.61-.76-.92-1.82-.92-3.2v-12.11h-3.23v-1.74h3.3v-5.57h3.3v5.57h5.13v1.74h-5.09v9.99c0,.75,.03,1.38,.08,1.88,.05,.5,.18,.94,.39,1.31,.19,.35,.48,.62,.87,.8,.39,.18,.91,.27,1.56,.27,.3,0,.75-.03,1.33-.08,.59-.05,1-.12,1.24-.21v1.32Z"></path><path class="f" d="M315.76,50.4c-.75,1.43-1.75,2.56-3.01,3.41s-2.7,1.27-4.33,1.27c-1.44,0-2.7-.25-3.78-.76-1.08-.51-1.97-1.2-2.67-2.07-.7-.87-1.22-1.89-1.57-3.05s-.52-2.39-.52-3.68c0-1.16,.18-2.3,.55-3.42,.37-1.12,.91-2.12,1.62-3.02,.69-.86,1.54-1.55,2.57-2.08,1.02-.53,2.17-.79,3.44-.79s2.42,.21,3.35,.62c.93,.41,1.69,.97,2.27,1.69,.56,.68,.97,1.47,1.24,2.39,.27,.92,.41,1.92,.41,2.99v1.2h-11.84c0,1.17,.11,2.24,.34,3.2,.22,.96,.58,1.8,1.06,2.53,.47,.7,1.09,1.26,1.85,1.66,.76,.41,1.67,.61,2.72,.61s2-.25,2.78-.76c.78-.5,1.53-1.41,2.26-2.72l1.27,.78Zm-4.01-6.82c0-.67-.06-1.4-.17-2.17-.12-.77-.3-1.42-.55-1.93-.28-.55-.66-1.01-1.14-1.36-.48-.35-1.11-.52-1.87-.52-1.27,0-2.32,.53-3.16,1.58-.84,1.05-1.3,2.52-1.37,4.4h8.27Z"></path><path class="f" d="M326.09,55.08c-2.59,0-4.61-.86-6.07-2.57-1.46-1.72-2.19-4.02-2.19-6.91,0-1.26,.2-2.43,.59-3.53,.39-1.09,.96-2.09,1.71-2.98,.71-.86,1.61-1.55,2.68-2.08,1.08-.53,2.25-.79,3.52-.79,1.75,0,3.18,.42,4.28,1.26,1.1,.84,1.65,1.99,1.65,3.44,0,.6-.14,1.14-.43,1.6s-.77,.7-1.43,.7c-.71,0-1.27-.18-1.66-.54-.39-.36-.59-.76-.59-1.21,0-.54,.07-1.1,.22-1.67,.14-.57,.23-.99,.25-1.26-.22-.37-.54-.62-.97-.75-.43-.13-.89-.19-1.38-.19-.58,0-1.13,.12-1.65,.37-.52,.25-1.03,.7-1.53,1.37-.45,.6-.81,1.42-1.08,2.45-.28,1.03-.42,2.25-.42,3.68,0,2.25,.5,4.08,1.49,5.5,1,1.42,2.3,2.13,3.92,2.13,1.17,0,2.15-.29,2.94-.86,.79-.57,1.52-1.43,2.2-2.57l1.16,.76c-.8,1.43-1.85,2.56-3.15,3.39-1.31,.83-2.65,1.25-4.04,1.25Z"></path><path class="f" d="M345.73,53.83c-.79,.33-1.53,.6-2.23,.82-.7,.22-1.56,.34-2.57,.34-1.5,0-2.55-.38-3.16-1.13-.61-.76-.92-1.82-.92-3.2v-12.11h-3.23v-1.74h3.3v-5.57h3.3v5.57h5.13v1.74h-5.09v9.99c0,.75,.03,1.38,.08,1.88,.05,.5,.18,.94,.39,1.31,.19,.35,.48,.62,.87,.8,.39,.18,.91,.27,1.56,.27,.3,0,.75-.03,1.33-.08,.59-.05,1-.12,1.24-.21v1.32Z"></path><path class="n" d="M78.74,7.49h-1.07c-1.39-3.79-2.88-5.76-5.98-5.76-3.31,0-4.75,3.04-4.75,8.27s1.82,8.27,5.44,8.27,5.55-2.24,5.76-6.27h1.17c0,4.67-2.64,7.5-7.53,7.5-6.3,0-9.77-4.38-9.77-9.5S66.35,.5,71.38,.5c2,0,3.71,.75,5.23,1.58l1.04-1.09h1.08V7.49Z"></path><path class="n" d="M79.92,19.18v-1.07c1.79,0,2.05-.53,2.05-1.76v-6.88c0-1.23-.26-1.76-2.05-1.76v-.96l5.63-.11v2.86h.05c.56-1.28,1.58-3.18,3.6-3.18,1.44,0,2.48,1.02,2.48,2.3s-.8,2.08-1.92,2.08c-1.26,0-1.82-.85-1.82-1.89,0-.31,.04-.63,.11-.93-1.58,1.09-2.35,4.03-2.35,7.79,0,1.92,.27,2.45,2.51,2.45v1.07h-8.3Z"></path><path class="n" d="M98.55,7.28c-1.66,0-2.51,2.14-2.51,5.63s.85,5.63,2.51,5.63,2.51-2.14,2.51-5.63-.86-5.63-2.51-5.63m0,12.22c-4.54,0-6.99-3.58-6.99-6.59s2.45-6.59,6.99-6.59,6.99,3.58,6.99,6.59-2.45,6.59-6.99,6.59"></path><path class="n" d="M105.75,19.18v-1.07c1.71,0,1.97-.53,1.97-1.76v-6.88c0-1.23-.27-1.76-1.92-1.76v-.96l5.6-.11v1.95c1.14-1.33,2.19-2.27,4.16-2.27,2.21,0,3.71,1.28,3.71,3.9v6.14c0,1.23,.27,1.76,1.82,1.76v1.07h-5.71V9.31c0-1.07-.46-1.55-1.2-1.55-1.5,0-2.56,2.45-2.56,4.22v4.38c0,1.23,.26,1.76,2.13,1.76v1.07h-8.01Z"></path><path class="n" d="M129.77,11.73c0-3.34-.64-4.46-1.92-4.46s-2.08,1.39-2.3,4.46h4.22Zm-4.22,1.23c0,2.56,.61,5.31,3.47,5.31,1.71,0,3.18-1.34,4.08-2.67l.85,.53c-1.07,1.97-2.59,3.36-5.68,3.36-4.54,0-6.99-3.58-6.99-6.59s2.45-6.59,6.99-6.59c3.26,0,5.76,2.4,5.76,6.64h-8.49Z"></path><path class="n" d="M134.44,19.18v-1.07c1.79,0,2.05-.53,2.05-1.76v-6.88c0-1.23-.27-1.76-2.05-1.76v-.96l5.63-.11v2.86h.05c.56-1.28,1.58-3.18,3.6-3.18,1.44,0,2.48,1.02,2.48,2.3s-.8,2.08-1.92,2.08c-1.25,0-1.81-.85-1.81-1.89,0-.31,.04-.63,.11-.93-1.57,1.09-2.35,4.03-2.35,7.79,0,1.92,.26,2.45,2.51,2.45v1.07h-8.3Z"></path><path class="n" d="M156.68,19.22v-1.1c1.98,0,2.25-.55,2.25-1.81v-7.08c0-1.26-.27-1.81-2.2-1.81v-.99l6.2-.11v9.99c0,1.26,.27,1.81,2.11,1.81v1.1h-8.37Z"></path><path class="n" d="M160.68,0c1.24,0,2.25,1.01,2.25,2.25s-1.01,2.25-2.25,2.25-2.25-1.01-2.25-2.25h0c-.01-1.23,.97-2.24,2.2-2.25,.02,0,.03,0,.05,0"></path><rect class="n" height="2.62" width="6.83" x="147.64" y="11.89"></rect><g class="o"><g><polygon class="j" points="27.12 -9.25 27.11 -9.25 27.11 27.51 53.11 1.52 27.12 -9.25"></polygon><polygon class="i" points="1.11 1.52 1.11 1.53 27.11 27.52 27.11 27.51 27.11 -9.25 1.11 1.52"></polygon><polygon class="k" points="27.11 27.52 27.11 27.52 27.11 27.51 27.11 27.52"></polygon><polygon class="d" points="-9.65 27.52 27.11 27.52 27.11 27.51 1.11 1.52 -9.65 27.52"></polygon><polygon class="g" points="-9.65 27.52 1.11 53.51 27.11 27.52 -9.65 27.52"></polygon><polygon class="e" points="27.11 27.52 27.11 27.52 27.11 64.29 1.11 53.52 1.11 53.51 27.11 27.52 27.11 27.52"></polygon><polygon class="h" points="27.11 27.51 53.11 1.52 53.11 1.52 63.88 27.52 27.11 27.52 27.11 27.51"></polygon><polygon class="m" points="53.11 53.52 27.11 64.28 27.11 27.52 53.11 53.52"></polygon><polygon class="l" points="27.11 27.52 63.88 27.52 63.88 27.52 53.11 53.52 27.11 27.52 27.11 27.52"></polygon></g></g></svg>