<?xml version="1.0" encoding="utf-8"?>
<svg xmlns="http://www.w3.org/2000/svg" fill="none" height="195" viewBox="0 0 601 195" width="601">
<path d="M207.109 26.1251L86.4333 25.0714C81.9193 25.032 78.2281 28.6613 78.1887 33.1778L77.0713 161.287C77.0319 165.803 80.6593 169.497 85.1733 169.536L205.849 170.59C210.363 170.629 214.055 167 214.094 162.483L215.211 34.3743C215.251 29.8578 211.623 26.1645 207.109 26.1251Z" fill="#004B9B"/>
<path d="M232.405 33.2735L231.287 161.413C231.248 165.929 234.875 169.623 239.389 169.662L360.071 170.716C364.585 170.755 368.276 167.126 368.316 162.609L369.433 34.47C369.473 29.9535 365.845 26.2602 361.331 26.2208L240.649 25.167C236.135 25.1276 232.444 28.757 232.405 33.2735Z" fill="#DCDCDC"/>
<mask height="146" id="mask0_54_485" maskUnits="userSpaceOnUse" style="mask-type:luminance" width="139" x="231" y="25">
<path d="M232.405 33.2735L231.287 161.413C231.248 165.929 234.875 169.623 239.389 169.662L360.071 170.716C364.585 170.755 368.276 167.126 368.316 162.609L369.433 34.47C369.473 29.9535 365.845 26.2602 361.331 26.2208L240.649 25.167C236.135 25.1276 232.444 28.757 232.405 33.2735Z" fill="white"/>
</mask>
<g mask="url(#mask0_54_485)">
<path clip-rule="evenodd" d="M252.493 76.7639H284.106L277.314 118.677H245.642L252.493 76.7639Z" fill="#004B9B" fill-rule="evenodd"/>
<path clip-rule="evenodd" d="M287.772 76.7639H319.384L312.533 118.677H280.92L287.772 76.7639Z" fill="#004B9B" fill-rule="evenodd"/>
<path clip-rule="evenodd" d="M323.05 76.7639H354.663L347.812 118.677H316.199L323.05 76.7639Z" fill="#004B9B" fill-rule="evenodd"/>
<path clip-rule="evenodd" d="M253.755 113.806H251.351L256.64 81.4542H259.044L253.755 113.806ZM267.638 97.0288H260.366L260.727 94.8038H267.157C268.595 94.8737 270.025 94.5625 271.304 93.9018C272.326 93.3005 272.987 92.2181 273.227 90.6546C273.468 89.0911 273.227 88.129 272.446 87.5277C271.665 86.9263 270.523 86.5655 268.9 86.5655H262.169L262.53 84.4007H269.201C271.424 84.4007 273.047 84.8818 274.189 85.9642C275.331 87.0466 275.752 88.6101 275.391 90.7749C275.219 91.9116 274.765 92.9869 274.069 93.9018C273.354 94.8605 272.429 95.6422 271.364 96.1869C270.212 96.7741 268.931 97.0635 267.638 97.0288ZM274.429 97.3895C275.506 96.5418 276.439 95.5266 277.194 94.3829C277.875 93.1958 278.324 91.8896 278.516 90.5343C278.817 88.6101 278.697 86.9865 277.975 85.6034C277.344 84.2182 276.235 83.1078 274.85 82.4765C273.221 81.7686 271.458 81.42 269.682 81.4542H259.765L254.476 113.746H256.88L261.748 83.619H269.141C270.581 83.5999 272.01 83.8656 273.348 84.4007C274.426 84.8267 275.305 85.6422 275.812 86.6858C276.365 87.9318 276.512 89.3203 276.232 90.6546C276.069 91.7266 275.68 92.7515 275.091 93.6613C274.571 94.5885 273.852 95.3893 272.987 96.0065C272.15 96.6203 271.215 97.0879 270.222 97.3895C271.092 97.5887 271.897 98.0021 272.566 98.5922C273.21 99.1742 273.634 99.9596 273.768 100.817C273.932 102.199 273.891 103.597 273.648 104.966L272.927 109.116C272.786 110.01 272.726 110.916 272.747 111.822C272.77 112.561 272.912 113.292 273.167 113.986H275.451C275.275 113.521 275.154 113.037 275.091 112.543V110.559C275.226 110.126 275.326 109.684 275.391 109.236L276.353 103.523C276.521 102.652 276.581 101.763 276.533 100.877C276.489 100.235 276.282 99.6137 275.932 99.0733C275.536 98.4263 275.027 97.8559 274.429 97.3895ZM272.807 105.447L272.025 109.957C271.781 111.254 271.822 112.587 272.146 113.866H269.802C269.507 112.521 269.486 111.13 269.742 109.777L270.523 104.906C270.823 103.283 270.643 102.08 270.102 101.238C269.561 100.396 268.48 100.035 266.857 100.035H259.885L260.246 97.7503H266.797C268.228 97.6782 269.654 97.9677 270.944 98.5922C271.405 98.8548 271.809 99.2089 272.129 99.6328C272.449 100.057 272.68 100.542 272.807 101.058C273.05 102.511 273.05 103.994 272.807 105.447Z" fill="white" fill-rule="evenodd"/>
<path clip-rule="evenodd" d="M289.995 102.14C289.454 105.448 289.815 107.973 291.197 109.657C292.58 111.341 294.923 112.182 298.229 112.182C300.885 112.164 303.454 111.23 305.501 109.537C307.516 107.8 308.822 105.381 309.167 102.742L312.653 81.4543H314.997L311.691 101.9C311.377 103.725 310.832 105.504 310.069 107.191C309.331 108.646 308.356 109.967 307.184 111.1C306.01 112.17 304.644 113.007 303.157 113.566C301.473 114.136 299.706 114.421 297.928 114.407C293.902 114.407 291.017 113.445 289.274 111.401C287.531 109.356 286.93 106.41 287.591 102.441L291.017 81.4543H293.361L289.995 102.14ZM293.12 102.14L296.486 81.5145H294.082L290.777 102.02C290.403 103.691 290.465 105.431 290.957 107.071C291.361 108.415 292.236 109.568 293.421 110.318C294.862 111.144 296.51 111.541 298.169 111.461C301.094 111.421 303.438 110.579 305.201 108.935C306.943 107.312 308.085 104.906 308.566 101.779L311.872 81.5145H309.528L306.162 102.14C305.925 104.074 305.083 105.884 303.758 107.312C303.11 107.975 302.333 108.499 301.475 108.85C300.618 109.202 299.697 109.374 298.77 109.356C296.546 109.356 294.984 108.755 294.022 107.432C293.06 106.109 292.76 104.365 293.12 102.14Z" fill="white" fill-rule="evenodd"/>
<path clip-rule="evenodd" d="M343.244 92.6993C343.408 92.1485 343.529 91.5855 343.605 91.0156C344.145 87.5279 342.403 85.784 338.316 85.784C337.303 85.7815 336.294 85.9026 335.311 86.1448C334.389 86.3808 333.528 86.8114 332.787 87.4076C332.072 87.9915 331.618 88.8348 331.524 89.7528C331.42 90.1447 331.409 90.5558 331.492 90.9527C331.576 91.3497 331.752 91.7214 332.005 92.0378C332.503 92.5614 333.122 92.9538 333.808 93.1804C334.469 93.4209 335.551 93.6615 337.054 94.0223C339.518 94.6236 341.381 95.1648 342.643 95.5857C343.929 96.068 345.068 96.8761 345.948 97.9309C347.001 99.1902 347.538 100.802 347.451 102.441C347.446 103.146 347.385 103.85 347.271 104.546C346.98 106.507 346.171 108.354 344.927 109.897C343.675 111.428 342.064 112.626 340.239 113.385C338.288 114.164 336.209 114.572 334.109 114.588C332.035 114.617 329.975 114.25 328.039 113.505C326.265 112.808 324.81 111.48 323.952 109.777C322.99 108.033 322.75 105.748 323.171 102.982C323.257 102.812 323.318 102.629 323.351 102.441H325.815C325.394 104.967 325.635 106.951 326.416 108.394C327.148 109.785 328.368 110.855 329.842 111.401C331.302 111.951 332.849 112.236 334.409 112.243C336.044 112.242 337.667 111.978 339.217 111.461C340.781 110.948 342.163 109.995 343.197 108.714C344.231 107.434 344.874 105.882 345.047 104.245C345.225 103.011 345.102 101.752 344.686 100.577C344.375 99.6758 343.785 98.8969 343.004 98.3518C342.175 97.8439 341.287 97.4399 340.359 97.1492L336.032 96.0668C334.645 95.8048 333.28 95.4431 331.945 94.9844C331.027 94.6432 330.218 94.0617 329.601 93.3007C328.94 92.5189 328.76 91.4365 328.94 90.0535C329.661 85.8441 332.787 83.7395 338.436 83.7395C341.08 83.7395 343.064 84.3408 344.446 85.5435C345.828 86.7461 346.249 88.7305 345.768 91.4365C345.714 91.862 345.634 92.2838 345.528 92.6993H343.244ZM346.249 92.6993H348.833C349.314 89.5724 349.194 87.1671 348.352 85.3631C348.016 84.5528 347.516 83.82 346.886 83.2099C346.256 82.5998 345.507 82.1251 344.686 81.8152C342.863 81.1301 340.924 80.8034 338.977 80.8531C336.978 80.8398 334.99 81.1442 333.087 81.7551C331.3 82.3549 329.69 83.3878 328.399 84.7617C327.075 86.2446 326.218 88.0854 325.935 90.0535C325.679 91.4395 325.782 92.8681 326.236 94.2027C326.593 95.2275 327.266 96.112 328.159 96.7283C328.979 97.2517 329.87 97.6566 330.803 97.9309C332.245 98.3703 333.71 98.7317 335.191 99.0133L337.895 99.6748C338.729 99.8508 339.537 100.134 340.299 100.517C340.881 100.818 341.347 101.304 341.621 101.9C341.943 102.659 342.087 103.482 342.042 104.305C341.501 107.673 339.217 109.356 335.191 109.477L334.469 109.356C330.142 108.995 328.279 106.71 329 102.441H326.656C326.58 102.758 326.52 103.079 326.476 103.403C325.995 106.35 326.596 108.394 328.339 109.597C330.186 110.836 332.366 111.486 334.59 111.461C336.108 111.481 337.616 111.216 339.037 110.679C340.387 110.193 341.588 109.364 342.523 108.274C343.509 107.132 344.154 105.736 344.386 104.245C344.645 102.927 344.416 101.559 343.742 100.397C343.067 99.2349 341.993 98.3584 340.72 97.9309C339.089 97.377 337.422 96.935 335.731 96.608C334.236 96.3375 332.768 95.9351 331.344 95.4053C330.332 95.0251 329.468 94.3294 328.88 93.4209C328.302 92.3554 328.131 91.1156 328.399 89.9332C328.584 88.458 329.213 87.074 330.202 85.9644C331.125 84.9165 332.306 84.1287 333.628 83.6793C335.06 83.1917 336.563 82.9477 338.075 82.9577H338.616C344.827 83.1181 347.471 85.8842 346.549 91.2561C346.489 91.5568 346.429 92.0379 346.249 92.6993Z" fill="white" fill-rule="evenodd"/>
</g>
<path d="M514.63 26.3448L393.953 25.2911C389.439 25.2517 385.748 28.8811 385.709 33.3976L384.591 161.507C384.552 166.023 388.179 169.717 392.693 169.756L513.37 170.81C517.883 170.849 521.575 167.22 521.614 162.703L522.731 34.594C522.771 30.0775 519.144 26.3842 514.63 26.3448Z" fill="#004B9B"/>
<path d="M105.068 39.3611H93.889C92.4617 39.3611 91.3047 40.5187 91.3047 41.9468V53.1376C91.3047 54.5657 92.4617 55.7234 93.889 55.7234H105.068C106.495 55.7234 107.652 54.5657 107.652 53.1376V41.9468C107.652 40.5187 106.495 39.3611 105.068 39.3611Z" fill="#005BBD" stroke="#5185BD" stroke-miterlimit="10"/>
<path d="M100.079 43.1494H98.5769V51.4238H100.079V43.1494Z" fill="#FAF381"/>
<path d="M97.2547 47.2986H95.7522V51.4357H97.2547V47.2986Z" fill="#FAF381"/>
<path d="M103.024 45.1941H101.522V51.3818H103.024V45.1941Z" fill="#FAF381"/>
<path d="M170.884 52.8191H168.606V45.4373H170.985C171.701 45.4373 172.314 45.5851 172.823 45.8806C173.333 46.1738 173.723 46.5955 173.995 47.1458C174.266 47.6936 174.402 48.3496 174.402 49.1138C174.402 49.8827 174.265 50.5447 173.991 51.0998C173.717 51.6525 173.318 52.0778 172.795 52.3758C172.271 52.6713 171.634 52.8191 170.884 52.8191ZM169.5 52.0261H170.827C171.437 52.0261 171.943 51.9084 172.344 51.6729C172.745 51.4374 173.045 51.1022 173.242 50.6673C173.439 50.2323 173.537 49.7145 173.537 49.1138C173.537 48.5178 173.44 48.0048 173.245 47.5747C173.051 47.1422 172.76 46.8106 172.373 46.5799C171.986 46.3468 171.504 46.2302 170.928 46.2302H169.5V52.0261ZM178.108 52.9344C177.574 52.9344 177.114 52.8167 176.727 52.5812C176.343 52.3433 176.046 52.0117 175.837 51.5864C175.63 51.1587 175.527 50.6613 175.527 50.0942C175.527 49.5271 175.63 49.0273 175.837 48.5947C176.046 48.1598 176.337 47.821 176.709 47.5783C177.084 47.3332 177.521 47.2106 178.021 47.2106C178.309 47.2106 178.594 47.2587 178.875 47.3548C179.156 47.4509 179.412 47.6071 179.643 47.8234C179.874 48.0372 180.057 48.3208 180.194 48.674C180.331 49.0273 180.4 49.4622 180.4 49.9788V50.3393H176.132V49.604H179.535C179.535 49.2916 179.472 49.0128 179.347 48.7677C179.225 48.5226 179.049 48.3292 178.821 48.1874C178.595 48.0457 178.329 47.9748 178.021 47.9748C177.682 47.9748 177.389 48.0589 177.142 48.2271C176.896 48.3929 176.708 48.6091 176.576 48.8759C176.443 49.1426 176.377 49.4285 176.377 49.7337V50.2239C176.377 50.642 176.449 50.9965 176.594 51.2872C176.74 51.5756 176.943 51.7954 177.203 51.9468C177.462 52.0958 177.764 52.1703 178.108 52.1703C178.331 52.1703 178.533 52.1391 178.713 52.0766C178.896 52.0117 179.053 51.9156 179.185 51.7882C179.317 51.6585 179.42 51.4975 179.492 51.3052L180.313 51.5359C180.227 51.8147 180.082 52.0598 179.877 52.2712C179.673 52.4803 179.421 52.6437 179.12 52.7614C178.82 52.8768 178.482 52.9344 178.108 52.9344ZM184.102 47.2827V48.0036H181.233V47.2827H184.102ZM182.069 45.9563H182.919V51.2332C182.919 51.4734 182.954 51.6537 183.024 51.7738C183.096 51.8916 183.187 51.9709 183.298 52.0117C183.411 52.0502 183.53 52.0694 183.655 52.0694C183.748 52.0694 183.825 52.0646 183.885 52.055C183.945 52.0429 183.993 52.0333 184.03 52.0261L184.203 52.7903C184.145 52.8119 184.064 52.8335 183.961 52.8551C183.858 52.8792 183.727 52.8912 183.568 52.8912C183.328 52.8912 183.092 52.8395 182.862 52.7362C182.633 52.6329 182.444 52.4755 182.292 52.264C182.143 52.0526 182.069 51.7858 182.069 51.4638V45.9563ZM187.01 52.9489C186.66 52.9489 186.341 52.8828 186.055 52.7506C185.769 52.616 185.542 52.4226 185.374 52.1703C185.206 51.9156 185.122 51.608 185.122 51.2476C185.122 50.9304 185.184 50.6733 185.309 50.4762C185.434 50.2768 185.601 50.1206 185.81 50.0077C186.019 49.8947 186.25 49.8106 186.502 49.7553C186.757 49.6977 187.013 49.652 187.27 49.6184C187.606 49.5751 187.879 49.5427 188.088 49.5211C188.3 49.497 188.453 49.4574 188.549 49.4021C188.648 49.3468 188.697 49.2507 188.697 49.1138V49.0849C188.697 48.7293 188.6 48.453 188.405 48.2559C188.213 48.0589 187.921 47.9604 187.529 47.9604C187.123 47.9604 186.805 48.0493 186.574 48.2271C186.344 48.4049 186.181 48.5947 186.088 48.7966L185.28 48.5082C185.424 48.1718 185.617 47.9099 185.857 47.7225C186.1 47.5326 186.364 47.4005 186.65 47.326C186.938 47.2491 187.222 47.2106 187.501 47.2106C187.678 47.2106 187.883 47.2323 188.113 47.2755C188.346 47.3164 188.571 47.4017 188.787 47.5314C189.006 47.6612 189.187 47.857 189.332 48.1189C189.476 48.3809 189.548 48.7317 189.548 49.1714V52.8191H188.697V52.0694H188.654C188.596 52.1895 188.5 52.3181 188.366 52.455C188.231 52.592 188.052 52.7086 187.829 52.8047C187.605 52.9008 187.332 52.9489 187.01 52.9489ZM187.14 52.1847C187.477 52.1847 187.76 52.1186 187.991 51.9865C188.224 51.8543 188.399 51.6837 188.517 51.4746C188.637 51.2656 188.697 51.0457 188.697 50.815V50.0365C188.661 50.0797 188.582 50.1194 188.459 50.1554C188.339 50.1891 188.2 50.2191 188.041 50.2455C187.885 50.2696 187.732 50.2912 187.583 50.3104C187.437 50.3272 187.318 50.3417 187.227 50.3537C187.006 50.3825 186.799 50.4294 186.607 50.4943C186.417 50.5567 186.263 50.6516 186.145 50.779C186.03 50.904 185.972 51.0746 185.972 51.2908C185.972 51.5864 186.082 51.8099 186.3 51.9612C186.521 52.1102 186.801 52.1847 187.14 52.1847ZM191.1 52.8191V47.2827H191.951V52.8191H191.1ZM191.533 46.36C191.367 46.36 191.224 46.3035 191.104 46.1906C190.986 46.0777 190.927 45.9419 190.927 45.7833C190.927 45.6247 190.986 45.4889 191.104 45.376C191.224 45.2631 191.367 45.2066 191.533 45.2066C191.699 45.2066 191.841 45.2631 191.958 45.376C192.078 45.4889 192.139 45.6247 192.139 45.7833C192.139 45.9419 192.078 46.0777 191.958 46.1906C191.841 46.3035 191.699 46.36 191.533 46.36ZM194.36 45.4373V52.8191H193.509V45.4373H194.36ZM199.839 48.5226L199.075 48.7389C199.027 48.6116 198.956 48.4878 198.863 48.3677C198.771 48.2451 198.646 48.1442 198.488 48.0649C198.329 47.9856 198.126 47.9459 197.879 47.9459C197.54 47.9459 197.257 48.024 197.032 48.1802C196.808 48.334 196.696 48.5299 196.696 48.7677C196.696 48.9792 196.773 49.1462 196.927 49.2688C197.081 49.3913 197.321 49.4934 197.648 49.5751L198.47 49.777C198.965 49.8971 199.334 50.0809 199.576 50.3284C199.819 50.5735 199.94 50.8895 199.94 51.2764C199.94 51.5936 199.849 51.8771 199.666 52.127C199.486 52.377 199.234 52.574 198.909 52.7182C198.585 52.8623 198.208 52.9344 197.778 52.9344C197.213 52.9344 196.746 52.8119 196.376 52.5668C196.005 52.3217 195.771 51.9636 195.673 51.4927L196.48 51.2908C196.557 51.5888 196.702 51.8123 196.916 51.9612C197.132 52.1102 197.415 52.1847 197.763 52.1847C198.16 52.1847 198.474 52.1006 198.708 51.9324C198.943 51.7618 199.061 51.5576 199.061 51.3197C199.061 51.1274 198.994 50.9664 198.859 50.8367C198.724 50.7045 198.518 50.606 198.239 50.5411L197.316 50.3248C196.809 50.2047 196.437 50.0185 196.199 49.7662C195.963 49.5115 195.846 49.1931 195.846 48.811C195.846 48.4986 195.933 48.2223 196.109 47.982C196.287 47.7417 196.528 47.5531 196.833 47.4161C197.141 47.2791 197.489 47.2106 197.879 47.2106C198.426 47.2106 198.857 47.3308 199.169 47.5711C199.484 47.8114 199.707 48.1286 199.839 48.5226Z" fill="#FCE9DB"/>
<path d="M92.627 128.539L91.5452 128.118C95.031 119.519 99.1779 117.715 101.281 117.414C102.328 117.279 103.392 117.425 104.363 117.837C105.335 118.25 106.18 118.913 106.811 119.759C108.614 122.165 114.864 126.735 120.994 126.554C124.54 126.434 127.485 124.63 129.769 121.323C137.221 110.198 142.57 108.574 150.383 109.416C154.049 109.777 157.535 113.566 161.201 117.534C164.867 121.503 169.435 126.554 173.762 126.133C180.553 125.532 183.138 117.715 185.902 109.416L187.525 104.606C191.131 94.7438 197.201 94.6235 197.441 94.6235V95.8262C197.201 95.8262 191.912 95.9464 188.607 104.966L186.984 109.777C184.279 118.076 181.455 126.614 173.882 127.276C169.014 127.757 164.567 122.946 160.3 118.316C156.032 113.686 153.508 110.92 150.263 110.559C142.75 109.717 137.882 111.22 130.73 121.924C128.266 125.592 124.961 127.577 120.994 127.697C114.443 127.937 107.892 123.127 105.849 120.481C105.363 119.79 104.697 119.246 103.924 118.907C103.15 118.567 102.299 118.446 101.462 118.557C98.2163 119.038 94.9709 122.646 92.627 128.539Z" fill="url(#paint0_linear_54_485)"/>
<path d="M93.4685 131.545C93.4685 131.545 100.32 127.637 104.106 113.926C107.893 100.216 122.617 103.764 127.846 117.113C133.074 130.463 147.078 137.559 151.766 126.554C156.453 115.55 164.747 93.4209 175.505 99.0734C186.263 104.726 189.328 127.637 198.042 121.864" stroke="url(#paint1_linear_54_485)" stroke-miterlimit="10" stroke-width="0.75"/>
<path d="M201.769 93.6013H195.999V130.469H201.769V93.6013Z" fill="url(#paint2_linear_54_485)"/>
<path d="M198.884 97.8107C200.643 97.8107 202.069 96.3838 202.069 94.6236C202.069 92.8635 200.643 91.4365 198.884 91.4365C197.125 91.4365 195.698 92.8635 195.698 94.6236C195.698 96.3838 197.125 97.8107 198.884 97.8107Z" fill="#FFF37A"/>
<path d="M338.797 138.281H261.147C258.724 138.281 256.76 140.246 256.76 142.67V152.286C256.76 154.71 258.724 156.675 261.147 156.675H338.797C341.22 156.675 343.184 154.71 343.184 152.286V142.67C343.184 140.246 341.22 138.281 338.797 138.281Z" fill="#005BBD" stroke="#5185BD" stroke-miterlimit="10"/>
<path d="M407.25 68.8264H507.497" stroke="#413F44" stroke-miterlimit="10" stroke-width="0.5"/>
<path d="M407.25 94.2629H507.497" stroke="#413F44" stroke-miterlimit="10" stroke-width="0.5"/>
<path d="M407.25 119.639H507.497" stroke="#413F44" stroke-miterlimit="10" stroke-width="0.5"/>
<path d="M407.25 145.075H507.497" stroke="#413F44" stroke-miterlimit="10" stroke-width="0.5"/>
<path d="M424.139 91.7373H416.746C415.452 91.7373 414.402 92.7873 414.402 94.0825V142.718C414.402 144.014 415.452 145.064 416.746 145.064H424.139C425.433 145.064 426.482 144.014 426.482 142.718V94.0825C426.482 92.7873 425.433 91.7373 424.139 91.7373Z" fill="#005BBD" stroke="#5185BD" stroke-miterlimit="10"/>
<path d="M477.387 113.806H469.875C468.613 113.806 467.591 114.829 467.591 116.091V142.827C467.591 144.089 468.613 145.112 469.875 145.112H477.387C478.648 145.112 479.671 144.089 479.671 142.827V116.091C479.671 114.829 478.648 113.806 477.387 113.806Z" fill="#005BBD" stroke="#5185BD" stroke-miterlimit="10"/>
<path d="M503.771 103.644H496.98C495.519 103.644 494.335 104.828 494.335 106.289V142.442C494.335 143.903 495.519 145.087 496.98 145.087H503.771C505.232 145.087 506.416 143.903 506.416 142.442V106.289C506.416 104.828 505.232 103.644 503.771 103.644Z" fill="#005BBD" stroke="#5185BD" stroke-miterlimit="10"/>
<path d="M451.063 75.8621H442.95C441.854 75.8621 440.967 76.7505 440.967 77.8465V143.121C440.967 144.217 441.854 145.106 442.95 145.106H451.063C452.159 145.106 453.047 144.217 453.047 143.121V77.8465C453.047 76.7505 452.159 75.8621 451.063 75.8621Z" fill="#FFF37A"/>
<path d="M448.78 75.8621L440.967 84.4611" stroke="#36383E" stroke-miterlimit="10" stroke-width="0.25"/>
<path d="M452.926 77.9668L440.967 91.1961" stroke="#36383E" stroke-miterlimit="10" stroke-width="0.25"/>
<path d="M453.047 84.5813L440.967 97.9309" stroke="#36383E" stroke-miterlimit="10" stroke-width="0.25"/>
<path d="M453.047 91.3164L440.967 104.666" stroke="#36383E" stroke-miterlimit="10" stroke-width="0.25"/>
<path d="M453.047 98.0513L440.967 111.341" stroke="#36383E" stroke-miterlimit="10" stroke-width="0.25"/>
<path d="M453.047 104.726L440.967 118.076" stroke="#36383E" stroke-miterlimit="10" stroke-width="0.25"/>
<path d="M453.047 111.461L440.967 124.811" stroke="#36383E" stroke-miterlimit="10" stroke-width="0.25"/>
<path d="M453.047 118.196L440.967 131.485" stroke="#36383E" stroke-miterlimit="10" stroke-width="0.25"/>
<path d="M453.047 124.931L440.967 138.22" stroke="#36383E" stroke-miterlimit="10" stroke-width="0.25"/>
<path d="M453.047 131.606L441.748 144.113" stroke="#36383E" stroke-miterlimit="10" stroke-width="0.25"/>
<path d="M453.047 138.341L446.917 145.076" stroke="#36383E" stroke-miterlimit="10" stroke-width="0.25"/>
<path d="M455.751 58.9646H437.601C436.873 58.9799 436.178 59.2763 435.663 59.7918C435.148 60.3073 434.852 61.0019 434.836 61.7308V66.3009C434.852 67.0297 435.148 67.7244 435.663 68.2398C436.178 68.7553 436.873 69.0517 437.601 69.067H444.873L446.977 72.4946L449.381 69.067H455.751C456.48 69.0517 457.174 68.7553 457.689 68.2398C458.204 67.7244 458.5 67.0297 458.516 66.3009V61.7308C458.5 61.0019 458.204 60.3073 457.689 59.7918C457.174 59.2763 456.48 58.9799 455.751 58.9646Z" fill="#B0D6FF"/>
<path d="M495.297 152.712L497.341 153.795L495.297 154.997" stroke="#FCE9DB" stroke-miterlimit="10" stroke-width="0.25"/>
<defs>
<linearGradient gradientUnits="userSpaceOnUse" id="paint0_linear_54_485" x1="91.5572" x2="197.441" y1="111.587" y2="111.587">
<stop stop-color="#005BBD"/>
<stop offset="0.26" stop-color="#FFF37A"/>
<stop offset="0.85" stop-color="#FFF37A"/>
<stop offset="1" stop-color="#005BBD"/>
</linearGradient>
<linearGradient gradientUnits="userSpaceOnUse" id="paint1_linear_54_485" x1="93.3844" x2="198.169" y1="115.069" y2="115.069">
<stop stop-color="#005BBD"/>
<stop offset="0.26" stop-color="#FFF37A"/>
<stop offset="0.85" stop-color="#FFF37A"/>
<stop offset="1" stop-color="#005BBD"/>
</linearGradient>
<linearGradient gradientUnits="userSpaceOnUse" id="paint2_linear_54_485" x1="190.181" x2="207.601" y1="127.09" y2="96.935">
<stop stop-color="#005BBD"/>
<stop offset="0.19" stop-color="#035DBC"/>
<stop offset="0.33" stop-color="#0C62BA"/>
<stop offset="0.44" stop-color="#1B6BB6"/>
<stop offset="0.55" stop-color="#3178B0"/>
<stop offset="0.65" stop-color="#4D89A9"/>
<stop offset="0.74" stop-color="#709EA0"/>
<stop offset="0.83" stop-color="#99B695"/>
<stop offset="0.92" stop-color="#C8D288"/>
<stop offset="1" stop-color="#FFF37A"/>
</linearGradient>
</defs>
</svg>