<?xml version="1.0" encoding="UTF-8"?>
<!DOCTYPE svg PUBLIC "-//W3C//DTD SVG 1.1//EN" "http://www.w3.org/Graphics/SVG/1.1/DTD/svg11.dtd">
<!-- Creator: CorelDRAW -->
<svg xmlns="http://www.w3.org/2000/svg" xml:space="preserve" width="420mm" height="70mm" version="1.1" style="shape-rendering:geometricPrecision; text-rendering:geometricPrecision; image-rendering:optimizeQuality; fill-rule:evenodd; clip-rule:evenodd"
viewBox="0 0 42000 7000"
 xmlns:xlink="http://www.w3.org/1999/xlink"
 xmlns:xodm="http://www.corel.com/coreldraw/odm/2003">
 <defs>
  <style type="text/css">
   <![CDATA[
    .fil0 {fill:none}
    .fil1 {fill:#14519E}
    .fil2 {fill:#FEFEFE;fill-rule:nonzero}
    .fil3 {fill:#2B2A29;fill-rule:nonzero}
   ]]>
  </style>
 </defs>
 <g id="Layer_x0020_1">
  <metadata id="CorelCorpID_0Corel-Layer"/>
  <polygon class="fil0" points="-5.8,5.2 41994.2,5.2 41994.2,7005.2 -5.8,7005.2 "/>
  <g id="_1738543923632">
   <g>
    <polygon class="fil1" points="2004.34,688.69 6098.6,688.69 5213.9,6113.63 1119.65,6113.63 "/>
    <polygon class="fil1" points="6570.32,688.69 10664.58,688.69 9779.88,6113.63 5685.63,6113.63 "/>
    <polygon class="fil1" points="11136.3,688.69 15230.56,688.69 14345.86,6113.63 10251.61,6113.63 "/>
    <path class="fil2" d="M2169.51 5485.85l-309.87 0 683.04 -4188.41 309.88 0 -683.05 4188.41zm1799.05 -2169.18l-945.49 0 47.28 -289.9 829.69 0c226.6,0 406.12,-38.3 538.7,-115.79 132.58,-77.46 215.65,-219.08 249.07,-424 30.7,-188.27 -1.55,-322.38 -96.69,-403.16 -95.93,-80.82 -250.04,-121.65 -462.48,-121.65l-873.84 0 46.45 -284.87 863.88 0c286.53,0 503.66,68.28 651.32,204.92 147.64,136.6 198.66,344.85 153.01,624.77 -23.23,142.42 -79.94,275.7 -170.03,399 -90.08,123.27 -207.05,222.41 -352.55,297.38 -144.82,75.83 -304.22,113.3 -478.32,113.3zm872.34 39.99c91.76,75.8 158.1,149.1 200.57,220.74 42.61,70.82 67.17,149.94 73.76,237.4 6.54,87.47 -2.06,201.6 -24.89,341.56l-119.95 735.54c-10.19,62.5 -23.03,120.81 -37.7,174.94 -5.15,113.29 -5.11,199.93 -1.29,258.24 3.82,58.31 19.73,119.12 48.81,180.75l-295.71 0c-37.96,-89.13 -58.55,-182.41 -61.11,-279.05 -2.46,-97.44 7.14,-212.4 28.88,-345.72l88.03 -539.79c37.22,-228.23 42.4,-408.18 16.26,-538.97 -26.98,-130.78 -77.88,-227.39 -152.67,-289.86 -74.78,-62.5 -175.47,-114.13 -302.79,-155.78 128.29,-35.84 246.94,-94.15 356.86,-175.77 108.99,-80.81 200.4,-181.61 273.84,-299.9 73.55,-119.11 121.68,-250.73 145.04,-394.01 33.42,-204.93 16.85,-374.01 -50.14,-509.81 -66.98,-135.78 -174.95,-234.91 -324.44,-299.04 -149.48,-64.16 -331.72,-95.81 -545.81,-95.81l-950.48 0 -634.95 3893.53 -309.91 0 681.41 -4178.41 1283.69 0c259.08,0 482.49,44.98 670.39,134.11 187.76,89.96 325.13,223.24 410.19,401.5 86,177.43 108.43,392.36 67.4,643.95 -30.43,186.57 -88.85,350.7 -175.23,492.29 -86.26,140.79 -205.63,269.91 -358.06,387.37zm-210.35 1044.62l-95.36 584.77c-34.51,211.57 -28.91,381.52 16.82,509.81l-304.89 0c-39.11,-148.27 -41.99,-324.9 -8.57,-529.82l102.7 -629.76c34.36,-210.74 15.2,-369.01 -56.54,-475.66 -71.88,-105.79 -212.29,-159.08 -419.71,-159.08l-904.7 0 48.1 -294.91 850.54 0c229.92,0 407.32,35.83 533.24,106.64 124.92,71.65 205.71,179.09 241.21,324.04 35.51,144.95 34.79,333.21 -2.84,563.97z"/>
    <path class="fil2" d="M6856.78 3971.42c-70.23,430.69 -17.39,755.56 159.55,972.98 176.98,217.42 479.9,326.53 908.89,326.53 371.79,-11.67 685.84,-124.11 942.47,-339.03 255.66,-214.1 414.42,-508.15 475.28,-881.32l448.98 -2753.14 304.89 0 -431.05 2643.16c-41.84,256.59 -111.68,485.64 -208.31,684.75 -97.57,199.93 -221.78,369.01 -371.93,508.14 -149.98,138.27 -324.68,244.09 -524.91,317.39 -200.22,73.31 -424.72,111.6 -674.33,114.93 -522.31,0 -896.67,-130.75 -1123.23,-391.49 -225.7,-260.74 -296.64,-648.11 -212.69,-1162.91l442.59 -2713.97 299.87 0 -436.07 2673.98zm409.88 0c-47.95,294.05 -10.48,523.97 113.25,689.73 123.6,166.62 328.26,249.93 613.17,249.93 271.52,-10 488.21,-97.47 650.36,-264.09 162.11,-166.59 266.27,-391.49 312.6,-675.57l434.44 -2664 304.86 0 -427.92 2624.01c-66.03,404.85 -212.07,713.06 -437.34,924.67 -226.09,211.57 -529.49,319.88 -911,324.87 -254.09,0 -459.31,-49.14 -617.38,-147.44 -158.07,-98.31 -264.24,-239.07 -320.29,-421.52 -56.06,-182.41 -64.06,-399 -23.03,-650.6l432.81 -2653.99 309.91 0 -434.44 2664z"/>
    <path class="fil2" d="M13752.17 2751.87c14.26,-46.64 29.3,-118.29 45.05,-214.89 73.36,-449.84 -153.22,-674.77 -679.69,-674.77 -137.44,0 -269.14,15.82 -394.12,46.67 -125.11,31.65 -233.07,85.77 -322.93,161.6 -89.96,76.63 -145.56,177.43 -165.8,301.53 -20.38,124.97 2.06,222.45 67.01,294.05 64.98,71.65 140.93,121.65 229.63,149.97 87.7,29.16 228.34,65.79 422.46,111.6 316.56,76.67 556.99,144.95 721.59,203.26 164.45,59.15 309.2,157.45 432.29,296.58 123.92,139.1 188.74,334.04 194.53,584.78 -1.22,84.14 -9.52,175.76 -25.55,274.07 -43.74,268.21 -145.64,499.8 -304.88,694.71 -159.26,194.95 -360.87,343.22 -603.34,445.68 -243.14,101.63 -509.25,154.96 -798.16,159.11 -290.73,0 -552.04,-47.47 -785.62,-142.45 -232.9,-94.12 -410.07,-254.06 -530.7,-479.82 -120.77,-224.91 -153.61,-518.96 -97.7,-882.16 10.74,-20.01 17.87,-43.31 22.08,-69.14l319.05 0c-53.11,325.69 -26.08,583.94 81.35,773.04 107.33,189.92 255.25,319.88 442.08,389.86 187.56,70.81 384.28,105.78 589.2,105.78 224.91,0 433.73,-34.14 626.49,-102.46 192.73,-68.32 356.71,-179.92 491.12,-334.87 134.38,-154.96 221,-354.03 260.67,-597.28 17.49,-194.08 3.31,-352.36 -43.65,-473.17 -46.79,-121.61 -120.57,-215.73 -220.1,-284.88 -100.46,-68.31 -215.91,-121.6 -346.96,-160.77 -131.08,-39.16 -316.16,-84.14 -556.12,-134.94 -228.01,-52.49 -403.55,-99.96 -526.44,-143.28 -122.89,-43.32 -226.03,-115.79 -307.73,-217.42 -81.6,-102.46 -109.6,-242.42 -83.99,-419.85 89.11,-546.45 498.53,-819.69 1228.26,-819.69 343.22,0 601.03,79.13 775.85,238.24 173.99,159.11 232.8,411.5 176.56,756.38 -5.98,36.67 -18.27,91.62 -36.91,164.93l-294.88 0zm389.86 0c20.78,-86.64 34.16,-148.27 40,-184.08 113.3,-694.75 -228.12,-1052.96 -1024.17,-1075.43l-70.81 0c-206.58,0 -398.35,31.65 -575.96,94.11 -177.65,62.5 -327.09,161.61 -448.24,296.58 -121.27,135.77 -198.12,305.72 -231.41,509.81 -30.84,189.1 -9.61,339.86 64.1,454.82 73.87,114.13 180.79,199.1 319.83,255.75 139.9,56.62 327.92,109.11 563.99,158.25 274.94,55.82 488.84,113.3 644.13,172.44 154.45,59.14 276.7,152.46 365.86,279.89 89.05,128.29 125.91,305.72 108.97,532.31 -33.96,208.25 -113.32,383.18 -237.08,523.97 -123.89,141.63 -274.85,244.92 -453.97,311.54 -179.85,65.82 -370.22,99.14 -571.82,99.14 -319.63,-6.65 -590.5,-87.47 -812.5,-243.26 -222.01,-155.75 -302.81,-421.51 -241.68,-796.34 9.1,-55.82 17.86,-99.14 26.08,-129.12l299.87 0c-90.21,553.12 147.46,852.99 713.1,898.83 39.99,0 71.1,3.33 93.35,9.98 518.23,-10.84 812.61,-232.42 883.11,-664.73 5.37,-129.96 -12.76,-233.25 -52.48,-311.57 -39.72,-78.29 -96.7,-137.44 -170.86,-178.26 -73.99,-41.66 -177.16,-78.29 -309.3,-110.8 -132.17,-32.48 -249.16,-60.81 -350.31,-84.11 -266.09,-59.15 -455.92,-105.82 -570.57,-138.3 -114.65,-32.48 -229.26,-85.81 -342.8,-160.77 -114.41,-74.97 -197.82,-181.59 -252.46,-321.55 -53.94,-139.13 -65.42,-319.05 -34.58,-538.96 45.24,-277.4 151.61,-505.66 319.95,-684.74 167.61,-179.93 370.42,-309.88 608.36,-389.87 237.11,-79.95 491.05,-119.94 760.96,-119.94 282.39,0 528.85,41.65 739.47,124.13 210.49,83.28 369.33,238.23 474.7,465.66 105.37,227.4 125.66,542.29 60.05,944.62l-334.88 0z"/>
   </g>
   <path class="fil3" d="M19177.06 2970.91l0 0c-30.94,28.04 -72.34,52.69 -122.98,72.51 -51.85,20.78 -113.74,31.42 -185.27,31.42 -127.81,1.45 -235.12,-55.11 -321.93,-171.11 -90.42,-116.49 -136.64,-305 -138.25,-566.02 1.61,-261.98 47.83,-450.98 138.25,-567.47 86.81,-113.1 194.12,-169.66 321.93,-169.66 76.35,1.94 140.26,14.99 192.1,38.67 48.63,24.65 87.21,48.82 116.15,72.51l17.28 -330.62c-31.34,-17.89 -77.96,-36.25 -140.26,-55.11 -63.9,-19.81 -138.25,-29.48 -222.65,-29.48 -242.75,3.87 -426.41,102.47 -551.01,295.82 -61.09,94.74 -107.71,204.46 -140.26,330.13 -32.95,128.58 -49.03,266.82 -49.03,415.21 0,302.1 63.91,549.1 191.7,740.99 32.56,45.92 68.33,87.49 106.91,124.71 37.38,35.77 79.57,67.19 127,94.74 93.24,51.72 201.76,78.79 325.14,80.72 75.96,0 145.89,-7.25 209.79,-22.23 62.3,-11.6 109.71,-27.55 142.67,-49.31l-17.28 -336.42zm279.32 378.96l288.57 0 0 -870.05c0,-99.09 16.07,-182.23 47.42,-249.42 32.96,-65.73 86.41,-100.05 159.96,-101.98 112.93,-1.46 168.39,106.33 167.19,324.81l0 896.64 288.56 0 0 -962.86c1.61,-155.16 -22.1,-285.18 -71.94,-391.04 -53.46,-106.82 -148.3,-160.96 -284.15,-162.89 -43.4,0 -80.77,5.8 -112.12,16.92 -32.96,14.02 -61.09,31.9 -84.8,52.69 -23.72,19.81 -43.01,42.53 -58.28,69.12 -16.07,27.55 -30.95,52.68 -44.61,76.37l-7.23 0 0 -873.44 -288.57 0 0 2175.13zm1325.86 -1114.63l0 0c29.75,-33.35 73.96,-65.74 133.44,-97.16 57.87,-31.42 123.38,-48.33 196.52,-50.27 81.99,1.94 140.67,30.45 175.63,86.04 32.96,54.14 49.44,121.32 49.44,201.08l0 56.07 -59.48 0c-184.88,-1.93 -335.59,30.45 -452.54,97.16 -118.56,73.47 -178.84,209.77 -180.05,408.44 1.21,139.2 38.98,246.03 112.53,320.46 68.72,75.41 151.11,114.08 247.57,116.01 85.2,-1.93 154.33,-25.13 207.38,-70.09 53.45,-42.53 96.46,-94.25 129.01,-155.64l4.42 0c-1.6,75.41 4.02,143.08 16.08,202.53l260.43 0c-10.45,-63.8 -16.08,-151.78 -16.08,-262.47l0 -651.08c1.61,-190.45 -27.73,-338.84 -88.81,-445.18 -63.91,-103.44 -187.29,-156.13 -370.55,-158.06 -90.43,1.93 -165.99,13.54 -227.08,35.29 -62.29,24.65 -113.34,49.78 -153.93,75.4l16.07 291.47zm555.03 467.41c2.81,280.83 -75.96,423.42 -237.12,427.29 -56.67,0 -101.27,-21.75 -133.84,-64.29 -34.56,-42.53 -51.84,-97.15 -51.84,-164.34 3.22,-195.76 135.44,-290.02 396.28,-282.77l26.52 0 0 84.11zm585.96 647.22l288.57 0 0 -818.81c1.61,-138.25 28.94,-235.4 81.19,-290.99 23.7,-29.48 51.03,-50.75 82.39,-63.8 29.73,-10.64 58.67,-15.95 86.8,-15.95 29.74,0 57.07,6.28 82.39,18.36l0 -336.9c-16.07,-3.87 -32.55,-6.77 -49.03,-8.7 -44.21,0 -82.79,8.7 -115.34,26.1 -34.17,21.75 -64.31,46.89 -91.24,76.37 -47.82,65.26 -81.18,130.03 -100.07,193.83l-4.83 0c-1.2,-90.39 -4.41,-181.74 -8.83,-273.1l-261.23 0c6.02,69.61 9.23,151.78 9.23,246.03l0 1247.56zm947.68 -1493.59l-191.3 0 0 263.43 191.3 0 0 818.34c1.21,296.78 113.34,441.79 336.39,435.02 43.41,0 81.18,-5.8 114.14,-16.92 32.56,-9.66 59.08,-19.81 79.57,-31.41l0 -256.67c-22.1,19.82 -59.07,30.94 -110.91,32.87 -41.8,1.45 -73.55,-13.05 -94.86,-43.99 -23.71,-31.42 -35.77,-85.55 -35.77,-163.37l0 -773.87 241.54 0 0 -263.43 -241.54 0 0 -417.62 0 0 -288.56 110.2 0 307.42zm1610.01 1136.87l0 0c-24.52,25.62 -61.08,50.75 -109.72,75.4 -49.43,27.07 -118.16,41.09 -205.77,41.09 -208.99,-3.87 -311.07,-140.66 -306.65,-409.89l696.89 0 0 -69.12c-1.2,-299.2 -48.22,-508.98 -140.26,-628.86 -91.63,-114.55 -205.37,-170.62 -340.81,-168.69 -154.33,1.93 -274.09,77.34 -359.3,226.7 -90.42,146.46 -135.44,334.97 -135.44,565.05 -1.6,204.94 42.61,379.44 133.44,522.99 90.42,146.46 231.09,221.38 421.99,225.25 43.8,0 84.8,-4.83 121.77,-14.02 18.49,-3.86 36.18,-8.7 53.86,-14.5 17.28,-3.86 32.95,-6.28 46.62,-8.21 31.35,-12.57 58.68,-24.17 82.38,-35.77 22.51,-9.19 41.4,-16.92 55.87,-22.72l-14.87 -284.7zm-622.14 -518.65c0,-104.89 17.28,-197.21 51.85,-276.48 34.56,-79.27 89.21,-119.87 163.97,-121.81 133.03,0 200.55,132.93 202.16,398.29l-417.98 0zm967.77 875.37l288.57 0 0 -818.81c1.6,-138.25 28.93,-235.4 81.18,-290.99 23.71,-29.48 51.04,-50.75 82.39,-63.8 29.73,-10.64 58.68,-15.95 86.81,-15.95 29.74,0 57.07,6.28 82.39,18.36l0 -336.9c-16.08,-3.87 -32.56,-6.77 -49.04,-8.7 -44.21,0 -82.79,8.7 -115.34,26.1 -34.16,21.75 -64.3,46.89 -91.23,76.37 -47.83,65.26 -81.19,130.03 -100.07,193.83l-4.83 0c-1.21,-90.39 -4.42,-181.74 -8.84,-273.1l-261.23 0c6.03,69.61 9.24,151.78 9.24,246.03l0 1247.56zm1685.16 -356.72l0 0c-24.52,25.62 -61.08,50.75 -109.72,75.4 -49.43,27.07 -118.16,41.09 -205.77,41.09 -208.99,-3.87 -311.07,-140.66 -306.65,-409.89l696.89 0 0 -69.12c-1.2,-299.2 -48.22,-508.98 -140.26,-628.86 -91.63,-114.55 -205.37,-170.62 -340.81,-168.69 -154.33,1.93 -274.09,77.34 -359.3,226.7 -90.42,146.46 -135.44,334.97 -135.44,565.05 -1.6,204.94 42.61,379.44 133.44,522.99 90.42,146.46 231.09,221.38 421.99,225.25 43.8,0 84.8,-4.83 121.77,-14.02 18.49,-3.86 36.18,-8.7 53.86,-14.5 17.28,-3.86 32.95,-6.28 46.62,-8.21 31.35,-12.57 58.68,-24.17 82.38,-35.77 22.51,-9.19 41.4,-16.92 55.87,-22.72l-14.87 -284.7zm-622.14 -518.65c0,-104.89 17.28,-197.21 51.85,-276.48 34.56,-79.27 89.21,-119.87 163.97,-121.81 133.03,0 200.55,132.93 202.16,398.29l-417.98 0zm1657.43 -1299.76l0 896.64 -4.83 0c-20.49,-62.36 -55.45,-117.94 -104.89,-165.79 -51.45,-46.41 -119.77,-70.58 -204.97,-72.51 -272.89,7.73 -411.54,264.88 -415.96,771.93 0,212.68 33.35,391.52 100.07,537.01 67.12,150.33 174.43,227.18 322.73,231.05 93.24,-1.93 164.78,-29 214.21,-81.2 48.63,-50.27 83.59,-108.28 104.89,-174.01l6.83 0c0,106.34 3.62,183.67 10.45,232.01l270.08 0c-6.43,-59.45 -10.04,-144.53 -10.04,-254.73l0 -1920.4 -288.57 0zm-442.09 1414.8c-1.21,-151.77 14.87,-272.61 49.43,-362.52 34.16,-85.07 90.03,-128.57 167.6,-130.51 79.97,1.94 137.84,48.82 173.61,140.18 34.17,92.8 51.45,213.64 51.45,363 0,142.59 -16.48,262.47 -49.43,359.62 -34.17,98.13 -94.05,148.4 -180.06,150.33 -147.89,0 -218.63,-173.53 -212.6,-520.1zm1894.14 -10.63l224.66 -949.32 4.43 0 205.37 949.32 -434.46 0zm612.09 770.96l307.46 0 -525.28 -2024.32 -326.74 0 -545.79 2024.32 298.22 0 117.35 -487.71 559.84 0 114.94 487.71zm1300.96 -321.44c-20.9,14.99 -50.24,30.46 -89.23,45.44 -40.19,17.88 -79.17,27.07 -116.55,27.07 -108.51,-1.93 -190.5,-50.75 -245.16,-145.98 -56.26,-90.87 -84.8,-206.39 -84.8,-347.05 -2.81,-330.14 102.49,-497.86 316.3,-502.7 40.59,0 78.37,8.22 114.14,24.17 32.95,14.99 62.3,31.9 89.22,49.79l16.08 -285.19c-26.93,-14.98 -63.51,-29 -109.72,-41.08 -23.71,-5.8 -47.03,-11.12 -70.73,-16.92 -22.92,-1.93 -46.62,-2.9 -71.95,-2.9 -199.34,1.93 -346.43,76.37 -441.29,223.8 -95.24,144.52 -141.86,327.23 -140.26,548.13 -1.6,216.55 43.41,397.32 135.44,542.81 90.83,146.46 233.91,221.38 430.04,225.25 119.76,-1.93 214.21,-22.23 284.14,-60.9l-15.67 -283.74zm1026.85 0c-20.9,14.99 -50.24,30.46 -89.22,45.44 -40.2,17.88 -79.18,27.07 -116.56,27.07 -108.5,-1.93 -190.5,-50.75 -245.16,-145.98 -56.26,-90.87 -84.8,-206.39 -84.8,-347.05 -2.81,-330.14 102.49,-497.86 316.3,-502.7 40.59,0 78.37,8.22 114.14,24.17 32.96,14.99 62.3,31.9 89.22,49.79l16.08 -285.19c-26.93,-14.98 -63.51,-29 -109.72,-41.08 -23.71,-5.8 -47.03,-11.12 -70.73,-16.92 -22.92,-1.93 -46.62,-2.9 -71.95,-2.9 -199.33,1.93 -346.43,76.37 -441.28,223.8 -95.25,144.52 -141.87,327.23 -140.26,548.13 -1.61,216.55 43.4,397.32 135.43,542.81 90.83,146.46 233.91,221.38 430.04,225.25 119.76,-1.93 214.21,-22.23 284.14,-60.9l-15.67 -283.74zm491.12 -426.32c-1.21,-131.96 14.06,-249.9 46.62,-353.82 18.89,-50.27 43.41,-89.91 72.74,-119.39 27.33,-27.07 64.31,-41.09 111.33,-41.09 46.22,0 84.8,14.02 115.74,41.09 30.95,29.48 54.66,69.12 70.34,119.39 29.74,103.92 43.81,221.86 42.19,353.82 1.62,129.54 -12.45,246.51 -42.19,350.44 -15.68,50.75 -39.39,90.39 -70.34,118.9 -30.94,30.94 -69.52,46.89 -115.74,46.89 -47.02,0 -84,-15.95 -111.33,-46.89 -29.33,-28.51 -53.85,-68.15 -72.74,-118.9 -32.56,-103.93 -47.83,-220.9 -46.62,-350.44zm-298.21 0c0,77.82 4.42,146.94 13.66,208.33 9.65,64.29 22.11,122.29 37.38,174.49 30.95,100.06 72.34,178.36 124.19,234.92 25.72,29.48 53.45,52.68 82.79,69.6 28.13,21.75 57.07,38.19 86.41,49.79 62.29,22.71 123.79,33.83 184.47,33.83 63.5,0 126.59,-11.12 188.89,-33.83 61.89,-23.69 117.76,-63.32 167.19,-119.39 51.44,-56.56 92.84,-134.86 123.79,-234.92 31.34,-101.02 46.62,-228.63 46.62,-382.82 0,-152.74 -15.28,-279.87 -46.62,-380.89 -30.95,-100.06 -72.35,-177.88 -123.79,-233.95 -49.43,-58.48 -105.3,-99.57 -167.19,-123.25 -62.3,-20.79 -125.39,-30.94 -188.89,-30.94 -60.68,0 -122.18,10.15 -184.47,30.94 -29.34,12.56 -58.28,28.03 -86.41,46.88 -29.34,21.75 -57.07,47.37 -82.79,76.37 -51.85,56.07 -93.24,133.89 -124.19,233.95 -15.27,49.3 -27.73,105.37 -37.38,168.69 -9.24,64.29 -13.66,134.86 -13.66,212.2zm2278.36 -745.83l-288.56 0 0 854.59c0,47.37 -2.41,92.32 -7.24,134.37 -6.02,44.47 -17.28,84.11 -33.35,118.91 -29.75,72.99 -83.2,110.69 -159.96,113.59 -117.35,3.38 -175.22,-104.89 -174.02,-325.79l0 -895.67 -288.57 0 0 962.86c-1.6,155.16 23.72,284.7 76.36,389.59 51.85,107.79 144.69,162.41 278.92,164.34 47.83,-1.93 88.83,-11.6 123.39,-29 34.96,-14.98 63.9,-34.32 86.8,-58 24.92,-27.56 47.03,-55.11 65.91,-83.63 15.28,-27.06 30.15,-54.62 44.62,-82.17l-3.22 -2.41 8.04 2.41c0,75.89 2.81,152.26 8.84,229.6l270.89 0c-5.63,-70.09 -8.85,-152.26 -8.85,-247l0 -1246.59zm299.82 1493.59l288.57 0 0 -870.05c0,-99.09 16.07,-182.23 47.41,-249.42 32.96,-65.73 86.42,-100.05 159.96,-101.98 112.94,-1.46 168.4,106.33 167.19,324.81l0 896.64 288.56 0 0 -962.86c1.62,-155.16 -22.1,-285.18 -71.93,-391.04 -53.05,-106.82 -147.5,-160.96 -283.34,-162.89 -48.64,0 -90.03,7.73 -124.19,23.2 -34.57,17.89 -64.71,40.12 -91.63,66.71 -24.12,27.06 -45.01,54.62 -62.7,82.17 -15.27,29 -29.33,56.07 -42.2,80.72l2.41 0 -7.23 0c-1.2,-77.82 -4.42,-154.19 -8.85,-229.6l-272.08 0c6.43,69.61 10.05,151.78 10.05,246.03l0 1247.56zm1360.03 -1493.59l-191.31 0 0 263.43 191.31 0 0 818.34c1.2,296.78 113.33,441.79 336.38,435.02 43.41,0 81.19,-5.8 114.15,-16.92 32.55,-9.66 59.07,-19.81 79.57,-31.41l0 -256.67c-22.1,19.82 -59.08,30.94 -110.92,32.87 -41.8,1.45 -73.55,-13.05 -94.85,-43.99 -23.72,-31.42 -35.77,-85.55 -35.77,-163.37l0 -773.87 241.54 0 0 -263.43 -241.54 0 0 -417.62 0 0 -288.56 110.2 0 307.42zm814.64 378.96l0 0c29.74,-33.35 73.95,-65.74 133.44,-97.16 57.87,-31.42 123.38,-48.33 196.52,-50.27 81.99,1.94 140.67,30.45 175.63,86.04 32.96,54.14 49.44,121.32 49.44,201.08l0 56.07 -59.48 0c-184.88,-1.93 -335.59,30.45 -452.54,97.16 -118.56,73.47 -178.84,209.77 -180.05,408.44 1.21,139.2 38.98,246.03 112.53,320.46 68.72,75.41 151.11,114.08 247.57,116.01 85.2,-1.93 154.33,-25.13 207.38,-70.09 53.45,-42.53 96.45,-94.25 129.01,-155.64l4.42 0c-1.61,75.41 4.02,143.08 16.08,202.53l260.42 0c-10.44,-63.8 -16.07,-151.78 -16.07,-262.47l0 -651.08c1.61,-190.45 -27.73,-338.84 -88.82,-445.18 -63.9,-103.44 -187.28,-156.13 -370.55,-158.06 -90.43,1.93 -165.98,13.54 -227.07,35.29 -62.29,24.65 -113.34,49.78 -153.93,75.4l16.07 291.47zm555.03 467.41c2.81,280.83 -75.96,423.42 -237.12,427.29 -56.67,0 -101.28,-21.75 -133.84,-64.29 -34.56,-42.53 -51.84,-97.15 -51.84,-164.34 3.22,-195.76 135.44,-290.02 396.28,-282.77l26.52 0 0 84.11zm576.32 647.22l288.56 0 0 -870.05c0,-99.09 16.08,-182.23 47.42,-249.42 32.96,-65.73 86.42,-100.05 159.96,-101.98 112.94,-1.46 168.4,106.33 167.19,324.81l0 896.64 288.56 0 0 -962.86c1.61,-155.16 -22.1,-285.18 -71.94,-391.04 -53.04,-106.82 -147.49,-160.96 -283.34,-162.89 -48.63,0 -90.02,7.73 -124.18,23.2 -34.57,17.89 -64.71,40.12 -91.63,66.71 -24.12,27.06 -45.02,54.62 -62.7,82.17 -15.28,29 -29.34,56.07 -42.2,80.72l2.41 0 -7.23 0c-1.21,-77.82 -4.42,-154.19 -8.85,-229.6l-272.08 0c6.43,69.61 10.05,151.78 10.05,246.03l0 1247.56zm1360.02 -1493.59l-191.3 0 0 263.43 191.3 0 0 818.34c1.21,296.78 113.34,441.79 336.39,435.02 43.41,0 81.19,-5.8 114.14,-16.92 32.56,-9.66 59.08,-19.81 79.58,-31.41l0 -256.67c-22.1,19.82 -59.08,30.94 -110.92,32.87 -41.8,1.45 -73.55,-13.05 -94.85,-43.99 -23.72,-31.42 -35.77,-85.55 -35.77,-163.37l0 -773.87 241.54 0 0 -263.43 -241.54 0 0 -417.62 0 0 -288.57 110.2 0 307.42zm694.49 1444.29c31.74,16.43 77.56,31.9 137.05,46.88 59.07,14.99 127,23.69 203.76,25.62 136.64,-1.93 245.96,-41.57 327.94,-118.91 84.81,-76.37 127.81,-183.67 129.42,-321.43 0,-85.07 -18.89,-155.64 -55.86,-211.23 -37.79,-56.55 -94.05,-111.66 -168.4,-165.79l-151.11 -113.11c-44.21,-34.8 -78.78,-66.22 -103.69,-93.77 -26.53,-26.1 -40.2,-58.97 -40.2,-97.64 -1.2,-94.26 56.27,-143.08 172.82,-145.98 54.26,0 103.7,6.29 147.9,18.37 41.79,15.47 80.38,31.9 115.74,49.79l16.88 -279.39c-6.42,-3.86 -18.08,-9.18 -34.96,-16.91 -18.08,-8.7 -40.59,-15.47 -67.92,-21.27 -55.06,-13.05 -123.38,-20.79 -204.97,-22.72 -130.61,1.93 -233.5,45.44 -307.86,130.51 -77.96,84.59 -116.54,182.71 -116.54,292.92 0,57.52 8.04,106.82 24.92,147.42 16.07,42.54 35.36,80.24 58.27,113.11 23.31,31.42 50.64,60.42 81.99,87.97 28.13,24.65 57.87,48.82 88.81,72.02l126.6 86.52c57.07,36.74 94.86,70.09 113.34,99.09 16.08,31.42 24.52,60.91 24.52,89.42 0,56.56 -17.69,95.23 -53.46,116.01 -36.57,21.75 -83.59,32.87 -140.26,32.87 -70.74,-1.93 -133.43,-16.92 -188.49,-43.99 -55.86,-22.72 -96.86,-41.08 -122.58,-55.58l-13.66 299.2z"/>
   <path class="fil3" d="M18089.26 6109.23l148.79 0 0 -557.4 68.25 0c55.36,0 96.66,10.84 123.9,31.93 27.24,22.55 48.91,58.87 65.02,109.55l136.2 415.92 161.39 0 -165.78 -491.78c-11.72,-35.45 -26.95,-62.69 -45.69,-81.72 -20.51,-18.16 -48.33,-31.05 -83.77,-38.67l0 -3.22c87.28,-21.38 148.79,-59.46 184.82,-114.23 33.1,-52.72 49.5,-112.48 49.5,-179.55 0,-92.56 -29.29,-170.47 -88.16,-233.45 -26.07,-26.94 -58.29,-48.03 -96.37,-63.56 -40.13,-13.76 -91.39,-20.5 -154.07,-20.5l-304.03 0 0 1226.68zm148.79 -1102.2l119.51 0c67.07,0 120.68,16.41 160.8,49.21 38.37,33.39 57.7,84.94 57.7,154.66 0,55.06 -16.4,104.56 -49.2,148.5 -35.74,44.23 -93.15,67.07 -172.82,68.24l-115.99 0 0 -420.61zm1332.13 697.7l0 -78.79c-2.05,-278.84 -103.69,-420.61 -304.62,-425.3 -107.5,1.18 -189.51,42.47 -246.63,123.61 -58.58,81.72 -87.87,194.19 -87.87,337.13 0,142.06 29.88,253.36 89.63,333.91 58,82.89 144.4,125.07 259.22,126.24 90.21,-1.17 171.06,-18.16 242.52,-51.55l-6.73 -133.27 0 0c-24.9,17.87 -54.78,34.56 -89.63,50.09 -36.61,16.11 -72.93,24.31 -108.96,24.31 -158.17,0.88 -237.25,-101.05 -237.25,-306.38l490.32 0zm-490.32 -110.13c3.51,-105.45 22.26,-179.84 56.82,-222.61 33.98,-40.42 74.11,-60.92 120.68,-60.92 113.94,0 171.05,94.61 171.05,283.53l-348.55 0zm772.97 66.49c-0.88,-227.3 62.97,-341.82 191.85,-342.99 129.46,1.17 193.32,115.69 191.85,342.99 1.47,228.46 -62.39,342.99 -191.85,342.99 -128.88,0 -192.73,-114.53 -191.85,-342.99zm525.47 -285c0,-54.77 2.63,-109.25 7.61,-163.14l-137.08 0.29 -4.98 127.41 -3.22 0c-51.84,-91.09 -123.02,-137.66 -213.52,-140.01 -207.38,0 -312.83,153.49 -316.05,460.74 4.4,306.67 104.28,460.15 300.23,460.15 95.49,0 171.93,-49.79 229.34,-149.67l3.22 0 0 140.88c0,78.5 -18.45,141.18 -55.06,188.05 -38.96,48.33 -102.23,72.93 -189.51,74.1 -41.3,-1.17 -82.89,-8.78 -125.36,-22.55 -44.23,-15.52 -82.6,-33.98 -114.24,-55.36l0 0 -6.73 147.92c79.37,33.97 164.02,52.13 253.94,54.48 99.01,0 185.41,-28.12 259.22,-84.65 72.64,-55.95 110.14,-144.7 112.19,-266.25l0 -772.39zm234.32 733.14l141.77 0 0 -896.28 -141.77 0 0 896.28zm-7.62 -1265.05l0 175.16 156.41 0 0 -175.16 -156.41 0zm346.51 1092.24l-7.62 133.56c64.15,33.1 142.06,50.38 233.74,51.55 99.29,-1.17 171.35,-28.7 215.28,-82.6 42.18,-51.84 62.98,-116.87 62.98,-195.66 -2.05,-110.71 -59.46,-186.87 -171.94,-228.75l-50.67 -21.68c-97.53,-33.98 -146.45,-84.35 -146.45,-151.43 0,-36.91 12.6,-67.07 37.49,-90.51 24.02,-21.67 59.17,-32.8 105.74,-32.8 67.37,1.46 123.9,15.23 169.88,41.3l7.62 -127.12c-49.79,-19.92 -111.01,-30.46 -183.65,-31.64 -85.24,1.18 -152.31,25.78 -200.93,74.11 -52.14,49.21 -77.91,111.3 -77.91,186.58 0,55.65 12.88,100.17 38.95,134.15 27.24,34.85 70.88,67.37 130.64,97.24l95.78 43.64c39.83,17.87 69.12,37.79 87.28,59.46 15.52,22.26 23.43,49.5 23.43,81.72 0,33.69 -13.76,62.98 -41,87.58 -26.95,26.07 -68.54,38.96 -123.9,38.96 -71.47,-1.17 -139.72,-23.73 -204.74,-67.66zm1070.56 44.23c-24.89,15.52 -54.77,23.43 -89.04,23.43 -31.63,0 -54.48,-11.43 -68.54,-33.69 -14.35,-21.38 -21.67,-57.41 -21.67,-108.08l0 -531.91 179.25 0 0 -117.45 -179.25 0 0 -227.3 0 0 -141.77 44.52 0 182.78 -137.37 0 0 117.45 137.37 0 0 578.48c0,77.62 17.28,132.69 52.14,165.2 34.27,31.64 83.47,47.45 147.62,47.45 43.06,-1.17 83.77,-8.49 121.26,-21.97l0 -118.91zm734.31 -275.92l0 -78.79c-2.05,-278.84 -103.69,-420.61 -304.62,-425.3 -107.5,1.18 -189.51,42.47 -246.63,123.61 -58.58,81.72 -87.87,194.19 -87.87,337.13 0,142.06 29.88,253.36 89.63,333.91 58,82.89 144.4,125.07 259.22,126.24 90.21,-1.17 171.06,-18.16 242.52,-51.55l-6.73 -133.27 0 0c-24.9,17.87 -54.78,34.56 -89.63,50.09 -36.61,16.11 -72.93,24.31 -108.96,24.31 -158.17,0.88 -237.25,-101.05 -237.25,-306.38l490.32 0zm-490.32 -110.13c3.51,-105.45 22.26,-179.84 56.82,-222.61 33.98,-40.42 74.11,-60.92 120.68,-60.92 113.94,0 171.05,94.61 171.05,283.53l-348.55 0zm673.38 514.63l141.77 0 0 -474.5c3.51,-195.96 66.19,-293.79 188.63,-293.79 19.62,0 37.78,1.76 55.06,5.28l0 -145.58c-122.43,-1.17 -204.74,49.5 -246.92,152.02l-3.22 0 -4.98 -139.71 -137.08 0c3.23,62.97 5.57,127.12 6.74,193.02l0 703.26zm1116.84 -404.5l0 -78.79c-2.05,-278.84 -103.69,-420.61 -304.62,-425.3 -107.5,1.18 -189.51,42.47 -246.63,123.61 -58.58,81.72 -87.87,194.19 -87.87,337.13 0,142.06 29.88,253.36 89.63,333.91 58,82.89 144.4,125.07 259.22,126.24 90.21,-1.17 171.06,-18.16 242.52,-51.55l-6.73 -133.27 0 0c-24.9,17.87 -54.78,34.56 -89.63,50.09 -36.61,16.11 -72.93,24.31 -108.96,24.31 -158.17,0.88 -237.25,-101.05 -237.25,-306.38l490.32 0zm-490.32 -110.13c3.51,-105.45 22.26,-179.84 56.82,-222.61 33.98,-40.42 74.11,-60.92 120.68,-60.92 113.94,0 171.05,94.61 171.05,283.53l-348.55 0zm1156.67 66.49c1.47,228.46 -62.39,342.99 -191.85,342.99 -128.88,0 -192.73,-114.53 -191.85,-342.99 -0.88,-227.3 62.97,-341.82 191.85,-342.99 129.46,1.17 193.32,115.69 191.85,342.99zm141.77 -869.93l-141.77 0 0 542.75 -3.51 0c-53.31,-89.92 -127.42,-134.44 -221.73,-133.27 -195.95,0 -295.83,153.49 -300.23,460.74 4.4,306.67 104.28,460.15 300.23,460.15 62.68,-1.17 112.18,-16.99 148.21,-47.45 35.73,-28.12 62.68,-60.34 81.13,-97.24l3.22 0 4.98 132.39 137.08 0c-4.98,-55.07 -7.61,-110.13 -7.61,-164.9l0 -1153.17zm853.23 91.39l-398.35 1226.68 149.97 0 94.9 -320.14 452.24 0 95.49 320.14 155.82 0 -387.51 -1226.68 -162.56 0zm-113.06 773.56l187.75 -612.17 3.22 0 181.9 612.17 -372.87 0zm1425.26 -443.16l-141.76 0 0 540.4c-2.34,162.27 -64.15,243.7 -185.12,243.7 -94.9,2.05 -142.93,-66.2 -144.1,-205.03l0 -579.07 -141.77 0 0 622.71c4.39,191.56 89.04,287.04 254.24,285.87 101.05,1.17 174.28,-47.45 219.97,-146.16l3.22 0 4.98 133.86 137.37 0c-4.68,-63.56 -7.03,-127.71 -7.03,-193.02l0 -703.26zm717.62 448.14c1.47,228.46 -62.39,342.99 -191.85,342.99 -128.88,0 -192.73,-114.53 -191.85,-342.99 -0.88,-227.3 62.97,-341.82 191.85,-342.99 129.46,1.17 193.32,115.69 191.85,342.99zm141.77 -869.93l-141.77 0 0 542.75 -3.51 0c-53.31,-89.92 -127.42,-134.44 -221.73,-133.27 -195.95,0 -295.83,153.49 -300.23,460.74 4.4,306.67 104.28,460.15 300.23,460.15 62.68,-1.17 112.18,-16.99 148.21,-47.45 35.73,-28.12 62.68,-60.34 81.13,-97.24l3.22 0 4.98 132.39 137.08 0c-4.98,-55.07 -7.61,-110.13 -7.61,-164.9l0 -1153.17zm234.32 1318.07l141.77 0 0 -896.28 -141.77 0 0 896.28zm-7.62 -1265.05l0 175.16 156.41 0 0 -175.16 -156.41 0zm766.53 1136.47c-24.89,15.52 -54.77,23.43 -89.04,23.43 -31.63,0 -54.48,-11.43 -68.54,-33.69 -14.35,-21.38 -21.67,-57.41 -21.67,-108.08l0 -531.91 179.25 0 0 -117.45 -179.25 0 0 -227.3 0 0 -141.77 44.52 0 182.78 -137.37 0 0 117.45 137.37 0 0 578.48c0,77.62 17.28,132.69 52.14,165.2 34.27,31.64 83.47,47.45 147.62,47.45 43.06,-1.17 83.77,-8.49 121.26,-21.97l0 -118.91zm243.99 -319.56c-0.88,-227.3 65.61,-341.82 200.05,-342.99 134.15,1.17 200.64,115.69 199.47,342.99 1.17,228.46 -65.32,342.99 -199.47,342.99 -134.44,0 -200.93,-114.53 -200.05,-342.99zm-148.8 0c0,142.06 29.88,253.36 89.63,334.2 58.29,82.89 144.7,125.07 259.22,126.24 115.4,-1.17 202.69,-43.35 261.86,-126.24 57.7,-80.55 86.4,-191.85 86.4,-333.91 0,-142.94 -28.7,-255.41 -86.4,-337.13 -59.17,-81.14 -146.46,-122.43 -261.86,-123.61 -114.52,1.18 -200.93,42.18 -259.22,123.32 -59.75,82.01 -89.63,194.19 -89.63,337.13zm889.26 448.14l141.77 0 0 -474.5c3.51,-195.96 66.19,-293.79 188.63,-293.79 19.62,0 37.78,1.76 55.06,5.28l0 -145.58c-122.43,-1.17 -204.74,49.5 -246.92,152.02l-3.22 0 -4.98 -139.71 -137.08 0c3.23,62.97 5.57,127.12 6.74,193.02l0 703.26zm482.41 -172.81l-7.62 133.56c64.15,33.1 142.06,50.38 233.74,51.55 99.29,-1.17 171.35,-28.7 215.28,-82.6 42.18,-51.84 62.98,-116.87 62.98,-195.66 -2.05,-110.71 -59.46,-186.87 -171.94,-228.75l-50.67 -21.68c-97.53,-33.98 -146.45,-84.35 -146.45,-151.43 0,-36.91 12.6,-67.07 37.49,-90.51 24.02,-21.67 59.17,-32.8 105.74,-32.8 67.37,1.46 123.9,15.23 169.88,41.3l7.62 -127.12c-49.79,-19.92 -111.01,-30.46 -183.65,-31.64 -85.24,1.18 -152.31,25.78 -200.93,74.11 -52.14,49.21 -77.91,111.3 -77.91,186.58 0,55.65 12.88,100.17 38.95,134.15 27.24,34.85 70.88,67.37 130.64,97.24l95.78 43.64c39.83,17.87 69.12,37.79 87.28,59.46 15.52,22.26 23.43,49.5 23.43,81.72 0,33.69 -13.76,62.98 -41,87.58 -26.95,26.07 -68.54,38.96 -123.9,38.96 -71.47,-1.17 -139.72,-23.73 -204.74,-67.66zm1408.28 -424.71l263.33 367.01c-19.63,30.46 -48.04,57.11 -86.12,79.37 -37.2,25.78 -76.45,38.96 -117.45,38.96 -67.37,-1.17 -120.09,-23.73 -158.46,-67.37 -40.13,-42.47 -60.34,-95.49 -60.34,-158.46 0,-56.82 16.11,-107.5 47.74,-151.72 28.41,-42.48 65.61,-78.5 111.3,-107.79zm613.05 597.52l-183.36 -242.82c78.21,-134.44 122.44,-283.23 132.4,-446.09l-142.35 0c-4.69,125.07 -29,236.96 -72.94,335.38l0 0 -223.78 -314c79.67,-48.03 137.67,-99.58 173.99,-154.36 33.39,-53.31 50.09,-107.49 50.09,-162.27 -0.88,-74.98 -24.61,-135.9 -70.89,-182.77 -47.45,-46.86 -111.89,-70.88 -193.9,-72.05 -81.43,1.17 -146.45,24.02 -194.78,68.54 -51.84,45.98 -77.62,109.54 -77.62,191.56 1.17,50.38 14.94,99.58 41.89,147.62 26.94,48.04 54.48,91.97 82.3,132.1 -161.39,81.72 -241.94,205.91 -241.94,372.57 0,93.73 30.17,172.82 90.51,237.55 58.87,66.49 145.87,100.17 261.27,101.34 62.1,0 119.51,-12.3 172.23,-36.9 52.72,-24.9 94.61,-61.81 125.95,-111.01l0 0 94.02 135.61 176.91 0zm-400.69 -987.96c0,41 -11.42,78.5 -33.98,112.18 -24.89,34.56 -66.49,70.88 -125.07,108.96l0 0c-24.6,-31.34 -48.33,-68.25 -70.88,-110.43 -24.9,-42.47 -37.2,-79.96 -37.2,-112.47 0,-41.3 13.48,-73.81 40.42,-97.24 25.78,-22.85 58.58,-34.57 98.42,-34.57 44.23,1.17 76.74,14.65 97.54,40.42 20.5,26.07 30.75,56.83 30.75,93.15zm1084.92 987.96l148.79 0 0 -1093.41 272.11 0 0 -133.27 -693.3 0 0 133.27 272.4 0 0 1093.41zm497.93 -695.94l0 0c54.78,-62.09 129.47,-94.02 223.78,-95.19 30.46,0 58.87,4.39 84.94,12.59 26.07,8.5 45.99,23.73 60.05,45.99 13.18,18.74 22.26,39.25 26.65,61.51 3.81,22.55 5.86,49.79 5.86,82.6l0 40.42 -84.06 0c-146.45,0.88 -251.31,29 -315.17,84.06 -62.97,56.53 -94.02,129.17 -92.85,217.92 0,85.82 24.31,149.97 72.94,192.15 45.4,44.22 104.56,66.19 177.2,66.19 65.91,-1.17 118.63,-15.23 157.88,-42.18 38.66,-25.77 67.36,-55.94 85.52,-91.09l3.23 0 8.49 120.97 128.59 0c-4.69,-34.86 -7.03,-80.55 -7.03,-137.37l0 -466.6c0,-62.39 -7.03,-110.42 -21.39,-144.11 -16.11,-33.09 -33.68,-58.28 -53.01,-75.56 -13.18,-16.7 -38.96,-34.27 -76.45,-53.31 -18.45,-9.08 -40.42,-16.7 -66.49,-23.14 -27.24,-5.57 -56.82,-8.5 -88.16,-8.5 -88.75,1.18 -170.77,25.19 -245.46,72.35l14.94 140.3zm401.28 369.65c0,64.14 -17.87,116.86 -53.6,159.04 -36.03,44.82 -86.11,67.96 -149.97,69.13 -97.83,-2.35 -146.74,-54.78 -146.74,-157.29 0,-54.19 21.38,-99 63.56,-134.74 40.42,-33.97 102.51,-51.55 185.7,-52.43 40.71,0 74.4,0.88 101.05,3.22l0 113.07zm273.86 326.29l157 0 182.48 -370.82 0 0 192.14 370.82 163.73 0 -271.22 -476.55 248.96 -419.73 -156.41 0 -167.24 322.78 0 0 -166.37 -322.78 -157.29 0 239.3 414.75 -265.08 481.53zm1470.97 -1226.68l-398.35 1226.68 149.97 0 94.9 -320.14 452.24 0 95.49 320.14 155.82 0 -387.51 -1226.68 -162.56 0zm-113.06 773.56l187.75 -612.17 3.22 0 181.9 612.17 -372.87 0zm1295.8 4.98c1.47,228.46 -62.39,342.99 -191.85,342.99 -128.88,0 -192.73,-114.53 -191.85,-342.99 -0.88,-227.3 62.97,-341.82 191.85,-342.99 129.46,1.17 193.32,115.69 191.85,342.99zm141.77 -869.93l-141.77 0 0 542.75 -3.51 0c-53.31,-89.92 -127.42,-134.44 -221.73,-133.27 -195.95,0 -295.83,153.49 -300.23,460.74 4.4,306.67 104.28,460.15 300.23,460.15 62.68,-1.17 112.18,-16.99 148.21,-47.45 35.73,-28.12 62.68,-60.34 81.13,-97.24l3.22 0 4.98 132.39 137.08 0c-4.98,-55.07 -7.61,-110.13 -7.61,-164.9l0 -1153.17zm395.12 1318.07l170.47 0 260.39 -896.28 -149.67 0 -194.78 748.95 -3.22 0 -190.68 -748.95 -157 0 264.49 896.28zm587.57 0l141.77 0 0 -896.28 -141.77 0 0 896.28zm-7.62 -1265.05l0 175.16 156.41 0 0 -175.16 -156.41 0zm346.51 1092.24l-7.62 133.56c64.15,33.1 142.06,50.38 233.74,51.55 99.29,-1.17 171.35,-28.7 215.28,-82.6 42.18,-51.84 62.98,-116.87 62.98,-195.66 -2.05,-110.71 -59.46,-186.87 -171.94,-228.75l-50.67 -21.68c-97.53,-33.98 -146.45,-84.35 -146.45,-151.43 0,-36.91 12.6,-67.07 37.49,-90.51 24.02,-21.67 59.17,-32.8 105.74,-32.8 67.37,1.46 123.9,15.23 169.88,41.3l7.62 -127.12c-49.79,-19.92 -111.01,-30.46 -183.65,-31.64 -85.24,1.18 -152.31,25.78 -200.93,74.11 -52.14,49.21 -77.91,111.3 -77.91,186.58 0,55.65 12.88,100.17 38.95,134.15 27.24,34.85 70.88,67.37 130.64,97.24l95.78 43.64c39.83,17.87 69.12,37.79 87.28,59.46 15.52,22.26 23.43,49.5 23.43,81.72 0,33.69 -13.76,62.98 -41,87.58 -26.95,26.07 -68.54,38.96 -123.9,38.96 -71.47,-1.17 -139.72,-23.73 -204.74,-67.66zm794.65 -275.33c-0.88,-227.3 65.61,-341.82 200.05,-342.99 134.15,1.17 200.64,115.69 199.47,342.99 1.17,228.46 -65.32,342.99 -199.47,342.99 -134.44,0 -200.93,-114.53 -200.05,-342.99zm-148.8 0c0,142.06 29.88,253.36 89.63,334.2 58.29,82.89 144.7,125.07 259.22,126.24 115.4,-1.17 202.69,-43.35 261.86,-126.24 57.7,-80.55 86.4,-191.85 86.4,-333.91 0,-142.94 -28.7,-255.41 -86.4,-337.13 -59.17,-81.14 -146.46,-122.43 -261.86,-123.61 -114.52,1.18 -200.93,42.18 -259.22,123.32 -59.75,82.01 -89.63,194.19 -89.63,337.13zm889.26 448.14l141.77 0 0 -474.5c3.51,-195.96 66.19,-293.79 188.63,-293.79 19.62,0 37.78,1.76 55.06,5.28l0 -145.58c-122.43,-1.17 -204.74,49.5 -246.92,152.02l-3.22 0 -4.98 -139.71 -137.08 0c3.23,62.97 5.57,127.12 6.74,193.02l0 703.26zm482.41 -172.81l-7.62 133.56c64.15,33.1 142.06,50.38 233.74,51.55 99.29,-1.17 171.35,-28.7 215.28,-82.6 42.18,-51.84 62.98,-116.87 62.98,-195.66 -2.05,-110.71 -59.46,-186.87 -171.94,-228.75l-50.67 -21.68c-97.53,-33.98 -146.45,-84.35 -146.45,-151.43 0,-36.91 12.6,-67.07 37.49,-90.51 24.02,-21.67 59.17,-32.8 105.74,-32.8 67.37,1.46 123.9,15.23 169.88,41.3l7.62 -127.12c-49.79,-19.92 -111.01,-30.46 -183.65,-31.64 -85.24,1.18 -152.31,25.78 -200.93,74.11 -52.14,49.21 -77.91,111.3 -77.91,186.58 0,55.65 12.88,100.17 38.95,134.15 27.24,34.85 70.88,67.37 130.64,97.24l95.78 43.64c39.83,17.87 69.12,37.79 87.28,59.46 15.52,22.26 23.43,49.5 23.43,81.72 0,33.69 -13.76,62.98 -41,87.58 -26.95,26.07 -68.54,38.96 -123.9,38.96 -71.47,-1.17 -139.72,-23.73 -204.74,-67.66z"/>
   <path class="fil3" d="M15902.04 511.02c57.47,0 113.54,14.72 168.38,44.31 54.69,29.43 97.44,71.72 127.96,126.56 30.52,54.99 45.85,112.31 45.85,171.79 0,59.02 -15.02,115.88 -45.23,170.25 -30.05,54.53 -72.19,96.82 -126.56,126.87 -54.38,30.21 -111.23,45.24 -170.4,45.24 -59.34,0 -116.19,-15.03 -170.56,-45.24 -54.37,-30.05 -96.66,-72.34 -126.87,-126.87 -30.21,-54.37 -45.39,-111.23 -45.39,-170.25 0,-59.48 15.34,-116.8 46.01,-171.79 30.82,-54.84 73.58,-97.13 128.26,-126.56 54.84,-29.59 110.92,-44.31 168.55,-44.31zm0 56.7c-48.18,0 -95.12,12.39 -140.66,37.02 -45.55,24.63 -81.18,59.95 -106.89,105.81 -25.72,45.85 -38.57,93.56 -38.57,143.13 0,49.42 12.7,96.67 37.95,141.9 25.25,45.24 60.57,80.55 105.96,105.81 45.39,25.25 92.79,37.95 142.21,37.95 49.26,0 96.66,-12.7 142.05,-37.95 45.39,-25.26 80.71,-60.57 105.8,-105.81 25.1,-45.23 37.64,-92.48 37.64,-141.9 0,-49.57 -12.85,-97.28 -38.41,-143.13 -25.56,-45.86 -61.19,-81.18 -106.89,-105.81 -45.7,-24.63 -92.48,-37.02 -140.19,-37.02zm-150.42 474.95l0 -368.06 126.71 0c43.38,0 74.67,3.41 94.03,10.22 19.52,6.82 34.86,18.59 46.48,35.63 11.46,16.89 17.19,34.86 17.19,53.91 0,26.8 -9.6,50.35 -28.97,70.17 -19.2,19.99 -44.76,31.14 -76.68,33.62 13.02,5.42 23.55,11.93 31.3,19.52 14.87,14.41 32.99,38.73 54.52,72.96l44.93 72.03 -72.19 0 -32.84 -57.93c-25.72,-45.7 -46.63,-74.36 -62.43,-85.82 -10.84,-8.37 -26.64,-12.55 -47.56,-12.4l-35.01 0 0 156.15 -59.48 0zm59.48 -207.27l72.19 0c34.55,0 58.09,-5.11 70.64,-15.33 12.55,-10.23 18.9,-23.86 18.9,-40.59 0,-10.84 -3.1,-20.6 -9.14,-29.12 -6.04,-8.68 -14.41,-15.03 -25.1,-19.21 -10.84,-4.18 -30.67,-6.35 -59.79,-6.35l-67.7 0 0 110.6z"/>
  </g>
 </g>
</svg>
