<svg width="1587" height="265" viewBox="0 0 1587 265" fill="none" xmlns="http://www.w3.org/2000/svg">
<g clip-path="url(#clip0_24_79)">
<mask id="mask0_24_79" style="mask-type:luminance" maskUnits="userSpaceOnUse" x="0" y="0" width="1587" height="265">
<path d="M1587 0H0V265H1587V0Z" fill="white"/>
</mask>
<g mask="url(#mask0_24_79)">
<mask id="mask1_24_79" style="mask-type:luminance" maskUnits="userSpaceOnUse" x="0" y="0" width="1587" height="265">
<path d="M1587 0H0V265H1587V0Z" fill="white"/>
</mask>
<g mask="url(#mask1_24_79)">
<path fill-rule="evenodd" clip-rule="evenodd" d="M75.7353 26.0718H230.44L197.011 231.444H42.3066L75.7353 26.0718Z" fill="white"/>
<path fill-rule="evenodd" clip-rule="evenodd" d="M248.264 26.0718H402.969L369.54 231.444H214.835L248.264 26.0718Z" fill="white"/>
<path fill-rule="evenodd" clip-rule="evenodd" d="M420.793 26.0718H575.497L542.068 231.444H387.364L420.793 26.0718Z" fill="white"/>
<path d="M81.9762 207.679H70.2676L96.0767 49.1172H107.786L81.9762 207.679ZM149.955 125.56H114.229L116.015 114.585H147.366C155.928 114.585 162.711 113.135 167.721 110.201C172.73 107.269 175.869 101.908 177.132 94.1498C178.292 87.0225 177.073 81.9454 173.479 78.8873C169.854 75.8277 164.031 74.282 156.003 74.282H122.985L124.74 63.4976H157.382C168.209 63.4976 176.413 66.0825 181.993 71.2553C187.571 76.4266 189.499 84.3104 187.774 94.9073C186.897 100.299 184.754 105.345 181.35 110.013C177.946 114.679 173.526 118.432 168.028 121.27C162.556 124.141 156.533 125.56 149.955 125.56ZM182.917 127.074C186.384 129.943 188.891 132.718 190.495 135.43C192.105 138.111 193.033 141.107 193.282 144.417C193.529 147.729 193.205 152.049 192.342 157.348L187.809 185.193C187.424 187.559 186.939 189.767 186.385 191.816C186.19 196.105 186.192 199.385 186.336 201.592C186.481 203.8 187.082 206.102 188.181 208.435H177.007C175.573 205.061 174.795 201.53 174.698 197.871C174.605 194.182 174.968 189.83 175.789 184.783L179.115 164.348C180.522 155.708 180.717 148.896 179.73 143.944C178.71 138.993 176.787 135.336 173.961 132.971C171.135 130.605 167.331 128.65 162.52 127.074C167.367 125.717 171.851 123.509 176.004 120.419C180.122 117.36 183.576 113.544 186.351 109.066C189.13 104.557 190.949 99.574 191.832 94.1498C193.095 86.3918 192.468 79.9909 189.937 74.8499C187.406 69.7096 183.327 65.9568 177.678 63.5291C172.03 61.1002 165.144 59.902 157.054 59.902H121.14L97.1476 207.3H85.4374L111.185 49.1172H159.69C169.48 49.1172 177.921 50.8201 185.021 54.1943C192.116 57.5999 197.307 62.6455 200.521 69.3939C203.77 76.1109 204.618 84.2475 203.067 93.772C201.918 100.835 199.71 107.049 196.446 112.409C193.187 117.739 188.676 122.627 182.917 127.074ZM174.968 166.62L171.365 188.758C170.061 196.767 170.273 203.201 172.001 208.058H160.48C159.002 202.445 158.894 195.758 160.156 188L164.037 164.159C165.335 156.181 164.611 150.19 161.901 146.152C159.185 142.147 153.879 140.13 146.042 140.13H111.857L113.674 128.965H145.813C154.5 128.965 161.203 130.322 165.961 133.002C170.682 135.715 173.734 139.782 175.076 145.27C176.417 150.757 176.39 157.884 174.968 166.62Z" fill="#133471"/>
<path d="M259.088 150.347C256.435 166.651 258.431 178.95 265.117 187.181C271.804 195.412 283.25 199.542 299.46 199.542C313.509 199.101 325.375 194.844 335.072 186.708C344.732 178.602 350.731 167.471 353.031 153.343L369.996 49.1172H381.516L365.229 149.18C363.648 158.894 361.009 167.565 357.358 175.103C353.671 182.671 348.978 189.072 343.304 194.339C337.637 199.574 331.036 203.58 323.47 206.355C315.904 209.13 307.422 210.58 297.99 210.706C278.254 210.706 264.109 205.756 255.548 195.885C247.02 186.014 244.339 171.349 247.511 151.861L264.235 49.1172H275.566L259.088 150.347ZM274.576 150.347C272.764 161.479 274.18 170.183 278.855 176.458C283.526 182.766 291.259 185.92 302.024 185.92C312.284 185.541 320.472 182.23 326.599 175.922C332.724 169.615 336.66 161.101 338.41 150.347L354.826 49.495H366.345L350.176 148.833C347.681 164.159 342.163 175.827 333.651 183.838C325.108 191.848 313.644 195.948 299.228 196.137C289.627 196.137 281.873 194.276 275.9 190.555C269.927 186.833 265.916 181.505 263.798 174.598C261.679 167.692 261.377 159.493 262.927 149.968L279.281 49.495H290.992L274.576 150.347Z" fill="#133471"/>
<path d="M519.636 104.178C520.174 102.412 520.743 99.7001 521.338 96.0431C524.11 79.0134 515.548 70.4982 495.655 70.4982C490.462 70.4982 485.486 71.0971 480.763 72.265C476.036 73.4632 471.956 75.512 468.561 78.3827C465.162 81.2837 463.061 85.0997 462.296 89.7978C461.526 94.5288 462.374 98.2191 464.828 100.929C467.283 103.642 470.153 105.535 473.505 106.607C476.819 107.711 482.133 109.098 489.468 110.832C501.429 113.734 510.514 116.319 516.734 118.527C522.947 120.766 528.417 124.487 533.068 129.754C537.75 135.02 540.2 142.4 540.418 151.892C540.372 155.078 540.059 158.546 539.453 162.268C537.8 172.422 533.95 181.189 527.933 188.568C521.915 195.948 514.297 201.561 505.135 205.44C495.948 209.287 485.893 211.306 474.976 211.463C463.991 211.463 454.117 209.666 445.291 206.07C436.491 202.507 429.796 196.452 425.238 187.906C420.675 179.391 419.434 168.26 421.546 154.51C421.952 153.752 422.222 152.87 422.381 151.892H434.436C432.43 164.222 433.451 173.999 437.51 181.157C441.566 188.347 447.155 193.267 454.214 195.916C461.302 198.597 468.735 199.921 476.478 199.921C484.976 199.921 492.867 198.629 500.15 196.042C507.433 193.456 513.629 189.231 518.708 183.365C523.785 177.499 527.058 169.962 528.557 160.754C529.218 153.406 528.682 147.414 526.908 142.841C525.14 138.237 522.352 134.674 518.591 132.056C514.795 129.47 510.433 127.453 505.481 125.97C500.528 124.487 493.535 122.784 484.468 120.861C475.852 118.874 469.219 117.077 464.576 115.437C459.932 113.797 456.035 111.054 452.948 107.206C449.865 103.327 448.807 98.029 449.774 91.3121C453.141 70.625 468.612 60.2809 496.185 60.2809C509.154 60.2809 518.895 63.2766 525.501 69.3C532.075 75.3235 534.298 84.8782 532.172 97.9344C531.947 99.3226 531.482 101.403 530.778 104.178H519.636ZM534.367 104.178C535.152 100.898 535.657 98.5651 535.878 97.2094C540.159 70.9082 527.258 57.3474 497.179 56.4967H494.504C486.698 56.4967 479.452 57.6949 472.74 60.0595C466.028 62.4255 460.381 66.1776 455.803 71.2871C451.221 76.427 448.317 82.8608 447.059 90.5871C445.894 97.7459 446.696 103.453 449.481 107.805C452.273 112.126 456.313 115.342 461.566 117.487C466.853 119.631 473.957 121.618 482.877 123.478C493.266 125.591 501.348 127.767 507.216 130.006C513.052 132.245 517.671 135.778 521.04 140.602C524.405 145.459 525.798 152.176 525.158 160.754C523.875 168.637 520.876 175.26 516.2 180.59C511.518 185.951 505.814 189.862 499.046 192.384C492.25 194.875 485.057 196.137 477.439 196.137C465.362 195.885 455.127 192.825 446.739 186.928C438.35 181.031 435.297 170.97 437.607 156.78C437.95 154.667 438.281 153.027 438.592 151.892H449.923C446.514 172.832 455.495 184.184 476.868 185.92C478.379 185.92 479.554 186.046 480.395 186.297C499.977 185.887 511.1 177.499 513.764 161.133C513.967 156.213 513.282 152.302 511.781 149.337C510.28 146.374 508.127 144.134 505.325 142.589C502.529 141.012 498.631 139.625 493.638 138.394C488.644 137.165 484.223 136.092 480.401 135.21C470.347 132.971 463.174 131.204 458.842 129.975C454.51 128.745 450.179 126.726 445.889 123.888C441.566 121.05 438.414 117.014 436.349 111.715C434.311 106.448 433.877 99.6372 435.043 91.3121C436.752 80.8105 440.771 72.1692 447.132 65.3898C453.466 58.5781 461.129 53.6586 470.12 50.6304C479.079 47.6037 488.674 46.0898 498.873 46.0898C509.543 46.0898 518.856 47.6665 526.814 50.789C534.768 53.9418 540.77 59.8077 544.751 68.4176C548.733 77.0263 549.499 88.9471 547.02 104.178H534.367Z" fill="#133471"/>
<path d="M724.619 112.47C723.449 113.532 721.885 114.465 719.972 115.215C718.012 116.002 715.674 116.405 712.971 116.405C708.142 116.459 704.087 114.318 700.807 109.927C697.39 105.517 695.644 98.3804 695.583 88.4989C695.644 78.5811 697.39 71.4261 700.807 67.0161C704.087 62.7345 708.142 60.5933 712.971 60.5933C715.856 60.6667 718.271 61.1607 720.23 62.0572C722.067 62.9904 723.525 63.9054 724.619 64.8022L725.271 52.2859C724.087 51.6086 722.326 50.9136 719.972 50.1996C717.557 49.4496 714.748 49.0835 711.559 49.0835C702.386 49.2301 695.446 52.9628 690.738 60.2824C688.43 63.869 686.668 68.0227 685.439 72.7802C684.194 77.6479 683.586 82.8813 683.586 88.4989C683.586 99.9355 686.001 109.286 690.829 116.551C692.06 118.289 693.411 119.863 694.869 121.272C696.282 122.626 697.876 123.815 699.668 124.858C703.191 126.816 707.292 127.841 711.954 127.914C714.824 127.914 717.466 127.64 719.881 127.073C722.235 126.634 724.026 126.03 725.271 125.206L724.619 112.47ZM735.173 126.816H746.077V93.8788C746.077 90.1275 746.684 86.9801 747.868 84.4364C749.114 81.9481 751.134 80.6488 753.913 80.5758C758.18 80.5205 760.275 84.6011 760.23 92.8721V126.816H771.134V90.3652C771.194 84.4913 770.298 79.5691 768.415 75.5616C766.395 71.5177 762.812 69.4681 757.678 69.395C756.039 69.395 754.626 69.6146 753.442 70.0356C752.196 70.5663 751.134 71.2432 750.238 72.0303C749.341 72.7802 748.612 73.6403 748.035 74.647C747.428 75.6899 746.866 76.6413 746.35 77.5381H746.077V44.4722H735.173V126.816ZM785.271 84.6197C786.396 83.3571 788.066 82.1309 790.314 80.9415C792.5 79.752 794.976 79.1118 797.739 79.0384C800.837 79.1118 803.055 80.1911 804.375 82.2956C805.621 84.3452 806.244 86.8884 806.244 89.9079V92.0306H803.996C797.01 91.9575 791.316 93.1833 786.897 95.7088C782.417 98.4901 780.139 103.65 780.093 111.171C780.139 116.441 781.566 120.485 784.345 123.303C786.942 126.158 790.055 127.622 793.7 127.695C796.919 127.622 799.531 126.743 801.536 125.041C803.556 123.431 805.181 121.473 806.411 119.149H806.578C806.517 122.004 806.73 124.566 807.185 126.816H817.026C816.631 124.401 816.418 121.07 816.418 116.88V92.232C816.479 85.0221 815.37 79.4045 813.062 75.3787C810.648 71.4628 805.986 69.4681 799.061 69.395C795.644 69.4681 792.789 69.9076 790.481 70.731C788.127 71.6642 786.198 72.6155 784.664 73.5854L785.271 84.6197ZM806.244 102.314C806.35 112.946 803.373 118.344 797.284 118.49C795.143 118.49 793.457 117.667 792.227 116.057C790.921 114.447 790.268 112.379 790.268 109.835C790.39 102.424 795.386 98.8559 805.242 99.1303H806.244V102.314ZM828.385 126.816H839.288V95.8186C839.349 90.5848 840.382 86.907 842.356 84.8025C843.252 83.6865 844.284 82.8813 845.469 82.3872C846.593 81.9844 847.686 81.7834 848.749 81.7834C849.873 81.7834 850.906 82.0212 851.862 82.4785V69.7244C851.255 69.5779 850.632 69.4681 850.01 69.395C848.339 69.395 846.881 69.7244 845.651 70.3831C844.36 71.2065 843.222 72.1582 842.204 73.2743C840.397 75.7448 839.136 78.1968 838.423 80.6121H838.24C838.195 77.1902 838.074 73.732 837.907 70.2733H828.036C828.263 72.9086 828.385 76.0193 828.385 79.5873V126.816ZM864.193 70.2733H856.965V80.246H864.193V111.226C864.239 122.461 868.476 127.951 876.904 127.695C878.544 127.695 879.971 127.475 881.217 127.054C882.447 126.688 883.449 126.304 884.223 125.865V116.148C883.388 116.899 881.991 117.32 880.033 117.393C878.453 117.447 877.254 116.899 876.448 115.727C875.552 114.538 875.097 112.489 875.097 109.543V80.246H884.223V70.2733H875.097V54.4634L864.193 58.6353V70.2733ZM925.029 113.312C924.102 114.282 922.721 115.233 920.883 116.166C919.015 117.191 916.418 117.722 913.108 117.722C905.211 117.575 901.354 112.397 901.521 102.205H927.853V99.588C927.808 88.2611 926.031 80.3195 922.553 75.7812C919.091 71.4446 914.793 69.322 909.676 69.395C903.844 69.4681 899.319 72.3229 896.099 77.9773C892.683 83.5218 890.981 90.6583 890.981 99.3684C890.921 107.127 892.592 113.733 896.024 119.167C899.44 124.712 904.755 127.548 911.969 127.695C913.624 127.695 915.173 127.512 916.57 127.164C917.269 127.018 917.937 126.835 918.605 126.615C919.258 126.469 919.85 126.377 920.367 126.304C921.551 125.828 922.584 125.389 923.479 124.95C924.33 124.602 925.044 124.309 925.591 124.09L925.029 113.312ZM901.521 93.6774C901.521 89.7065 902.174 86.2116 903.48 83.2106C904.786 80.2097 906.851 78.6727 909.676 78.5992C914.702 78.5992 917.253 83.6316 917.314 93.6774H901.521ZM938.089 126.816H948.992V95.8186C949.053 90.5848 950.086 86.907 952.06 84.8025C952.956 83.6865 953.988 82.8813 955.173 82.3872C956.296 81.9844 957.39 81.7834 958.453 81.7834C959.577 81.7834 960.61 82.0212 961.566 82.4785V69.7244C960.959 69.5779 960.336 69.4681 959.713 69.395C958.043 69.395 956.585 69.7244 955.355 70.3831C954.064 71.2065 952.925 72.1582 951.908 73.2743C950.101 75.7448 948.84 78.1968 948.127 80.6121H947.944C947.899 77.1902 947.777 73.732 947.61 70.2733H937.739C937.967 72.9086 938.089 76.0193 938.089 79.5873V126.816ZM1001.76 113.312C1000.84 114.282 999.456 115.233 997.618 116.166C995.75 117.191 993.153 117.722 989.843 117.722C981.946 117.575 978.089 112.397 978.256 102.205H1004.59V99.588C1004.54 88.2611 1002.77 80.3195 999.288 75.7812C995.826 71.4446 991.528 69.322 986.41 69.395C980.579 69.4681 976.054 72.3229 972.834 77.9773C969.417 83.5218 967.716 90.6583 967.716 99.3684C967.656 107.127 969.326 113.733 972.758 119.167C976.175 124.712 981.49 127.548 988.704 127.695C990.359 127.695 991.908 127.512 993.305 127.164C994.003 127.018 994.672 126.835 995.34 126.615C995.993 126.469 996.585 126.377 997.102 126.304C998.286 125.828 999.319 125.389 1000.21 124.95C1001.06 124.602 1001.78 124.309 1002.33 124.09L1001.76 113.312ZM978.256 93.6774C978.256 89.7065 978.908 86.2116 980.215 83.2106C981.521 80.2097 983.586 78.6727 986.41 78.5992C991.437 78.5992 993.988 83.6316 994.049 93.6774H978.256ZM1040.88 44.4722V78.4164H1040.7C1039.93 76.0556 1038.6 73.9515 1036.74 72.1401C1034.79 70.3831 1032.21 69.4681 1028.99 69.395C1018.68 69.6877 1013.44 79.4226 1013.27 98.6181C1013.27 106.67 1014.53 113.44 1017.06 118.948C1019.59 124.639 1023.65 127.548 1029.25 127.695C1032.77 127.622 1035.48 126.597 1037.34 124.621C1039.18 122.718 1040.5 120.521 1041.31 118.033H1041.57C1041.57 122.059 1041.7 124.986 1041.96 126.816H1052.17C1051.92 124.566 1051.79 121.345 1051.79 117.173V44.4722H1040.88ZM1024.18 98.0325C1024.13 92.2869 1024.74 87.7122 1026.05 84.3085C1027.34 81.088 1029.45 79.4412 1032.38 79.3677C1035.4 79.4412 1037.59 81.2159 1038.94 84.6746C1040.23 88.1877 1040.88 92.7624 1040.88 98.4167C1040.88 103.815 1040.26 108.353 1039.01 112.031C1037.72 115.746 1035.46 117.649 1032.21 117.722C1026.62 117.722 1023.95 111.153 1024.18 98.0325ZM1095.75 97.63L1104.24 61.6915H1104.41L1112.17 97.63H1095.75ZM1118.88 126.816H1130.5L1110.65 50.1814H1098.3L1077.68 126.816H1088.95L1093.38 108.353H1114.53L1118.88 126.816ZM1168.04 114.648C1167.25 115.215 1166.14 115.801 1164.66 116.368C1163.15 117.045 1161.67 117.393 1160.26 117.393C1156.16 117.32 1153.06 115.471 1151 111.866C1148.87 108.426 1147.79 104.053 1147.79 98.7279C1147.69 86.2297 1151.66 79.8803 1159.74 79.6971C1161.28 79.6971 1162.7 80.0083 1164.06 80.6121C1165.3 81.1796 1166.41 81.8198 1167.43 82.497L1168.04 71.7005C1167.02 71.1334 1165.64 70.6027 1163.89 70.1454C1162.99 69.9258 1162.11 69.7244 1161.22 69.5048C1160.35 69.4318 1159.46 69.395 1158.5 69.395C1150.97 69.4681 1145.41 72.2862 1141.82 77.8675C1138.23 83.3386 1136.46 90.2555 1136.52 98.6181C1136.46 106.816 1138.16 113.66 1141.64 119.167C1145.07 124.712 1150.48 127.548 1157.89 127.695C1162.42 127.622 1165.99 126.853 1168.63 125.389L1168.04 114.648ZM1206.84 114.648C1206.05 115.215 1204.94 115.801 1203.46 116.368C1201.95 117.045 1200.47 117.393 1199.06 117.393C1194.96 117.32 1191.86 115.471 1189.8 111.866C1187.67 108.426 1186.59 104.053 1186.59 98.7279C1186.49 86.2297 1190.46 79.8803 1198.54 79.6971C1200.08 79.6971 1201.51 80.0083 1202.86 80.6121C1204.1 81.1796 1205.21 81.8198 1206.23 82.497L1206.84 71.7005C1205.82 71.1334 1204.44 70.6027 1202.69 70.1454C1201.79 69.9258 1200.91 69.7244 1200.02 69.5048C1199.15 69.4318 1198.26 69.395 1197.3 69.395C1189.77 69.4681 1184.21 72.2862 1180.62 77.8675C1177.03 83.3386 1175.26 90.2555 1175.32 98.6181C1175.26 106.816 1176.96 113.66 1180.44 119.167C1183.87 124.712 1189.28 127.548 1196.69 127.695C1201.22 127.622 1204.79 126.853 1207.43 125.389L1206.84 114.648ZM1225.39 98.5083C1225.35 93.5127 1225.92 89.0478 1227.15 85.1137C1227.87 83.2106 1228.79 81.71 1229.9 80.5939C1230.94 79.5691 1232.33 79.0384 1234.11 79.0384C1235.86 79.0384 1237.31 79.5691 1238.48 80.5939C1239.65 81.71 1240.55 83.2106 1241.14 85.1137C1242.26 89.0478 1242.8 93.5127 1242.74 98.5083C1242.8 103.412 1242.26 107.84 1241.14 111.775C1240.55 113.696 1239.65 115.197 1238.48 116.276C1237.31 117.447 1235.86 118.051 1234.11 118.051C1232.33 118.051 1230.94 117.447 1229.9 116.276C1228.79 115.197 1227.87 113.696 1227.15 111.775C1225.92 107.84 1225.35 103.412 1225.39 98.5083ZM1214.12 98.5083C1214.12 101.454 1214.29 104.071 1214.64 106.395C1215.01 108.829 1215.48 111.025 1216.05 113.001C1217.22 116.789 1218.79 119.753 1220.75 121.894C1221.72 123.01 1222.77 123.889 1223.87 124.529C1224.94 125.352 1226.03 125.975 1227.14 126.414C1229.49 127.274 1231.82 127.695 1234.11 127.695C1236.51 127.695 1238.89 127.274 1241.25 126.414C1243.59 125.517 1245.7 124.017 1247.56 121.894C1249.51 119.753 1251.07 116.789 1252.24 113.001C1253.43 109.176 1254 104.346 1254 98.5083C1254 92.726 1253.43 87.9132 1252.24 84.0889C1251.07 80.3009 1249.51 77.3549 1247.56 75.2322C1245.7 73.0183 1243.59 71.4628 1241.25 70.5663C1238.89 69.7793 1236.51 69.395 1234.11 69.395C1231.82 69.395 1229.49 69.7793 1227.14 70.5663C1226.03 71.0418 1224.94 71.6275 1223.87 72.3411C1222.77 73.1645 1221.72 74.1344 1220.75 75.2322C1218.79 77.3549 1217.22 80.3009 1216.05 84.0889C1215.48 85.9553 1215.01 88.0779 1214.64 90.475C1214.29 92.9089 1214.12 95.5805 1214.12 98.5083ZM1300.21 70.2733H1289.31V102.626C1289.31 104.419 1289.22 106.121 1289.04 107.713C1288.81 109.396 1288.38 110.897 1287.78 112.214C1286.65 114.977 1284.63 116.405 1281.73 116.514C1277.3 116.642 1275.11 112.543 1275.16 104.181V70.2733H1264.25V106.724C1264.19 112.598 1265.15 117.502 1267.14 121.473C1269.1 125.554 1272.61 127.622 1277.68 127.695C1279.49 127.622 1281.03 127.256 1282.34 126.597C1283.66 126.03 1284.76 125.298 1285.62 124.401C1286.56 123.358 1287.4 122.315 1288.11 121.235C1288.69 120.211 1289.25 119.167 1289.8 118.124L1289.68 118.033L1289.98 118.124C1289.98 120.997 1290.09 123.889 1290.31 126.816H1300.55C1300.34 124.163 1300.21 121.052 1300.21 117.466V70.2733ZM1311.54 126.816H1322.45V93.8788C1322.45 90.1275 1323.05 86.9801 1324.24 84.4364C1325.48 81.9481 1327.5 80.6488 1330.28 80.5758C1334.55 80.5205 1336.65 84.6011 1336.6 92.8721V126.816H1347.5V90.3652C1347.56 84.4913 1346.67 79.5691 1344.79 75.5616C1342.78 71.5177 1339.21 69.4681 1334.08 69.395C1332.24 69.395 1330.68 69.6877 1329.39 70.2733C1328.08 70.9506 1326.94 71.7922 1325.92 72.7988C1325.01 73.8232 1324.22 74.8665 1323.56 75.9095C1322.98 77.0074 1322.45 78.0321 1321.96 78.9653H1322.05H1321.78C1321.73 76.0193 1321.61 73.1281 1321.44 70.2733H1311.16C1311.41 72.9086 1311.54 76.0193 1311.54 79.5873V126.816ZM1362.93 70.2733H1355.7V80.246H1362.93V111.226C1362.98 122.461 1367.22 127.951 1375.64 127.695C1377.28 127.695 1378.71 127.475 1379.96 127.054C1381.19 126.688 1382.19 126.304 1382.96 125.865V116.148C1382.13 116.899 1380.73 117.32 1378.77 117.393C1377.19 117.447 1375.99 116.899 1375.19 115.727C1374.29 114.538 1373.84 112.489 1373.84 109.543V80.246H1382.96V70.2733H1373.84V54.4634L1362.93 58.6353V70.2733ZM1393.71 84.6197C1394.84 83.3571 1396.51 82.1309 1398.76 80.9415C1400.94 79.752 1403.42 79.1118 1406.18 79.0384C1409.28 79.1118 1411.5 80.1911 1412.82 82.2956C1414.06 84.3452 1414.69 86.8884 1414.69 89.9079V92.0306H1412.44C1405.45 91.9575 1399.76 93.1833 1395.34 95.7088C1390.86 98.4901 1388.58 103.65 1388.54 111.171C1388.58 116.441 1390.01 120.485 1392.79 123.303C1395.39 126.158 1398.5 127.622 1402.14 127.695C1405.36 127.622 1407.97 126.743 1409.98 125.041C1412 123.431 1413.62 121.473 1414.85 119.149H1415.02C1414.96 122.004 1415.17 124.566 1415.63 126.816H1425.47C1425.07 124.401 1424.86 121.07 1424.86 116.88V92.232C1424.92 85.0221 1423.81 79.4045 1421.51 75.3787C1419.09 71.4628 1414.43 69.4681 1407.5 69.395C1404.09 69.4681 1401.23 69.9076 1398.92 70.731C1396.57 71.6642 1394.64 72.6155 1393.11 73.5854L1393.71 84.6197ZM1414.69 102.314C1414.79 112.946 1411.82 118.344 1405.73 118.49C1403.59 118.49 1401.9 117.667 1400.67 116.057C1399.36 114.447 1398.71 112.379 1398.71 109.835C1398.83 102.424 1403.83 98.8559 1413.68 99.1303H1414.69V102.314ZM1436.46 126.816H1447.37V93.8788C1447.37 90.1275 1447.97 86.9801 1449.16 84.4364C1450.4 81.9481 1452.42 80.6488 1455.2 80.5758C1459.47 80.5205 1461.57 84.6011 1461.52 92.8721V126.816H1472.42V90.3652C1472.48 84.4913 1471.59 79.5691 1469.71 75.5616C1467.7 71.5177 1464.13 69.4681 1459 69.395C1457.16 69.395 1455.6 69.6877 1454.31 70.2733C1453 70.9506 1451.86 71.7922 1450.84 72.7988C1449.93 73.8232 1449.14 74.8665 1448.48 75.9095C1447.9 77.0074 1447.37 78.0321 1446.88 78.9653H1446.97H1446.7C1446.65 76.0193 1446.53 73.1281 1446.36 70.2733H1436.08C1436.33 72.9086 1436.46 76.0193 1436.46 79.5873V126.816ZM1487.85 70.2733H1480.62V80.246H1487.85V111.226C1487.9 122.461 1492.14 127.951 1500.56 127.695C1502.2 127.695 1503.63 127.475 1504.88 127.054C1506.11 126.688 1507.11 126.304 1507.88 125.865V116.148C1507.05 116.899 1505.65 117.32 1503.69 117.393C1502.11 117.447 1500.91 116.899 1500.11 115.727C1499.21 114.538 1498.76 112.489 1498.76 109.543V80.246H1507.88V70.2733H1498.76V54.4634L1487.85 58.6353V70.2733ZM1514.09 124.95C1515.29 125.572 1517.03 126.158 1519.27 126.725C1521.51 127.292 1524.07 127.622 1526.97 127.695C1532.14 127.622 1536.27 126.121 1539.36 123.193C1542.57 120.302 1544.19 116.24 1544.25 111.025C1544.25 107.804 1543.54 105.133 1542.14 103.028C1540.72 100.887 1538.59 98.801 1535.78 96.7517L1530.07 92.4697C1528.4 91.1523 1527.09 89.9628 1526.15 88.9199C1525.15 87.9318 1524.63 86.6874 1524.63 85.2235C1524.59 81.6551 1526.76 79.8069 1531.16 79.6971C1533.21 79.6971 1535.08 79.9352 1536.75 80.3925C1538.33 80.9782 1539.79 81.6002 1541.13 82.2775L1541.76 71.7005C1541.52 71.5544 1541.08 71.353 1540.44 71.0604C1539.76 70.731 1538.91 70.4747 1537.88 70.2552C1535.8 69.7611 1533.21 69.4681 1530.13 69.395C1525.2 69.4681 1521.31 71.1153 1518.5 74.3358C1515.55 77.5381 1514.09 81.2527 1514.09 85.4249C1514.09 87.6024 1514.4 89.4688 1515.04 91.0058C1515.64 92.6162 1516.37 94.0435 1517.24 95.2878C1518.12 96.4773 1519.15 97.5751 1520.34 98.6181C1521.4 99.5513 1522.52 100.466 1523.69 101.345L1528.48 104.62C1530.63 106.011 1532.06 107.273 1532.76 108.371C1533.37 109.561 1533.68 110.677 1533.68 111.756C1533.68 113.898 1533.02 115.362 1531.66 116.148C1530.28 116.972 1528.51 117.393 1526.36 117.393C1523.69 117.32 1521.32 116.752 1519.24 115.727C1517.13 114.867 1515.58 114.172 1514.61 113.623L1514.09 124.95Z" fill="white"/>
<path d="M683.516 231.278H689.138V210.176H691.717C693.808 210.176 695.369 210.587 696.398 211.385C697.428 212.239 698.246 213.614 698.855 215.532L704.002 231.278H710.1L703.836 212.661C703.393 211.319 702.817 210.287 702.109 209.567C701.334 208.879 700.283 208.391 698.944 208.103V207.981C702.242 207.172 704.566 205.73 705.927 203.657C707.178 201.661 707.798 199.399 707.798 196.859C707.798 193.355 706.691 190.406 704.467 188.022C703.482 187.002 702.264 186.203 700.825 185.615C699.309 185.095 697.372 184.839 695.004 184.839H683.516V231.278ZM689.138 189.552H693.654C696.188 189.552 698.213 190.173 699.729 191.415C701.179 192.679 701.91 194.63 701.91 197.27C701.91 199.354 701.29 201.228 700.051 202.892C698.7 204.566 696.531 205.431 693.521 205.475H689.138V189.552ZM739.473 215.965V212.982C739.396 202.426 735.555 197.059 727.963 196.881C723.901 196.926 720.802 198.489 718.644 201.561C716.43 204.655 715.324 208.912 715.324 214.324C715.324 219.702 716.453 223.915 718.71 226.965C720.902 230.103 724.167 231.699 728.505 231.744C731.914 231.699 734.969 231.056 737.669 229.792L737.415 224.747C736.474 225.423 735.345 226.055 734.028 226.643C732.645 227.253 731.272 227.563 729.911 227.563C723.934 227.597 720.946 223.738 720.946 215.965H739.473ZM720.946 211.796C721.079 207.804 721.787 204.987 723.093 203.368C724.377 201.838 725.893 201.062 727.653 201.062C731.958 201.062 734.116 204.644 734.116 211.796H720.946ZM750.153 214.313C750.12 205.708 752.533 201.372 757.403 201.328C762.294 201.372 764.707 205.708 764.652 214.313C764.707 222.962 762.294 227.297 757.403 227.297C752.533 227.297 750.12 222.962 750.153 214.313ZM770.009 203.523C770.009 201.45 770.108 199.388 770.296 197.347L765.117 197.358L764.928 202.182H764.807C762.848 198.733 760.158 196.97 756.739 196.881C748.903 196.881 744.918 202.692 744.797 214.324C744.963 225.933 748.737 231.744 756.141 231.744C759.749 231.744 762.637 229.859 764.807 226.078H764.928V231.411C764.928 234.383 764.231 236.756 762.848 238.53C761.376 240.36 758.985 241.291 755.687 241.335C754.127 241.291 752.555 241.003 750.95 240.481C749.279 239.894 747.829 239.195 746.634 238.386L746.379 243.986C749.378 245.272 752.577 245.959 755.975 246.048C759.716 246.048 762.98 244.983 765.769 242.843C768.514 240.725 769.931 237.365 770.009 232.764V203.523ZM778.863 231.278H784.22V197.347H778.863V231.278ZM778.575 183.387V190.018H784.485V183.387H778.575ZM791.668 224.736L791.38 229.792C793.804 231.045 796.748 231.699 800.212 231.744C803.964 231.699 806.686 230.657 808.346 228.617C809.94 226.654 810.726 224.192 810.726 221.21C810.649 217.018 808.479 214.135 804.229 212.55L802.315 211.729C798.629 210.443 796.781 208.536 796.781 205.996C796.781 204.599 797.257 203.457 798.198 202.57C799.105 201.749 800.433 201.328 802.193 201.328C804.739 201.383 806.875 201.905 808.612 202.892L808.9 198.079C807.019 197.325 804.705 196.926 801.961 196.881C798.74 196.926 796.206 197.857 794.368 199.687C792.398 201.55 791.424 203.9 791.424 206.75C791.424 208.857 791.911 210.543 792.896 211.829C793.925 213.148 795.574 214.379 797.833 215.51L801.452 217.162C802.957 217.839 804.063 218.593 804.75 219.413C805.336 220.256 805.635 221.287 805.635 222.507C805.635 223.782 805.115 224.891 804.086 225.822C803.067 226.809 801.496 227.297 799.404 227.297C796.704 227.253 794.125 226.399 791.668 224.736ZM832.12 226.41C831.179 226.998 830.05 227.297 828.755 227.297C827.56 227.297 826.697 226.865 826.165 226.022C825.623 225.213 825.347 223.849 825.347 221.93V201.794H832.12V197.347H825.347V188.742L819.99 190.428V197.347H814.799V201.794H819.99V223.693C819.99 226.632 820.643 228.717 821.96 229.947C823.255 231.145 825.114 231.744 827.538 231.744C829.165 231.699 830.703 231.422 832.12 230.912V226.41ZM859.866 215.965V212.982C859.789 202.426 855.948 197.059 848.356 196.881C844.294 196.926 841.195 198.489 839.037 201.561C836.823 204.655 835.716 208.912 835.716 214.324C835.716 219.702 836.846 223.915 839.103 226.965C841.295 230.103 844.559 231.699 848.898 231.744C852.307 231.699 855.362 231.056 858.062 229.792L857.808 224.747C856.867 225.423 855.738 226.055 854.421 226.643C853.037 227.253 851.665 227.563 850.304 227.563C844.327 227.597 841.339 223.738 841.339 215.965H859.866ZM841.339 211.796C841.472 207.804 842.18 204.987 843.486 203.368C844.77 201.838 846.286 201.062 848.046 201.062C852.351 201.062 854.509 204.644 854.509 211.796H841.339ZM866.783 231.278H872.14V213.315C872.273 205.896 874.641 202.193 879.268 202.193C880.009 202.193 880.695 202.259 881.348 202.393V196.881C876.722 196.837 873.612 198.755 872.018 202.636H871.896L871.708 197.347H866.528C866.651 199.731 866.739 202.16 866.783 204.655V231.278ZM908.984 215.965V212.982C908.906 202.426 905.066 197.059 897.473 196.881C893.412 196.926 890.313 198.489 888.154 201.561C885.941 204.655 884.834 208.912 884.834 214.324C884.834 219.702 885.963 223.915 888.221 226.965C890.412 230.103 893.677 231.699 898.016 231.744C901.424 231.699 904.479 231.056 907.179 229.792L906.925 224.747C905.984 225.423 904.855 226.055 903.538 226.643C902.155 227.253 900.783 227.563 899.421 227.563C893.445 227.597 890.457 223.738 890.457 215.965H908.984ZM890.457 211.796C890.589 207.804 891.298 204.987 892.604 203.368C893.888 201.838 895.404 201.062 897.164 201.062C901.469 201.062 903.627 204.644 903.627 211.796H890.457ZM934.162 214.313C934.218 222.962 931.805 227.297 926.913 227.297C922.043 227.297 919.631 222.962 919.664 214.313C919.631 205.708 922.043 201.372 926.913 201.328C931.805 201.372 934.218 205.708 934.162 214.313ZM939.519 181.38H934.162V201.927H934.03C932.015 198.522 929.215 196.837 925.651 196.881C918.247 196.881 914.473 202.692 914.307 214.324C914.473 225.933 918.247 231.744 925.651 231.744C928.02 231.699 929.89 231.1 931.252 229.947C932.602 228.883 933.62 227.663 934.317 226.266H934.439L934.627 231.278H939.807C939.619 229.193 939.519 227.109 939.519 225.035V181.38ZM971.759 184.839L956.707 231.278H962.374L965.96 219.158H983.048L986.656 231.278H992.544L977.901 184.839H971.759ZM967.487 214.124L974.581 190.949H974.703L981.576 214.124H967.487ZM1021.34 197.347H1015.98V217.805C1015.9 223.948 1013.56 227.031 1008.99 227.031C1005.4 227.109 1003.59 224.525 1003.55 219.269V197.347H998.188V220.921C998.354 228.173 1001.55 231.788 1007.79 231.744C1011.61 231.788 1014.38 229.947 1016.11 226.21H1016.23L1016.42 231.278H1021.61C1021.43 228.872 1021.34 226.443 1021.34 223.971V197.347ZM1048.46 214.313C1048.51 222.962 1046.1 227.297 1041.21 227.297C1036.34 227.297 1033.93 222.962 1033.96 214.313C1033.93 205.708 1036.34 201.372 1041.21 201.328C1046.1 201.372 1048.51 205.708 1048.46 214.313ZM1053.81 181.38H1048.46V201.927H1048.32C1046.31 198.522 1043.51 196.837 1039.95 196.881C1032.54 196.881 1028.77 202.692 1028.6 214.324C1028.77 225.933 1032.54 231.744 1039.95 231.744C1042.31 231.699 1044.19 231.1 1045.55 229.947C1046.9 228.883 1047.92 227.663 1048.61 226.266H1048.73L1048.92 231.278H1054.1C1053.91 229.193 1053.81 227.109 1053.81 225.035V181.38ZM1062.67 231.278H1068.02V197.347H1062.67V231.278ZM1062.38 183.387V190.018H1068.29V183.387H1062.38ZM1091.34 226.41C1090.4 226.998 1089.27 227.297 1087.98 227.297C1086.78 227.297 1085.92 226.865 1085.39 226.022C1084.85 225.213 1084.57 223.849 1084.57 221.93V201.794H1091.34V197.347H1084.57V188.742L1079.21 190.428V197.347H1074.02V201.794H1079.21V223.693C1079.21 226.632 1079.87 228.717 1081.18 229.947C1082.48 231.145 1084.34 231.744 1086.76 231.744C1088.39 231.699 1089.93 231.422 1091.34 230.912V226.41ZM1100.56 214.313C1100.53 205.708 1103.04 201.372 1108.12 201.328C1113.19 201.372 1115.7 205.708 1115.66 214.313C1115.7 222.962 1113.19 227.297 1108.12 227.297C1103.04 227.297 1100.53 222.962 1100.56 214.313ZM1094.94 214.313C1094.94 219.691 1096.07 223.904 1098.33 226.965C1100.53 230.103 1103.8 231.699 1108.12 231.744C1112.48 231.699 1115.78 230.103 1118.02 226.965C1120.2 223.915 1121.28 219.702 1121.28 214.324C1121.28 208.912 1120.2 204.655 1118.02 201.561C1115.78 198.489 1112.48 196.926 1108.12 196.881C1103.8 196.926 1100.53 198.478 1098.33 201.55C1096.07 204.655 1094.94 208.901 1094.94 214.313ZM1128.54 231.278H1133.9V213.315C1134.03 205.896 1136.4 202.193 1141.03 202.193C1141.77 202.193 1142.45 202.259 1143.11 202.393V196.881C1138.48 196.837 1135.37 198.755 1133.78 202.636H1133.66L1133.47 197.347H1128.29C1128.41 199.731 1128.5 202.16 1128.54 204.655V231.278ZM1146.77 224.736L1146.48 229.792C1148.91 231.045 1151.85 231.699 1155.31 231.744C1159.07 231.699 1161.79 230.657 1163.45 228.617C1165.04 226.654 1165.83 224.192 1165.83 221.21C1165.75 217.018 1163.58 214.135 1159.33 212.55L1157.42 211.729C1153.73 210.443 1151.88 208.536 1151.88 205.996C1151.88 204.599 1152.36 203.457 1153.3 202.57C1154.21 201.749 1155.54 201.328 1157.3 201.328C1159.84 201.383 1161.98 201.905 1163.71 202.892L1164 198.079C1162.12 197.325 1159.81 196.926 1157.06 196.881C1153.84 196.926 1151.31 197.857 1149.47 199.687C1147.5 201.55 1146.53 203.9 1146.53 206.75C1146.53 208.857 1147.01 210.543 1148 211.829C1149.03 213.148 1150.68 214.379 1152.94 215.51L1156.55 217.162C1158.06 217.839 1159.17 218.593 1159.85 219.413C1160.44 220.256 1160.74 221.287 1160.74 222.507C1160.74 223.782 1160.22 224.891 1159.19 225.822C1158.17 226.809 1156.6 227.297 1154.51 227.297C1151.81 227.253 1149.23 226.399 1146.77 224.736ZM1199.98 208.658L1209.93 222.552C1209.19 223.705 1208.12 224.714 1206.68 225.556C1205.27 226.532 1203.79 227.031 1202.24 227.031C1199.7 226.987 1197.7 226.133 1196.25 224.481C1194.74 222.873 1193.97 220.866 1193.97 218.482C1193.97 216.331 1194.58 214.412 1195.78 212.738C1196.85 211.13 1198.26 209.766 1199.98 208.658ZM1223.15 231.278L1216.22 222.086C1219.17 216.996 1220.85 211.363 1221.22 205.198H1215.84C1215.67 209.933 1214.75 214.168 1213.09 217.894L1204.63 206.007C1207.64 204.189 1209.83 202.237 1211.21 200.164C1212.47 198.145 1213.1 196.094 1213.1 194.021C1213.07 191.182 1212.17 188.876 1210.42 187.101C1208.63 185.327 1206.19 184.418 1203.09 184.374C1200.02 184.418 1197.56 185.283 1195.73 186.968C1193.77 188.709 1192.8 191.115 1192.8 194.22C1192.84 196.128 1193.37 197.99 1194.38 199.809C1195.4 201.628 1196.44 203.291 1197.49 204.81C1191.39 207.903 1188.35 212.605 1188.35 218.914C1188.35 222.463 1189.49 225.457 1191.77 227.907C1194 230.424 1197.28 231.699 1201.64 231.744C1203.99 231.744 1206.16 231.278 1208.15 230.347C1210.14 229.404 1211.73 228.007 1212.91 226.144L1216.46 231.278H1223.15ZM1208.01 193.877C1208.01 195.429 1207.58 196.848 1206.72 198.123C1205.78 199.432 1204.21 200.807 1202 202.248C1201.07 201.062 1200.17 199.665 1199.32 198.068C1198.38 196.46 1197.91 195.041 1197.91 193.81C1197.91 192.247 1198.42 191.016 1199.44 190.129C1200.42 189.264 1201.65 188.82 1203.16 188.82C1204.83 188.864 1206.06 189.375 1206.85 190.35C1207.62 191.337 1208.01 192.502 1208.01 193.877ZM1249 231.278H1254.62V189.885H1264.91V184.839H1238.71V189.885H1249V231.278ZM1267.82 204.932C1269.89 202.581 1272.71 201.372 1276.27 201.328C1277.42 201.328 1278.5 201.494 1279.48 201.805C1280.47 202.126 1281.22 202.703 1281.75 203.546C1282.25 204.255 1282.59 205.032 1282.76 205.874C1282.9 206.728 1282.98 207.759 1282.98 209.001V210.532H1279.8C1274.27 210.565 1270.31 211.629 1267.89 213.714C1265.51 215.854 1264.34 218.604 1264.39 221.964C1264.39 225.213 1265.3 227.641 1267.14 229.238C1268.86 230.912 1271.09 231.744 1273.84 231.744C1276.33 231.699 1278.32 231.167 1279.8 230.147C1281.26 229.171 1282.35 228.029 1283.03 226.698H1283.16L1283.48 231.278H1288.34C1288.16 229.958 1288.07 228.229 1288.07 226.078V208.413C1288.07 206.052 1287.8 204.233 1287.26 202.958C1286.65 201.705 1285.99 200.752 1285.26 200.097C1284.76 199.465 1283.79 198.8 1282.37 198.079C1281.67 197.735 1280.84 197.447 1279.86 197.203C1278.83 196.992 1277.71 196.881 1276.53 196.881C1273.17 196.926 1270.07 197.835 1267.25 199.62L1267.82 204.932ZM1282.98 218.926C1282.98 221.354 1282.3 223.35 1280.95 224.946C1279.59 226.643 1277.7 227.519 1275.29 227.563C1271.59 227.474 1269.74 225.49 1269.74 221.609C1269.74 219.557 1270.55 217.861 1272.14 216.508C1273.67 215.222 1276.02 214.556 1279.16 214.523C1280.7 214.523 1281.97 214.557 1282.98 214.645V218.926ZM1293.33 231.278H1299.26L1306.15 217.24L1313.41 231.278H1319.6L1309.35 213.237L1318.76 197.347H1312.85L1306.53 209.567L1300.24 197.347H1294.3L1303.34 213.049L1293.33 231.278ZM1348.91 184.839L1333.86 231.278H1339.52L1343.11 219.158H1360.2L1363.81 231.278H1369.69L1355.05 184.839H1348.91ZM1344.64 214.124L1351.73 190.949H1351.85L1358.73 214.124H1344.64ZM1393.6 214.313C1393.66 222.962 1391.24 227.297 1386.35 227.297C1381.48 227.297 1379.07 222.962 1379.1 214.313C1379.07 205.708 1381.48 201.372 1386.35 201.328C1391.24 201.372 1393.66 205.708 1393.6 214.313ZM1398.96 181.38H1393.6V201.927H1393.47C1391.45 198.522 1388.65 196.837 1385.09 196.881C1377.68 196.881 1373.91 202.692 1373.74 214.324C1373.91 225.933 1377.68 231.744 1385.09 231.744C1387.46 231.699 1389.33 231.1 1390.69 229.947C1392.04 228.883 1393.06 227.663 1393.75 226.266H1393.88L1394.06 231.278H1399.24C1399.06 229.193 1398.96 227.109 1398.96 225.035V181.38ZM1413.89 231.278H1420.33L1430.17 197.347H1424.51L1417.15 225.701H1417.03L1409.82 197.347H1403.89L1413.89 231.278ZM1436.09 231.278H1441.44V197.347H1436.09V231.278ZM1435.8 183.387V190.018H1441.71V183.387H1435.8ZM1448.89 224.736L1448.61 229.792C1451.03 231.045 1453.97 231.699 1457.44 231.744C1461.19 231.699 1463.91 230.657 1465.57 228.617C1467.17 226.654 1467.95 224.192 1467.95 221.21C1467.87 217.018 1465.7 214.135 1461.45 212.55L1459.54 211.729C1455.85 210.443 1454.01 208.536 1454.01 205.996C1454.01 204.599 1454.48 203.457 1455.42 202.57C1456.33 201.749 1457.66 201.328 1459.42 201.328C1461.96 201.383 1464.1 201.905 1465.84 202.892L1466.13 198.079C1464.24 197.325 1461.93 196.926 1459.19 196.881C1455.97 196.926 1453.43 197.857 1451.59 199.687C1449.62 201.55 1448.65 203.9 1448.65 206.75C1448.65 208.857 1449.14 210.543 1450.12 211.829C1451.15 213.148 1452.8 214.379 1455.06 215.51L1458.68 217.162C1460.18 217.839 1461.29 218.593 1461.98 219.413C1462.56 220.256 1462.86 221.287 1462.86 222.507C1462.86 223.782 1462.34 224.891 1461.31 225.822C1460.29 226.809 1458.72 227.297 1456.63 227.297C1453.93 227.253 1451.35 226.399 1448.89 224.736ZM1478.92 214.313C1478.89 205.708 1481.4 201.372 1486.48 201.328C1491.55 201.372 1494.06 205.708 1494.02 214.313C1494.06 222.962 1491.55 227.297 1486.48 227.297C1481.4 227.297 1478.89 222.962 1478.92 214.313ZM1473.3 214.313C1473.3 219.691 1474.43 223.904 1476.68 226.965C1478.89 230.103 1482.15 231.699 1486.48 231.744C1490.84 231.699 1494.14 230.103 1496.37 226.965C1498.55 223.915 1499.64 219.702 1499.64 214.324C1499.64 208.912 1498.55 204.655 1496.37 201.561C1494.14 198.489 1490.84 196.926 1486.48 196.881C1482.15 196.926 1478.89 198.478 1476.68 201.55C1474.43 204.655 1473.3 208.901 1473.3 214.313ZM1506.9 231.278H1512.26V213.315C1512.39 205.896 1514.76 202.193 1519.38 202.193C1520.12 202.193 1520.81 202.259 1521.46 202.393V196.881C1516.84 196.837 1513.73 198.755 1512.13 202.636H1512.01L1511.82 197.347H1506.64C1506.77 199.731 1506.85 202.16 1506.9 204.655V231.278ZM1525.13 224.736L1524.84 229.792C1527.26 231.045 1530.21 231.699 1533.67 231.744C1537.42 231.699 1540.15 230.657 1541.81 228.617C1543.4 226.654 1544.19 224.192 1544.19 221.21C1544.11 217.018 1541.94 214.135 1537.69 212.55L1535.77 211.729C1532.09 210.443 1530.24 208.536 1530.24 205.996C1530.24 204.599 1530.72 203.457 1531.66 202.57C1532.56 201.749 1533.89 201.328 1535.65 201.328C1538.2 201.383 1540.33 201.905 1542.07 202.892L1542.36 198.079C1540.48 197.325 1538.16 196.926 1535.42 196.881C1532.2 196.926 1529.66 197.857 1527.83 199.687C1525.86 201.55 1524.88 203.9 1524.88 206.75C1524.88 208.857 1525.37 210.543 1526.36 211.829C1527.38 213.148 1529.03 214.379 1531.29 215.51L1534.91 217.162C1536.42 217.839 1537.52 218.593 1538.21 219.413C1538.79 220.256 1539.09 221.287 1539.09 222.507C1539.09 223.782 1538.57 224.891 1537.54 225.822C1536.53 226.809 1534.95 227.297 1532.86 227.297C1530.16 227.253 1527.58 226.399 1525.13 224.736Z" fill="white"/>
<path d="M600.87 19.3457C603.041 19.3457 605.16 19.903 607.232 21.0232C609.299 22.1373 610.914 23.7383 612.067 25.8144C613.22 27.8961 613.8 30.0661 613.8 32.3178C613.8 34.5522 613.232 36.7047 612.091 38.763C610.955 40.8274 609.363 42.4283 607.308 43.5659C605.254 44.7096 603.106 45.2786 600.87 45.2786C598.628 45.2786 596.479 44.7096 594.425 43.5659C592.371 42.4283 590.773 40.8274 589.631 38.763C588.49 36.7047 587.916 34.5522 587.916 32.3178C587.916 30.0661 588.496 27.8961 589.655 25.8144C590.819 23.7383 592.435 22.1373 594.501 21.0232C596.573 19.903 598.692 19.3457 600.87 19.3457ZM600.87 21.4922C599.049 21.4922 597.276 21.9613 595.555 22.8937C593.834 23.8261 592.487 25.1632 591.516 26.8993C590.544 28.6351 590.058 30.4413 590.058 32.3178C590.058 34.1887 590.538 35.9775 591.492 37.6898C592.447 39.4024 593.781 40.7392 595.496 41.6954C597.211 42.6513 599.002 43.1321 600.87 43.1321C602.731 43.1321 604.522 42.6513 606.237 41.6954C607.952 40.7392 609.287 39.4024 610.235 37.6898C611.183 35.9775 611.657 34.1887 611.657 32.3178C611.657 30.4413 611.172 28.6351 610.206 26.8993C609.24 25.1632 607.894 23.8261 606.167 22.8937C604.44 21.9613 602.672 21.4922 600.87 21.4922ZM595.186 39.4725V25.5388H599.974C601.613 25.5388 602.795 25.6678 603.527 25.9257C604.264 26.1838 604.844 26.6294 605.283 27.2745C605.716 27.9139 605.933 28.5942 605.933 29.3154C605.933 30.33 605.57 31.2215 604.838 31.9718C604.112 32.7286 603.147 33.1507 601.941 33.2446C602.433 33.4498 602.83 33.6962 603.123 33.9835C603.685 34.5291 604.37 35.4498 605.183 36.7456L606.881 39.4725H604.153L602.912 37.2794C601.941 35.5493 601.15 34.4643 600.553 34.0305C600.144 33.7136 599.547 33.5554 598.756 33.5611H597.433V39.4725H595.186ZM597.433 31.6258H600.161C601.467 31.6258 602.356 31.4324 602.83 31.0455C603.305 30.6582 603.545 30.1422 603.545 29.5088C603.545 29.0985 603.427 28.729 603.199 28.4064C602.971 28.0778 602.655 27.8374 602.251 27.6792C601.841 27.521 601.092 27.4388 599.992 27.4388H597.433V31.6258Z" fill="white"/>
</g>
</g>
</g>
<defs>
<clipPath id="clip0_24_79">
<rect width="1587" height="265" fill="white"/>
</clipPath>
</defs>
</svg>
