<svg width="457" height="173" viewBox="0 0 457 173" fill="none" xmlns="http://www.w3.org/2000/svg">
<path d="M136.109 15.1251L15.4333 14.0714C10.9193 14.032 7.22808 17.6613 7.18868 22.1778L6.07131 150.287C6.03192 154.803 9.65928 158.497 14.1733 158.536L134.849 159.59C139.363 159.629 143.055 156 143.094 151.483L144.211 23.3743C144.251 18.8578 140.623 15.1645 136.109 15.1251Z" fill="#004B9B"/>
<path d="M161.405 22.2737L160.287 150.413C160.248 154.929 163.875 158.623 168.389 158.662L289.071 159.716C293.585 159.755 297.276 156.126 297.316 151.609L298.433 23.4702C298.473 18.9537 294.845 15.2605 290.331 15.221L169.649 14.1673C165.135 14.1279 161.444 17.7572 161.405 22.2737Z" fill="#DCDCDC"/>
<mask id="mask0_122_1376" style="mask-type:luminance" maskUnits="userSpaceOnUse" x="160" y="14" width="139" height="146">
<path d="M161.405 22.2737L160.287 150.413C160.248 154.929 163.875 158.623 168.389 158.662L289.071 159.716C293.585 159.755 297.276 156.126 297.316 151.609L298.433 23.4702C298.473 18.9537 294.845 15.2605 290.331 15.221L169.649 14.1673C165.135 14.1279 161.444 17.7572 161.405 22.2737Z" fill="white"/>
</mask>
<g mask="url(#mask0_122_1376)">
<path fill-rule="evenodd" clip-rule="evenodd" d="M181.493 65.7642H213.106L206.314 107.677H174.642L181.493 65.7642Z" fill="#004B9B"/>
<path fill-rule="evenodd" clip-rule="evenodd" d="M216.772 65.7642H248.384L241.533 107.677H209.92L216.772 65.7642Z" fill="#004B9B"/>
<path fill-rule="evenodd" clip-rule="evenodd" d="M252.05 65.7642H283.663L276.812 107.677H245.199L252.05 65.7642Z" fill="#004B9B"/>
<path fill-rule="evenodd" clip-rule="evenodd" d="M182.755 102.806H180.351L185.64 70.4544H188.044L182.755 102.806ZM196.638 86.029H189.366L189.727 83.8041H196.157C197.595 83.8739 199.025 83.5628 200.304 82.9021C201.326 82.3007 201.987 81.2183 202.227 79.6548C202.468 78.0914 202.227 77.1292 201.446 76.5279C200.665 75.9266 199.523 75.5658 197.9 75.5658H191.169L191.53 73.401H198.201C200.424 73.401 202.047 73.882 203.189 74.9644C204.331 76.0468 204.752 77.6103 204.391 79.7751C204.219 80.9119 203.765 81.9872 203.069 82.9021C202.354 83.8607 201.429 84.6425 200.364 85.1871C199.212 85.7743 197.931 86.0637 196.638 86.029ZM203.429 86.3898C204.506 85.542 205.439 84.5269 206.194 83.3831C206.875 82.1961 207.324 80.8899 207.516 79.5346C207.817 77.6103 207.697 75.9867 206.975 74.6037C206.344 73.2185 205.235 72.108 203.85 71.4767C202.221 70.7689 200.458 70.4202 198.682 70.4544H188.765L183.476 102.746H185.88L190.748 72.6192H198.141C199.581 72.6001 201.01 72.8658 202.348 73.401C203.426 73.8269 204.305 74.6424 204.812 75.6861C205.365 76.932 205.512 78.3205 205.232 79.6548C205.069 80.7268 204.68 81.7518 204.091 82.6615C203.571 83.5887 202.852 84.3896 201.987 85.0067C201.15 85.6205 200.215 86.0881 199.222 86.3898C200.092 86.5889 200.897 87.0023 201.566 87.5924C202.21 88.1744 202.634 88.9599 202.768 89.8174C202.932 91.1989 202.891 92.5969 202.648 93.9666L201.927 98.1158C201.786 99.0106 201.726 99.9162 201.747 100.822C201.77 101.561 201.912 102.292 202.167 102.987H204.451C204.275 102.521 204.154 102.037 204.091 101.543V99.559C204.226 99.1267 204.326 98.6843 204.391 98.2361L205.353 92.5234C205.521 91.6522 205.581 90.7635 205.533 89.8775C205.489 89.2348 205.282 88.6139 204.932 88.0735C204.536 87.4265 204.027 86.8562 203.429 86.3898ZM201.807 94.4477L201.025 98.9577C200.781 100.254 200.822 101.588 201.146 102.866H198.802C198.507 101.521 198.486 100.13 198.742 98.7772L199.523 93.9064C199.823 92.2828 199.643 91.0802 199.102 90.2383C198.561 89.3965 197.48 89.0357 195.857 89.0357H188.885L189.246 86.7506H195.797C197.228 86.6784 198.654 86.968 199.944 87.5924C200.405 87.8551 200.809 88.2092 201.129 88.6331C201.449 89.057 201.68 89.5418 201.807 90.0579C202.05 91.511 202.05 92.9945 201.807 94.4477Z" fill="white"/>
<path fill-rule="evenodd" clip-rule="evenodd" d="M218.995 91.1405C218.454 94.4478 218.815 96.9734 220.197 98.6571C221.58 100.341 223.923 101.183 227.229 101.183C229.885 101.164 232.454 100.23 234.501 98.5369C236.516 96.7999 237.822 94.3808 238.167 91.7418L241.653 70.4546H243.997L240.691 90.8999C240.377 92.7256 239.832 94.5038 239.069 96.1917C238.331 97.6459 237.356 98.9669 236.184 100.1C235.01 101.171 233.644 102.007 232.157 102.566C230.473 103.136 228.706 103.421 226.928 103.408C222.902 103.408 220.017 102.446 218.274 100.401C216.531 98.3565 215.93 95.4099 216.591 91.4411L220.017 70.4546H222.361L218.995 91.1405ZM222.12 91.1405L225.486 70.5147H223.082L219.777 91.0202C219.403 92.6915 219.465 94.431 219.957 96.0714C220.361 97.4151 221.236 98.568 222.421 99.3186C223.862 100.144 225.51 100.541 227.169 100.461C230.094 100.421 232.438 99.5792 234.201 97.9355C235.943 96.3119 237.085 93.9066 237.566 90.7797L240.872 70.5147H238.528L235.162 91.1405C234.925 93.0744 234.083 94.8841 232.758 96.3119C232.11 96.9753 231.333 97.499 230.475 97.8506C229.618 98.2022 228.697 98.3744 227.77 98.3565C225.546 98.3565 223.984 97.7551 223.022 96.4322C222.06 95.1093 221.76 93.3654 222.12 91.1405Z" fill="white"/>
<path fill-rule="evenodd" clip-rule="evenodd" d="M272.244 81.6993C272.408 81.1485 272.529 80.5855 272.605 80.0156C273.145 76.5279 271.403 74.784 267.316 74.784C266.303 74.7815 265.294 74.9026 264.311 75.1448C263.389 75.3808 262.528 75.8114 261.787 76.4076C261.072 76.9915 260.618 77.8348 260.524 78.7528C260.42 79.1447 260.409 79.5558 260.492 79.9527C260.576 80.3497 260.752 80.7214 261.005 81.0378C261.503 81.5614 262.122 81.9538 262.808 82.1804C263.469 82.4209 264.551 82.6615 266.054 83.0223C268.518 83.6236 270.381 84.1648 271.643 84.5857C272.929 85.068 274.068 85.8761 274.948 86.9309C276.001 88.1902 276.538 89.8016 276.451 91.4409C276.446 92.1461 276.385 92.8498 276.271 93.5456C275.98 95.5067 275.171 97.3543 273.927 98.8975C272.675 100.428 271.064 101.626 269.239 102.385C267.288 103.164 265.209 103.572 263.109 103.588C261.035 103.617 258.975 103.25 257.039 102.505C255.265 101.808 253.81 100.48 252.952 98.7772C251.99 97.0333 251.75 94.7483 252.171 91.9821C252.257 91.8117 252.318 91.6293 252.351 91.4409H254.815C254.394 93.9665 254.635 95.9509 255.416 97.3941C256.148 98.7847 257.368 99.8555 258.842 100.401C260.302 100.951 261.849 101.236 263.409 101.243C265.044 101.242 266.667 100.978 268.217 100.461C269.781 99.9484 271.163 98.9946 272.197 97.7143C273.231 96.4341 273.874 94.882 274.047 93.2449C274.225 92.0111 274.102 90.7522 273.686 89.5768C273.375 88.6758 272.785 87.8969 272.004 87.3518C271.175 86.8439 270.287 86.4399 269.359 86.1492L265.032 85.0668C263.645 84.8048 262.28 84.4431 260.945 83.9844C260.027 83.6432 259.218 83.0617 258.601 82.3007C257.94 81.5189 257.76 80.4365 257.94 79.0535C258.661 74.8441 261.787 72.7395 267.436 72.7395C270.08 72.7395 272.064 73.3408 273.446 74.5435C274.828 75.7461 275.249 77.7305 274.768 80.4365C274.714 80.862 274.634 81.2838 274.528 81.6993H272.244ZM275.249 81.6993H277.833C278.314 78.5724 278.194 76.1671 277.352 74.3631C277.016 73.5528 276.516 72.82 275.886 72.2099C275.256 71.5998 274.507 71.1251 273.686 70.8152C271.863 70.1301 269.924 69.8034 267.977 69.8531C265.978 69.8398 263.99 70.1442 262.087 70.7551C260.3 71.3549 258.69 72.3878 257.399 73.7617C256.075 75.2446 255.218 77.0854 254.935 79.0535C254.679 80.4395 254.782 81.8681 255.236 83.2027C255.593 84.2275 256.266 85.112 257.159 85.7283C257.979 86.2517 258.87 86.6566 259.803 86.9309C261.245 87.3703 262.71 87.7317 264.191 88.0133L266.895 88.6748C267.729 88.8508 268.537 89.1338 269.299 89.5167C269.881 89.8176 270.347 90.3043 270.621 90.8997C270.943 91.659 271.087 92.4817 271.042 93.3051C270.501 96.6725 268.217 98.3562 264.191 98.4765L263.469 98.3563C259.142 97.9955 257.279 95.7104 258 91.4409H255.656C255.58 91.7583 255.52 92.0794 255.476 92.4031C254.995 95.3496 255.596 97.3941 257.339 98.5968C259.186 99.8362 261.366 100.486 263.59 100.461C265.108 100.481 266.616 100.216 268.037 99.6792C269.387 99.1927 270.588 98.3639 271.523 97.2738C272.509 96.1319 273.154 94.736 273.386 93.2449C273.645 91.9265 273.416 90.5587 272.742 89.3968C272.067 88.2349 270.993 87.3584 269.72 86.9309C268.089 86.377 266.422 85.935 264.731 85.608C263.236 85.3375 261.768 84.9351 260.344 84.4053C259.332 84.0251 258.468 83.3294 257.88 82.4209C257.302 81.3554 257.131 80.1156 257.399 78.9332C257.584 77.458 258.213 76.074 259.202 74.9644C260.125 73.9165 261.306 73.1287 262.628 72.6793C264.06 72.1917 265.563 71.9477 267.075 71.9577H267.616C273.827 72.1181 276.471 74.8842 275.549 80.2561C275.489 80.5568 275.429 81.0379 275.249 81.6993Z" fill="white"/>
</g>
<path d="M443.63 15.3448L322.953 14.2911C318.439 14.2517 314.748 17.8811 314.709 22.3976L313.591 150.507C313.552 155.023 317.179 158.717 321.693 158.756L442.37 159.81C446.883 159.849 450.575 156.22 450.614 151.703L451.731 23.594C451.771 19.0775 448.144 15.3842 443.63 15.3448Z" fill="#004B9B"/>
<path d="M34.0676 28.3613H22.889C21.4617 28.3613 20.3047 29.519 20.3047 30.9471V42.1379C20.3047 43.5659 21.4617 44.7236 22.889 44.7236H34.0676C35.4949 44.7236 36.6519 43.5659 36.6519 42.1379V30.9471C36.6519 29.519 35.4949 28.3613 34.0676 28.3613Z" fill="#005BBD" stroke="#5185BD" stroke-miterlimit="10"/>
<path d="M29.0794 32.1499H27.5769V40.4243H29.0794V32.1499Z" fill="#FAF381"/>
<path d="M26.2547 36.2988H24.7522V40.436H26.2547V36.2988Z" fill="#FAF381"/>
<path d="M32.0242 34.1943H30.5217V40.382H32.0242V34.1943Z" fill="#FAF381"/>
<path d="M99.8843 41.8193H97.6063V34.4375H99.9852C100.701 34.4375 101.314 34.5853 101.823 34.8809C102.333 35.174 102.723 35.5957 102.995 36.146C103.266 36.6939 103.402 37.3499 103.402 38.114C103.402 38.8829 103.265 39.545 102.991 40.1C102.717 40.6527 102.318 41.078 101.795 41.376C101.271 41.6716 100.634 41.8193 99.8843 41.8193ZM98.5002 41.0264H99.8266C100.437 41.0264 100.943 40.9086 101.344 40.6731C101.745 40.4376 102.045 40.1024 102.242 39.6675C102.439 39.2326 102.537 38.7147 102.537 38.114C102.537 37.5181 102.44 37.0051 102.245 36.5749C102.051 36.1424 101.76 35.8108 101.373 35.5801C100.986 35.347 100.504 35.2305 99.9275 35.2305H98.5002V41.0264ZM107.108 41.9347C106.574 41.9347 106.114 41.8169 105.727 41.5814C105.343 41.3436 105.046 41.0119 104.837 40.5866C104.63 40.1589 104.527 39.6615 104.527 39.0944C104.527 38.5273 104.63 38.0275 104.837 37.595C105.046 37.16 105.337 36.8212 105.709 36.5785C106.084 36.3334 106.521 36.2109 107.021 36.2109C107.309 36.2109 107.594 36.2589 107.875 36.3551C108.156 36.4512 108.412 36.6074 108.643 36.8236C108.874 37.0375 109.057 37.321 109.194 37.6743C109.331 38.0275 109.4 38.4624 109.4 38.9791V39.3395H105.132V38.6042H108.535C108.535 38.2918 108.472 38.0131 108.347 37.768C108.225 37.5229 108.049 37.3295 107.821 37.1877C107.595 37.0459 107.329 36.975 107.021 36.975C106.682 36.975 106.389 37.0591 106.142 37.2273C105.896 37.3931 105.708 37.6094 105.576 37.8761C105.443 38.1428 105.377 38.4288 105.377 38.734V39.2242C105.377 39.6423 105.449 39.9967 105.594 40.2875C105.74 40.5758 105.943 40.7957 106.203 40.9471C106.462 41.0961 106.764 41.1705 107.108 41.1705C107.331 41.1705 107.533 41.1393 107.713 41.0768C107.896 41.0119 108.053 40.9158 108.185 40.7885C108.317 40.6587 108.42 40.4977 108.492 40.3055L109.313 40.5362C109.227 40.8149 109.082 41.06 108.877 41.2715C108.673 41.4805 108.421 41.6439 108.12 41.7617C107.82 41.877 107.482 41.9347 107.108 41.9347ZM113.102 36.283V37.0039H110.233V36.283H113.102ZM111.069 34.9566H111.919V40.2334C111.919 40.4737 111.954 40.6539 112.024 40.7741C112.096 40.8918 112.187 40.9711 112.298 41.0119C112.411 41.0504 112.53 41.0696 112.655 41.0696C112.748 41.0696 112.825 41.0648 112.885 41.0552C112.945 41.0432 112.993 41.0336 113.03 41.0264L113.203 41.7905C113.145 41.8121 113.064 41.8338 112.961 41.8554C112.858 41.8794 112.727 41.8914 112.568 41.8914C112.328 41.8914 112.092 41.8398 111.862 41.7364C111.633 41.6331 111.444 41.4757 111.292 41.2643C111.143 41.0528 111.069 40.7861 111.069 40.4641V34.9566ZM116.01 41.9491C115.66 41.9491 115.341 41.883 115.055 41.7509C114.769 41.6163 114.542 41.4229 114.374 41.1705C114.206 40.9158 114.122 40.6083 114.122 40.2478C114.122 39.9306 114.184 39.6735 114.309 39.4765C114.434 39.277 114.601 39.1208 114.81 39.0079C115.019 38.895 115.25 38.8109 115.502 38.7556C115.757 38.6979 116.013 38.6523 116.27 38.6186C116.606 38.5754 116.879 38.5429 117.088 38.5213C117.3 38.4973 117.453 38.4576 117.549 38.4024C117.648 38.3471 117.697 38.251 117.697 38.114V38.0852C117.697 37.7295 117.6 37.4532 117.405 37.2562C117.213 37.0591 116.921 36.9606 116.529 36.9606C116.123 36.9606 115.805 37.0495 115.574 37.2273C115.344 37.4051 115.181 37.595 115.088 37.7968L114.28 37.5085C114.424 37.1721 114.617 36.9101 114.857 36.7227C115.1 36.5329 115.364 36.4007 115.65 36.3262C115.938 36.2493 116.222 36.2109 116.501 36.2109C116.678 36.2109 116.883 36.2325 117.113 36.2758C117.346 36.3166 117.571 36.4019 117.787 36.5317C118.006 36.6614 118.187 36.8573 118.332 37.1192C118.476 37.3811 118.548 37.7319 118.548 38.1717V41.8193H117.697V41.0696H117.654C117.596 41.1898 117.5 41.3183 117.366 41.4553C117.231 41.5923 117.052 41.7088 116.829 41.8049C116.605 41.901 116.332 41.9491 116.01 41.9491ZM116.14 41.185C116.477 41.185 116.76 41.1189 116.991 40.9867C117.224 40.8546 117.399 40.6839 117.517 40.4749C117.637 40.2658 117.697 40.046 117.697 39.8153V39.0367C117.661 39.08 117.582 39.1196 117.459 39.1557C117.339 39.1893 117.2 39.2194 117.041 39.2458C116.885 39.2698 116.732 39.2914 116.583 39.3107C116.437 39.3275 116.318 39.3419 116.227 39.3539C116.006 39.3828 115.799 39.4296 115.607 39.4945C115.417 39.557 115.263 39.6519 115.145 39.7792C115.03 39.9042 114.972 40.0748 114.972 40.2911C114.972 40.5866 115.082 40.8101 115.3 40.9615C115.521 41.1105 115.801 41.185 116.14 41.185ZM120.1 41.8193V36.283H120.951V41.8193H120.1ZM120.533 35.3602C120.367 35.3602 120.224 35.3038 120.104 35.1908C119.986 35.0779 119.927 34.9421 119.927 34.7835C119.927 34.6249 119.986 34.4892 120.104 34.3762C120.224 34.2633 120.367 34.2068 120.533 34.2068C120.699 34.2068 120.841 34.2633 120.958 34.3762C121.078 34.4892 121.139 34.6249 121.139 34.7835C121.139 34.9421 121.078 35.0779 120.958 35.1908C120.841 35.3038 120.699 35.3602 120.533 35.3602ZM123.36 34.4375V41.8193H122.509V34.4375H123.36ZM128.839 37.5229L128.075 37.7392C128.027 37.6118 127.956 37.488 127.863 37.3679C127.771 37.2453 127.646 37.1444 127.488 37.0651C127.329 36.9858 127.126 36.9462 126.879 36.9462C126.54 36.9462 126.257 37.0243 126.032 37.1805C125.808 37.3343 125.696 37.5301 125.696 37.768C125.696 37.9794 125.773 38.1464 125.927 38.269C126.081 38.3915 126.321 38.4937 126.648 38.5754L127.47 38.7772C127.965 38.8974 128.334 39.0812 128.576 39.3287C128.819 39.5738 128.94 39.8898 128.94 40.2767C128.94 40.5938 128.849 40.8774 128.666 41.1273C128.486 41.3772 128.234 41.5742 127.909 41.7184C127.585 41.8626 127.208 41.9347 126.778 41.9347C126.213 41.9347 125.746 41.8121 125.376 41.567C125.005 41.3219 124.771 40.9639 124.673 40.4929L125.48 40.2911C125.557 40.589 125.702 40.8125 125.916 40.9615C126.132 41.1105 126.415 41.185 126.763 41.185C127.16 41.185 127.474 41.1009 127.708 40.9327C127.943 40.762 128.061 40.5578 128.061 40.3199C128.061 40.1277 127.994 39.9667 127.859 39.8369C127.724 39.7048 127.518 39.6062 127.239 39.5414L126.316 39.3251C125.809 39.2049 125.437 39.0187 125.199 38.7664C124.963 38.5117 124.846 38.1933 124.846 37.8112C124.846 37.4989 124.933 37.2225 125.109 36.9822C125.287 36.7419 125.528 36.5533 125.833 36.4163C126.141 36.2794 126.489 36.2109 126.879 36.2109C127.426 36.2109 127.857 36.331 128.169 36.5713C128.484 36.8116 128.707 37.1288 128.839 37.5229Z" fill="#FCE9DB"/>
<path d="M21.627 117.539L20.5452 117.118C24.031 108.519 28.1779 106.715 30.2814 106.415C31.3281 106.28 32.3917 106.426 33.3634 106.838C34.335 107.25 35.1796 107.913 35.8106 108.76C37.6136 111.165 43.864 115.735 49.9942 115.555C53.5401 115.435 56.485 113.631 58.7688 110.323C66.2212 99.1985 71.5701 97.5749 79.3831 98.4168C83.0492 98.7776 86.535 102.566 90.2011 106.535C93.8672 110.504 98.4348 115.555 102.762 115.134C109.553 114.533 112.138 106.715 114.902 98.4168L116.525 93.6061C120.131 83.7443 126.201 83.624 126.441 83.624V84.8267C126.201 84.8267 120.912 84.9469 117.607 93.9669L115.984 98.7776C113.279 107.076 110.455 115.615 102.882 116.276C98.0141 116.757 93.5667 111.947 89.2996 107.317C85.0325 102.686 82.5083 99.9202 79.2629 99.5594C71.7504 98.7175 66.8823 100.221 59.7304 110.925C57.2663 114.593 53.9608 116.577 49.9942 116.697C43.4433 116.938 36.8924 112.127 34.849 109.481C34.3627 108.791 33.6969 108.246 32.9235 107.907C32.1502 107.568 31.2988 107.447 30.4617 107.557C27.2163 108.038 23.9709 111.646 21.627 117.539Z" fill="url(#paint0_linear_122_1376)"/>
<path d="M22.4685 120.546C22.4685 120.546 29.3199 116.637 33.1062 102.927C36.8925 89.2162 51.617 92.7641 56.8457 106.114C62.0744 119.463 76.0777 126.559 80.7655 115.555C85.4533 104.55 93.7471 82.4212 104.505 88.0737C115.263 93.7262 118.328 116.637 127.042 110.864" stroke="url(#paint1_linear_122_1376)" stroke-width="0.75" stroke-miterlimit="10"/>
<path d="M130.769 82.6016H124.999V119.469H130.769V82.6016Z" fill="url(#paint2_linear_122_1376)"/>
<path d="M127.884 86.8107C129.643 86.8107 131.069 85.3838 131.069 83.6236C131.069 81.8635 129.643 80.4365 127.884 80.4365C126.125 80.4365 124.698 81.8635 124.698 83.6236C124.698 85.3838 126.125 86.8107 127.884 86.8107Z" fill="#FFF37A"/>
<path d="M267.797 127.281H190.147C187.724 127.281 185.76 129.246 185.76 131.67V141.286C185.76 143.71 187.724 145.676 190.147 145.676H267.797C270.22 145.676 272.184 143.71 272.184 141.286V131.67C272.184 129.246 270.22 127.281 267.797 127.281Z" fill="#005BBD" stroke="#5185BD" stroke-miterlimit="10"/>
<path d="M336.25 57.8267H436.497" stroke="#413F44" stroke-width="0.5" stroke-miterlimit="10"/>
<path d="M336.25 83.2632H436.497" stroke="#413F44" stroke-width="0.5" stroke-miterlimit="10"/>
<path d="M336.25 108.639H436.497" stroke="#413F44" stroke-width="0.5" stroke-miterlimit="10"/>
<path d="M336.25 134.076H436.497" stroke="#413F44" stroke-width="0.5" stroke-miterlimit="10"/>
<path d="M353.139 80.7373H345.746C344.452 80.7373 343.402 81.7873 343.402 83.0825V131.718C343.402 133.014 344.452 134.064 345.746 134.064H353.139C354.433 134.064 355.482 133.014 355.482 131.718V83.0825C355.482 81.7873 354.433 80.7373 353.139 80.7373Z" fill="#005BBD" stroke="#5185BD" stroke-miterlimit="10"/>
<path d="M406.387 102.807H398.875C397.613 102.807 396.591 103.83 396.591 105.092V131.827C396.591 133.089 397.613 134.112 398.875 134.112H406.387C407.648 134.112 408.671 133.089 408.671 131.827V105.092C408.671 103.83 407.648 102.807 406.387 102.807Z" fill="#005BBD" stroke="#5185BD" stroke-miterlimit="10"/>
<path d="M432.771 92.644H425.98C424.519 92.644 423.335 93.8286 423.335 95.2899V131.442C423.335 132.903 424.519 134.088 425.98 134.088H432.771C434.232 134.088 435.416 132.903 435.416 131.442V95.2899C435.416 93.8286 434.232 92.644 432.771 92.644Z" fill="#005BBD" stroke="#5185BD" stroke-miterlimit="10"/>
<path d="M380.063 64.8623H371.95C370.854 64.8623 369.967 65.7507 369.967 66.8467V132.121C369.967 133.217 370.854 134.106 371.95 134.106H380.063C381.159 134.106 382.047 133.217 382.047 132.121V66.8467C382.047 65.7507 381.159 64.8623 380.063 64.8623Z" fill="#FFF37A"/>
<path d="M377.78 64.8623L369.967 73.4614" stroke="#36383E" stroke-width="0.25" stroke-miterlimit="10"/>
<path d="M381.926 66.9668L369.967 80.1961" stroke="#36383E" stroke-width="0.25" stroke-miterlimit="10"/>
<path d="M382.047 73.5815L369.967 86.9312" stroke="#36383E" stroke-width="0.25" stroke-miterlimit="10"/>
<path d="M382.047 80.3164L369.967 93.666" stroke="#36383E" stroke-width="0.25" stroke-miterlimit="10"/>
<path d="M382.047 87.0513L369.967 100.341" stroke="#36383E" stroke-width="0.25" stroke-miterlimit="10"/>
<path d="M382.047 93.7261L369.967 107.076" stroke="#36383E" stroke-width="0.25" stroke-miterlimit="10"/>
<path d="M382.047 100.461L369.967 113.811" stroke="#36383E" stroke-width="0.25" stroke-miterlimit="10"/>
<path d="M382.047 107.196L369.967 120.486" stroke="#36383E" stroke-width="0.25" stroke-miterlimit="10"/>
<path d="M382.047 113.931L369.967 127.221" stroke="#36383E" stroke-width="0.25" stroke-miterlimit="10"/>
<path d="M382.047 120.606L370.748 133.114" stroke="#36383E" stroke-width="0.25" stroke-miterlimit="10"/>
<path d="M382.047 127.341L375.917 134.076" stroke="#36383E" stroke-width="0.25" stroke-miterlimit="10"/>
<path d="M384.751 47.9648H366.601C365.873 47.9802 365.178 48.2766 364.663 48.792C364.148 49.3075 363.852 50.0022 363.836 50.731V55.3011C363.852 56.0299 364.148 56.7246 364.663 57.2401C365.178 57.7555 365.873 58.0519 366.601 58.0673H373.873L375.977 61.4948L378.381 58.0673H384.751C385.48 58.0519 386.174 57.7555 386.689 57.2401C387.204 56.7246 387.5 56.0299 387.516 55.3011V50.731C387.5 50.0022 387.204 49.3075 386.689 48.792C386.174 48.2766 385.48 47.9802 384.751 47.9648Z" fill="#B0D6FF"/>
<path d="M424.297 141.713L426.341 142.795L424.297 143.998" stroke="#FCE9DB" stroke-width="0.25" stroke-miterlimit="10"/>
<defs>
<linearGradient id="paint0_linear_122_1376" x1="20.5572" y1="100.588" x2="126.441" y2="100.588" gradientUnits="userSpaceOnUse">
<stop stop-color="#005BBD"/>
<stop offset="0.26" stop-color="#FFF37A"/>
<stop offset="0.85" stop-color="#FFF37A"/>
<stop offset="1" stop-color="#005BBD"/>
</linearGradient>
<linearGradient id="paint1_linear_122_1376" x1="22.3844" y1="104.069" x2="127.169" y2="104.069" gradientUnits="userSpaceOnUse">
<stop stop-color="#005BBD"/>
<stop offset="0.26" stop-color="#FFF37A"/>
<stop offset="0.85" stop-color="#FFF37A"/>
<stop offset="1" stop-color="#005BBD"/>
</linearGradient>
<linearGradient id="paint2_linear_122_1376" x1="119.181" y1="116.09" x2="136.601" y2="85.9353" gradientUnits="userSpaceOnUse">
<stop stop-color="#005BBD"/>
<stop offset="0.19" stop-color="#035DBC"/>
<stop offset="0.33" stop-color="#0C62BA"/>
<stop offset="0.44" stop-color="#1B6BB6"/>
<stop offset="0.55" stop-color="#3178B0"/>
<stop offset="0.65" stop-color="#4D89A9"/>
<stop offset="0.74" stop-color="#709EA0"/>
<stop offset="0.83" stop-color="#99B695"/>
<stop offset="0.92" stop-color="#C8D288"/>
<stop offset="1" stop-color="#FFF37A"/>
</linearGradient>
</defs>
</svg>
