<svg width="224" height="67" viewBox="0 0 224 67" fill="none" xmlns="http://www.w3.org/2000/svg">
<g clip-path="url(#clip0_62_63)">
<path d="M65 26.23H85V30H77.2V51H72.87V30H65V26.23ZM84.19 33.07H87.89V36.53H88C88.1333 36.0173 88.3642 35.5352 88.68 35.11C89.0255 34.641 89.4325 34.2205 89.89 33.86C90.3646 33.4742 90.8937 33.1608 91.46 32.93C92.0224 32.7018 92.6231 32.583 93.23 32.58C93.68 32.58 94.02 32.58 94.23 32.58C94.44 32.58 94.58 32.64 94.77 32.65V36.46C94.49 36.46 94.21 36.38 93.92 36.34C93.6343 36.3089 93.3473 36.2923 93.06 36.29C92.409 36.2904 91.7653 36.4267 91.17 36.69C90.5776 36.9632 90.052 37.3625 89.63 37.86C89.188 38.4409 88.8497 39.0939 88.63 39.79C88.3601 40.6399 88.2318 41.5284 88.25 42.42V51H84.25V33.07H84.19ZM112.89 51H109V48.5H108.93C108.435 49.4204 107.68 50.175 106.76 50.67C105.871 51.1931 104.861 51.4757 103.83 51.49C101.47 51.49 99.7633 50.9066 98.71 49.74C97.5484 48.2321 96.9856 46.3479 97.13 44.45V33.07H101.13V44.07C101.002 45.2491 101.312 46.4341 102 47.4C102.327 47.7387 102.723 48.0033 103.161 48.1758C103.6 48.3484 104.07 48.4248 104.54 48.4C105.254 48.4202 105.964 48.2837 106.62 48C107.155 47.7844 107.629 47.441 108 47C108.361 46.5507 108.62 46.0288 108.76 45.47C108.912 44.8347 108.986 44.1832 108.98 43.53V33.09H112.98L112.89 51ZM119.62 45.25C119.628 45.7303 119.751 46.2017 119.979 46.6246C120.207 47.0475 120.533 47.4094 120.93 47.68C121.765 48.1613 122.716 48.4035 123.68 48.38C124.101 48.3757 124.522 48.3457 124.94 48.29C125.393 48.2406 125.837 48.1296 126.26 47.96C126.647 47.805 126.99 47.5578 127.26 47.24C127.532 46.8947 127.661 46.4578 127.62 46.02C127.618 45.7857 127.568 45.5543 127.471 45.3408C127.375 45.1272 127.235 44.9362 127.06 44.78C126.674 44.4307 126.222 44.1621 125.73 43.99C125.126 43.78 124.508 43.6129 123.88 43.49C123.18 43.35 122.48 43.19 121.77 43.03C121.06 42.87 120.32 42.66 119.63 42.44C118.972 42.225 118.354 41.9041 117.8 41.49C117.253 41.1034 116.81 40.5882 116.51 39.99C116.155 39.2877 115.986 38.5061 116.02 37.72C115.992 36.8489 116.241 35.9913 116.73 35.27C117.206 34.6139 117.82 34.0709 118.53 33.68C119.292 33.2736 120.112 32.9837 120.96 32.82C121.802 32.6699 122.655 32.5896 123.51 32.58C124.405 32.5758 125.298 32.6765 126.17 32.88C126.99 33.0661 127.766 33.4054 128.46 33.88C129.143 34.3213 129.723 34.9045 130.16 35.59C130.633 36.3648 130.923 37.2366 131.01 38.14H126.89C126.847 37.7405 126.706 37.3578 126.479 37.0263C126.252 36.6947 125.947 36.4245 125.59 36.24C124.858 35.9002 124.057 35.7326 123.25 35.75C122.915 35.7514 122.581 35.7748 122.25 35.82C121.879 35.8688 121.513 35.9559 121.16 36.08C120.837 36.198 120.546 36.3897 120.31 36.64C120.186 36.7738 120.091 36.9316 120.031 37.1036C119.971 37.2756 119.947 37.4582 119.96 37.64C119.952 37.8597 119.993 38.0784 120.08 38.2806C120.166 38.4828 120.296 38.6635 120.46 38.81C120.849 39.1353 121.293 39.3892 121.77 39.56C122.376 39.7769 122.998 39.9474 123.63 40.07L125.78 40.52C126.49 40.68 127.19 40.89 127.89 41.12C128.553 41.3314 129.178 41.6489 129.74 42.06C130.283 42.4546 130.734 42.9631 131.06 43.55C131.413 44.2354 131.585 44.9995 131.56 45.77C131.59 46.7256 131.336 47.6686 130.83 48.48C130.35 49.1776 129.726 49.7641 129 50.2C128.194 50.6653 127.32 51.0026 126.41 51.2C125.488 51.4094 124.546 51.5167 123.6 51.52C122.537 51.53 121.478 51.3989 120.45 51.13C119.553 50.9026 118.706 50.5128 117.95 49.98C117.26 49.4637 116.693 48.8012 116.29 48.04C115.871 47.18 115.652 46.2365 115.65 45.28H119.65L119.62 45.25ZM132.62 33.07H135.62V27.69H139.57V33.07H143.14V36H139.6V45.6C139.6 46.02 139.6 46.37 139.65 46.68C139.683 46.9503 139.768 47.2118 139.9 47.45C140.031 47.6693 140.232 47.8384 140.47 47.93C140.808 48.0419 141.164 48.0927 141.52 48.08H142.36C142.643 48.0612 142.924 48.0177 143.2 47.95V51L141.93 51.14C141.505 51.1888 141.078 51.2121 140.65 51.21C139.8 51.2354 138.95 51.1343 138.13 50.91C137.566 50.7616 137.054 50.4606 136.65 50.04C136.278 49.6397 136.022 49.1452 135.91 48.61C135.772 47.952 135.699 47.2822 135.69 46.61V36.06H132.69V33.06L132.62 33.07ZM145.92 33.07H149.66V35.5H149.73C150.231 34.5113 151.052 33.7216 152.06 33.26C153.075 32.8022 154.177 32.5702 155.29 32.58C156.561 32.5451 157.823 32.8016 158.98 33.33C160.002 33.7978 160.9 34.5002 161.6 35.38C162.308 36.2704 162.838 37.289 163.16 38.38C163.515 39.5809 163.69 40.8277 163.68 42.08C163.682 43.2625 163.524 44.4399 163.21 45.58C162.917 46.6559 162.437 47.6716 161.79 48.58C161.162 49.4535 160.336 50.1662 159.38 50.66C158.318 51.2095 157.135 51.4813 155.94 51.45C155.36 51.4518 154.78 51.3982 154.21 51.29C153.639 51.1872 153.082 51.0194 152.55 50.79C152.021 50.5622 151.527 50.2627 151.08 49.9C150.663 49.5475 150.299 49.1366 150 48.68H149.93V57.68H146L145.92 33.07ZM159.73 42.07C159.732 41.273 159.628 40.4793 159.42 39.71C159.209 38.9889 158.87 38.3115 158.42 37.71C158.057 37.1268 157.573 36.6287 157 36.25C156.027 35.7451 154.91 35.5878 153.835 35.8042C152.761 36.0206 151.792 36.5978 151.09 37.44C150.189 38.803 149.748 40.4183 149.83 42.05C149.822 42.9012 149.933 43.7494 150.16 44.57C150.355 45.2974 150.695 45.9778 151.16 46.57C151.581 47.1168 152.117 47.5641 152.73 47.88C153.386 48.2232 154.12 48.3919 154.86 48.37C155.66 48.3956 156.452 48.202 157.15 47.81C157.765 47.4559 158.291 46.967 158.69 46.38C159.102 45.7718 159.4 45.0942 159.57 44.38C159.726 43.6198 159.806 42.846 159.81 42.07H159.73ZM166.73 26.25H170.68V30H166.73V26.25ZM166.73 33.09H170.68V51H166.73V33.07V33.09ZM174.21 26.25H178.21V51H174.21V26.23V26.25ZM190.27 51.51C188.958 51.5329 187.654 51.288 186.44 50.79C185.358 50.3527 184.384 49.684 183.588 48.8306C182.791 47.9772 182.191 46.9599 181.83 45.85C181.416 44.6228 181.21 43.3351 181.22 42.04C181.21 40.7547 181.416 39.4769 181.83 38.26C182.204 37.1495 182.803 36.1281 183.59 35.26C184.387 34.4103 185.359 33.7447 186.44 33.31C188.903 32.3503 191.637 32.3503 194.1 33.31C195.182 33.7472 196.156 34.416 196.952 35.2694C197.749 36.1228 198.349 37.1401 198.71 38.25C199.124 39.4669 199.33 40.7447 199.32 42.03C199.33 43.3251 199.124 44.6129 198.71 45.84C198.336 46.9505 197.737 47.9718 196.95 48.84C196.158 49.7078 195.185 50.3906 194.1 50.84C192.886 51.338 191.582 51.5829 190.27 51.56V51.51ZM190.27 48.38C191.069 48.3968 191.859 48.2037 192.56 47.82C193.195 47.4658 193.739 46.9695 194.15 46.37C194.573 45.7618 194.887 45.0852 195.08 44.37C195.466 42.861 195.466 41.279 195.08 39.77C194.894 39.0523 194.579 38.3745 194.15 37.77C193.736 37.1787 193.192 36.6896 192.56 36.34C191.852 35.9751 191.067 35.7847 190.27 35.7847C189.473 35.7847 188.688 35.9751 187.98 36.34C187.35 36.6927 186.807 37.1812 186.39 37.77C185.965 38.3768 185.65 39.0538 185.46 39.77C185.074 41.279 185.074 42.861 185.46 44.37C185.649 45.0867 185.964 45.7639 186.39 46.37C186.809 46.9646 187.36 47.454 188 47.8C188.698 48.1929 189.49 48.3866 190.29 48.36L190.27 48.38ZM200.5 33.07H203.5V27.69H207.45V33.07H211V36H207.44V45.6C207.434 45.9607 207.451 46.3214 207.49 46.68C207.515 46.9506 207.597 47.213 207.73 47.45C207.867 47.6676 208.071 47.8357 208.31 47.93C208.648 48.0437 209.004 48.0945 209.36 48.08H210.2C210.483 48.0612 210.764 48.0177 211.04 47.95V51L209.76 51.14C209.338 51.1885 208.914 51.2119 208.49 51.21C207.64 51.2354 206.79 51.1343 205.97 50.91C205.403 50.7614 204.888 50.4605 204.48 50.04C204.115 49.636 203.863 49.1426 203.75 48.61C203.614 47.9515 203.537 47.2822 203.52 46.61V36.06H200.52V33.06L200.5 33.07Z" fill="#191919"/>
<path d="M60.42 26.23H42.31L36.72 9L31.11 26.23H13L27.66 36.88L22.05 54.1L36.72 43.45L51.37 54.1L45.77 36.88L60.42 26.23Z" fill="#00B67A"/>
<path d="M46.9999 40.7799L45.7399 36.8799L36.6899 43.4499L46.9999 40.7799Z" fill="#005128"/>
</g>
<defs>
<clipPath id="clip0_62_63">
<rect width="198.04" height="48.63" fill="white" transform="translate(13 9)"/>
</clipPath>
</defs>
</svg>
