<svg width="1820" height="1024" viewBox="0 0 1820 1024" fill="none" xmlns="http://www.w3.org/2000/svg">
<g clip-path="url(#clip0_87_1963)">
<path d="M0 0H538.347H549.021H1130.67H1151.14H1453.36H1467.67H1673.22H1697.18H1820V94.1011V109.917V346.907V357.204V616.286V677.061V689.554V704.473V726.247V777.198V790.108V796.281V806.881V808.552V819.75V826.493V839.24V1024H1807.54H1797.76H1784.35H1774.14H1691.74H1680.54H1657.81H1647.68H1631.51H1621.79H1603.12H1576.64H1548.01H1521.09H1504.47H1477.25H1447.9H1420.82H1242.98H1232.5H1092.53H1070.32H1042.13H1019.8H1005.3H981.64H957.702H730.062H719.185H444.813H433.662H0V819.541V809.709V570.809V560.983V0Z" fill="#004B9B"/>
<path d="M0 0H538.347H549.021H1130.67C1101.38 20.1076 1073.03 40.1602 1045.69 62.9556C970.842 125.37 899.124 204.655 847.752 287.65C832.8 311.945 818.569 336.677 805.08 361.814C799.689 372.096 789.453 395.754 783.536 403.874C639.624 601.738 427.874 739.631 188.744 791.205C126.61 803.692 63.3761 809.892 0 809.709L0 570.809V560.983V0Z" fill="#004B9B"/>
<path d="M0 0H538.347C538.684 148.643 485.301 282.23 380.539 388.542C284.258 486.25 137.117 553.696 0 560.983V0Z" fill="#004B9B"/>
<path d="M538.347 0H549.021C548.885 151.444 496.008 287.22 388.329 394.903C304.472 478.293 198.174 535.485 82.3907 559.509C57.5943 564.794 25.5141 570.416 0 570.809V560.983C137.117 553.696 284.258 486.25 380.539 388.542C485.301 282.23 538.684 148.643 538.347 0Z" fill="#91BFD6"/>
<path d="M0 819.541C55.721 819.605 111.348 814.966 166.289 805.673C328.153 775.113 479.982 705.093 608.326 601.814C667.686 554.681 726.37 497.809 771.23 436.396C754.504 476.554 739.599 516.719 729.608 559.14C715.172 571.553 699.839 582.979 685.453 595.692C588.999 680.927 511.793 788.084 466.197 908.788C452.258 945.69 442.2 985.215 433.662 1024H0V819.541Z" fill="#004B9B"/>
<path d="M444.813 1024C473.379 882.518 542.562 752.435 643.894 649.672C655.791 637.377 667.977 625.336 680.558 613.737C694.746 600.656 710.443 588.376 724.573 575.441C690.827 725.813 682.012 872.805 719.185 1024H444.813Z" fill="#004B9B"/>
<path d="M1472.58 740.152C1515.36 745.124 1558.16 749.916 1600.91 755.268C1607.65 756.112 1614.94 757.065 1621.68 757.57L1621.79 1024H1603.12C1570.85 1010.13 1538.42 996.637 1505.83 983.537C1495.26 979.196 1482.74 973.158 1472.54 969.373C1472.95 892.967 1472.96 816.559 1472.58 740.152Z" fill="#91BFD6"/>
<path d="M1538.29 770.029C1551.46 768.75 1565.35 773.022 1574.88 782.349C1581.6 789.02 1586.22 797.506 1588.19 806.768C1590.58 817.703 1589.67 847.887 1589.64 860.795L1589.62 953.219L1553.18 950.057C1539.8 949.681 1513.35 946.505 1499.57 945.041L1499.79 855.753C1499.8 821.956 1493.45 777.579 1538.29 770.029Z" fill="#004B9B"/>
<path d="M1538.18 780.54C1540.23 780.445 1542.28 780.391 1544.33 780.379C1553.14 780.31 1561.61 783.823 1567.79 790.114C1583.49 806.029 1579.28 837.657 1579.21 859.02L1579.25 942.213L1553.61 939.671C1539.19 938.865 1524.79 936.404 1509.77 935.842L1509.73 858.316C1509.68 847.681 1509.77 836.514 1509.6 825.925C1509.24 802.429 1514.22 787.786 1538.18 780.54Z" fill="#91BFD6"/>
<path d="M1130.67 0H1151.14C1124.92 18.0662 1102.05 32.0648 1076.13 52.4375C914.455 177.522 797.662 351.648 743.256 548.718C882.332 444.298 1076.91 387.745 1249.43 386.845C1287.88 386.645 1322.39 389.115 1360.55 392.834C1356.65 396.636 1355.91 397.554 1353.23 402.184C1308.52 399.151 1267.93 397.098 1222.94 398.504C1093.53 402.389 966.61 435.03 851.377 494.059C819.848 510.155 765.92 541.354 739.09 563.947C700.467 702.446 693.069 884.714 730.062 1024H719.185C682.012 872.805 690.827 725.813 724.573 575.441C710.443 588.376 694.746 600.656 680.558 613.737C667.977 625.336 655.791 637.377 643.894 649.672C542.562 752.435 473.379 882.518 444.813 1024H433.662C442.2 985.215 452.258 945.69 466.197 908.788C511.793 788.084 588.999 680.927 685.453 595.692C699.839 582.979 715.172 571.553 729.608 559.14C739.599 516.719 754.504 476.554 771.23 436.396C726.37 497.809 667.686 554.681 608.326 601.814C479.982 705.093 328.153 775.113 166.289 805.673C111.348 814.966 55.721 819.605 0 819.541V809.709C63.3761 809.892 126.61 803.692 188.744 791.205C427.874 739.631 639.624 601.738 783.536 403.874C789.453 395.754 799.689 372.096 805.08 361.814C818.569 336.677 832.8 311.945 847.752 287.65C899.124 204.655 970.842 125.37 1045.69 62.9556C1073.03 40.1602 1101.38 20.1076 1130.67 0Z" fill="#91BFD6"/>
<path d="M1691.09 779.631L1740.01 802.666C1749.16 806.896 1765.32 813.863 1773.63 819.098C1774.22 887.397 1774.39 955.699 1774.14 1024H1691.74L1691.09 779.631Z" fill="#91BFD6"/>
<path d="M1720.71 825.965C1722.14 825.882 1723.57 825.837 1725 825.831C1742.47 825.833 1760.61 843.024 1763.31 859.405C1766.1 876.364 1764.96 897.655 1764.92 914.995L1764.57 1009.8L1750.01 1004.04C1733.6 997.791 1717.26 991.364 1700.98 984.761L1700.88 901.133C1700.87 885.895 1700.41 870.295 1701.27 855.107C1702.12 840.27 1706.74 831.298 1720.71 825.965Z" fill="#004B9B"/>
<path d="M1722.14 837.533C1761.82 834.667 1754.2 884.883 1754.03 910.818L1753.68 993.693L1746.91 991.481C1735.1 987.574 1723.44 982.128 1710.76 977.992L1710.97 891.384C1711 878.509 1710.38 861.89 1712.2 849.178C1712.95 843.955 1717.8 840.156 1722.14 837.533Z" fill="#91BFD6"/>
<path d="M1242.86 951.898C1287.15 970.82 1333 987.311 1377.36 1006.16C1390.56 1011.77 1408.51 1017.9 1420.82 1024H1242.98L1242.86 951.898Z" fill="#91BFD6"/>
<path d="M1658.36 763.803C1665.72 767.566 1673.42 771.336 1680.42 775.684L1680.54 1024H1657.81C1658.44 937.269 1658.62 850.536 1658.36 763.803Z" fill="#91BFD6"/>
<path d="M1092.53 1024L1232.57 953.512L1232.5 1024H1092.53Z" fill="#91BFD6"/>
<path d="M1697.18 0H1820V94.1011C1776.33 46.5726 1755.39 29.1676 1697.18 0Z" fill="#004B9B"/>
<path d="M1631.54 758.827L1648.26 760.203C1647.56 798.942 1647.33 837.689 1647.57 876.434L1647.68 1024H1631.51L1631.46 849.655C1631.45 820.709 1630.64 787.357 1631.54 758.827Z" fill="#91BFD6"/>
<path d="M1724.95 495.021C1764.31 531.079 1795.39 568.394 1820 616.286V677.061C1811.09 673.853 1801.87 669.184 1793.27 665.065C1785.54 614.8 1774.76 575.323 1748.29 530.786C1740.71 518.03 1732.52 507.279 1724.95 495.021Z" fill="#91BFD6"/>
<path d="M1243.2 883.888L1448.27 969.805C1475.72 981.084 1503.07 992.578 1530.33 1004.29C1542.74 1009.49 1565.32 1018.11 1576.64 1024H1548.01C1491.89 998.7 1434.16 975.811 1377.31 952.157L1287.25 914.814C1272.8 908.719 1257.35 901.454 1242.95 895.744L1243.2 883.888Z" fill="#91BFD6"/>
<path d="M1232.82 883.124L1232.75 895.427C1210.75 907.638 1186.57 919.54 1164.04 931.071L1049.28 989.584C1028.61 1000.06 1001.65 1012.44 981.64 1024H957.702C968.466 1018.04 980.152 1012.64 991.21 1007.15C1034.12 985.838 1076.48 963.584 1119.15 941.802L1193.67 903.327C1205.64 897.095 1220.92 888.42 1232.82 883.124Z" fill="#91BFD6"/>
<path d="M1655.95 606.396L1748.76 653.924C1772.26 665.936 1796.08 678.503 1820 689.554V704.473C1796.52 695.864 1758.27 675.98 1735.36 664.638C1710.7 652.432 1679.66 637.895 1655.9 624.791L1655.95 606.396Z" fill="#91BFD6"/>
<path d="M1242.45 927.722C1260.19 933.919 1279.04 942.542 1296.57 949.826L1378.16 983.249L1443.17 1009.59C1452.02 1013.19 1469.28 1019.9 1477.25 1024H1447.9C1438.84 1020.1 1429.5 1016.28 1420.31 1012.7C1361.1 989.633 1301.91 962.394 1242.43 940.525L1242.45 927.722Z" fill="#91BFD6"/>
<path d="M1453.36 0H1467.67C1454.52 13.5927 1442.44 28.6688 1433.46 45.3539C1403.27 101.95 1396.74 168.202 1415.28 229.608C1411.95 230.766 1408.03 231.779 1404.59 232.752C1382.51 150.56 1394.31 64.37 1453.36 0Z" fill="#91BFD6"/>
<path d="M1784.39 823.232C1788.7 825.304 1793.32 827.422 1797.55 829.589L1797.76 1024H1784.35L1784.39 823.232Z" fill="#91BFD6"/>
<path d="M1232.88 928.283L1232.94 941.029C1183.46 965.621 1134.68 991.893 1085.08 1016.28C1080.09 1018.74 1075.15 1021.23 1070.32 1024H1042.13C1061.6 1013.32 1082.65 1003.85 1102.48 993.747C1145.62 971.272 1189.09 949.448 1232.88 928.283Z" fill="#91BFD6"/>
<path d="M1807.62 833.708L1820 839.24V1024H1807.54C1807.61 961.126 1806.67 896.42 1807.62 833.708Z" fill="#91BFD6"/>
<path d="M1820 346.907V357.204C1766.56 381.559 1715.9 393.685 1656.84 385.953C1647.69 384.755 1609.7 378.342 1605.36 371.571C1604.15 369.685 1603.65 367.516 1604.11 365.327C1605.93 363.665 1641.92 373.034 1647.59 374.042C1712.53 385.596 1761.3 372.773 1820 346.907Z" fill="#91BFD6"/>
<path d="M1504.47 1024C1490.41 1016.84 1464.5 1007.39 1448.66 1000.9L1324.68 949.464C1298.56 938.785 1272.35 928.347 1246.42 917.212C1242.14 915.373 1242.81 914.045 1243.24 909.872C1246.7 907.589 1259.82 914.783 1264.12 916.555L1327.17 942.847C1388.25 968.269 1449.63 992.998 1510.5 1018.9C1513.55 1020.2 1518.31 1022.26 1521.09 1024H1504.47Z" fill="#91BFD6"/>
<path d="M1673.22 0H1697.18C1755.39 29.1676 1776.33 46.5726 1820 94.1011V109.917C1808.77 99.0425 1796.71 83.6179 1784.72 71.6997C1748.2 35.3862 1717.76 21.2915 1673.22 0Z" fill="#91BFD6"/>
<path d="M1005.3 1024C1026.08 1012.34 1048.84 1001.66 1070.25 990.946L1155.58 947.48L1208.41 920.389C1212.97 918.058 1227.26 910.248 1231.34 909.181L1232.56 909.706C1232.56 911.934 1232.85 914.272 1231.82 916.123C1217.02 925.439 1190.33 937.107 1173.76 945.428L1071.19 997.613C1061.77 1002.31 1027.27 1018.77 1019.8 1024H1005.3Z" fill="#91BFD6"/>
<path d="M1820 796.281C1802.95 790.074 1666.32 725.909 1664.3 722.43C1663.22 720.564 1663.51 717.224 1664.11 715.266C1667.7 714.946 1801.87 781.169 1820 790.108V796.281Z" fill="#91BFD6"/>
<path d="M1809.12 721.002L1820 726.247V777.198L1809.15 773.32C1808.2 759.379 1809.05 735.664 1809.12 721.002Z" fill="#91BFD6"/>
<path d="M1820 808.552C1810.24 805.787 1773.99 788.556 1762.65 783.134C1745.01 774.7 1704.55 758.99 1691 749.531L1692.25 750.127L1692.92 749.851C1704.48 754.365 1716.9 760.711 1728.39 765.805L1820 806.881V808.552Z" fill="#91BFD6"/>
<path d="M1820 826.493C1815.26 825.009 1808.74 823.938 1808.5 817.874L1809.91 816.562C1812.91 815.953 1817.07 818.382 1820 819.75V826.493Z" fill="#91BFD6"/>
<path d="M1496.24 386.523C1512.34 386.425 1536.71 387.844 1549.88 397.148C1609.08 438.96 1631.01 527.021 1646.61 592.887C1634.17 590.858 1617.72 589.42 1604.84 587.83L1447.5 570.467C1446.81 514.269 1459.3 430.23 1496.24 386.523Z" fill="#91BFD6"/>
<path d="M1471.74 387.899C1473.87 387.563 1479.16 387.397 1481.54 387.254C1447.93 423.816 1438.12 521.112 1436.04 569.898L1275.63 608.741L1267.21 610.421C1290.89 504.019 1354.79 401.695 1471.74 387.899Z" fill="#91BFD6"/>
<path d="M1572.27 399.703C1585.36 401.169 1643.04 435.429 1655.07 444.253C1728.03 497.772 1767.01 569.467 1781.03 657.568C1777.86 656.362 1773.11 654.012 1770.12 652.409C1733.36 632.738 1694.45 615.241 1657.89 595.398C1642.53 524.118 1623.45 454.614 1572.27 399.703Z" fill="#91BFD6"/>
<path d="M1345.36 435.585L1345.86 436.02C1344.65 438.959 1330.83 452.454 1327.72 456.16C1288.93 502.325 1268.44 554.51 1255.87 612.62C1245.72 617.552 1231.22 626.571 1221.09 632.504C1198.33 645.997 1175.47 659.34 1152.53 672.531L1152.32 672.381C1151.64 669.384 1155.21 660.704 1156.44 656.89C1187.44 560.915 1254.16 480.455 1345.36 435.585Z" fill="#91BFD6"/>
<path d="M1472.8 623.059C1522.25 629.3 1572.26 633.596 1621.93 639.894L1622.24 698.015L1472.6 681.024L1472.8 623.059Z" fill="#91BFD6"/>
<path d="M1396.9 743.346L1399.03 743.572C1400.04 748.981 1399.47 793.708 1399.46 801.6L1399.19 938.105C1391.38 935.222 1382.49 931.194 1374.75 927.904L1374.53 855.52C1374.55 824.735 1380.3 772.188 1331.43 780.575C1323.28 782.75 1316.88 785.916 1310.79 791.925C1304.76 797.946 1300.5 805.505 1298.47 813.78C1296.07 823.494 1296.9 881.743 1296.79 896.099L1285.75 891.011C1285.34 849.789 1285.32 808.564 1285.66 767.341C1322.81 759.635 1359.89 751.636 1396.9 743.346Z" fill="#91BFD6"/>
<path d="M1338.55 790.477C1370.26 789.04 1364.49 829.574 1364.5 850.504L1364.28 924.061L1342.25 914.638C1330.63 909.735 1319.05 904.757 1307.49 899.705L1307.23 850.307C1307.19 842.435 1306.73 827.481 1307.99 820.167C1308.93 814.359 1311.18 808.84 1314.55 804.02C1321.02 794.928 1328.05 792.134 1338.55 790.477Z" fill="#91BFD6"/>
<path d="M1397.42 629.486C1398.31 629.614 1398.16 629.8 1399.08 630.631C1399.68 647.528 1399.06 667.436 1398.94 684.55C1362.71 693.247 1323.83 701.02 1287.22 709.096L1286.07 708.956C1284.69 707.097 1285.32 662.2 1285.34 655.978C1322.57 646.81 1360.15 639.496 1397.42 629.486Z" fill="#91BFD6"/>
<path d="M1489.39 240.461C1508.16 243.041 1532.96 248.681 1551.59 253.052L1551.45 352.672C1545.88 351.804 1539.27 350.231 1533.65 349.032L1533.59 323.565C1533.64 319.417 1534.99 307.596 1532.01 304.628C1520.93 294.495 1501.22 294.497 1503.12 314.887C1503.91 323.304 1503.28 337.565 1503.22 346.379L1489.38 346.677L1489.39 240.461Z" fill="#91BFD6"/>
<path d="M1429.8 737.209L1431.41 737.161C1433.3 740.1 1432.4 793.038 1432.43 801.12C1432.68 851.489 1432.67 901.859 1432.4 952.228L1419.88 947.072L1409.42 942.626L1409.44 741.052C1416.21 739.717 1423 738.435 1429.8 737.209Z" fill="#91BFD6"/>
<path d="M1476.23 242.705L1477.51 242.899C1478.59 244.791 1477.98 336.411 1477.97 347.435L1461.74 348.667C1461.56 336.629 1467.12 299.319 1451.46 299.74C1438.71 300.082 1434.05 308.68 1433.84 319.778L1433.67 355.055C1429.34 355.759 1423.59 357.365 1419.22 358.448L1419.43 263.375C1437.93 256.001 1457.43 249.255 1476.23 242.705Z" fill="#91BFD6"/>
<path d="M1442.71 737.476C1449.6 738.099 1455.67 738.755 1462.52 739.757L1462.48 883.559C1462.51 908.783 1463.59 940.446 1462.39 965.144C1455.81 962.486 1449.06 959.38 1442.56 956.495C1443.84 884.24 1442.46 809.983 1442.71 737.476Z" fill="#91BFD6"/>
<path d="M1485.59 359.493C1539.14 354.734 1585.87 374.809 1631.55 399.151L1631.59 416.552C1590.56 393.505 1559.82 378.183 1510.96 375.967C1454.21 374.715 1409.6 383.645 1364.09 419.422L1364.11 403.368C1403.71 373.252 1435.97 362.703 1485.59 359.493Z" fill="#91BFD6"/>
<path d="M1690.28 663.347C1718.19 676.622 1745.41 690.686 1773.13 704.258C1773.32 721.341 1773.33 738.425 1773.16 755.508C1745.47 742.24 1717.86 728.794 1690.34 715.172L1690.28 663.347Z" fill="#91BFD6"/>
<path d="M1442.37 580.84C1509.68 587.296 1577.53 596.633 1645.08 602.95L1645.25 622.25C1577.81 615.602 1509.75 607.836 1442.39 600.196L1442.37 580.84Z" fill="#91BFD6"/>
<path d="M1214.55 687.913C1216.81 690.851 1215.79 727.558 1215.75 734.108L1137.9 777.137C1134.84 773.178 1136.59 739.652 1136.64 732.296C1162.49 717.286 1188.46 702.491 1214.55 687.913Z" fill="#91BFD6"/>
<path d="M1214.58 797.294C1216.55 799.28 1215.82 872.162 1215.84 880.269L1208.58 884.41C1208.83 872.101 1208.95 859.877 1200.31 849.922C1195.69 844.503 1189.04 841.233 1181.94 840.886C1159.56 839.89 1145.23 864.308 1144.48 884.222L1144.3 918.289L1135.75 921.863L1135.66 840.383C1161.49 825.886 1188.49 811.656 1214.58 797.294Z" fill="#91BFD6"/>
<path d="M1428.81 582.431L1430.35 582.539C1432.25 585.219 1431.11 597.117 1430.91 601.195C1409.03 606.838 1385.81 611.779 1363.69 616.967L1260.57 641.31L1260.16 641.348L1259.11 640.432C1258.29 636.341 1258.6 628.382 1258.63 623.931C1280.24 617.452 1309.5 611.161 1331.84 605.886L1428.81 582.431Z" fill="#91BFD6"/>
<path d="M1247.25 629.254L1248.14 629.957C1249.01 633.138 1248.63 641.682 1248.6 645.398C1196.62 676.781 1142.41 705.247 1089.69 735.432C1084.16 738.597 1078.31 742.102 1072.41 744.472L1071.01 743.197L1065.23 735.348C1082.72 723.675 1112.89 707.71 1131.83 696.818L1247.25 629.254Z" fill="#91BFD6"/>
<path d="M1483.23 216.932C1492.68 215.815 1551.26 231.83 1564.33 234.191C1568.02 234.858 1598.1 260.278 1604.18 265.134L1598.9 274.103C1587.02 264.689 1575.43 252.37 1562.5 244.638C1553.86 239.465 1504.12 231.361 1490.17 228.101C1482.52 226.406 1467.24 233.638 1459.01 236.654C1443.15 242.49 1427.17 248.015 1411.09 253.226C1404.2 263.44 1395.87 276.579 1389.9 287.214L1382.51 280.519L1405.28 244.389C1430.95 235.93 1457.45 225.868 1483.23 216.932Z" fill="#91BFD6"/>
<path d="M1179.94 850.856C1201.19 852.803 1198.49 874.035 1198.36 889.755C1189.5 893.812 1177.13 900.737 1168.26 905.39L1154.58 912.934C1154.3 890.036 1150.6 856.875 1179.94 850.856Z" fill="#91BFD6"/>
<path d="M1272.24 769.908C1272.9 769.843 1273.97 770.088 1274.64 770.197C1275.52 773.304 1275.21 799.03 1275.21 803.888L1275.26 886.528L1263.29 881.778L1258.06 879.341L1257.96 773.719C1262.26 772.315 1267.78 771.056 1272.24 769.908Z" fill="#91BFD6"/>
<path d="M1502.24 161.733C1527.49 166.089 1540.72 196.318 1546.23 218.402L1535.83 215.829L1491.11 206.557C1492.28 189.887 1493.5 176.337 1502.24 161.733Z" fill="#91BFD6"/>
<path d="M1563.44 259.087C1566.9 260.71 1588.64 280.393 1592.17 283.887C1591.73 311.036 1592.13 338.319 1591.69 365.673L1581.96 362.027L1581.94 336.444C1582.06 330.45 1583.6 319.319 1578.8 315.311C1555.76 306.9 1571.01 347.513 1565.07 355.374C1562.63 351.949 1563.45 268.294 1563.44 259.087Z" fill="#91BFD6"/>
<path d="M1245.14 780.318L1245.96 780.458C1247.36 782.627 1246.78 863.357 1246.79 873.093C1238.99 870.34 1237.98 867.819 1230.06 871.999C1228.13 873.175 1228.81 873.125 1226.8 873.118C1226.01 867.653 1226.37 851.831 1226.38 845.546L1226.46 790.897C1232.31 787.294 1239.08 783.694 1245.14 780.318Z" fill="#91BFD6"/>
<path d="M1442.49 687.715C1490.02 693.799 1537.62 699.341 1585.27 704.342L1628.37 708.914C1635.5 709.645 1647.17 710.445 1653.69 711.904C1655.27 714.612 1654.71 717.82 1654.6 721.125C1595.89 711.046 1534.56 707.654 1475.49 699.323C1465.17 697.867 1453.94 697.266 1443.82 694.974C1442.01 692.427 1442.61 691.353 1442.49 687.715Z" fill="#91BFD6"/>
<path d="M1097.66 860.39L1098.71 861.206C1099.63 865.675 1099.25 882.807 1099.26 888.214L1099.38 941.363L1081.98 949.765L1081.41 949.813C1079.89 947.551 1080.41 878.696 1080.4 869.899C1085.79 866.515 1092 863.397 1097.66 860.39Z" fill="#91BFD6"/>
<path d="M1125.64 845.207C1126.38 853.153 1125.99 866.155 1125.98 874.45L1125.87 927.409L1109.31 935.993C1108.37 910.49 1109.19 879.799 1109.2 853.894C1114.76 851.149 1120.19 848.161 1125.64 845.207Z" fill="#91BFD6"/>
<path d="M1243.19 730.686C1243.85 731.711 1244.46 734.849 1243.86 735.463C1235.83 743.607 1214.42 753.736 1205.07 758.943L1143.48 793.287C1118.05 807.286 1091.56 823.261 1066.02 836.437C1064.26 834.554 1063.98 834.399 1063.04 832.061C1065.57 828.177 1228.48 738.243 1243.19 730.686Z" fill="#91BFD6"/>
<path d="M1496.26 94.1074C1516.14 96.6366 1516.62 141.243 1499.08 153.347C1482.39 149.947 1481.54 125.932 1484.12 112.814C1485.91 103.723 1488.66 98.9797 1496.26 94.1074Z" fill="#91BFD6"/>
<path d="M1429.23 622.396C1430.75 622.122 1430.2 622.2 1431.82 622.613C1433.55 627.284 1432.59 669.23 1432.54 677.173C1426.52 678.776 1419.35 680.206 1413.19 681.59C1411.89 681.931 1411.25 681.772 1409.91 681.666C1408.26 678.178 1409.19 634.111 1409.25 627.14L1429.23 622.396Z" fill="#91BFD6"/>
<path d="M1429.62 688.141L1431.9 688.353C1433.08 690.495 1432.96 690.91 1432.59 693.367C1432.18 693.874 1431.7 694.482 1431.13 695.191C1381.9 705.488 1303.84 723.556 1257.67 733.115C1256.36 733.449 1255.87 733.241 1254.53 733.016C1253.76 730.948 1253.76 731.069 1254.15 728.9C1259.77 724.031 1406.68 693.341 1429.62 688.141Z" fill="#91BFD6"/>
<path d="M1485.96 162.459C1486.88 162.528 1488.01 162.838 1488.93 163.048C1482.81 179.705 1481.36 188.889 1480.42 206.349C1469.53 209.891 1457.85 214.241 1446.96 218.052L1445.37 218.432L1444.49 217.374C1444.69 213.686 1446.32 209.068 1447.74 205.586C1455.88 185.532 1465.61 171.103 1485.96 162.459Z" fill="#91BFD6"/>
<path d="M1472.4 723.246C1499.63 725.47 1529.16 729.934 1556.55 732.87C1586.22 736.049 1617.51 739.142 1646.97 743.392C1648.81 745.742 1648.23 746.635 1648.41 750.151L1534.74 736.889C1518.62 735.085 1488.93 732.933 1473.99 729.924C1472.16 727.637 1472.68 726.66 1472.4 723.246Z" fill="#91BFD6"/>
<path d="M1658.29 647.427C1665.41 650.527 1673.3 654.926 1680.26 658.605L1680.22 710.461C1674.79 708.789 1666.25 703.245 1658.28 700.772L1658.29 647.427Z" fill="#91BFD6"/>
<path d="M1443.08 619.148C1449.99 619.701 1455.86 620.673 1462.7 621.788L1462.71 679.866C1456.15 679.031 1449.72 678.541 1443.14 678.01L1443.08 619.148Z" fill="#91BFD6"/>
<path d="M1244.49 670.953L1245.37 671.175C1247.14 674.119 1246.45 711.647 1246.43 718.118C1241.23 720.335 1233.69 724.383 1228.44 726.999L1227.18 726.973C1226.13 724.46 1226.73 687.251 1226.75 681.598C1232.82 677.642 1238.18 674.514 1244.49 670.953Z" fill="#91BFD6"/>
<path d="M1272.43 659.75L1273.94 659.84C1275.81 662.316 1275.28 705.162 1275.31 711.632C1270.72 713.07 1265.06 714.39 1260.33 715.628L1258.69 715.665C1256.57 712.558 1257.22 671.694 1257.11 664C1261.85 662.503 1267.57 661.081 1272.43 659.75Z" fill="#91BFD6"/>
<path d="M1408.17 278.846C1410.41 287.169 1408.5 350.912 1408.44 362.764L1397.47 367.682C1396.02 349.353 1397.18 314.376 1397.33 295.082C1401.1 288.803 1403.59 284.54 1408.17 278.846Z" fill="#91BFD6"/>
<path d="M1632.53 640.826L1647.68 643.092L1647.75 700.635L1632.31 699.256C1632.28 679.779 1632.35 660.302 1632.53 640.826Z" fill="#91BFD6"/>
<path d="M1098.69 753.687L1099.41 753.8C1100.87 755.982 1100.24 792.6 1100.23 798.287L1082.26 808.421L1081.8 808.255C1080.04 805.841 1081.07 769.075 1081.15 762.948L1098.69 753.687Z" fill="#91BFD6"/>
<path d="M1690.1 759.75L1764.61 794.628C1774.46 799.229 1786.92 804.746 1796.54 810.159C1798.21 811.099 1798.03 815.49 1798.2 817.691C1791.25 815.444 1768.87 804.581 1761.39 800.995C1738.34 789.932 1713.82 779.562 1690.98 768.413C1689.59 765.882 1690.04 762.789 1690.1 759.75Z" fill="#91BFD6"/>
<path d="M1396.35 726.49L1398.25 726.469L1399.34 727.867C1399.62 730.929 1400 730.136 1398.73 732.436C1387.96 735.662 1370.34 738.889 1358.93 741.301L1288.07 756.267L1285.93 756.198C1284.51 753.686 1284.84 754.817 1285.1 751.494C1287.23 748.904 1383.78 728.826 1396.35 726.49Z" fill="#91BFD6"/>
<path d="M1125.22 738.643C1127.27 741.424 1126.31 776.895 1126.28 783.125C1121.39 786.129 1116.12 789.118 1111.15 792.044C1109.31 788.619 1110.21 752.923 1110.26 747.086C1114.96 743.943 1120.21 741.308 1125.22 738.643Z" fill="#91BFD6"/>
<path d="M1784.39 709.829L1797.54 715.687L1797.71 765.7L1784.24 759.946C1784 743.504 1784.32 726.327 1784.39 709.829Z" fill="#91BFD6"/>
<path d="M1441.45 705.975C1445.33 705.653 1484.54 710.96 1491.08 711.72L1580.37 722.11C1596.35 723.685 1612.3 725.688 1628.18 728.116C1634.28 729.039 1640.49 729.405 1646.39 731.149V732.683C1644.12 733.142 1620.85 729.656 1617.03 729.18C1559.46 722.009 1500.8 717.062 1443.44 708.843L1441.45 705.975Z" fill="#91BFD6"/>
<path d="M1214.71 778.688C1215.96 780.285 1215.59 780.753 1215.85 783.178C1215.57 783.755 1215.3 784.332 1215.02 784.91C1194.84 796.462 1155.72 818.39 1136.9 828.116C1135.91 827.191 1135.83 825.843 1135.52 824.448C1135.72 823.91 1135.96 823.254 1136.25 822.481C1159 808.315 1191.83 790.823 1214.71 778.688Z" fill="#91BFD6"/>
<path d="M1430.88 706.018C1431.69 706.431 1431.6 706.655 1432.25 707.611C1430.33 709.525 1268.99 743.526 1256.6 746.221C1256.18 746.024 1255.54 745.387 1255.14 745.041C1257.7 742.259 1416.35 709.062 1430.88 706.018Z" fill="#91BFD6"/>
<path d="M1245.87 747.649L1245.73 748.877C1242.74 751.912 1213.14 768.017 1207.1 771.4L1072.94 845.309L1073.06 843.493C1078.66 839.634 1090.33 833.772 1096.64 830.281L1134.45 809.036C1170.75 788.887 1209.26 766.672 1245.87 747.649Z" fill="#91BFD6"/>
<path d="M1430.78 719.4C1431.11 719.508 1431.94 720.224 1432.27 720.48L1432.45 724.638C1429.33 728.645 1417.11 729.76 1411.42 730.744C1410.56 730.515 1410.41 730.284 1409.63 729.775C1409.43 725.974 1408.9 726.836 1410.74 724.163C1416 721.287 1424.56 720.47 1430.78 719.4Z" fill="#91BFD6"/>
<path d="M1658.29 745.484C1663.9 747.813 1673.75 751.128 1678.12 755.246C1680.08 757.095 1679.47 760.108 1679.43 762.93C1673.68 760.628 1664.62 757.53 1659.99 753.529C1657.6 751.463 1658.32 748.934 1658.29 745.484Z" fill="#91BFD6"/>
<path d="M1442.48 719.232C1449.43 720.401 1455.55 719.26 1461.45 722.321C1463.57 725.291 1462.89 724.818 1462.95 729.155C1456.16 728.555 1449.36 729.44 1443.77 726.585C1441.77 723.545 1442.46 723.564 1442.48 719.232Z" fill="#91BFD6"/>
<path d="M1246.66 760.929C1248 762.367 1247.69 764.107 1247.6 765.828C1244.65 770.437 1231.35 775.887 1225.77 778.463C1225.19 776.876 1225.22 775.972 1225.11 774.317C1227.08 769.372 1241.2 763.663 1246.66 760.929Z" fill="#91BFD6"/>
<path d="M1097.62 842.663C1099.03 844.151 1098.58 843.785 1098.86 846.317C1096.93 850.782 1085.53 855.798 1080.93 858.201C1079.8 856.917 1079.94 856.395 1079.5 854.587C1081.16 849.906 1092.47 845.343 1097.62 842.663Z" fill="#91BFD6"/>
<path d="M1124.84 827.511C1126.89 837.296 1118.27 838.013 1110.19 841.778C1108.66 840.446 1108.91 838.972 1109 837.24C1111.32 833.811 1120.7 829.599 1124.84 827.511Z" fill="#91BFD6"/>
<path d="M1271.81 753.129L1274.38 753.021C1275.34 754.795 1275.12 755.181 1274.88 757.301C1272.15 760.205 1264.56 761.149 1260.35 761.991C1258.74 762.363 1259.54 762.264 1257.77 761.772C1257.29 758.39 1256.92 759.303 1258.25 756.765C1261.49 754.521 1267.72 753.861 1271.81 753.129Z" fill="#91BFD6"/>
<path d="M1656.52 732.413C1661.74 732.364 1677.29 739.924 1679.82 744.807C1675.94 743.97 1658.4 736.04 1656.52 732.413Z" fill="#91BFD6"/>
</g>
<defs>
<clipPath id="clip0_87_1963">
<rect width="1820" height="1024" fill="white"/>
</clipPath>
</defs>
</svg>
