<svg width="1820" height="1024" viewBox="0 0 1820 1024" fill="none" xmlns="http://www.w3.org/2000/svg">
<g clip-path="url(#clip0_89_2397)">
<path d="M0 0H11.6702H270.126H281.044H620.49H634.991H747.085H765.043H1820V1024H1711.87H1702.62H1570.68H1552.58H1222.35H1203.24H1133.47H1114.33H771.561H746.292H600.095H589.926H463.918H454.053H390.547H378.51H83.0741H72.5983H0V817.447V799.041V627.273V617.357V452.254V425.477V288.722V249.586V2.22222V0Z" fill="#494F6A"/>
<path d="M765.043 0H1820V1024H1711.87C1712.17 1019.28 1712.1 1014.71 1712.04 1009.99C1710.8 874.849 1656.24 745.67 1560.25 650.567C1459.77 552.562 1336.91 499.619 1196.86 490.674C1175.68 489.321 1156.22 489.739 1135.04 490.018C1107.06 444.007 1074.98 382.67 1019.65 367.856C1038.87 344.656 1026.14 315.101 1002.28 302.423C974.144 287.473 942.716 296.938 934.507 329.477C930.028 332.644 922.161 337.13 920.913 342.245C921.657 349.231 928.151 346.707 924.977 356.436C919.493 373.244 920.53 379.176 939.208 379.882L945.739 393.819C936.418 404.227 923.597 414.664 911.771 421.752C906.215 425.082 890.601 435.638 884.782 433.623C881.018 432.32 880.505 433.835 876.64 436.318C870.574 436.482 862.831 432.929 857.416 430.88C840.88 425.374 832.868 419.733 826.345 403.199C824.122 397.567 820.261 391.121 813.259 391.407C810.571 392.854 809.925 393.497 808.175 395.997C799.104 372.789 773.855 338.015 758.45 317.63C790.589 209.741 793.236 108.877 765.043 0Z" fill="#F0F0EF"/>
<path d="M1141.65 499.7C1172.42 499.518 1199.39 500.099 1230.15 503.629C1353.78 517.179 1469.03 572.716 1556.68 660.977C1652.22 755.443 1701.97 883.94 1702.64 1017.57C1702.65 1019.71 1702.65 1021.86 1702.62 1024H1570.68C1498.08 980.087 1426.08 961.855 1341.44 961.742C1338.19 950.88 1335.33 932.345 1332.03 923.738C1313.67 875.806 1293.09 821.577 1257.3 783.853C1249.28 775.423 1259.85 775.296 1245.52 771.159C1230.64 744.896 1220.47 713.525 1209.86 685.291C1208.17 680.793 1201.06 661.194 1201.14 657.998C1201.74 632.788 1198.82 616.036 1192.78 591.488C1194.97 586.808 1203.9 590.608 1198.7 580.389C1183.53 550.613 1162.77 525.263 1141.65 499.7Z" fill="#F0F0EF"/>
<path d="M865.193 588.838C870.381 616.286 870.89 668.153 869.743 695.931C839.717 715.959 815.325 732.467 787.412 755.564C700.589 827.506 632.771 919.688 589.926 1024H463.918C436.786 915.124 382.791 823.555 298.94 748.901C306.378 746.062 318.043 741.218 325.389 739.207C458.902 779.206 602.871 764.029 725.115 697.069C756.402 679.645 785.725 658.907 812.579 635.212C818.529 629.963 825.087 624.14 830.552 618.399C841.34 607.063 852.786 598.306 865.193 588.838Z" fill="#F0F0EF"/>
<path d="M0 288.722C4.83612 283.648 10.0543 277.924 14.9891 273.036C87.4805 325.229 172.469 353.219 261.251 359.171C238.331 402.529 212.207 442.462 180.015 479.505C171.517 489.283 162.445 499.172 154.319 509.21C134.799 533.435 117.127 559.095 101.454 585.971C55.5418 535.21 25.1222 489.152 0 425.477V288.722Z" fill="#F0F0EF"/>
<path d="M288.917 752.474C377.015 829.689 422.989 911.816 454.053 1024H390.547C328.437 944.599 246.403 883.385 153.161 845.838C120.946 832.866 83.572 820.148 49.1846 815.523L49.8219 805.913C121.707 800.634 221.728 779.982 288.917 752.474Z" fill="#F0F0EF"/>
<path d="M48.9918 824.248C69.648 829.358 89.3461 834.037 109.692 840.531C212.946 873.492 311.338 938.281 378.51 1024H83.0741C58.3134 958.577 48.3409 894.044 48.9918 824.248Z" fill="#F0F0EF"/>
<path d="M600.095 1024C643.557 919.825 712.35 828.161 800.225 757.334C823.396 738.542 844.824 724.048 869.337 707.49C859.543 822.616 819.919 933.796 746.292 1024H600.095Z" fill="#F0F0EF"/>
<path d="M634.991 0H747.085C740.926 14.9748 736.014 33.4793 729.66 49.3131C705.326 109.947 677.591 152.012 635.383 201.295C627.461 195.359 613.255 187.099 604.471 181.972C538.811 143.64 467.472 125.149 392.014 120.012C407.653 115.999 422.796 114.057 439.213 109.494C496.038 93.7998 549.448 67.6682 596.716 32.4331C609.696 22.5899 622.755 10.7837 634.991 0Z" fill="#F0F0EF"/>
<path d="M0 2.22217C14.8136 16.7043 39.6115 34.3793 57.1517 45.8477C127.488 91.8363 196.338 115.005 279.669 124.708L278.923 124.954C274.841 126.27 270.606 127.024 266.418 127.923C250.878 131.256 235.257 134.723 220.069 139.427C142.728 162.874 72.1698 204.609 14.365 261.101C10.2822 257.865 3.68934 252.954 0 249.586V2.22217Z" fill="#F0F0EF"/>
<path d="M281.044 0H620.49C611.071 9.83438 590.194 25.4863 578.689 33.5605C504.401 85.6944 421.701 111.427 331.832 116.537C319.142 68.3513 307.654 42.1102 281.044 0Z" fill="#F0F0EF"/>
<path d="M11.6702 0H270.126C274.676 8.84266 283.988 22.9149 289.491 32.8446C305.735 62.1564 312.997 85.2268 322.449 116.692C240.897 119.933 136.847 86.0264 68.9283 41.8167C46.5557 27.2538 32.2949 14.6809 11.6702 0Z" fill="#F0F0EF"/>
<path d="M771.561 1024C898.965 958.785 1023.01 954.138 1156.8 1002.02C1146.07 1006.65 1124.66 1017.79 1114.33 1024H771.561Z" fill="#F0F0EF"/>
<path d="M1180.87 1002.54C1287.38 960.188 1409.18 960.268 1514.92 1005.6C1524.18 1009.56 1544.15 1018.85 1552.58 1024H1222.35C1208.05 1015.3 1196.22 1009.37 1180.87 1002.54Z" fill="#F0F0EF"/>
<path d="M0 817.447C13.1643 818.403 26.2587 820.154 39.2117 822.691C39.1365 879.709 43.559 930.318 59.9867 985.107C63.938 998.286 67.3996 1011.16 72.5983 1024H0L0 817.447Z" fill="#F0F0EF"/>
<path d="M0 627.273C25.2049 630.849 50.1857 635.858 74.8211 642.275C54.5617 691.447 44.3897 744.309 40.2625 797.174C26.8495 797.956 13.4277 798.578 0 799.041L0 627.273Z" fill="#F0F0EF"/>
<path d="M0 452.254C6.96536 465.002 13.276 478.096 20.1361 490.884C40.2807 528.436 67.9005 563.741 96.7531 594.937C90.0172 607.173 83.83 620.826 77.8259 633.534C47.9637 624.706 30.5947 621.969 0 617.357V452.254Z" fill="#F0F0EF"/>
<path d="M1169.11 1007.1C1180.77 1012.13 1192.17 1017.77 1203.24 1024H1133.47C1141.26 1019.49 1160.56 1009.77 1169.11 1007.1Z" fill="#F0F0EF"/>
<path d="M636.456 213.939C639.24 215.141 650.084 223.343 653.14 225.632C688.582 252.188 720.356 283.318 747.636 318.21C740.321 344.991 729.25 369.437 717.631 394.508C652.988 533.992 538.606 629.291 402.382 695.556C376.444 708.035 353.346 716.744 327.528 728.317C333.634 720.832 339.605 713.237 345.438 705.537C409.421 621.981 443.553 519.382 442.38 414.139C442.031 388.065 439.061 364.328 435.47 338.606C504.977 317.705 569.789 279.201 621.557 228.409C626.51 223.55 631.415 218.714 636.456 213.939Z" fill="#F0F0EF"/>
<path d="M754.711 328.827C762.81 336.844 794.206 385.832 798.223 396.713C789.053 401.551 797.241 413.148 797.593 420.459C798.388 436.988 826.089 447.889 830.633 457.925C846.986 494.044 858.242 539.066 864.286 578.178C845.41 589.284 830.759 605.627 815.097 620.262C736.086 694.091 632.75 738.869 525.39 749.347C501.17 751.71 477.344 751.669 453.175 751.035C410.094 748.809 380.422 743.311 338.443 733.471C349.2 728.662 361.548 724.234 372.592 719.583C388.983 712.559 405.146 705.016 421.057 696.966C579.239 617.269 698.45 499.504 754.711 328.827Z" fill="#F0F0EF"/>
<path d="M423.097 342.354L424.776 342.201C427.81 345.709 430.149 375.331 430.609 381.021C441.187 512.057 400.904 627.897 315.741 727.404C260.075 706.59 232.86 694.582 183.626 659.515C156.235 639.273 132.712 617.573 108.396 593.747C121.263 570.38 144.746 534.336 162.626 514.344C207.398 464.284 240.859 419.087 271.965 359.311C322.922 361.705 373.936 355.982 423.097 342.354Z" fill="#F0F0EF"/>
<path d="M1115.07 679.039C1117.75 681.641 1134.36 723.624 1137.94 731.391C1141.65 739.451 1145.81 747.301 1150.38 754.907C1156.09 764.557 1165.5 777.463 1170.14 786.786C1176.54 804.79 1191.5 809.599 1200.76 821.21C1221.09 846.679 1240.69 876.975 1258.85 903.977C1262.68 909.668 1275.41 932.197 1278.12 934.385C1280.61 934.178 1281.27 933.98 1283.64 934.599C1281.4 944.729 1259.59 949.09 1251.21 953.161C1246.74 955.335 1241.93 962.048 1241.47 967.062C1241.23 969.661 1241.93 970.703 1241.15 973.658C1236.07 975.797 1219.94 979.789 1213.61 981.669C1198.46 986.12 1183.56 991.347 1168.95 997.327L1160.33 993.598C1102.69 971.647 1054.68 961.697 992.552 960.783C993.557 953.931 993.994 946.332 992.137 939.622C994.313 934.077 995.841 929.3 997.465 923.565C1007.06 889.683 1017.45 855.999 1025.79 821.781C1027.91 813.104 1029.99 805.161 1031.3 796.28C1032.43 788.627 1028.98 778.855 1030.01 772.602C1032.86 771.575 1033.92 771.285 1036.47 769.467C1041.04 759.688 1032.76 757.17 1045.21 743.27C1066.63 719.352 1090.53 699.541 1115.07 679.039Z" fill="#F0F0EF"/>
<path d="M316.114 129.234C317.687 128.988 322.148 128.006 322.388 130.366C323.223 138.559 322.321 147.887 321.734 156.183C316.834 225.466 295.734 287.342 266.493 349.736C198.206 346.012 139.625 329.967 78.2943 300.399C57.7781 290.005 41.0452 279.242 21.6404 267.063C35.1128 255.053 48.7919 242.428 63.0687 231.439C136.549 174.976 224.04 139.639 316.114 129.234Z" fill="#F0F0EF"/>
<path d="M1015.29 596.226C1021.15 598.428 1026.44 599.869 1032.69 600.512C1033.93 604.39 1035.08 608.525 1036.25 612.449C1027.94 625.943 1017.45 640.377 1008.48 653.684C999.035 667.894 989.978 682.359 981.321 697.064C962.783 728.346 963.922 727.809 958.909 763.309C954.498 795.052 950.404 826.839 946.626 858.664C944.082 879.233 941.496 900.02 938.745 920.579C938.248 924.291 938.828 925.055 941.254 927.847L941.618 928.261C921.629 952.232 887.315 934.613 886.054 971.765C845.816 981.825 816.123 991.426 778.884 1009.88C773.195 1012.57 767.035 1016.15 761.466 1019.23C776.516 1000.76 790.589 978.398 802.352 957.721C848.199 878.318 874.782 789.264 879.964 697.717C890.263 688.988 904.925 678.751 916.043 670.402C935.442 655.646 955.002 641.103 974.72 626.775C984.95 626.688 1000.71 623.955 1005.84 614.203C1007.37 611.3 1006.72 609.303 1006.31 606.131C1010.26 602.427 1011.93 600.493 1015.29 596.226Z" fill="#F0F0EF"/>
<path d="M354.674 128.39C378.051 127.537 401.304 129.531 424.433 132.537C500.217 142.385 564.673 166.115 628.468 208.101C609.501 228.601 580.741 253.743 557.342 269.132C518.924 294.78 477.986 316.388 433.325 329.046C416.652 257.46 389.72 186.579 342.973 128.874L354.674 128.39Z" fill="#F0F0EF"/>
<path d="M84.3161 644.912C161.309 666.239 218.832 696.452 281.64 745.471C262.242 753.018 238.423 759.915 218.393 765.887C157.98 783.439 112.608 789.18 50.4575 796.786C54.1421 741.338 64.6085 696.453 84.3161 644.912Z" fill="#F0F0EF"/>
<path d="M982.692 372.867C1062.6 369.006 1091.58 441.131 1129.57 497.119C1145.67 520.838 1165.71 541.899 1180.35 566.716C1183.16 571.409 1186.07 576.061 1188.89 580.762C1151.17 582.72 1113.5 597.623 1086.23 623.989C1077.88 604.086 1067.64 583.036 1054.91 565.607C1027.31 527.817 1002.38 504.742 984.014 460.738C1002.82 484.693 1024.84 506.863 1052.2 520.887C1068.07 529.025 1082.41 535.212 1097.14 545.483C1112.23 555.999 1119.96 570.141 1132.34 582.112C1111.29 546.837 1094.09 534.086 1058.22 515.324C1041.5 506.574 1014.93 484.304 1003.1 469.592C1040.58 498.371 1070.27 513.923 1117.84 523.171L1121.32 521.33C1081.16 509.001 1050.07 495.536 1017.38 468.127C1008.72 460.866 1000.36 454.327 993.073 445.449C1013.54 452.723 1034.06 460.673 1055.67 463.98C1060.04 464.65 1084.61 468.241 1087.8 466.955C1083.75 465.899 1079.47 464.957 1075.34 464.309C1050.39 460.401 1027.97 451.076 1004.83 441.406C1030.81 433.265 1039.46 430.51 1059.43 410.282C1040.47 422.768 1030.58 426.918 1008.19 431.868C1015.56 411.276 1011.47 389.811 992.019 377.235C989.351 375.51 985.664 374.486 982.692 372.867Z" fill="#F0F0EF"/>
<path d="M1121.32 521.33C1125.93 522.663 1129.69 523.831 1134.2 525.481C1129.02 524.763 1122.92 524.063 1117.84 523.171L1121.32 521.33Z" fill="#6F7180"/>
<path d="M755.108 2.37354C755.393 2.64229 756.158 3.36894 756.273 3.77857C779.967 88.3775 780.676 180.53 761.921 266.247C758.901 280.048 755.121 293.589 751.524 307.115C737.132 291.246 725.273 277.732 710.08 262.283C685.555 239.069 670.864 226.427 643.578 206.69C699.263 142.024 731.227 84.5467 755.108 2.37354Z" fill="#F0F0EF"/>
<path d="M332.327 131.161C336.078 133.717 347.934 150.702 350.853 155.083C387.263 209.726 410.282 268.416 424.193 332.279C402.648 338.183 385.7 341.152 363.577 345.073C335.13 349.261 306.355 350.796 277.624 349.66C309.212 279.835 331.902 208.684 332.327 131.161Z" fill="#F0F0EF"/>
<path d="M1174.54 591.414L1182.47 590.621C1187.06 606.12 1190.27 619.261 1191.09 635.523C1191.87 641.227 1189.69 650.73 1191.09 656.043C1201.47 695.631 1216.88 733.96 1234.22 770.897C1232.46 770.407 1230.69 769.9 1228.94 769.375C1189.39 757.507 1161.8 726.66 1142.83 691.398C1161.39 710.248 1186.63 727.25 1210.84 737.783C1204.01 732.315 1195.16 726.817 1188 721.323C1166.23 704.602 1151.37 689.005 1140.03 664.138C1159.94 666.495 1171.08 666.917 1190.17 660.599C1176.42 658.135 1163.08 656.761 1149.15 653.812C1160.41 647.807 1172.02 642.5 1183.93 637.92C1173.68 638.125 1167.02 639.468 1157.15 641.878C1165.17 632.223 1170.69 622.493 1171.33 609.54C1171.44 607.345 1171.22 601.131 1169.71 599.524C1150.21 644.417 1138.86 645.313 1102.24 677.373C1082.47 693.042 1033.78 733.067 1026.88 755.937C1014.27 743.514 1003.69 738.753 987.979 730.769C993.545 714.553 999.448 711.973 1013.92 705.098C1057.66 684.321 1122.3 658.851 1149.82 616.19C1146.2 617.898 1134.75 629.809 1130.67 633.185C1094.8 662.91 1050.56 678.263 1007.29 694.16C1019.94 676.602 1032.49 659.333 1047.03 643.281C1055.75 633.65 1064.37 623.638 1072.62 613.619C1074.86 618.809 1079.35 630.928 1083.52 634.13C1085.11 634.398 1087.21 634.275 1088.49 633.155C1112.63 612.01 1142.56 596.007 1174.54 591.414Z" fill="#F0F0EF"/>
<path d="M999.602 527.443C1004.6 531.63 1019.73 560.25 1022.55 567.355C1007.94 566.818 1010.02 567.499 996.947 573.613C985.042 579.179 977.337 585.822 966.616 592.958C964.103 597.837 958.224 610.013 957.21 614.91C934.95 630.436 912.844 646.18 890.894 662.139L880.083 669.879C879.646 640.266 878.326 611.705 874.358 582.268C902.373 560.933 964.552 533.238 999.602 527.443Z" fill="#F0F0EF"/>
<path d="M966.694 455.95C968.194 457.278 970.338 466.033 970.971 468.559C975.732 487.562 984.815 502.105 994.696 518.852C947.776 530.414 913.538 545.745 873.145 571.617L869.565 554.449C864.177 525.538 855.027 495.292 845.544 467.469C860.659 479.164 871.857 483.418 889.703 489.607C911.907 482.088 945.929 466.534 966.694 455.95Z" fill="#F0F0EF"/>
<path d="M969.672 737.588C978.075 739.174 1024.2 754.771 1028.68 760.432C1026.33 762.711 1023.97 764.972 1021.58 767.216C1013.17 756.161 1009.03 754.235 996.716 748.492C1013.31 774.071 1028.03 771.044 1019.65 806.078C1009.52 848.437 996.956 889.668 985.368 931.617C978.935 929.936 972.304 927.923 965.894 926.067C960.742 924.577 955.563 923.182 950.36 921.882L976.615 757.281C995.495 773.441 1003.6 791.71 1012.26 813.916C1005.62 775.769 996.329 763.224 969.672 737.588Z" fill="#F0F0EF"/>
<path d="M973.597 378.745C976.886 378.759 979.797 379.125 982.864 380.387C992.573 384.381 998.543 393.905 1002.25 403.283C1004.41 408.739 1007.34 417.455 1004.46 423.124C998.372 435.136 906.841 473.539 889.832 479.483C860.797 469.501 842.835 456.708 821.027 434.756L825.365 427.987L825.884 427.385C828.696 426.753 830.782 428.946 833.422 430.524C845.999 438.039 858.704 442.483 873.057 445.55C870.917 451.179 869.431 458.234 867.989 464.161C871.924 458.909 875.935 452.154 879.47 446.497C881.036 458.638 881.728 466.191 885.857 477.607C886.541 468.32 886.026 457.031 886.154 447.387C890.381 453.075 896.762 457.918 902.264 462.42C899.207 455.801 895.012 449.732 891.034 443.614C910.187 433.715 930.2 421.876 945.729 406.687C956.166 396.478 960.814 386.639 973.597 378.745Z" fill="#F0F0EF"/>
<path d="M1174.16 752.658C1176.75 753.391 1190.1 762.507 1194.47 764.834C1211.91 774.114 1225.76 776.92 1244.71 781.051C1247.15 788.99 1249.53 790.087 1255.58 795.804C1262.16 821.297 1263.29 842.716 1258.85 868.605C1250.85 857.892 1243.27 846.748 1235.2 835.914C1222.25 817.733 1208.7 799.986 1194.57 782.7C1215.68 791.373 1227.29 791.626 1249.62 792.974C1215.49 782.17 1199.34 778.871 1174.16 752.658Z" fill="#F0F0EF"/>
<path d="M950.727 932.359C960.242 935.013 973.751 939.03 983.284 940.075C985.082 947.592 984.633 953.19 984.247 960.763C964.633 961.152 945.048 962.439 925.552 964.621C920.171 965.447 901.354 968.959 897.114 968.887C895.987 967.808 895.573 967.927 895.717 966.483C897.1 952.652 918.686 954.316 929.609 948.285C940.92 942.041 942.169 941.097 950.727 932.359Z" fill="#F0F0EF"/>
<path d="M104.08 602.413C106.147 604.193 108.934 607.114 110.852 609.167C134.348 634.311 161.232 653.817 188.382 674.678C184.151 672.802 179.868 670.759 175.657 668.812C149.439 654.901 116.505 644.004 87.9919 636.198C92.297 624.926 98.4463 613.117 104.08 602.413Z" fill="#F0F0EF"/>
<path d="M1298.78 937.718C1306.66 939.501 1317.1 938.888 1325.06 937.517L1331 961.301C1313.09 961.932 1296.33 963.965 1278.59 966.196C1269.31 967.551 1259.77 969.873 1250.65 971.096C1249.28 969.221 1249.71 969.835 1249.75 966.987C1253.88 957.774 1272.64 957.215 1278.64 953.186C1284.04 949.559 1292.88 942.085 1298.78 937.718Z" fill="#F0F0EF"/>
<path d="M958.805 309.066L959.961 309.858C961.283 315.155 952.912 333.439 958.356 341.564C964.919 343.97 965.436 338.247 972.92 336.508C976 337.44 974.879 336.755 977.119 339.235C978.186 345.649 966.017 356.347 961.158 360.526C956.704 364.356 950.874 366.52 945.382 368.488C940.743 369.385 935.237 370.853 930.894 368.819C927.171 363.702 934.473 356.4 934.013 351.902C933.173 343.682 935.032 350.503 936.375 344.521C933.891 344.516 933.333 344.525 930.924 344.017C933.314 336.832 942.933 335.989 948.623 328.13C948.81 324.431 948.131 324.804 945.599 321.01C950.092 314.666 952.083 312.99 958.805 309.066Z" fill="#F0F0EF"/>
<path d="M1260.16 802.188C1262.12 803.245 1262.92 804.381 1264.27 805.99C1290.09 836.776 1291.02 877.6 1286.2 916.196L1285.69 916.71C1283.9 915.678 1277.92 904.885 1276.37 902.28C1280.25 865.437 1273.35 835.962 1260.16 802.188Z" fill="#F0F0EF"/>
<path d="M1288.58 848.698C1295.22 855.673 1319.58 917.337 1322.77 928.53C1313.85 929.841 1308.82 929.852 1300.09 928.758C1302.03 899.338 1295.99 876.52 1288.58 848.698Z" fill="#F0F0EF"/>
<path d="M254.559 713.658C256.829 713.898 302.812 732.155 308.348 734.384L308.722 735.269L306.329 736.176L290.619 741.781C279.769 732.318 266.102 722.286 254.559 713.658Z" fill="#F0F0EF"/>
<path d="M810.024 399.695C816.638 404.283 820.311 411.962 824.198 418.868C820.858 422.006 817.683 425.305 814.477 428.58C812.32 427.011 810.048 425.005 807.981 423.275C805.717 418.215 802.286 406.5 799.789 400.025C804.004 404.015 809.162 408.061 813.685 411.783L810.024 399.695Z" fill="#F0F0EF"/>
<path d="M1014.64 577.028C1022.1 576.591 1029.43 581.351 1029.17 589.071L1027.11 589.307C1023.36 588.474 1015.83 588.171 1011.74 587.888C1011.27 583.807 1010.07 581.495 1011.36 578.359L1014.64 577.028Z" fill="#F0F0EF"/>
<path d="M986.985 587.695C990.454 585.561 994.775 583.12 998.893 583.479C1003.24 585.675 1005.17 588.355 1002.81 593.264C1000.41 595.205 1001.55 594.661 998.241 595.096C994.901 593.775 990.759 591.996 987.377 591.11L986.985 587.695Z" fill="#F0F0EF"/>
<path d="M964.099 367.175C964.747 367.837 964.451 367.522 964.442 368.957C962.357 372.334 955.097 382.037 951.78 383.299L947.831 375.566L964.099 367.175Z" fill="#F0F0EF"/>
<path d="M27.7162 807.629C32.5729 807.114 36.6882 805.816 40.0635 809.882C35.3143 813.039 27.4568 811.005 21.8861 810.108C18.1381 809.812 15.7735 809.533 12.0811 808.85L12.1012 808.284L27.7162 807.629Z" fill="#F0F0EF"/>
<path d="M968.827 606.473C975.407 596.557 977.612 595.251 986.985 587.695L987.377 591.11C975.855 596.25 978.84 600.79 968.827 606.473Z" fill="#F0F0EF"/>
<path d="M990.195 600.458C994.286 602.003 996.842 608.999 998.674 612.991C994.563 610.669 992.557 605.069 990.195 600.458Z" fill="#6F7180"/>
</g>
<defs>
<clipPath id="clip0_89_2397">
<rect width="1820" height="1024" fill="white"/>
</clipPath>
</defs>
</svg>
