<svg width="1820" height="1024" viewBox="0 0 1820 1024" fill="none" xmlns="http://www.w3.org/2000/svg">
<g clip-path="url(#clip0_85_1638)">
<path d="M90.6929 65.0463C100.645 63.9856 118.469 64.5788 129.062 64.6177L198.936 64.7346L452.824 64.7684L788.439 64.7753L886.718 64.7641C904.389 64.7488 922.119 64.5049 939.771 65.1116C948.814 65.4223 959.597 73.1954 960.573 82.5195C962.673 102.591 961.803 123.469 961.787 143.726L961.704 243.111L961.675 560.588L961.837 656.836C961.798 675.553 961.125 698.825 961.94 717.17C1000.1 732.02 1040.6 743.999 1079.15 757.95C1083.13 759.389 1098.65 763.949 1100.53 767.257C1096.91 779.268 1090.85 793.269 1086.2 805.199L1061.27 869.847L1039.23 927.924C1035.37 938.101 1031.28 949.707 1026.43 959.392C1023.51 965.212 1016.79 966.981 1010.96 968.551C995.698 964.816 982.245 959.205 967.225 954.417L967.051 969.205L1532.96 969.423C1520 965.851 1515.01 965.49 1507.03 954.224C1504.18 954.151 1501 954.351 1498.17 954.657C1289.57 977.161 1347.44 856.987 1442.82 751.793C1423.18 747.963 1403.52 742.731 1383.05 738.852C1380.42 802.469 1335.19 873.385 1304.38 929.012C1305.45 934.117 1310.35 958.286 1303.53 962.522C1301.26 963.928 1288.84 964.677 1285.62 964.348C1269.65 962.725 1210.68 961.3 1201.39 950.247C1197.87 938.592 1219.52 932.594 1227.94 929.566C1239.61 925.369 1251.91 921.848 1263.82 918.335C1259.36 916.541 1254.65 915.333 1252.65 910.946C1252.74 906.622 1262.7 869.009 1264.29 863.053C1279.8 805.15 1293.95 742.082 1315.01 686.09C1304.8 683.443 1252.28 668.372 1248.19 662.155C1243.4 654.866 1240.42 645.592 1237.09 637.535C1231.08 623.095 1225.2 608.601 1219.45 594.057C1217.07 588.048 1213.76 581.964 1211.89 575.843C1211.31 573.952 1211.15 572.295 1211.62 570.355C1211.9 569.171 1213.15 567.796 1214.21 567.26C1219.65 564.519 1282.24 586.211 1292.6 589.564C1298.12 598.711 1308.55 626.602 1312.72 637.249C1325.74 628.817 1340.75 626.107 1353.48 619.964C1360.05 616.796 1377.5 604.072 1384.5 599.242C1400.8 587.889 1417.51 577.112 1434.57 566.933C1444.11 533.496 1457.68 496.579 1479.49 469.122L1474.56 456.384C1450.53 467.267 1447.65 454.381 1436.17 436.223C1435.83 435.684 1431.95 434.959 1430.16 431.859C1429.91 428.787 1432.78 423.992 1434.28 421.009L1430.39 408.521L1429.94 408.225C1402.56 389.892 1411.64 364.44 1438.04 361.663C1442.99 359.34 1449.68 354.924 1454.42 352.735C1485.45 338.406 1514.04 346.837 1528.43 377.743C1551.63 364.031 1577.51 370.955 1583.69 398.405C1584.95 404.001 1586.86 413.994 1590.12 418.548C1599.07 431.046 1612.37 421.312 1621.38 415.136C1617.15 441.785 1597.9 455.852 1570.31 452.007C1532.45 446.734 1544.69 415.2 1531.47 397.042C1528.04 414.784 1526.13 418.044 1512.17 429.793C1513.92 434.229 1517.76 445.518 1520.95 448.135C1529 449.656 1535.23 455.551 1541.24 461.2C1605 521.084 1623.7 619.271 1626.84 703.084C1633.53 703.048 1640.21 703.226 1646.88 703.617C1669.07 704.908 1719.88 708.875 1737.42 725.565C1742.92 730.8 1740.77 755.987 1739.97 764.62C1751.13 768.185 1759.1 771.567 1765.38 781.559C1765.59 793.201 1765.45 805.325 1765.47 817.007C1759.41 827.509 1750.54 830.166 1739.63 833.641C1738.94 851.155 1743.79 856.68 1728.94 868.391C1728.63 877.889 1728.82 887.542 1728.91 897.055C1738.95 900.84 1744.06 902.676 1750.78 911.29C1751.54 921.068 1750.84 939.788 1750.74 950.222C1740.41 964.926 1728.15 964.559 1711.95 969.609C1720.04 969.937 1728.26 969.781 1736.36 969.777C1740.99 969.774 1760.17 967.273 1758.64 975.14C1751.85 980.561 1637.99 976.417 1621.06 978.169C1610.11 979.303 1584.1 976.963 1572.06 976.896L1413.7 977.135L83.2635 977.391C79.87 977.359 76.4948 977.367 73.3893 975.927C71.0684 970.618 72.0763 843.291 72.0672 829.461L72.6259 354.08L72.7502 186.353C72.7005 155.602 72.3619 124.845 72.5261 94.0978C72.602 79.8709 77.7809 70.8865 90.6929 65.0463Z" fill="#004B9B"/>
<path d="M90.6532 73.8044C101.99 72.6434 118.361 73.0717 130.064 73.1071L194.159 73.2477L414.565 73.1672L797.877 73.1484L891.039 73.1294C907.901 73.0587 926.916 72.4764 943.629 72.9567C945.834 74.5896 949.34 77.0384 951.219 78.8621C955.281 89.8394 953.645 137.812 953.642 152.733L953.514 287.314L953.418 651.695L953.304 714.268C894.425 694.098 835.747 673.344 777.279 652.009C773.974 649.516 753.22 643.284 747.82 641.128C740.273 638.842 732.149 633.829 724.835 631.466C717.094 628.964 710.74 646.73 709.905 651.526C703.872 649.375 600.383 650.947 586.255 650.925L80.6953 650.653C82.2086 639.466 81.6464 617.67 81.6261 605.664L81.4248 524.784L81.2921 194.473L80.9961 122.297C80.9263 110.931 80.4703 97.6415 81.4977 86.3492C81.9827 81.0186 86.6727 76.978 90.6532 73.8044Z" fill="#004B9B"/>
<path d="M777.279 652.009C784.553 651.112 796.64 651.419 804.313 651.391L850.98 651.258L917.2 651.23C927.746 651.258 943.187 650.928 953.418 651.695L953.304 714.268C894.425 694.098 835.747 673.344 777.279 652.009Z" fill="white"/>
<path d="M310.355 153.339L933.025 153.633L932.998 627.4L724.104 627.53L100.82 627.502C99.9531 609.555 100.508 586.985 100.495 568.827L100.457 462.538L100.825 153.511L310.355 153.339Z" fill="white"/>
<path d="M696.636 209.816C708.511 209.778 779.27 207.952 784.216 212.125C786.888 219.214 785.509 254.841 785.564 264.85L785.673 410.415L785.744 506.581C785.732 522.032 786.328 544.134 785.313 559.126C783.936 561.321 783.711 561.303 781.219 562.367C769.957 562.447 702.573 563.987 695.73 560.596C695.636 560.207 695.551 559.817 695.476 559.424C693.854 551.047 694.403 528.484 694.434 518.721L694.56 448.153C694.255 395.424 694.26 342.693 694.575 289.964C694.591 266.011 694.421 241.993 694.545 218.04C694.562 214.739 694.752 212.567 696.636 209.816Z" fill="#004B9B"/>
<path d="M712.544 404.879C733.805 404.24 756.052 404.898 777.47 404.714L777.69 503.851C777.693 515.898 778.369 542.438 777.207 553.425C775.095 555.009 772.174 554.535 769.322 554.505L702.302 554.534C700.931 506.902 702.074 453.427 702.035 405.337L712.544 404.879Z" fill="#004B9B"/>
<path d="M702.858 304.297L777.573 304.306C777.584 314.545 778.493 393.298 776.383 396.014L702.742 396.155L702.858 304.297Z" fill="white"/>
<path d="M702.599 217.935L777.607 217.73L777.584 296.167L702.432 296.168C702.625 270.091 702.681 244.013 702.599 217.935Z" fill="white"/>
<path d="M808.896 209.814C820.975 209.788 889.601 208.814 896.482 211.09C899.905 220.034 898.461 290.773 898.464 305.348L898.436 457.489L898.515 526.156C898.525 536.292 898.791 547.526 898.079 557.648C897.88 560.469 896.266 560.946 893.974 562.597C866.974 562.296 837.335 563.965 810.593 561.257C809.633 561.159 807.983 559.646 807.972 558.597C806.717 445.752 807.648 332.617 807.415 219.681C807.408 215.934 807.364 212.931 808.896 209.814Z" fill="#004B9B"/>
<path d="M815.943 350.347L889.594 350.448C891.563 407.994 889.616 466.286 890.128 523.91C890.218 533.972 890.081 544.32 889.663 554.368C865.886 555.091 839.624 554.679 815.827 554.366L815.943 350.347Z" fill="#004B9B"/>
<path d="M815.867 264.224C840.225 263.816 865.298 264.064 889.711 264.038L889.718 343.005L815.982 343.072L815.867 264.224Z" fill="white"/>
<path d="M815.818 217.84L889.671 217.861L889.63 256.063L815.829 256.2L815.818 217.84Z" fill="white"/>
<path d="M582.847 209.834C595.827 209.83 662.96 208.585 670.884 211.581C672.391 214.109 672.526 218.302 672.52 221.263C672.356 302.898 672.292 384.594 672.257 466.224C672.198 485.291 672.241 504.359 672.387 523.425C672.432 531.181 673.035 554.54 671.545 560.721C665.078 563.125 588.314 563.471 582.474 560.827C580.638 550.153 581.231 529.6 581.232 518.123L581.277 446.352C581.329 370.46 581.192 294.482 581.292 218.586C581.296 215.381 581.198 212.601 582.847 209.834Z" fill="#004B9B"/>
<path d="M588.816 217.935C613.478 217.507 639.165 217.836 663.91 217.8L663.965 296.224L588.791 296.13L588.816 217.935Z" fill="white"/>
<path d="M588.554 370.81L663.886 370.759C664.021 391.054 663.997 411.35 663.815 431.644C638.841 431.841 613.867 431.826 588.894 431.599L588.554 370.81Z" fill="white"/>
<path d="M588.722 304.185C613.325 303.713 639.243 304.113 663.948 304.109C663.922 323.668 664.077 343.228 664.412 362.785C639.511 363.13 613.716 362.748 588.747 362.704C588.387 343.531 588.707 323.429 588.722 304.185Z" fill="white"/>
<path d="M588.485 439.873C613.58 439.996 638.676 439.954 663.771 439.747C663.876 458.693 663.869 477.64 663.75 496.587L588.541 496.71L588.485 439.873Z" fill="white"/>
<path d="M588.624 504.774L663.873 504.477L663.858 553.793L588.952 553.902L588.624 504.774Z" fill="white"/>
<path d="M216.02 204.364C261.32 199.072 302.279 231.653 307.325 276.992C312.37 322.332 279.577 363.124 234.222 367.926C189.212 372.691 148.807 340.194 143.8 295.199C138.793 250.204 171.064 209.615 216.02 204.364Z" fill="#004B9B"/>
<path d="M224.395 211.917C236.665 212.053 244.474 214.072 255.672 218.569L225.919 288.233C215.895 292.671 185.531 311.162 174.661 317.478C170.515 319.854 165.936 322.841 161.823 325.388C155.306 314.283 151.391 303.875 150.454 290.911C148.947 271.526 155.337 252.354 168.172 237.752C183.566 220.056 201.689 213.529 224.395 211.917Z" fill="white"/>
<path d="M227.336 295.898C232.767 296 280.786 322.088 289.303 326.461C287.422 329.014 285.493 331.533 283.518 334.015C269.839 350.956 251.952 357.736 231.047 360C227.257 360.084 223.465 359.992 219.684 359.723C197.787 358.025 180.329 347.151 166.359 330.794C186.494 319.62 207.689 306.318 227.336 295.898Z" fill="#C4D6E6"/>
<path d="M262.34 221.743C282.42 234.28 292.211 248.156 298.968 270.495C288.01 273.311 277.028 276.035 266.024 278.667C255.781 281.068 245.559 283.562 235.361 286.15C243.638 264.632 253.736 243.279 262.34 221.743Z" fill="#004B9B"/>
<path d="M298.837 278.419L299.666 278.544C304.371 286.392 296.785 312.014 292.959 320.597C282.283 313.958 271.81 308.539 260.695 302.706L240.096 292.365C259.722 287.912 279.304 283.263 298.837 278.419Z" fill="#C4D6E6"/>
<path d="M419.926 205.372C464.594 198.643 506.244 229.446 512.903 274.135C519.562 318.824 488.702 360.437 444.014 367.028C399.423 373.606 357.93 342.82 351.286 298.229C344.642 253.637 375.356 212.087 419.926 205.372Z" fill="#004B9B"/>
<path d="M420.606 213.592C437.34 211.885 446.877 213.661 462.458 219.41C453.531 237.985 442.215 268.737 434.36 288.558L389.058 313.792C382.721 316.783 374.479 321.523 368.142 324.919C362.976 316.048 359.645 308.939 357.991 298.656C354.984 278.935 359.881 258.823 371.618 242.694C383.606 226.33 400.732 216.729 420.606 213.592Z" fill="white"/>
<path d="M437.556 295.948C442.917 297.774 482.426 327.768 490.022 333.29C488.049 335.437 486.026 337.536 483.953 339.587C468.394 354.719 448.505 359.185 427.466 358.926C402.813 356.046 389.617 349.204 372.651 331.046L437.556 295.948Z" fill="#C4D6E6"/>
<path d="M468.735 222.591C487.909 232.859 497.968 249.734 505.045 269.548C494.079 272.565 483.089 275.498 472.078 278.347C462.807 281.022 453.628 282.59 443.504 285.658C452.262 266.263 461.249 242.527 468.735 222.591Z" fill="#004B9B"/>
<path d="M503.478 277.37C504.829 277.201 504.55 277.347 506.008 277.842C512.156 290.249 501.607 316.122 494.711 327.229L470.552 310.091C462.778 304.254 455.037 298.375 447.328 292.453C466.142 287.794 484.862 282.766 503.478 277.37Z" fill="#C4D6E6"/>
<path d="M149.867 550.625C180.341 549.87 212.128 550.244 242.659 550.227L398.567 550.179L464.814 550.143C471.481 550.144 494.501 548.271 497.669 553.588C497.274 556.128 496.75 556.32 494.773 558.217L242.35 558.223C230.827 558.224 154.958 559.665 149.545 557.507C147.227 556.583 146.959 556.173 146.067 554.003C147.598 551.448 146.87 552.338 149.867 550.625Z" fill="#004B9B"/>
<path d="M147.888 418.746C177.897 417.492 215.608 418.651 246.568 418.648C326.692 418.996 406.818 418.88 486.941 418.299C490.424 418.247 493.904 418.05 496.488 420.547C497.356 423.645 497.086 422.766 495.913 426.258C487.41 427.087 465.363 426.525 456.251 426.522L376.743 426.508L174.711 426.407C168.12 426.365 151.65 428.618 147.504 424.444C146.604 421.373 146.894 422.209 147.888 418.746Z" fill="#004B9B"/>
<path d="M148.968 506.04L394.866 505.917C406.387 505.916 489.467 504.433 495.384 506.787C497.299 507.548 497.341 507.844 498.145 509.614C497.561 511.449 496.532 511.961 494.998 513.158L242.685 513.517L179.792 513.743C173.034 513.779 149.602 515.751 146.216 510.446C146.614 508.061 147.142 507.843 148.968 506.04Z" fill="#004B9B"/>
<path d="M147.645 462.256C220.468 460.908 297.643 462.108 370.908 462.09L456.007 462.133C467.795 462.14 479.747 462.114 491.559 461.826C494.188 461.762 495.421 462.661 497.13 464.183C497.45 467.438 497.615 466.109 496.011 469.389L250.594 469.536L180.507 469.494C173.52 469.538 152.433 472.022 147.708 468.23C146.417 465.417 146.92 465.884 147.645 462.256Z" fill="#004B9B"/>
<path d="M134.307 109.37C172.296 107.607 211.933 109.979 250.084 109.077C253.827 108.989 257.016 108.855 259.947 111.206C260.72 113.899 260.257 114.621 259.277 117.305C226.215 117.671 170.787 117.697 135.839 116.901C135.132 116.221 134.525 115.637 134.016 115.148C133.195 112.598 133.564 112.096 134.307 109.37Z" fill="white"/>
<path d="M867.285 97.4112C874.863 94.9221 883.02 99.0658 885.481 106.654C887.942 114.243 883.77 122.387 876.175 124.822C868.618 127.244 860.526 123.097 858.077 115.547C855.629 107.997 859.746 99.8876 867.285 97.4112Z" fill="white"/>
<path d="M764.465 97.4286C771.936 94.6264 780.261 98.4366 783.024 105.924C785.788 113.41 781.937 121.718 774.438 124.444C766.992 127.151 758.759 123.333 756.015 115.899C753.271 108.465 757.047 100.211 764.465 97.4286Z" fill="white"/>
<path d="M815.778 97.3707C820.724 95.7397 826.164 96.9083 830.004 100.426C833.844 103.944 835.484 109.263 834.292 114.333C833.101 119.403 829.264 123.434 824.259 124.873C816.726 127.039 808.844 122.775 806.534 115.282C804.223 107.79 808.334 99.8259 815.778 97.3707Z" fill="white"/>
<path d="M80.6952 650.653L586.255 650.925C600.383 650.947 703.872 649.375 709.905 651.526C702.708 667.378 694.069 691.448 687.71 708.054L652.747 798.172C636.406 839.822 643.671 842.318 683.885 856.091C698.753 861.108 713.584 866.237 728.376 871.477L882.032 924.907C907.102 933.556 934.262 942.324 958.851 951.76L958.587 969.215C934.057 970.224 902.917 969.301 877.91 969.269L714.945 969.146L169.587 969.334L169.735 779.684C173.91 779.208 187.215 777.752 190.795 781.784C206.716 799.714 222.991 821.676 238.236 840.559C238.74 841.934 238.807 846.798 239.288 847.96C243.325 857.723 257.165 845.245 261.958 842.741C269.8 838.645 301.08 819.008 308.491 822.26C328.736 831.142 349.836 841.468 369.274 851.777C373.962 864.3 381.192 861.551 387.066 851.761C398.764 844.973 438.675 822.343 450.457 822.812C451.512 823.535 452.111 824.168 452.78 825.258C456.506 831.328 479.878 883.181 478.676 887.732C478.278 889.24 477.895 890.754 477.477 892.258C478.35 897.466 482.153 899.889 487.339 899.677C490.265 899.752 491.75 894.435 493.869 893.745C513.666 887.299 534.232 883.167 554.15 876.982C560.646 874.965 575.502 877.561 575.415 866.511C573.117 862.169 566.937 858.584 562.149 861.216C560.641 862.045 559.144 865.286 558.343 866.877C553.978 869.907 507.616 881.416 499.412 884.04C495.682 885.232 488.188 885.353 486.398 882.234C477.009 865.489 471.781 845.914 463.107 828.561C459.831 822.008 461.045 810.45 454.427 806.304C448.523 805.83 445.511 808.143 443.405 813.388L443.087 814.197C369.121 856.139 383.212 849.138 311.646 814.839C310.78 812.709 306.869 804.591 303.546 807.17C288.463 818.878 268.85 833.996 249.625 837.096C244.279 837.958 239.194 829.166 236.043 825.708C223.245 809.472 209.599 793.675 197.854 776.662C197.259 775.8 198.986 770.318 195.943 766.876C187.323 761.846 183.997 770.168 169.719 771.805L169.691 741.991C185.645 748.831 201.708 757.108 217.404 764.53C220.006 765.761 218.243 770.561 225.511 772.415C233.134 769.66 241.754 757.491 249.01 753.159C261.505 745.698 290.026 716.381 303.564 718.11C325.952 740.213 346.682 764.869 368.91 787.211C369.865 788.17 368.595 794.755 374.231 796.362C381.693 798.489 383.815 789.157 388.569 784.95C395.423 778.1 427.048 742.382 435.551 744.614C448.529 760.233 469.876 798.313 483.026 816.727C482.984 818.884 482.947 820.719 482.917 822.231C485.094 827.305 488.617 829.355 494.135 828.329C500.385 827.168 499.879 819.579 500.71 818.813C519.946 801.093 538.76 782.889 557.93 765.098C562.779 760.604 571.626 760.332 574.945 753.781C575.944 748.305 572.12 745.459 567.434 744.008C562.956 744.6 555.213 757.273 551.263 760.94C534.109 776.866 517.54 794.062 499.476 808.91C496.889 811.037 493.226 811.726 489.97 811.795C482.947 806.311 449.419 750.971 442.266 738.841C442.643 739.481 442.216 733.496 441.702 732.075C439.554 729.532 433.959 725.854 431.683 728.734C417.109 747.174 398.29 765.751 380.174 780.937C378.418 780.702 373.972 781.159 373.428 780.61C351.954 758.94 331.075 736.688 310.423 714.19C307.959 711.505 308.356 697.19 295.97 702.045C292.523 703.396 292.494 707.629 291.384 711.073C273.784 726.091 248.126 746.021 228.014 756.961C221.342 760.591 178.322 737.368 169.655 733.032L169.638 685.755L184.7 685.514C178.538 678.244 171.557 668.035 165.905 660.106C160.201 666.685 152.198 678.168 146.443 685.517L161.773 685.673C161.828 691.334 162.921 726.278 160.729 728.357L159.951 727.677C145.742 715.362 145.141 734.91 142.036 739.14C120.786 768.09 102.042 800.113 80.2264 828.527C80.7724 770.294 78.9658 708.354 80.6952 650.653Z" fill="white"/>
<path d="M301.966 876.502C311.229 878.1 308.302 881.482 310.936 883.213C328.882 894.927 355.33 907.152 374.572 915.652C385.052 920.281 434.701 890.558 443.962 883.696C448.043 884.629 475.398 921.887 484.068 924.361C492.524 926.774 510.588 917.847 516.875 913.611C528.286 905.921 531.52 895.382 538.522 913.992C539.995 917.382 564.612 931.982 568.69 934.853C568.402 934.65 575.08 934.547 575.804 934.554C586.944 939.421 578.835 954.254 570.269 947.398C558.379 937.884 546.624 927.683 532.785 921.026C524.926 917.244 517.268 922.517 509.952 925.767C506.154 927.28 499.613 929.732 496.416 931.946C492.357 934.757 489.842 937.77 485.192 940.153C479.458 940.149 477.912 935.59 477.585 930.581C468.957 921.538 460.431 912.011 450.855 903.963C446.823 900.575 443.694 900.246 438.906 898.398C422.612 906.086 406.313 913.764 389.994 921.394C387.545 922.539 381.586 932.334 378.653 930.618C373.601 928.049 365.513 920.082 360.49 917.969C348.661 912.993 308.589 888.764 297.503 893.209C281.968 899.436 261.583 911.928 247.02 920.139C244.41 925.932 238.344 932.469 232.207 926.567C230.505 924.908 229.536 922.638 229.516 920.261C229.49 912.188 237.198 913.656 242.172 913.832C257.035 904.663 282.841 894.153 296.198 882.012C298.959 879.503 296.645 879.328 301.966 876.502Z" fill="#004B9B"/>
<path d="M722.549 639.846C806.58 670.547 890.896 700.458 975.488 729.575L1038.37 751.422C1055.92 757.358 1075.9 763.607 1092.76 770.781C1086.09 784.893 1080.47 800.515 1074.75 815.028C1062.98 844.718 1051.62 874.569 1040.68 904.574C1037.01 914.351 1023.83 951.299 1019 957.911C1012.53 961.742 1005.82 960.269 998.994 958.008C967.18 947.472 935.63 936.328 904.018 925.206C852.991 907.788 802.088 890.006 751.315 871.86L680.591 847.397C674.187 845.121 665.371 842.536 659.526 839.475C653.225 836.176 649.813 826.997 652.191 820.332C657.531 805.368 663.343 790.75 669.037 775.983C679.859 747.373 690.975 718.875 702.382 690.493C705.978 681.394 718.591 646.213 722.549 639.846Z" fill="#004B9B"/>
<path d="M713.377 678.549C721.251 680.025 738.384 686.775 746.56 689.756C766.388 697.094 786.286 704.242 806.252 711.198L1072.03 803.486C1069.4 814.767 1054.33 852.308 1049.28 864.979C1043.2 880.203 1022.28 942.549 1015 952.418C1008.25 956.12 1004.35 955.503 997.052 953.196C985.93 949.682 975.168 945.075 964.149 941.249L866.552 907.128C816.229 890.259 766.079 872.881 716.107 854.999C700.065 849.166 683.961 843.538 667.957 837.602C660.899 835.377 655.919 828.051 657.817 820.585C660.477 811.128 664.211 801.7 667.991 792.624C683.559 755.241 696.442 715.178 713.377 678.549Z" fill="#004B9B"/>
<path d="M717.526 687.675C729.714 691.406 746.146 698 758.696 702.453L857.139 737.47L1063.53 808.327C1057.11 824.096 1016.02 940.48 1009.99 947.567C1006.21 948.368 1005.18 948.438 1001.36 947.185C955.367 932.101 910.053 914.926 864.221 899.361C816.807 883.458 769.572 867.03 722.523 850.08C709.125 845.242 675.627 834.117 665.069 827.812C664.011 817.302 685.929 766.664 690.794 754.05C698.661 733.654 708.38 707.506 717.526 687.675Z" fill="white"/>
<path d="M750.624 731.522C775.442 727.312 798.967 744.045 803.138 768.875C807.31 793.706 790.546 817.211 765.715 821.346C740.937 825.472 717.5 808.748 713.337 783.97C709.174 759.192 725.859 735.724 750.624 731.522Z" fill="#004B9B"/>
<path d="M751.165 739.562C771.4 735.628 791.005 748.802 795.014 769.027C799.023 789.252 785.925 808.911 765.72 812.997C745.408 817.104 725.626 803.919 721.596 783.586C717.566 763.253 730.822 743.516 751.165 739.562Z" fill="#004B9B"/>
<path d="M819.651 810.082C827.074 811.019 984.188 865.283 991.061 869.236C992.214 871.827 991.562 872.091 990.821 875.315C984.257 874.541 822.549 818.763 819.202 816.542C818.282 813.68 818.906 813.368 819.651 810.082Z" fill="#004B9B"/>
<path d="M829.651 782.584C834.425 783.39 918.933 813.906 920.686 815.499C921.394 818.609 920.886 818.182 919.287 821.726C907.629 817.733 833.886 792.341 828.03 788.271C827.542 785.426 828.117 785.558 829.651 782.584Z" fill="#004B9B"/>
<path d="M943.348 822.7C948.413 822.923 978.266 833.05 982.977 835.84C984.357 838.664 983.803 838.361 983.22 842.053C978.439 841.714 947.782 831.724 943.577 829.345C942.248 826.133 942.763 826.599 943.348 822.7Z" fill="#004B9B"/>
<path d="M726.809 648.333C729.295 648.828 740.107 653.029 743.125 654.141C753.54 657.969 763.982 661.724 774.45 665.406C814.552 679.143 854.553 693.172 894.45 707.494L1029.29 754.591C1047.49 761.016 1065.75 765.788 1083.51 773.494C1084.9 777.913 1077.82 790.137 1075.3 794.061C1057.41 789.097 1034.22 780.481 1016.55 774.311L922.993 741.716L771.921 689.466C753.919 683.114 735.406 677.14 717.62 670.311C719.362 664.555 724.234 654.203 726.809 648.333Z" fill="#004B9B"/>
<path d="M730.581 657.409C761.374 669.588 797.527 681.135 829.114 692.135L989.31 748.01C1000.3 751.787 1068.63 773.957 1074.04 777.994C1074.57 781.049 1073.55 782.042 1072.29 785.335C1049.49 776.634 1021.99 768.733 998.421 760.282C908.673 728.099 816.664 698.712 727.296 665.6L730.581 657.409Z" fill="white"/>
<path d="M1498.03 710.817C1499.34 711.142 1498.72 710.929 1499.86 712.025C1500.5 717.869 1499.81 726.101 1499.48 732.191C1501.79 733.327 1504.18 734.298 1506.63 735.098C1543.67 746.893 1583.88 743.411 1618.35 725.425C1597.25 770.816 1553.38 795.296 1516.31 826.107C1504.68 834.582 1492.94 847.125 1480.76 854.391C1473.22 858.889 1431.89 858.117 1430.03 867.615C1435.29 872.906 1454.41 866.996 1462.78 865.531C1506.12 857.949 1556.21 863.248 1596.84 880.009L1603.85 883.31C1599.32 900.088 1593.9 915.601 1589.48 932.848C1540.44 943.009 1480 951.127 1429.99 948.883C1410.44 947.3 1386.03 941.899 1372.91 926.438C1353.81 903.949 1368.3 873.334 1380.42 850.674C1409.49 796.323 1450.27 749.698 1498.03 710.817Z" fill="#004B9B"/>
<path d="M1377.42 661.86C1382.49 661.817 1380.82 662.621 1383.82 664.282C1387.17 665.428 1394.05 664.928 1397.58 664.526C1412.68 662.805 1426.21 664.649 1441.28 666.094C1453.45 667.219 1465.63 668.18 1477.83 668.977C1483.68 682.588 1486.56 684.446 1500.81 687.891C1500.67 692.585 1501.38 698.172 1500.16 702.619C1497.91 704.724 1496.15 705.01 1493.18 705.688C1484.32 707.704 1455.91 737.843 1448.22 745.601C1424.27 740.564 1403.72 734.075 1378.93 731.249C1375.55 727.156 1372.7 724.203 1367.91 721.904C1365.35 722.247 1366.3 721.885 1364.21 724.112C1363.61 729.412 1372.8 735.87 1375.98 742.01C1372.03 786.599 1347.62 834.645 1326.7 873.324C1317.71 889.059 1309.12 905.023 1300.94 921.199C1288.29 918.233 1272.63 913.592 1260.37 909.391C1260.54 908.48 1260.74 907.574 1260.96 906.672C1267.02 881.867 1313.41 697.88 1323.02 690.028C1327.05 686.74 1409.81 694.249 1419.63 687.97C1420.26 687.569 1420.34 686.065 1420.51 685.324C1417.74 675.542 1383.64 670.471 1376.36 663.643L1377.42 661.86Z" fill="#004B9B"/>
<path d="M1540.2 471.55C1541.06 472.131 1542.13 472.917 1542.86 473.642C1601.69 532.243 1618.62 635.872 1619.63 715.126C1600.69 729.834 1578.09 733.771 1554.71 734.185C1538.78 733.939 1522.95 731.595 1507.63 727.213C1508.42 693.663 1509.58 664.551 1503.32 631.303C1533.13 608.83 1568.23 551.351 1557.24 510.3C1554.22 499.037 1539.52 493.353 1529.42 489.197C1537.14 482.863 1537.72 480.971 1540.2 471.55Z" fill="#004B9B"/>
<path d="M160.857 784.465C162.272 786.194 161.674 951.697 161.606 969.274C134.776 969.62 107.943 969.693 81.1109 969.492C79.065 962.711 80.5879 873.938 80.5025 859.776C82.3863 857.903 84.2085 855.697 86.1175 853.904C107.893 833.447 130.316 805.143 153.256 786.699C156.785 786.539 157.824 786.493 160.857 784.465Z" fill="white"/>
<path d="M1529.37 498.522C1540.28 498.793 1550.71 507.49 1551.72 518.589C1554.96 554.096 1528.01 605.162 1499.34 625.096C1477.48 640.29 1432.33 651.696 1405.67 655.648C1400.03 656.261 1394.4 656.981 1388.78 657.808C1386.96 651.385 1384.39 644.934 1382.05 638.665C1408.08 631.224 1445.66 621.133 1465.49 602.582C1487.61 581.896 1495.06 543.485 1514.31 519.728C1519.47 513.354 1523.87 505.269 1529.37 498.522Z" fill="#004B9B"/>
<path d="M1477.47 353.147C1489.74 350.97 1504.78 358.052 1513.1 366.831C1520.57 374.857 1524.56 385.51 1524.21 396.469C1523.72 411.709 1514.72 425.029 1498.18 425.563C1492.94 425.732 1499.07 410.906 1493.46 406.837C1488.03 402.893 1488.81 403.297 1481.84 403.319C1472.53 411.238 1470.74 411.278 1462.7 401.937C1458.82 404.264 1455.75 405.726 1451.65 407.657C1438.89 405.212 1421.93 399.096 1420.27 384.327C1418.82 371.442 1433.98 369.668 1442.58 369.07C1454.42 359.718 1462.42 355.502 1477.47 353.147Z" fill="#004B9B"/>
<path d="M1219.23 574.547C1222.06 574.947 1224.76 575.927 1227.46 576.834C1246.27 583.146 1265.33 588.755 1284.08 595.257C1295.65 620.575 1306.8 655.049 1319.35 678.713C1316.94 678.408 1314.65 677.681 1312.35 676.943C1293.02 670.75 1273.36 665.443 1254.2 658.719C1243.05 634.846 1229.81 599.74 1219.23 574.547Z" fill="#004B9B"/>
<path d="M1258.99 618.255C1267.92 621.04 1279.18 629.072 1270.81 639.002C1261.56 636.952 1250.06 627.657 1258.99 618.255Z" fill="white"/>
<path d="M1471.34 496.001C1472.21 496.879 1469.69 508.352 1469.01 510.444C1463.5 527.313 1465.61 566.361 1471.86 583.13C1452.83 610.682 1426.33 616.795 1395.69 626.785C1387.33 629.512 1378.15 631.159 1370.69 635.785C1369.2 635.541 1368.95 635.329 1367.57 634.753C1365.16 631.652 1364.38 626.809 1363.43 622.889C1388.53 604.824 1414.33 587.769 1440.79 571.766C1443.11 565.836 1445.98 554.074 1448.13 547.481C1453.6 530.75 1461.82 510.705 1471.34 496.001Z" fill="#004B9B"/>
<path d="M1627.27 710.285C1644.22 709.817 1735.26 715.239 1731.44 734.658C1727.04 741.177 1715.27 743.958 1707.8 746.175C1672.41 755.248 1645.44 755.624 1609.54 755.757C1619.2 742.245 1626.17 726.961 1627.27 710.285Z" fill="white"/>
<path d="M1459.95 410.792C1477.91 424.724 1474.96 412.621 1485.53 410.764C1488.9 411.79 1487.86 411.015 1489.84 413.463C1490.93 420.477 1482.51 424.865 1488.13 430.967C1494.02 433.501 1499.01 432.603 1505.2 431.824C1509.73 443.185 1513.14 449.933 1519.77 460.194C1518.97 461.196 1518.14 462.17 1517.27 463.114C1512.03 468.824 1488.84 490.008 1482.03 490.272L1481.55 488.676C1486.37 471.017 1486.74 468.737 1480.47 451.795C1483.85 448.744 1487.55 445.026 1488.88 440.61C1488.26 437.685 1488.92 438.69 1486.33 436.907C1483.05 438.547 1481.31 442.249 1478.7 444.766C1457.07 465.601 1449.49 444.581 1439.36 429.186C1441.69 420.831 1441.45 419.966 1438.82 411.607C1448.63 414.419 1450.56 414.629 1459.95 410.792Z" fill="white"/>
<path d="M1733.63 772.317C1739.15 771.719 1752.12 777.429 1756.13 781.202C1757.64 782.616 1757.23 783.681 1757.18 785.522C1753.75 792.732 1738.52 796.635 1730.97 798.124C1686.65 806.871 1636.12 808.74 1591.4 802.403C1581.9 800.879 1574.32 799.585 1564.91 797.28C1567.68 794.931 1571.48 792.477 1574.54 790.379C1575.43 790.597 1576.33 790.798 1577.23 790.984C1615.94 798.979 1700.29 794.285 1733.63 772.317Z" fill="white"/>
<path d="M1546.15 378.869C1546.86 378.828 1547.58 378.799 1548.3 378.779C1593.5 377.609 1563.61 430.552 1602.44 431.413C1604.67 431.463 1607.27 431.352 1609.53 431.29C1603.3 437.867 1600.15 439.904 1592.26 443.796C1585.89 446.147 1577.52 446.739 1571.29 445.523C1545.27 440.444 1547.75 418.588 1541.45 399.137C1541.09 398.023 1532.97 389.804 1530.92 387.037L1531.34 385.64C1534.93 381.935 1541.25 380.016 1546.15 378.869Z" fill="#004B9B"/>
<path d="M1612.79 883.029C1625.01 886.849 1635.83 895.687 1644.89 904.356C1639.48 916.098 1618.63 944.909 1610.24 957.778C1607.22 962.589 1599.94 976.88 1593.21 969.59C1589.2 955.379 1606.88 899.631 1612.79 883.029Z" fill="white"/>
<path d="M1272.95 922.638C1276.82 921.986 1292.43 926.916 1297.15 928.206C1297.52 932.036 1301.87 955.324 1298.33 955.986C1282.54 958.944 1258.04 955.224 1242.15 953.457C1229.51 952.041 1219.73 950.567 1207.42 947.435C1223.07 937.03 1253.97 929.071 1272.95 922.638Z" fill="white"/>
<path d="M160.768 737.992C162.239 740.335 162.02 767.728 161.1 770.615C151.464 766.096 146.066 769.891 146.797 780.418C142.328 786.296 128.891 799.142 122.922 805.16C109.399 818.854 95.9871 832.658 82.6883 846.57L81.5176 847.488L80.6223 846.808C80.6099 846.526 80.4813 843.104 80.6199 842.895C102.757 809.42 126.158 776.23 149.177 743.212C150.297 741.605 157.023 741.123 160.768 737.992Z" fill="white"/>
<path d="M1724.6 903.901C1730.17 904.566 1743.48 909.766 1744.4 916.115C1741.15 932.271 1671.92 936.063 1655.94 936.88C1648.82 937.111 1641.33 936.848 1634.18 936.703L1642.3 924.442C1665.83 924.44 1705.87 918.834 1724.6 903.901Z" fill="white"/>
<path d="M1512.22 477.357C1512.21 478.892 1506.75 492.432 1505.89 494.731C1496.63 519.531 1493.49 549.848 1478.04 572.019L1476.56 571.84C1473.76 553.888 1470.52 517.248 1479.42 498.705C1479.36 498.819 1490.1 494.684 1491.77 493.635C1499.2 488.95 1505.59 483.107 1512.22 477.357Z" fill="white"/>
<path d="M1516.55 836.509C1521.2 832.36 1535.04 820.015 1539.87 817.405L1541.36 818.109C1541.95 820.045 1542.52 821.986 1543.08 823.933C1561.38 841.611 1635.08 843.645 1660.34 844.188L1658.17 846.394C1646.45 846.035 1632.58 847.775 1620.47 847.743C1584.83 847.648 1551.07 845.768 1516.55 836.509Z" fill="white"/>
<path d="M1352.98 642.94C1360.6 642.91 1368.22 642.792 1375.84 642.584L1380.09 653.764C1366.6 658.079 1362.9 658.413 1349.25 655.611C1341.48 655.323 1334.31 659.34 1320.25 658.55C1331.05 648.819 1338.75 645.015 1352.98 642.94Z" fill="white"/>
<path d="M1495.72 636.354L1496.58 636.767C1499 642.03 1501.16 672.344 1499.82 678.556C1497.48 679.198 1494.19 677.831 1491.66 677.089C1488.48 674.45 1487.46 672.667 1485.11 669.227C1484.27 660.511 1484.11 651.306 1483.81 642.52L1495.72 636.354Z" fill="white"/>
<path d="M1355.51 676.912C1358.46 677.472 1357.63 677.762 1359.93 676.695C1357.25 671.839 1336.4 668.451 1335.84 665.247C1347.82 663.66 1365.61 676.453 1375.28 675.904C1376.71 673.477 1374.58 671.338 1375.92 671.565C1385.87 673.245 1396.83 679.177 1406.28 682.615C1393.84 682.61 1337.44 683.966 1329.01 680.289L1327.98 678.925L1329.12 677.325C1335.07 677.611 1342.9 679.655 1347.31 678.599L1348.23 678.385C1351.93 679.068 1352.85 678.507 1355.51 676.912Z" fill="#004B9B"/>
<path d="M1627.03 763.1L1638.29 762.745C1638.12 770.916 1639.75 777.442 1637.76 784.972C1635.36 787.576 1635.77 786.773 1631.24 787.207L1619.93 787.575C1620.06 779.569 1618.4 772.102 1620.71 764.88C1622.99 762.69 1623.01 763.388 1627.03 763.1Z" fill="white"/>
<path d="M1652.73 944.032L1670.77 943.807L1671.09 967.029L1652.75 967.545L1652.73 944.032Z" fill="white"/>
<path d="M1656.16 762.123L1664.28 761.615C1664.19 769.076 1664.47 777.054 1664.61 784.554L1656.65 785.559L1645.59 786.381C1645.87 778.116 1643.68 770.082 1647.26 763.881C1649.52 761.831 1653 762.206 1656.16 762.123Z" fill="white"/>
<path d="M1628.37 943.445C1633.42 943.981 1640.3 944.172 1645.51 944.462C1645.55 952.301 1645.51 960.14 1645.36 967.977L1627.32 967.967C1627.33 960.626 1627.49 950.642 1628.37 943.445Z" fill="white"/>
<path d="M1687.51 812.042L1688.23 812.577C1689.03 816.141 1688.74 830.577 1688.74 835.047C1682.83 835.417 1676.93 835.846 1671.03 836.335C1670.05 832.379 1670.2 818.268 1670.19 813.364L1687.51 812.042Z" fill="white"/>
<path d="M1687.28 758.603L1688.91 758.385C1691.32 761.059 1690.32 775.507 1690.24 780.131C1686.24 781.368 1679.51 782.511 1675.22 783.368C1673.88 783.417 1673.76 783.147 1672.56 782.456C1671.22 778.474 1671.71 765.348 1671.74 760.481C1676.84 759.948 1682.17 759.226 1687.28 758.603Z" fill="white"/>
<path d="M1644.75 813.456L1662.77 813.352L1662.8 836.439L1644.67 836.324L1644.75 813.456Z" fill="white"/>
<path d="M1474.32 645.41L1475.51 645.589C1476.68 648.598 1476.92 658.505 1477.14 662.311C1463.09 661.27 1447.5 660.416 1433.64 658.795L1426.81 658.088C1443.97 654.293 1457.54 650.864 1474.32 645.41Z" fill="white"/>
<path d="M1631.7 854.667C1633.03 854.553 1636.86 854.174 1637.46 855.377C1640.05 860.592 1638.66 870.987 1638.6 876.869L1626.05 876.575C1624.32 876.589 1623.18 876.393 1621.5 876.158C1618.55 873.001 1619.75 860.155 1619.71 854.858L1631.7 854.667Z" fill="white"/>
<path d="M1652.49 853.854L1663.7 852.893L1663.76 875.087L1652.71 875.711L1645.3 876.239C1645.35 870.48 1643.64 860.195 1646.44 855.582C1647.51 853.819 1650.08 854.112 1652.49 853.854Z" fill="white"/>
<path d="M1692.53 941.766L1694.64 941.547C1696.97 944.447 1696.02 959.492 1695.94 964.236C1691.68 964.296 1685.91 965.272 1681.58 965.871L1679.65 965.868C1677.59 963.435 1678.42 947.359 1678.47 943.128L1692.53 941.766Z" fill="white"/>
<path d="M1619.82 812.409L1637.61 813.391C1637.64 820.994 1637.57 828.598 1637.39 836.199L1619.88 834.885L1619.82 812.409Z" fill="white"/>
<path d="M1685.05 850.151C1686.26 849.829 1686.39 849.99 1687.73 850.121C1689.55 853.794 1688.75 866.731 1688.63 871.387L1674.46 873.8C1673.06 874.046 1672.9 873.819 1671.51 873.35C1669.87 869.137 1670.67 856.793 1670.82 851.78C1675.22 851.469 1680.59 850.681 1685.05 850.151Z" fill="white"/>
<path d="M1720.39 937.258C1721.89 939.155 1721.18 955.254 1721.12 958.866C1716.15 960.131 1709.59 961.301 1704.46 962.363C1702.81 960.612 1703.42 943.628 1703.43 940.057C1708.9 939.319 1714.9 938.189 1720.39 937.258Z" fill="white"/>
<path d="M1708.11 810.132L1711.62 809.729L1712.89 810.909C1714.35 816.869 1713.59 825.301 1713.45 831.74L1701.3 833.472L1698.21 833.838L1696.9 832.679C1695.5 826.643 1696.19 817.584 1696.3 811.099L1708.11 810.132Z" fill="white"/>
<path d="M1672.17 891.072L1673.8 890.78C1676.38 893.532 1675.31 908.467 1675.24 913.354L1661.88 915.219C1660.58 915.589 1660.4 915.354 1659.06 914.962C1657.49 911.094 1658.19 897.389 1658.28 892.627L1672.17 891.072Z" fill="white"/>
<path d="M1594.51 810.421L1612.46 812.35L1612.61 834.64C1608.13 833.629 1599.37 832.651 1594.52 831.972L1594.51 810.421Z" fill="white"/>
<path d="M1605.14 762.914C1606.92 763.366 1610.31 763.73 1612.25 764.004L1612.66 787.518L1603.85 787.356L1594.37 786.006L1594.3 773.998C1597.32 770.507 1601.8 766.264 1605.14 762.914Z" fill="white"/>
<path d="M1569.47 805.857L1587.13 809.279L1587.16 830.803C1581.81 829.87 1575.17 828.222 1569.76 827.031C1569.28 821.023 1569.49 812.102 1569.47 805.857Z" fill="white"/>
<path d="M1592.82 854.936C1599.24 855.128 1606.04 855.066 1612.5 855.111C1612.31 862.216 1612.34 869.556 1612.29 876.683C1605.98 876.975 1598.84 872.62 1592.94 869.791L1592.82 854.936Z" fill="white"/>
<path d="M1698.31 885.643C1699.7 887.269 1699.02 904.488 1698.98 907.773L1683.31 911.486C1682.42 907.326 1682.67 894.146 1682.66 889.218L1698.31 885.643Z" fill="white"/>
<path d="M1710.56 843.78C1712.31 845.711 1711.62 862.252 1711.59 865.993L1696.81 870.087L1696.05 869.424C1695.22 865.684 1695.61 852.26 1695.65 847.706C1700.35 846.635 1705.83 845.037 1710.56 843.78Z" fill="white"/>
<path d="M1586.14 941.719C1587.71 944.186 1584.8 963.395 1584.26 967.968L1573.02 966.93L1571.93 966.138C1571.02 961.684 1571.63 949.461 1571.75 944.312C1576.31 943.257 1581.48 942.503 1586.14 941.719Z" fill="white"/>
<path d="M1710.87 752.988C1712.34 752.963 1711.61 752.829 1712.98 753.816C1713.77 758.808 1713.32 768.971 1713.23 774.449L1699.55 778.132C1699 778.221 1698.64 777.834 1697.92 777.445C1697.16 773.181 1697.55 761.559 1697.6 756.657L1710.87 752.988Z" fill="white"/>
<path d="M1561.27 946.187C1562.89 945.968 1562.09 945.869 1563.68 946.738C1564.61 951.476 1564.16 961.317 1564.07 966.541L1550.94 964.426C1549 964.348 1549.01 964.253 1547.32 963.494C1545.5 959.687 1546.28 952.388 1546.4 947.796C1551 947.499 1556.61 946.71 1561.27 946.187Z" fill="white"/>
<path d="M1732.7 805.538L1733.86 805.171L1735.16 805.914C1736.09 811.141 1735.65 821.235 1735.56 826.954L1724.24 829.537L1722.3 829.7C1720.06 826.697 1721.11 812.775 1721.24 808.081L1732.7 805.538Z" fill="white"/>
<path d="M1719.05 877.331L1720.35 877.779C1721.71 892.702 1722.81 898.395 1708.26 904.314L1706.59 903.448C1705.83 898.566 1706.25 888.881 1706.34 883.572C1710.38 881.908 1715.09 879.347 1719.05 877.331Z" fill="white"/>
<path d="M1739.85 930.657L1741.13 930.988C1742.15 933.908 1741.99 946.595 1742.03 950.447C1738.47 952.425 1733.52 954.647 1729.76 956.473L1728.08 955.807C1727.2 951.528 1727.55 940.33 1727.59 935.411C1731.62 934.024 1735.87 932.238 1739.85 930.657Z" fill="white"/>
<path d="M1756.53 796.476C1758.07 798.366 1758.16 809.543 1757.24 812.207C1754.72 819.471 1750.14 821.041 1743.79 824.172C1743.12 821.287 1742.9 806.43 1742.78 802.583C1748.21 800.491 1751.31 799.166 1756.53 796.476Z" fill="white"/>
<path d="M1731.12 836.68C1732.54 839.102 1732.77 849.637 1731.89 852.589C1729.86 859.425 1726.5 860.781 1720.43 863.764C1718.67 861.356 1719.36 844.184 1719.39 839.984C1723.1 839.227 1727.43 837.795 1731.12 836.68Z" fill="white"/>
<path d="M1731.59 744.894L1732.55 745.685C1733.39 750.418 1732.95 758.997 1732.86 764.076C1729.93 766.36 1725.8 768.776 1722.58 770.78L1721.7 769.902C1720.79 764.852 1721.06 755.368 1721.06 749.886C1724.8 748.405 1728.03 746.712 1731.59 744.894Z" fill="white"/>
<path d="M1558.02 803.321C1561.07 803.883 1560.09 803.263 1561.83 805.485C1562.59 810.253 1565.21 821.265 1559.68 823.497L1555.53 821.696C1551.17 819.392 1547.28 817.749 1547.92 812.452C1549.79 808.949 1554.7 805.815 1558.02 803.321Z" fill="white"/>
<path d="M1564.97 852.864C1571.74 853.526 1578.52 854.065 1585.31 854.481L1585.32 867.426C1578.15 864.731 1572.14 864.888 1566.36 861.201C1564.2 857.639 1564.95 857.714 1564.97 852.864Z" fill="white"/>
<path d="M1355.42 627.641C1357.51 629.093 1359.02 633.044 1360.23 635.56C1344.77 635.591 1341.83 636.97 1328.36 643.57C1326.18 643.327 1324.51 643.387 1322.73 642.163L1323.37 640.258C1329.19 635.632 1347.59 630.242 1355.42 627.641Z" fill="white"/>
<path d="M1519.39 480.135L1525.32 481.332C1525.12 484.129 1521.96 485.923 1519.88 489.815C1520.51 491.735 1520.81 491.903 1522.2 493.47L1522.62 493.93C1521.38 497.723 1514.18 507.369 1511.51 511.167L1506.87 517.535C1510.07 504.323 1514.64 492.831 1519.39 480.135Z" fill="#004B9B"/>
<path d="M1535.05 949.664C1536.51 949.238 1536.74 949.496 1538.19 949.989C1539.57 953.034 1538.86 958.701 1538.69 962.267L1526.92 959.312C1523.54 958.242 1521.12 957.771 1519.73 954.233L1520.63 952.842C1524.9 950.347 1530.08 950.212 1535.05 949.664Z" fill="white"/>
<path d="M1509.43 841.899C1512.56 842.389 1524.47 846.199 1527.05 848.415C1529.5 850.51 1528.81 852.918 1528.92 856.32C1522.65 855.417 1518.05 855.202 1511.75 854.932C1511.77 849.497 1512.26 846.417 1509.43 841.899Z" fill="white"/>
<path d="M1536.55 848.95C1544.28 850.468 1551.4 849.479 1557.22 852.953C1559.1 856.041 1558.39 856.542 1558.31 860.819C1552.09 859.332 1542.42 859.099 1537.64 855.683C1536.06 854.559 1536.57 851.259 1536.55 848.95Z" fill="white"/>
<path d="M1707.6 874.894L1708.77 874.969C1703.16 881.327 1648.72 886.283 1637.01 887.44L1634.85 885.83C1636.85 884.577 1646.24 884.151 1649.14 884C1669.29 882.953 1688.03 879.607 1707.6 874.894Z" fill="#C4D6E6"/>
<path d="M1348.23 678.385C1346.51 676.864 1331.33 672.043 1326.07 669.13L1326.67 668.654C1335.66 669.828 1346.62 673.966 1355.51 676.912C1352.85 678.507 1351.93 679.068 1348.23 678.385Z" fill="#004B9B"/>
<path d="M1528.38 461.057C1534.94 464.98 1531.6 470.137 1528.38 474.693C1526.31 474.276 1525.4 474.303 1523.85 472.994C1523.35 469.685 1526.7 464.513 1528.38 461.057Z" fill="#004B9B"/>
<path d="M1660.34 844.188C1667.49 843.603 1674.12 843.374 1681.3 843.162C1673.33 844.923 1666.22 845.324 1658.17 846.394L1660.34 844.188Z" fill="#C4D6E6"/>
<path d="M1621.33 954.636C1621.7 959.117 1617.37 964.313 1614.65 967.484L1614.28 965.776C1615.69 961.785 1618.77 958.086 1621.33 954.636Z" fill="#C4D6E6"/>
<path d="M1332.73 49.8052C1334.16 49.5165 1335.01 49.9173 1336.41 50.3218C1339.06 52.6488 1339.82 56.6026 1340.87 60.0757C1355.49 54.5605 1357.93 51.1228 1362.17 67.5325L1379.58 62.1654C1382.32 67.8422 1386.95 82.6424 1389.11 89.1558L1404.09 133.664L1429.65 208.935C1432.4 217.084 1440.74 240.305 1441.45 247.458C1433.8 254.27 1159.04 337.297 1131.05 345.335L1119.45 349.329C1117.11 345.188 1114.78 339.11 1112.9 334.6C1097.12 340.122 1096.78 340.884 1092.26 324.652C1079.89 328.384 1075.13 330.075 1072.32 314.481C1069.1 296.657 1016.65 160.981 1018.67 149.794C1027.89 144.343 1049.98 138.371 1061.34 134.809C1082.31 128.068 1103.31 121.457 1124.36 114.976C1193.67 92.7976 1263.13 71.0736 1332.73 49.8052Z" fill="#004B9B"/>
<path d="M1373.83 71.2305C1376.67 73.0132 1395.24 131.04 1397.41 137.59C1409.21 173.196 1422.09 208.667 1433.78 244.283C1407.34 252.913 1378.55 261.248 1351.73 269.663L1189.85 320.608C1167.19 327.631 1145.12 333.682 1122.42 341.054C1108.55 305.119 1096.61 267.112 1083.56 230.751C1075.8 209.159 1070.14 188.712 1060.94 167.083C1164.66 133.291 1268.98 101.335 1373.83 71.2305Z" fill="#004B9B"/>
<path d="M1336.78 87.2083L1340.1 86.8677C1344.16 88.6195 1346.77 94.4042 1350.37 98.2426C1360.02 108.539 1367.51 112.189 1381.04 113.152C1392.53 141.009 1403.31 178.54 1414.45 208.147C1400.54 219.519 1394.84 229.17 1394.2 247.214L1164.43 319.454C1163.46 319.764 1158.85 320.914 1158.38 320.643C1141.49 310.876 1142.96 304.698 1121.4 303.727C1110.18 272.798 1095.88 234.596 1086.22 203.405C1098.54 188.973 1102.35 179.927 1102.29 160.865C1109.87 157.653 1121.97 154.142 1130.08 151.577L1178.86 136.358C1232.14 119.891 1283.55 104.46 1336.78 87.2083Z" fill="white"/>
<path d="M1336.16 94.2007L1337.89 94.1616C1340.64 95.1496 1342.88 100.204 1345.17 102.777C1352.35 110.862 1365.38 117.245 1376.05 118.48C1387.44 145.406 1395.79 177.233 1407.4 205.294C1394.28 216.95 1390.53 225.911 1387.96 242.557L1278.42 277.092C1239.04 289.272 1198.27 301.352 1159.56 315.346C1148.24 303.516 1142.31 299.818 1125.82 297.209C1118.09 270.483 1102.9 233.691 1093.57 205.629C1104.57 193.078 1107.98 181.076 1109.22 164.953L1119.66 161.899C1145.47 153.812 1186.29 139.157 1211.36 133.799C1195.07 144.841 1184.46 157.389 1179.38 176.775C1174.07 197.79 1177.25 220.052 1188.23 238.737C1199.8 258.135 1218.49 272.237 1240.32 278.03C1253.38 281.377 1268.84 280.936 1280.5 273.364C1334.64 238.182 1319.61 154.635 1263.17 130.784C1256.11 127.8 1248.88 126.321 1241.45 124.588C1249.79 121.358 1261.66 118.289 1270.49 115.412C1292.31 108.123 1314.2 101.052 1336.16 94.2007Z" fill="#004B9B"/>
<path d="M1350.5 156.956C1356.58 155.712 1362.85 157.885 1366.86 162.623C1370.87 167.362 1371.97 173.91 1369.74 179.702C1367.51 185.495 1362.3 189.608 1356.15 190.429C1347.08 191.64 1338.68 185.446 1337.16 176.422C1335.63 167.398 1341.53 158.79 1350.5 156.956Z" fill="white"/>
<path d="M1351.47 163.263C1357.03 161.985 1362.58 165.399 1363.95 170.933C1365.32 176.468 1362 182.079 1356.49 183.541C1352.84 184.509 1348.96 183.434 1346.33 180.73C1343.7 178.025 1342.73 174.112 1343.79 170.492C1344.86 166.872 1347.8 164.108 1351.47 163.263Z" fill="#004B9B"/>
<path d="M1138.2 216.498C1147.38 214.897 1156.12 221.016 1157.77 230.189C1159.42 239.362 1153.34 248.14 1144.18 249.831C1134.95 251.533 1126.1 245.406 1124.44 236.169C1122.79 226.933 1128.96 218.11 1138.2 216.498Z" fill="white"/>
<path d="M1139.58 222.627C1145.23 221.863 1150.48 225.695 1151.47 231.311C1152.46 236.927 1148.84 242.323 1143.27 243.539C1139.47 244.37 1135.51 243.048 1132.96 240.096C1130.42 237.144 1129.69 233.036 1131.08 229.391C1132.46 225.746 1135.72 223.15 1139.58 222.627Z" fill="#004B9B"/>
<path d="M1233.52 133.529C1248.5 132.416 1259.93 135.217 1272.53 143.988C1290.41 156.331 1302.52 175.401 1306.09 196.836C1312.01 231.216 1294.95 265.93 1257.93 271.964C1243.72 272.321 1232.37 269.417 1220.31 261.922C1202.85 251.13 1190.38 233.84 1185.66 213.856C1177.4 177.837 1195.98 141.823 1233.52 133.529Z" fill="#004B9B"/>
<path d="M1332.07 57.9478C1333.59 59.3036 1334.04 60.9062 1334.13 62.7829C1326.96 65.926 1312.49 69.995 1304.52 72.5472C1284.42 79.0505 1264.28 85.3967 1244.09 91.585L1103.15 136.414C1091.93 139.942 1045.46 153.353 1037.52 157.83C1035.15 163.737 1050.38 202.456 1053.18 210.399C1062.24 236.272 1071.15 262.201 1079.89 288.184C1082.01 294.505 1087.91 311.015 1088.64 316.8C1087.3 318.825 1085.1 319.343 1082.73 320.304C1075.03 300.453 1067.26 275.565 1060.35 255.17L1025.9 153.037C1053.36 145.086 1081.71 135.704 1109.02 127.08L1229.9 89.028C1262.51 78.6742 1299.18 66.5391 1332.07 57.9478Z" fill="#004B9B"/>
<path d="M1350.73 65.0444L1353.04 64.7183C1354.91 66.0243 1354.85 65.9169 1355.66 68.0382C1353.49 71.4638 1335.85 75.1082 1330.85 76.6222L1274.53 93.88C1220.52 109.981 1166.66 126.604 1112.98 143.746C1098.7 148.283 1064.98 158.152 1053.78 163.912C1052.57 167.346 1104.77 308.834 1109.61 327.083C1108.34 329.096 1106.52 329.403 1104.01 330.584L1103.18 330.804C1099.9 328.745 1092.74 303.528 1090.93 298.228L1060.54 209.438C1055.21 194.098 1049.3 175.728 1043.19 161.037C1070.13 154.082 1101.94 143.109 1128.8 134.531L1253.96 95.309C1284.84 85.4725 1319.85 73.4091 1350.73 65.0444Z" fill="#004B9B"/>
<path d="M1166.13 399.321C1195.98 395.422 1214.74 408.127 1231.36 431.458C1255.72 433.912 1256.02 434.751 1241.22 455.018C1246.25 490.33 1226.93 518.025 1193.65 528.814C1192.28 529.163 1190.9 529.491 1189.51 529.799C1171.89 533.567 1153.49 530.189 1138.35 520.406C1123.22 510.552 1112.69 495.027 1109.13 477.325C1101.31 437.572 1128.55 406.689 1166.13 399.321Z" fill="#004B9B"/>
<path d="M1167.42 407.325C1195.06 404.817 1211.43 415.073 1225.3 437.975C1230.92 438.749 1236.48 439.772 1242.06 440.756C1238.63 445.055 1235.92 448.498 1232.84 453.095C1236.71 486.751 1224.83 509.817 1191.52 520.95C1190.37 521.235 1189.21 521.501 1188.04 521.747C1172.19 525.096 1155.67 521.975 1142.13 513.079C1129.11 504.463 1120.1 490.959 1117.16 475.621C1110.46 440.884 1133.72 413.317 1167.42 407.325Z" fill="white"/>
<path d="M1627.89 213.684C1629.83 213.645 1631.78 213.675 1633.72 213.774C1652.58 214.831 1668.66 222.491 1681.26 236.626C1692.76 249.443 1698.54 266.393 1697.27 283.567C1696.13 300.576 1688.34 316.453 1675.58 327.762C1660.24 341.329 1643.97 345.228 1624.32 344.02C1618.44 343.026 1613.41 341.599 1607.68 340.05C1601.31 342.445 1593.62 348.255 1587.55 347.31C1583.11 343.527 1582.52 330.486 1581.49 323.746C1541.54 278.258 1571.49 218.021 1627.89 213.684Z" fill="#004B9B"/>
<path d="M1625.18 221.652C1626 221.558 1626.83 221.484 1627.66 221.432C1643.07 220.469 1658.95 226.554 1670.45 236.722C1681.71 246.666 1688.5 260.714 1689.32 275.716C1691.37 311.848 1664.47 335.88 1629.62 337.118C1621.06 336.658 1613.65 334.384 1605.55 331.809L1591.81 338.887L1589.45 320.696C1579.69 310.424 1573.74 301.401 1571.63 286.767C1569.39 272.24 1573.21 257.43 1582.18 245.791C1593.09 231.385 1607.62 224.075 1625.18 221.652Z" fill="white"/>
</g>
<defs>
<clipPath id="clip0_85_1638">
<rect width="1820" height="1024" fill="white"/>
</clipPath>
</defs>
</svg>
