<svg width="224" height="67" viewBox="0 0 224 67" fill="none" xmlns="http://www.w3.org/2000/svg">
<g clip-path="url(#clip0_62_77)">
<path d="M35.61 57.22C40.0818 57.22 44.4532 55.894 48.1714 53.4095C51.8896 50.9251 54.7876 47.3939 56.4989 43.2625C58.2102 39.131 58.658 34.5849 57.7856 30.199C56.9131 25.8131 54.7597 21.7844 51.5977 18.6223C48.4356 15.4603 44.4069 13.3069 40.021 12.4345C35.6351 11.562 31.089 12.0098 26.9575 13.7211C22.8261 15.4324 19.2949 18.3304 16.8105 22.0486C14.3261 25.7668 13 30.1382 13 34.61C13.0027 40.6057 15.3856 46.3551 19.6252 50.5948C23.8649 54.8344 29.6143 57.2174 35.61 57.22Z" fill="black"/>
<path d="M28.07 25.81C25.7888 25.887 23.6267 26.8473 22.0401 28.4883C20.4535 30.1292 19.5667 32.3225 19.5667 34.605C19.5667 36.8876 20.4535 39.0808 22.0401 40.7218C23.6267 42.3628 25.7888 43.3231 28.07 43.4H29.33V40.13H28.07C27.2995 40.2106 26.5207 40.1284 25.7839 39.8887C25.0472 39.649 24.3691 39.2572 23.7935 38.7387C23.2179 38.2201 22.7576 37.5864 22.4426 36.8787C22.1276 36.1709 21.9648 35.4048 21.9648 34.63C21.9648 33.8553 22.1276 33.0892 22.4426 32.3814C22.7576 31.6736 23.2179 31.0399 23.7935 30.5214C24.3691 30.0028 25.0472 29.611 25.7839 29.3714C26.5207 29.1317 27.2995 29.0494 28.07 29.13H31.07V46.17C31.07 47.0346 31.4135 47.8638 32.0249 48.4752C32.6362 49.0866 33.4654 49.43 34.33 49.43V25.81H28.07ZM43.15 43.4C45.4813 43.4 47.7171 42.474 49.3655 40.8255C51.014 39.1771 51.94 36.9413 51.94 34.61C51.94 32.2788 51.014 30.043 49.3655 28.3946C47.7171 26.7461 45.4813 25.82 43.15 25.82H41.89V29.08H43.15C44.5747 29.1407 45.9209 29.7493 46.9075 30.7788C47.8941 31.8083 48.4449 33.1791 48.4449 34.605C48.4449 36.031 47.8941 37.4018 46.9075 38.4313C45.9209 39.4608 44.5747 40.0694 43.15 40.13H40.15V23.05C40.15 22.6219 40.0657 22.198 39.9019 21.8025C39.7381 21.407 39.4979 21.0476 39.1952 20.7449C38.8925 20.4422 38.5331 20.202 38.1376 20.0382C37.7421 19.8744 37.3182 19.79 36.89 19.79V43.4H43.15Z" fill="white"/>
<path d="M79.6799 62.6999H76.1799V53.8499C75.6503 54.578 74.9506 55.1655 74.1418 55.5612C73.3331 55.9568 72.4398 56.1486 71.5399 56.1199C67.2799 56.1199 64.6599 52.7399 64.6599 48.6599C64.6599 44.5799 67.4599 41.3099 71.4499 41.3099C72.3909 41.2583 73.3295 41.448 74.1766 41.861C75.0236 42.2741 75.7511 42.8967 76.2899 43.6699H76.3699V41.6699H79.7199V62.6699L79.6799 62.6999ZM72.1899 53.1999C72.7552 53.1768 73.3103 53.0421 73.8234 52.8036C74.3364 52.5651 74.7972 52.2274 75.1792 51.8101C75.5612 51.3928 75.8569 50.904 76.0492 50.372C76.2416 49.8399 76.3268 49.275 76.2999 48.7099C76.2999 46.5199 74.7599 44.1599 72.1899 44.1599C69.6199 44.1599 68.1899 46.4599 68.1899 48.6499C68.1899 50.8399 69.4999 53.1999 72.1899 53.1999ZM95.3799 55.6999H92.0599V53.4599H91.9999C91.5994 54.2675 90.9781 54.9451 90.2082 55.4142C89.4383 55.8832 88.5513 56.1244 87.6499 56.1099C84.0099 56.1099 82.4999 53.3099 82.4999 50.4599V41.7099H85.9999V49.4699C85.9999 51.1299 86.3799 53.1899 88.6299 53.1899C90.8799 53.1899 91.8899 51.2699 91.8899 49.4099V41.7099H95.3899V55.7099L95.3799 55.6999ZM98.8899 41.4099H102.39V55.4099H98.8899V41.4099ZM115.46 45.5899C115.11 45.1616 114.669 44.8164 114.169 44.5794C113.669 44.3425 113.123 44.2197 112.57 44.2199C110.01 44.2199 108.72 46.5199 108.72 48.7099C108.72 50.8999 110.04 53.1999 112.72 53.1999C113.261 53.2071 113.798 53.1044 114.298 52.8982C114.798 52.6919 115.251 52.3863 115.63 51.9999L117.81 54.2099C117.128 54.8722 116.32 55.3906 115.433 55.7341C114.547 56.0777 113.6 56.2395 112.65 56.2099C108.51 56.2099 105.08 53.4699 105.08 48.8099C105.038 47.8201 105.204 46.8325 105.566 45.9105C105.928 44.9884 106.479 44.1522 107.183 43.4555C107.887 42.7587 108.729 42.2169 109.655 41.8646C110.581 41.5124 111.571 41.3575 112.56 41.4099C113.544 41.3816 114.523 41.5612 115.432 41.9368C116.342 42.3125 117.163 42.8757 117.84 43.5899L115.45 45.6799L115.46 45.5899ZM119.57 33.6799H123.07V47.5999H123.16L128.46 41.7099H133L126.89 47.9999L133.34 55.6599H128.71L123.17 48.4899H123.08V55.6999H119.58V33.6999L119.57 33.6799ZM138.42 33.6799V43.4999H138.51C139.065 42.7937 139.78 42.2283 140.594 41.8496C141.409 41.4708 142.302 41.2894 143.2 41.3199C147.2 41.3199 149.99 44.5199 149.99 48.6699C149.99 52.8199 147.37 56.1199 143.12 56.1199C142.171 56.1483 141.232 55.9334 140.39 55.4958C139.548 55.0582 138.832 54.4124 138.31 53.6199H138.25V55.7199H134.93V33.7199H138.42V33.6799ZM142.42 44.1699C139.86 44.1699 138.31 46.5299 138.31 48.7199C138.284 49.2847 138.371 49.849 138.563 50.3805C138.756 50.912 139.052 51.4002 139.434 51.8173C139.815 52.2343 140.276 52.572 140.788 52.811C141.301 53.0499 141.855 53.1855 142.42 53.2099C145.13 53.2099 146.42 50.8499 146.42 48.6599C146.42 46.4699 145.11 44.1699 142.42 44.1699ZM159.11 41.3099C160.1 41.262 161.089 41.4174 162.017 41.7664C162.945 42.1155 163.791 42.6508 164.504 43.3394C165.217 44.028 165.782 44.8553 166.163 45.7704C166.544 46.6854 166.733 47.6688 166.72 48.6599C166.648 50.6292 165.816 52.4939 164.398 53.8618C162.979 55.2297 161.085 55.9941 159.115 55.9941C157.144 55.9941 155.251 55.2297 153.832 53.8618C152.414 52.4939 151.581 50.6292 151.51 48.6599C151.495 47.6702 151.683 46.6879 152.063 45.7735C152.442 44.8592 153.004 44.0323 153.716 43.3437C154.427 42.6551 155.271 42.1194 156.197 41.7696C157.123 41.4198 158.111 41.2634 159.1 41.3099H159.11ZM159.11 53.1999C161.88 53.1999 163.16 50.8399 163.16 48.6499C163.16 46.4599 161.88 44.1599 159.11 44.1599C156.34 44.1599 155.11 46.4599 155.11 48.6499C155.11 50.8399 156.33 53.1999 159.1 53.1999H159.11ZM175.85 41.3099C176.84 41.262 177.829 41.4174 178.757 41.7664C179.685 42.1155 180.531 42.6508 181.244 43.3394C181.957 44.028 182.522 44.8553 182.903 45.7704C183.284 46.6854 183.473 47.6688 183.46 48.6599C183.388 50.6292 182.556 52.4939 181.138 53.8618C179.719 55.2297 177.825 55.9941 175.855 55.9941C173.884 55.9941 171.991 55.2297 170.572 53.8618C169.154 52.4939 168.321 50.6292 168.25 48.6599C168.235 47.6702 168.423 46.6879 168.803 45.7735C169.182 44.8592 169.744 44.0323 170.456 43.3437C171.167 42.6551 172.011 42.1194 172.937 41.7696C173.863 41.4198 174.851 41.2634 175.84 41.3099H175.85ZM175.85 53.1999C178.62 53.1999 179.85 50.8399 179.85 48.6499C179.85 46.4599 178.57 44.1599 175.85 44.1599C173.13 44.1599 171.8 46.4599 171.8 48.6499C171.8 50.8399 173.07 53.1999 175.84 53.1999H175.85ZM185.57 33.6799H189.07V47.5999H189.16L194.46 41.7099H198.95L192.88 47.9999L199.32 55.6599H194.69L189.15 48.4899H189.06V55.6999H185.56V33.6999L185.57 33.6799ZM208.87 45.4499C208.508 44.9839 208.046 44.6053 207.518 44.3421C206.99 44.079 206.41 43.9381 205.82 43.9299C204.72 43.9299 203.57 44.3499 203.57 45.4499C203.57 46.5499 204.65 46.8299 206.57 47.2899C208.49 47.7499 211.09 48.7199 211.09 51.4599C211.09 54.8699 208.31 56.1199 205.26 56.1199C204.196 56.1424 203.139 55.9504 202.151 55.5552C201.163 55.1601 200.265 54.5699 199.51 53.8199L201.81 51.6699C202.237 52.2143 202.782 52.6547 203.404 52.9578C204.026 53.261 204.708 53.419 205.4 53.4199C206.4 53.4199 207.65 53.0099 207.65 51.7599C207.65 50.5099 206.57 50.2499 204.44 49.7599C202.31 49.2699 200.31 48.4199 200.31 45.7599C200.31 42.6299 203.11 41.2999 205.88 41.2999C206.855 41.2561 207.829 41.4238 208.733 41.7914C209.637 42.1591 210.452 42.718 211.12 43.4299L208.86 45.4299L208.87 45.4499ZM102.92 22.6199C103.012 24.2685 103.731 25.8193 104.931 26.9538C106.13 28.0884 107.719 28.7206 109.37 28.7206C111.021 28.7206 112.609 28.0884 113.809 26.9538C115.009 25.8193 115.728 24.2685 115.82 22.6199V14.4799H112.32V22.2099C112.386 22.6375 112.358 23.0742 112.24 23.4902C112.121 23.9062 111.914 24.2916 111.632 24.6199C111.35 24.9483 111.001 25.2119 110.608 25.3926C110.215 25.5733 109.788 25.6668 109.355 25.6668C108.922 25.6668 108.495 25.5733 108.102 25.3926C107.709 25.2119 107.359 24.9483 107.078 24.6199C106.796 24.2916 106.589 23.9062 106.47 23.4902C106.351 23.0742 106.324 22.6375 106.39 22.2099V14.4799H102.9L102.92 22.6199ZM125.16 17.7499H129.34V28.4799H132.83V17.7499H137V14.4799H125.16V17.7499ZM122.9 14.4799H119.41V28.4799H122.9V14.4799ZM88.8199 17.7499H92.9999V28.4799H96.4899V17.7499H100.65V14.4799H88.8299V17.7499H88.8199ZM70.4999 14.4799H66.9999V28.4799H70.4999V14.4799ZM86.9999 20.3399C86.9342 18.6719 86.2254 17.0941 85.0221 15.9371C83.8187 14.7802 82.2142 14.134 80.5449 14.134C78.8756 14.134 77.2711 14.7802 76.0677 15.9371C74.8644 17.0941 74.1556 18.6719 74.0899 20.3399V28.4799H77.5799V20.7499C77.514 20.3224 77.5414 19.8856 77.6601 19.4696C77.7788 19.0536 77.9861 18.6683 78.2678 18.3399C78.5494 18.0115 78.8987 17.748 79.2918 17.5673C79.6848 17.3866 80.1123 17.293 80.5449 17.293C80.9775 17.293 81.405 17.3866 81.798 17.5673C82.1911 17.748 82.5404 18.0115 82.8221 18.3399C83.1037 18.6683 83.311 19.0536 83.4297 19.4696C83.5484 19.8856 83.5758 20.3224 83.5099 20.7499V28.4799H86.9999V20.3399Z" fill="black"/>
</g>
<defs>
<clipPath id="clip0_62_77">
<rect width="198.14" height="50.7" fill="white" transform="translate(13 12)"/>
</clipPath>
</defs>
</svg>
