<svg width="249" height="63" viewBox="0 0 249 63" fill="none" xmlns="http://www.w3.org/2000/svg">
<g clip-path="url(#clip0_1_2)">
<mask id="mask0_1_2" style="mask-type:luminance" maskUnits="userSpaceOnUse" x="-9" y="-9" width="268" height="83">
<path fill-rule="evenodd" clip-rule="evenodd" d="M-9 73.4951H259V-8.99999H-9V73.4951Z" fill="white"/>
</mask>
<g mask="url(#mask0_1_2)">
<path fill-rule="evenodd" clip-rule="evenodd" d="M12.8401 15.8369H36.9879L31.7701 47.8331H7.62224L12.8401 15.8369Z" fill="#0058A8"/>
<path fill-rule="evenodd" clip-rule="evenodd" d="M39.7701 15.8369H63.918L58.7001 47.8331H34.5522L39.7701 15.8369Z" fill="#0058A8"/>
<path fill-rule="evenodd" clip-rule="evenodd" d="M66.7003 15.8369H90.8481L85.6301 47.8331H61.4823L66.7003 15.8369Z" fill="#0058A8"/>
<path d="M13.8142 44.1304H11.9866L16.0153 19.4269H17.8429L13.8142 44.1304ZM24.425 31.3366H18.8486L19.1275 29.6267H24.0211C25.3576 29.6267 26.416 29.4008 27.1981 28.9438C27.9801 28.4869 28.47 27.6518 28.6671 26.4429C28.8483 25.3328 28.658 24.5418 28.097 24.0651C27.5309 23.5883 26.622 23.3477 25.3692 23.3477H20.2152L20.4893 21.6674H25.5844C27.2746 21.6674 28.5552 22.0701 29.4257 22.876C30.2967 23.6817 30.5974 24.9099 30.3282 26.5611C30.1912 27.4009 29.8569 28.1873 29.3254 28.9142C28.7942 29.6415 28.1044 30.2263 27.2463 30.6685C26.3919 31.1156 25.4521 31.3366 24.425 31.3366ZM29.5702 31.5723C30.1114 32.0193 30.5028 32.4521 30.753 32.8745C31.0042 33.2919 31.1494 33.7589 31.1882 34.2746C31.2267 34.7904 31.1761 35.4639 31.0416 36.2889L30.334 40.6272C30.274 40.9957 30.1981 41.3396 30.1114 41.6592C30.0811 42.3272 30.0812 42.8385 30.1037 43.1823C30.1266 43.5263 30.2203 43.8849 30.3918 44.2485H28.6477C28.4236 43.7229 28.3024 43.1725 28.2872 42.6024C28.2727 42.0278 28.3295 41.3494 28.4577 40.5634L28.9768 37.3798C29.1965 36.0335 29.2268 34.9723 29.0729 34.2009C28.9135 33.4298 28.6133 32.8596 28.1723 32.4912C27.731 32.1226 27.1374 31.8182 26.3865 31.5723C27.1432 31.3612 27.8426 31.0173 28.4913 30.5357C29.1337 30.0589 29.6729 29.4645 30.1062 28.767C30.54 28.0644 30.8242 27.2882 30.962 26.4429C31.159 25.2345 31.0609 24.237 30.6658 23.4361C30.2708 22.6353 29.6343 22.0508 28.7525 21.6723C27.871 21.294 26.7958 21.1072 25.533 21.1072H19.9274L16.1823 44.0717H14.3544L18.3734 19.4269H25.9448C27.4729 19.4269 28.7904 19.6922 29.8987 20.2179C31.0058 20.7485 31.8164 21.5345 32.3177 22.5863C32.8254 23.6328 32.9576 24.9005 32.7156 26.3841C32.5362 27.4844 32.1915 28.4527 31.6819 29.2876C31.173 30.1182 30.4692 30.8795 29.5702 31.5723ZM28.3293 37.7335L27.7669 41.1825C27.5634 42.4304 27.5965 43.4328 27.8664 44.1893H26.068C25.8371 43.3148 25.8203 42.2733 26.0173 41.0648L26.6232 37.3502C26.8258 36.1071 26.7127 35.1738 26.2896 34.5449C25.8657 33.9208 25.0375 33.6066 23.8142 33.6066H18.4785L18.7621 31.8671H23.7783C25.1345 31.8671 26.181 32.0785 26.9236 32.496C27.6605 32.9185 28.1367 33.5524 28.3461 34.4074C28.5554 35.2623 28.5513 36.3723 28.3293 37.7335Z" fill="white"/>
<path d="M41.4599 35.1984C41.0457 37.7384 41.3572 39.6543 42.401 40.9369C43.4448 42.2195 45.2311 42.8627 47.7616 42.8627C49.9542 42.794 51.8067 42.131 53.3203 40.8633C54.828 39.6005 55.7645 37.8664 56.1234 35.6649L58.7716 19.4269H60.57L58.0275 35.0167C57.7808 36.53 57.3688 37.8807 56.7989 39.0551C56.2232 40.2344 55.4908 41.2319 54.6052 42.0521C53.7206 42.8677 52.69 43.4916 51.5094 43.9239C50.3283 44.3562 49.0043 44.5825 47.5318 44.6022C44.4514 44.6022 42.2433 43.8306 40.9071 42.2931C39.5761 40.7552 39.1576 38.4705 39.6527 35.4341L42.2632 19.4269H44.032L41.4599 35.1984ZM43.8773 35.1984C43.5945 36.9326 43.8156 38.2888 44.5453 39.2665C45.2744 40.2491 46.4814 40.7403 48.1616 40.7403C49.7631 40.6815 51.0413 40.1657 51.9975 39.1829C52.9537 38.2003 53.5677 36.8738 53.8409 35.1984L56.4033 19.4861H58.2017L55.6778 34.9624C55.2884 37.3502 54.4268 39.1682 53.0982 40.4161C51.7648 41.6642 49.9755 42.303 47.7252 42.3322C46.2268 42.3322 45.0161 42.0426 44.0839 41.4626C43.1514 40.8831 42.5254 40.0525 42.195 38.9766C41.8641 37.9005 41.817 36.6233 42.059 35.1392L44.6117 19.4861H46.4397L43.8773 35.1984Z" fill="white"/>
<path d="M82.1284 28.0056C82.2128 27.7304 82.301 27.3075 82.3939 26.7378C82.8266 24.0848 81.4906 22.7583 78.3854 22.7583C77.5748 22.7583 76.7981 22.8516 76.061 23.0335C75.3227 23.2198 74.6861 23.5394 74.1562 23.9865C73.6255 24.4385 73.2978 25.0329 73.1784 25.7651C73.0582 26.5021 73.1902 27.0767 73.5734 27.4993C73.9565 27.9221 74.405 28.2166 74.9277 28.3836C75.445 28.5555 76.2749 28.7719 77.4195 29.0422C79.2864 29.4941 80.7048 29.8969 81.6754 30.2407C82.6452 30.5895 83.4992 31.1695 84.2251 31.9901C84.956 32.8103 85.3385 33.9604 85.3725 35.4391C85.3652 35.9351 85.3166 36.4757 85.222 37.0556C84.964 38.6376 84.3629 40.0031 83.4235 41.1533C82.4845 42.303 81.2953 43.1774 79.8654 43.7816C78.4312 44.381 76.8617 44.6956 75.1578 44.7199C73.4429 44.7199 71.9016 44.4402 70.5241 43.88C69.1503 43.3247 68.1054 42.3815 67.3939 41.05C66.6813 39.7235 66.488 37.9889 66.8175 35.8468C66.8811 35.7291 66.923 35.5913 66.9477 35.4391H68.8296C68.5163 37.36 68.676 38.8832 69.3093 39.9987C69.9424 41.1187 70.8148 41.885 71.917 42.298C73.0232 42.7155 74.1831 42.922 75.3921 42.922C76.7187 42.922 77.9502 42.7205 79.087 42.3173C80.2238 41.9146 81.1908 41.2562 81.9836 40.3426C82.7764 39.4286 83.287 38.2542 83.521 36.8195C83.6242 35.6748 83.5407 34.7415 83.2636 34.0291C82.9879 33.3117 82.5527 32.7565 81.9656 32.3488C81.3727 31.9456 80.6922 31.6314 79.9192 31.4003C79.1461 31.1695 78.0545 30.9042 76.639 30.6043C75.2942 30.295 74.259 30.0149 73.5344 29.7595C72.8093 29.504 72.201 29.0767 71.7189 28.477C71.2378 27.8727 71.0726 27.0472 71.224 26.0008C71.7496 22.7776 74.164 21.1664 78.4682 21.1664C80.4924 21.1664 82.0131 21.6329 83.0442 22.5715C84.0701 23.5098 84.4171 24.9984 84.0854 27.0328C84.0502 27.2487 83.9775 27.5729 83.8675 28.0056H82.1284ZM84.4278 28.0056C84.5506 27.4943 84.6293 27.1307 84.6637 26.9196C85.332 22.822 83.3183 20.7094 78.6232 20.5766H78.2057C76.9873 20.5766 75.8562 20.7633 74.8085 21.1319C73.7608 21.5004 72.8793 22.085 72.1651 22.8808C71.4495 23.6817 70.9966 24.6841 70.8002 25.8876C70.6183 27.0031 70.7432 27.8925 71.178 28.5704C71.6136 29.2437 72.2444 29.7447 73.0644 30.0786C73.8893 30.4127 74.9984 30.7224 76.3907 31.0124C78.0124 31.3415 79.2738 31.6804 80.1897 32.0292C81.1011 32.378 81.8217 32.9283 82.3478 33.6803C82.873 34.4366 83.0903 35.4832 82.9904 36.8195C82.79 38.0481 82.3223 39.0798 81.5921 39.9102C80.8616 40.7452 79.9712 41.3544 78.9146 41.7477C77.8539 42.1356 76.7313 42.3322 75.5422 42.3322C73.6568 42.2931 72.0593 41.8164 70.7501 40.8975C69.4405 39.9789 68.964 38.4114 69.3245 36.2005C69.3782 35.8714 69.4297 35.616 69.4783 35.4391H71.247C70.715 38.7013 72.1167 40.4701 75.453 40.7403C75.6887 40.7403 75.8721 40.76 76.0036 40.7996C79.0599 40.7354 80.7961 39.4286 81.212 36.8788C81.2437 36.112 81.1365 35.5028 80.9025 35.041C80.6681 34.5795 80.3322 34.2301 79.8946 33.9896C79.4584 33.744 78.85 33.5276 78.0704 33.3364C77.2909 33.1447 76.6008 32.9777 76.0043 32.8399C74.4347 32.4912 73.3156 32.2159 72.6393 32.0242C71.9631 31.8326 71.2871 31.5183 70.6172 31.0761C69.9423 30.6339 69.4504 30.005 69.1282 29.1795C68.8098 28.3593 68.7423 27.2981 68.9243 26.0008C69.191 24.3649 69.8186 23.0186 70.8115 21.9624C71.7998 20.9012 72.9959 20.1344 74.3993 19.663C75.7983 19.1912 77.2958 18.9555 78.8875 18.9555C80.553 18.9555 82.0069 19.2012 83.2493 19.6873C84.4907 20.1788 85.4276 21.0924 86.0489 22.4338C86.6705 23.7751 86.79 25.6322 86.4029 28.0056H84.4278Z" fill="white"/>
<path d="M114.124 29.2974C113.942 29.4628 113.698 29.6082 113.399 29.7251C113.093 29.8476 112.728 29.9104 112.306 29.9104C111.553 29.919 110.92 29.5854 110.408 28.9012C109.874 28.2142 109.602 27.1023 109.592 25.5628C109.602 24.0177 109.874 22.903 110.408 22.2159C110.92 21.5489 111.553 21.2153 112.306 21.2153C112.757 21.2267 113.134 21.3036 113.439 21.4433C113.726 21.5887 113.954 21.7312 114.124 21.8709L114.226 19.921C114.042 19.8155 113.767 19.7072 113.399 19.5959C113.022 19.4791 112.584 19.4221 112.086 19.4221C110.654 19.4449 109.571 20.0265 108.836 21.1668C108.476 21.7255 108.201 22.3728 108.009 23.1139C107.815 23.8722 107.72 24.6876 107.72 25.5628C107.72 27.3446 108.097 28.8014 108.85 29.9332C109.042 30.2041 109.253 30.4492 109.481 30.6687C109.701 30.8796 109.95 31.0649 110.23 31.2275C110.78 31.5326 111.42 31.6921 112.148 31.7035C112.596 31.7035 113.008 31.6608 113.385 31.5725C113.752 31.5041 114.032 31.4099 114.226 31.2816L114.124 29.2974Z" fill="#231F20"/>
<path d="M115.772 31.5325H117.474V26.401C117.474 25.8166 117.569 25.3263 117.753 24.93C117.948 24.5422 118.263 24.3398 118.697 24.3284C119.363 24.3199 119.69 24.9555 119.683 26.2442V31.5325H121.385V25.8536C121.394 24.9385 121.255 24.1716 120.961 23.5473C120.645 22.9173 120.086 22.5979 119.285 22.5865C119.029 22.5865 118.808 22.6207 118.623 22.6863C118.429 22.7689 118.263 22.8745 118.123 22.9971C117.983 23.1139 117.87 23.2479 117.78 23.4048C117.685 23.5672 117.597 23.7155 117.517 23.8551H117.474V18.7036H115.772V31.5325Z" fill="#231F20"/>
<path d="M123.592 24.9584C123.767 24.7617 124.028 24.5708 124.379 24.3854C124.72 24.2001 125.106 24.1004 125.538 24.089C126.021 24.1004 126.367 24.2685 126.574 24.5964C126.768 24.9157 126.865 25.3119 126.865 25.7823V26.113H126.514C125.424 26.1017 124.535 26.2927 123.845 26.686C123.146 27.1194 122.791 27.9233 122.783 29.0951C122.791 29.916 123.013 30.5462 123.447 30.9852C123.853 31.43 124.338 31.658 124.907 31.6694C125.41 31.658 125.817 31.5212 126.131 31.256C126.446 31.0051 126.699 30.7001 126.891 30.3381H126.917C126.908 30.7828 126.941 31.1819 127.012 31.5326H128.548C128.487 31.1563 128.453 30.6374 128.453 29.9844V26.1444C128.463 25.0212 128.29 24.1459 127.93 23.5187C127.553 22.9086 126.825 22.5979 125.744 22.5865C125.211 22.5979 124.765 22.6664 124.405 22.7947C124.037 22.9401 123.736 23.0883 123.497 23.2393L123.592 24.9584ZM126.865 27.7152C126.882 29.3716 126.417 30.2126 125.467 30.2354C125.133 30.2354 124.869 30.1071 124.677 29.8563C124.474 29.6054 124.372 29.2832 124.372 28.8869C124.391 27.7324 125.17 27.1765 126.709 27.2191H126.865V27.7152Z" fill="#231F20"/>
<path d="M130.321 31.5325H132.023V26.7032C132.033 25.8878 132.194 25.3147 132.502 24.987C132.642 24.813 132.803 24.6875 132.988 24.6106C133.163 24.5479 133.334 24.5166 133.5 24.5166C133.675 24.5166 133.836 24.5536 133.986 24.6248V22.6379C133.891 22.615 133.794 22.5979 133.697 22.5865C133.436 22.5865 133.208 22.6379 133.016 22.7405C132.815 22.8688 132.637 23.017 132.478 23.191C132.196 23.5757 132 23.9578 131.888 24.3341H131.86C131.853 23.8009 131.834 23.2622 131.808 22.7234H130.267C130.302 23.1339 130.321 23.6186 130.321 24.1745V31.5325Z" fill="#231F20"/>
<path d="M135.911 22.7234H134.782V24.277H135.911V29.1037C135.918 30.854 136.579 31.7093 137.895 31.6694C138.151 31.6694 138.374 31.6351 138.568 31.5696C138.76 31.5126 138.916 31.4527 139.037 31.3843V29.8705C138.907 29.9874 138.689 30.0529 138.383 30.0644C138.137 30.0729 137.949 29.9874 137.824 29.8049C137.684 29.6196 137.613 29.3004 137.613 28.8413V24.277H139.037V22.7234H137.613V20.2602L135.911 20.9102V22.7234Z" fill="#231F20"/>
<path d="M145.407 29.4285C145.262 29.5797 145.046 29.728 144.759 29.8734C144.468 30.033 144.063 30.1156 143.546 30.1156C142.313 30.0929 141.711 29.286 141.737 27.6981H145.847V27.2904C145.84 25.5258 145.563 24.2886 145.02 23.5815C144.48 22.9058 143.809 22.5752 143.01 22.5865C142.1 22.5979 141.393 23.0426 140.891 23.9236C140.358 24.7874 140.092 25.8992 140.092 27.2563C140.083 28.465 140.343 29.4941 140.879 30.3409C141.412 31.2047 142.242 31.6466 143.368 31.6694C143.626 31.6694 143.868 31.6409 144.086 31.5867C144.195 31.5638 144.3 31.5354 144.404 31.5012C144.506 31.4783 144.598 31.4641 144.679 31.4527C144.864 31.3786 145.025 31.3102 145.165 31.2418C145.297 31.1876 145.409 31.1419 145.494 31.1078L145.407 29.4285ZM141.737 26.3696C141.737 25.751 141.839 25.2065 142.043 24.7389C142.247 24.2714 142.569 24.032 143.01 24.0206C143.795 24.0206 144.193 24.8045 144.202 26.3696H141.737Z" fill="#231F20"/>
<path d="M147.445 31.5325H149.147V26.7032C149.156 25.8878 149.318 25.3147 149.626 24.987C149.766 24.813 149.927 24.6875 150.112 24.6106C150.287 24.5479 150.458 24.5166 150.624 24.5166C150.799 24.5166 150.96 24.5536 151.11 24.6248V22.6379C151.015 22.615 150.918 22.5979 150.821 22.5865C150.56 22.5865 150.332 22.6379 150.14 22.7405C149.939 22.8688 149.761 23.017 149.602 23.191C149.32 23.5757 149.123 23.9578 149.012 24.3341H148.983C148.976 23.8009 148.957 23.2622 148.931 22.7234H147.391C147.426 23.1339 147.445 23.6186 147.445 24.1745V31.5325Z" fill="#231F20"/>
<path d="M157.384 29.4285C157.24 29.5797 157.024 29.728 156.737 29.8734C156.446 30.033 156.04 30.1156 155.523 30.1156C154.291 30.0929 153.689 29.286 153.715 27.6981H157.825V27.2904C157.818 25.5258 157.541 24.2886 156.998 23.5815C156.457 22.9058 155.786 22.5752 154.988 22.5865C154.077 22.5979 153.371 23.0426 152.868 23.9236C152.335 24.7874 152.07 25.8992 152.07 27.2563C152.06 28.465 152.321 29.4941 152.857 30.3409C153.39 31.2047 154.22 31.6466 155.346 31.6694C155.604 31.6694 155.846 31.6409 156.064 31.5867C156.173 31.5638 156.277 31.5354 156.381 31.5012C156.483 31.4783 156.576 31.4641 156.657 31.4527C156.841 31.3786 157.003 31.3102 157.142 31.2418C157.275 31.1876 157.386 31.1419 157.472 31.1078L157.384 29.4285ZM153.715 26.3696C153.715 25.751 153.817 25.2065 154.02 24.7389C154.224 24.2714 154.547 24.032 154.988 24.0206C155.772 24.0206 156.17 24.8045 156.18 26.3696H153.715Z" fill="#231F20"/>
<path d="M163.49 18.7036V23.992H163.462C163.341 23.6243 163.135 23.2964 162.843 23.0142C162.54 22.7405 162.137 22.5979 161.634 22.5865C160.025 22.6321 159.207 24.1488 159.181 27.1394C159.181 28.3937 159.378 29.4486 159.771 30.3066C160.167 31.1933 160.8 31.6466 161.674 31.6694C162.224 31.658 162.646 31.4984 162.938 31.1904C163.225 30.894 163.431 30.5519 163.557 30.1641H163.597C163.597 30.7913 163.618 31.2475 163.659 31.5326H165.251C165.213 31.1819 165.192 30.6802 165.192 30.0301V18.7036H163.49ZM160.883 27.0482C160.876 26.153 160.97 25.4402 161.174 24.91C161.376 24.4082 161.705 24.1517 162.163 24.1402C162.634 24.1517 162.976 24.4282 163.187 24.9669C163.388 25.5143 163.49 26.2271 163.49 27.1081C163.49 27.949 163.393 28.656 163.199 29.229C162.997 29.8078 162.644 30.1042 162.137 30.1156C161.264 30.1156 160.847 29.0921 160.883 27.0482Z" fill="#231F20"/>
<path d="M172.054 26.9855L173.38 21.3863H173.406L174.617 26.9855H172.054ZM175.665 31.5325H177.478L174.38 19.5931H172.453L169.234 31.5325H170.993L171.685 28.656H174.987L175.665 31.5325Z" fill="#231F20"/>
<path d="M183.338 29.6366C183.214 29.7251 183.041 29.8163 182.811 29.9046C182.574 30.0102 182.344 30.0644 182.124 30.0644C181.484 30.0529 181 29.765 180.678 29.2034C180.346 28.6674 180.178 27.986 180.178 27.1564C180.161 25.2093 180.782 24.2201 182.043 24.1915C182.283 24.1915 182.506 24.2401 182.716 24.3341C182.911 24.4224 183.084 24.5223 183.243 24.6277L183.338 22.9457C183.179 22.8574 182.963 22.7748 182.69 22.7033C182.551 22.6692 182.413 22.6379 182.273 22.6037C182.138 22.5923 181.998 22.5865 181.849 22.5865C180.673 22.5979 179.806 23.0369 179.246 23.9065C178.685 24.7588 178.409 25.8365 178.419 27.1394C178.409 28.4166 178.675 29.4827 179.218 30.3409C179.754 31.2047 180.597 31.6466 181.754 31.6694C182.461 31.658 183.018 31.5382 183.43 31.3102L183.338 29.6366Z" fill="#231F20"/>
<path d="M189.394 29.6366C189.271 29.7251 189.098 29.8163 188.868 29.9046C188.631 30.0102 188.401 30.0644 188.18 30.0644C187.54 30.0529 187.057 29.765 186.734 29.2034C186.403 28.6674 186.234 27.986 186.234 27.1564C186.218 25.2093 186.839 24.2201 188.1 24.1915C188.339 24.1915 188.562 24.2401 188.773 24.3341C188.967 24.4224 189.14 24.5223 189.299 24.6277L189.394 22.9457C189.235 22.8574 189.019 22.7748 188.747 22.7033C188.607 22.6692 188.469 22.6379 188.33 22.6037C188.194 22.5923 188.055 22.5865 187.905 22.5865C186.73 22.5979 185.862 23.0369 185.303 23.9065C184.741 24.7588 184.466 25.8365 184.475 27.1394C184.466 28.4166 184.731 29.4827 185.274 30.3409C185.81 31.2047 186.654 31.6466 187.811 31.6694C188.517 31.658 189.074 31.5382 189.486 31.3102L189.394 29.6366Z" fill="#231F20"/>
<path d="M192.291 27.1223C192.283 26.3439 192.373 25.6483 192.565 25.0354C192.677 24.7389 192.821 24.5052 192.995 24.3313C193.156 24.1716 193.374 24.089 193.651 24.089C193.924 24.089 194.151 24.1716 194.334 24.3313C194.516 24.5052 194.656 24.7389 194.749 25.0354C194.924 25.6483 195.007 26.3439 194.997 27.1223C195.007 27.8863 194.924 28.5762 194.749 29.1891C194.656 29.4884 194.516 29.7223 194.334 29.8904C194.151 30.0729 193.924 30.167 193.651 30.167C193.374 30.167 193.156 30.0729 192.995 29.8904C192.821 29.7223 192.677 29.4884 192.565 29.1891C192.373 28.5762 192.283 27.8863 192.291 27.1223ZM190.532 27.1223C190.532 27.5812 190.558 27.9888 190.612 28.351C190.669 28.7301 190.743 29.0722 190.833 29.3802C191.015 29.9703 191.259 30.4321 191.565 30.7657C191.717 30.9395 191.881 31.0763 192.053 31.1762C192.219 31.3045 192.39 31.4014 192.563 31.4698C192.93 31.6038 193.293 31.6694 193.651 31.6694C194.026 31.6694 194.398 31.6038 194.765 31.4698C195.13 31.3301 195.46 31.0964 195.751 30.7657C196.055 30.4321 196.299 29.9703 196.481 29.3802C196.666 28.7843 196.756 28.0317 196.756 27.1223C196.756 26.2214 196.666 25.4716 196.481 24.8758C196.299 24.2857 196.055 23.8267 195.751 23.496C195.46 23.151 195.13 22.9086 194.765 22.769C194.398 22.6464 194.026 22.5865 193.651 22.5865C193.293 22.5865 192.93 22.6464 192.563 22.769C192.39 22.8432 192.219 22.9344 192.053 23.0455C191.881 23.1738 191.717 23.325 191.565 23.496C191.259 23.8267 191.015 24.2857 190.833 24.8758C190.743 25.1665 190.669 25.4972 190.612 25.8708C190.558 26.2499 190.532 26.6661 190.532 27.1223Z" fill="#231F20"/>
<path d="M203.97 22.7234H202.268V27.7637C202.268 28.0431 202.253 28.3082 202.225 28.5563C202.189 28.8185 202.123 29.0523 202.028 29.2576C201.853 29.688 201.537 29.9104 201.085 29.9276C200.393 29.9475 200.051 29.3089 200.058 28.0061V22.7234H198.356V28.4022C198.347 29.3174 198.496 30.0815 198.807 30.7001C199.113 31.3358 199.66 31.658 200.452 31.6694C200.734 31.658 200.976 31.6009 201.18 31.4984C201.386 31.4099 201.556 31.296 201.692 31.1563C201.838 30.9937 201.969 30.8313 202.08 30.663C202.17 30.5034 202.258 30.3409 202.343 30.1783L202.324 30.1641L202.372 30.1783C202.372 30.626 202.388 31.0763 202.424 31.5326H204.022C203.988 31.1192 203.97 30.6345 203.97 30.0757V22.7234Z" fill="#231F20"/>
<path d="M205.738 31.5325H207.44V26.401C207.44 25.8166 207.535 25.3263 207.719 24.93C207.914 24.5422 208.229 24.3398 208.663 24.3284C209.329 24.3199 209.656 24.9555 209.649 26.2442V31.5325H211.351V25.8536C211.36 24.9385 211.22 24.1716 210.927 23.5473C210.614 22.9173 210.057 22.5979 209.255 22.5865C208.969 22.5865 208.724 22.6321 208.523 22.7234C208.319 22.8288 208.141 22.96 207.983 23.1167C207.84 23.2764 207.717 23.4389 207.613 23.6015C207.523 23.7725 207.44 23.9321 207.364 24.0775H207.378H207.335C207.328 23.6186 207.309 23.1681 207.283 22.7234H205.678C205.716 23.1339 205.738 23.6186 205.738 24.1745V31.5325Z" fill="#231F20"/>
<path d="M213.759 22.7234H212.631V24.277H213.759V29.1037C213.766 30.854 214.428 31.7093 215.743 31.6694C215.999 31.6694 216.222 31.6351 216.416 31.5696C216.608 31.5126 216.765 31.4527 216.886 31.3843V29.8705C216.755 29.9874 216.537 30.0529 216.232 30.0644C215.985 30.0729 215.798 29.9874 215.672 29.8049C215.532 29.6196 215.461 29.3004 215.461 28.8413V24.277H216.886V22.7234H215.461V20.2602L213.759 20.9102V22.7234Z" fill="#231F20"/>
<path d="M218.564 24.9584C218.739 24.7617 219 24.5708 219.351 24.3854C219.692 24.2001 220.079 24.1004 220.51 24.089C220.994 24.1004 221.34 24.2685 221.546 24.5964C221.74 24.9157 221.837 25.3119 221.837 25.7823V26.113H221.487C220.396 26.1017 219.507 26.2927 218.818 26.686C218.118 27.1194 217.763 27.9233 217.756 29.0951C217.763 29.916 217.986 30.5462 218.419 30.9852C218.825 31.43 219.311 31.658 219.88 31.6694C220.382 31.658 220.79 31.5212 221.103 31.256C221.418 31.0051 221.672 30.7001 221.864 30.3381H221.89C221.88 30.7828 221.913 31.1819 221.984 31.5326H223.521C223.459 31.1563 223.426 30.6374 223.426 29.9844V26.1444C223.435 25.0212 223.262 24.1459 222.902 23.5187C222.525 22.9086 221.797 22.5979 220.716 22.5865C220.183 22.5979 219.737 22.6664 219.377 22.7947C219.01 22.9401 218.709 23.0883 218.469 23.2393L218.564 24.9584ZM221.837 27.7152C221.854 29.3716 221.39 30.2126 220.439 30.2354C220.105 30.2354 219.842 30.1071 219.65 29.8563C219.446 29.6054 219.344 29.2832 219.344 28.8869C219.363 27.7324 220.143 27.1765 221.681 27.2191H221.837V27.7152Z" fill="#231F20"/>
<path d="M225.236 31.5325H226.939V26.401C226.939 25.8166 227.033 25.3263 227.218 24.93C227.413 24.5422 227.728 24.3398 228.162 24.3284C228.828 24.3199 229.155 24.9555 229.148 26.2442V31.5325H230.85V25.8536C230.859 24.9385 230.719 24.1716 230.425 23.5473C230.112 22.9173 229.555 22.5979 228.754 22.5865C228.467 22.5865 228.223 22.6321 228.022 22.7234C227.818 22.8288 227.64 22.96 227.481 23.1167C227.339 23.2764 227.216 23.4389 227.112 23.6015C227.022 23.7725 226.939 23.9321 226.863 24.0775H226.877H226.834C226.827 23.6186 226.808 23.1681 226.782 22.7234H225.177C225.215 23.1339 225.236 23.6186 225.236 24.1745V31.5325Z" fill="#231F20"/>
<path d="M233.258 22.7234H232.13V24.277H233.258V29.1037C233.265 30.854 233.926 31.7093 235.242 31.6694C235.498 31.6694 235.721 31.6351 235.915 31.5696C236.107 31.5126 236.264 31.4527 236.384 31.3843V29.8705C236.254 29.9874 236.036 30.0529 235.73 30.0644C235.484 30.0729 235.297 29.9874 235.171 29.8049C235.031 29.6196 234.96 29.3004 234.96 28.8413V24.277H236.384V22.7234H234.96V20.2602L233.258 20.9102V22.7234Z" fill="#231F20"/>
<path d="M237.354 31.2418C237.541 31.3387 237.812 31.43 238.162 31.5183C238.511 31.6067 238.911 31.658 239.364 31.6694C240.17 31.658 240.815 31.4241 241.298 30.9681C241.799 30.5176 242.052 29.8847 242.062 29.0722C242.062 28.5705 241.95 28.1543 241.732 27.8264C241.509 27.4928 241.178 27.1678 240.739 26.8486L239.848 26.1815C239.587 25.9762 239.383 25.7908 239.236 25.6284C239.08 25.4745 238.999 25.2806 238.999 25.0526C238.992 24.4967 239.331 24.2086 240.018 24.1915C240.338 24.1915 240.63 24.2287 240.891 24.3C241.137 24.3911 241.365 24.488 241.573 24.5935L241.673 22.9457C241.635 22.923 241.566 22.8916 241.467 22.846C241.36 22.7947 241.227 22.7547 241.066 22.7205C240.741 22.6436 240.338 22.5979 239.857 22.5865C239.087 22.5979 238.48 22.8545 238.042 23.3563C237.582 23.8551 237.354 24.4339 237.354 25.0839C237.354 25.4231 237.402 25.7139 237.501 25.9534C237.596 26.2042 237.71 26.4267 237.845 26.6204C237.982 26.8058 238.143 26.9769 238.328 27.1394C238.494 27.2847 238.67 27.4273 238.852 27.5641L239.599 28.0745C239.935 28.2911 240.158 28.4879 240.267 28.6588C240.362 28.8442 240.412 29.018 240.412 29.1863C240.412 29.5198 240.308 29.7479 240.097 29.8705C239.881 29.9988 239.604 30.0644 239.269 30.0644C238.852 30.0529 238.482 29.9645 238.158 29.8049C237.828 29.671 237.586 29.5625 237.435 29.4771L237.354 31.2418Z" fill="#231F20"/>
<path d="M107.709 47.8071H108.586V44.5195H108.989C109.315 44.5195 109.559 44.5835 109.719 44.7078C109.88 44.8409 110.008 45.0552 110.103 45.354L110.906 47.8071H111.858L110.88 44.9066C110.811 44.6976 110.722 44.5369 110.611 44.4245C110.49 44.3175 110.326 44.2414 110.117 44.1965V44.1776C110.632 44.0515 110.994 43.8268 111.207 43.5038C111.402 43.1928 111.499 42.8404 111.499 42.4448C111.499 41.8989 111.326 41.4394 110.979 41.0679C110.825 40.9091 110.635 40.7846 110.41 40.693C110.174 40.6119 109.872 40.5722 109.502 40.5722H107.709V47.8071ZM108.586 41.3063H109.291C109.687 41.3063 110.003 41.4031 110.239 41.5966C110.466 41.7936 110.58 42.0976 110.58 42.5088C110.58 42.8335 110.483 43.1255 110.29 43.3846C110.079 43.6454 109.74 43.7801 109.27 43.7871H108.586V41.3063Z" fill="#231F20"/>
<path d="M116.443 45.4214V44.9567C116.431 43.3121 115.832 42.4759 114.646 42.4482C114.012 42.4552 113.529 42.6988 113.192 43.1774C112.846 43.6593 112.674 44.3227 112.674 45.1657C112.674 46.0035 112.85 46.6601 113.202 47.1352C113.544 47.624 114.054 47.8728 114.731 47.8796C115.263 47.8728 115.74 47.7726 116.161 47.5756L116.122 46.7896C115.975 46.895 115.799 46.9935 115.593 47.0851C115.377 47.1801 115.163 47.2284 114.951 47.2284C114.018 47.2335 113.551 46.6324 113.551 45.4214H116.443ZM113.551 44.7718C113.572 44.1498 113.682 43.7111 113.886 43.4589C114.087 43.2205 114.323 43.0995 114.598 43.0995C115.27 43.0995 115.607 43.6575 115.607 44.7718H113.551Z" fill="#231F20"/>
<path d="M118.11 45.1639C118.105 43.8234 118.482 43.1479 119.242 43.141C120.005 43.1479 120.382 43.8234 120.373 45.1639C120.382 46.5114 120.005 47.1869 119.242 47.1869C118.482 47.1869 118.105 46.5114 118.11 45.1639ZM121.209 43.4831C121.209 43.16 121.225 42.8387 121.254 42.5209L120.446 42.5226L120.416 43.274H120.397C120.092 42.7368 119.672 42.4621 119.138 42.4482C117.915 42.4482 117.293 43.3535 117.274 45.1657C117.3 46.9744 117.889 47.8796 119.045 47.8796C119.608 47.8796 120.059 47.586 120.397 46.9969H120.416V47.8279C120.416 48.2908 120.308 48.6605 120.092 48.9369C119.862 49.2219 119.489 49.3671 118.974 49.374C118.73 49.3671 118.485 49.3222 118.234 49.241C117.974 49.1494 117.747 49.0405 117.561 48.9145L117.521 49.7869C117.989 49.9873 118.489 50.0943 119.019 50.1082C119.603 50.1082 120.112 49.9424 120.548 49.6089C120.976 49.279 121.197 48.7555 121.209 48.0386V43.4831Z" fill="#231F20"/>
<path d="M122.591 47.8071H123.428V42.5208H122.591V47.8071ZM122.547 40.3459V41.379H123.469V40.3459H122.547Z" fill="#231F20"/>
<path d="M124.59 46.7879L124.545 47.5756C124.924 47.7709 125.383 47.8728 125.924 47.8796C126.509 47.8728 126.934 47.7104 127.194 47.3925C127.442 47.0868 127.565 46.7032 127.565 46.2385C127.553 45.5855 127.214 45.1363 126.551 44.8892L126.252 44.7614C125.677 44.561 125.388 44.2639 125.388 43.8684C125.388 43.6506 125.463 43.4727 125.609 43.3345C125.751 43.2067 125.958 43.141 126.233 43.141C126.63 43.1496 126.964 43.2308 127.235 43.3846L127.28 42.6348C126.986 42.5174 126.625 42.4552 126.197 42.4482C125.694 42.4552 125.298 42.6003 125.012 42.8854C124.704 43.1756 124.552 43.5419 124.552 43.9858C124.552 44.3141 124.628 44.5766 124.782 44.777C124.943 44.9825 125.2 45.1743 125.552 45.3505L126.117 45.608C126.352 45.7133 126.525 45.8308 126.632 45.9586C126.724 46.0899 126.77 46.2506 126.77 46.4407C126.77 46.6392 126.689 46.8121 126.528 46.9571C126.37 47.1109 126.124 47.1868 125.798 47.1868C125.376 47.1801 124.974 47.047 124.59 46.7879Z" fill="#231F20"/>
<path d="M130.904 47.0487C130.758 47.1402 130.581 47.1868 130.379 47.1868C130.193 47.1868 130.058 47.1195 129.975 46.9883C129.89 46.8622 129.847 46.6496 129.847 46.3509V43.2136H130.904V42.5209H129.847V41.1803L129.011 41.4428V42.5209H128.201V43.2136H129.011V46.6255C129.011 47.0833 129.113 47.4081 129.318 47.5999C129.521 47.7863 129.811 47.8796 130.189 47.8796C130.443 47.8728 130.683 47.8296 130.904 47.7501V47.0487Z" fill="#231F20"/>
<path d="M135.235 45.4214V44.9567C135.223 43.3121 134.624 42.4759 133.439 42.4482C132.805 42.4552 132.321 42.6988 131.984 43.1774C131.638 43.6593 131.466 44.3227 131.466 45.1657C131.466 46.0035 131.642 46.6601 131.994 47.1352C132.336 47.624 132.846 47.8728 133.523 47.8796C134.055 47.8728 134.532 47.7726 134.954 47.5756L134.914 46.7896C134.767 46.895 134.591 46.9935 134.385 47.0851C134.169 47.1801 133.955 47.2284 133.743 47.2284C132.81 47.2335 132.343 46.6324 132.343 45.4214H135.235ZM132.343 44.7718C132.364 44.1498 132.475 43.7111 132.679 43.4589C132.879 43.2205 133.116 43.0995 133.39 43.0995C134.062 43.0995 134.399 43.6575 134.399 44.7718H132.343Z" fill="#231F20"/>
<path d="M136.315 47.8071H137.151V45.0085C137.172 43.8528 137.542 43.2757 138.264 43.2757C138.379 43.2757 138.487 43.2861 138.588 43.3069V42.4482C137.866 42.4413 137.381 42.7402 137.132 43.3449H137.113L137.084 42.5208H136.275C136.294 42.8923 136.308 43.2705 136.315 43.6593V47.8071Z" fill="#231F20"/>
<path d="M142.902 45.4214V44.9567C142.89 43.3121 142.291 42.4759 141.105 42.4482C140.471 42.4552 139.988 42.6988 139.651 43.1774C139.305 43.6593 139.133 44.3227 139.133 45.1657C139.133 46.0035 139.309 46.6601 139.661 47.1352C140.003 47.624 140.513 47.8728 141.19 47.8796C141.722 47.8728 142.199 47.7726 142.62 47.5756L142.581 46.7896C142.434 46.895 142.258 46.9935 142.052 47.0851C141.836 47.1801 141.622 47.2284 141.409 47.2284C140.477 47.2335 140.01 46.6324 140.01 45.4214H142.902ZM140.01 44.7718C140.031 44.1498 140.141 43.7111 140.345 43.4589C140.546 43.2205 140.782 43.0995 141.057 43.0995C141.729 43.0995 142.066 43.6575 142.066 44.7718H140.01Z" fill="#231F20"/>
<path d="M146.832 45.1639C146.841 46.5114 146.464 47.1868 145.701 47.1868C144.941 47.1868 144.564 46.5114 144.569 45.1639C144.564 43.8234 144.941 43.1479 145.701 43.141C146.464 43.1479 146.841 43.8234 146.832 45.1639ZM147.668 40.0332H146.832V43.2343H146.811C146.497 42.704 146.06 42.4413 145.504 42.4482C144.348 42.4482 143.759 43.3535 143.733 45.1657C143.759 46.9744 144.348 47.8796 145.504 47.8796C145.873 47.8728 146.165 47.7795 146.378 47.5999C146.589 47.4339 146.748 47.2439 146.856 47.0263H146.875L146.905 47.8071H147.713C147.684 47.4823 147.668 47.1576 147.668 46.8345V40.0332Z" fill="#231F20"/>
<path d="M152.701 40.5722L150.351 47.8071H151.236L151.795 45.9189H154.463L155.026 47.8071H155.945L153.659 40.5722H152.701ZM152.034 45.1346L153.141 41.524H153.16L154.233 45.1346H152.034Z" fill="#231F20"/>
<path d="M160.44 42.5209H159.604V45.7082C159.59 46.6653 159.226 47.1454 158.512 47.1454C157.952 47.1576 157.669 46.7551 157.662 45.9362V42.5209H156.826V46.1936C156.852 47.3235 157.351 47.8865 158.325 47.8796C158.921 47.8865 159.353 47.5999 159.623 47.0176H159.642L159.671 47.8071H160.481C160.454 47.4322 160.44 47.0539 160.44 46.6687V42.5209Z" fill="#231F20"/>
<path d="M164.673 45.1639C164.681 46.5114 164.305 47.1868 163.541 47.1868C162.781 47.1868 162.404 46.5114 162.409 45.1639C162.404 43.8234 162.781 43.1479 163.541 43.141C164.305 43.1479 164.681 43.8234 164.673 45.1639ZM165.509 40.0332H164.673V43.2343H164.652C164.337 42.704 163.9 42.4413 163.344 42.4482C162.188 42.4482 161.599 43.3535 161.573 45.1657C161.599 46.9744 162.188 47.8796 163.344 47.8796C163.714 47.8728 164.006 47.7795 164.218 47.5999C164.429 47.4339 164.588 47.2439 164.697 47.0263H164.716L164.745 47.8071H165.554C165.524 47.4823 165.509 47.1576 165.509 46.8345V40.0332Z" fill="#231F20"/>
<path d="M166.891 47.8071H167.727V42.5208H166.891V47.8071ZM166.846 40.3459V41.379H167.768V40.3459H166.846Z" fill="#231F20"/>
<path d="M171.367 47.0487C171.22 47.1402 171.044 47.1868 170.842 47.1868C170.655 47.1868 170.52 47.1195 170.437 46.9883C170.353 46.8622 170.31 46.6496 170.31 46.3509V43.2136H171.367V42.5209H170.31V41.1803L169.473 41.4428V42.5209H168.663V43.2136H169.473V46.6255C169.473 47.0833 169.575 47.4081 169.781 47.5999C169.983 47.7863 170.273 47.8796 170.652 47.8796C170.906 47.8728 171.146 47.8296 171.367 47.7501V47.0487Z" fill="#231F20"/>
<path d="M172.806 45.1639C172.801 43.8234 173.193 43.1479 173.986 43.141C174.777 43.1479 175.169 43.8234 175.162 45.1639C175.169 46.5114 174.777 47.1868 173.986 47.1868C173.193 47.1868 172.801 46.5114 172.806 45.1639ZM171.928 45.1639C171.928 46.0018 172.104 46.6583 172.457 47.1352C172.801 47.624 173.31 47.8728 173.986 47.8796C174.666 47.8728 175.181 47.624 175.53 47.1352C175.87 46.6601 176.04 46.0035 176.04 45.1657C176.04 44.3227 175.87 43.6593 175.53 43.1774C175.181 42.6988 174.666 42.4552 173.986 42.4482C173.31 42.4552 172.801 42.6971 172.457 43.1756C172.104 43.6593 171.928 44.321 171.928 45.1639Z" fill="#231F20"/>
<path d="M177.173 47.8071H178.009V45.0085C178.03 43.8528 178.4 43.2757 179.122 43.2757C179.237 43.2757 179.345 43.2861 179.446 43.3069V42.4482C178.724 42.4413 178.239 42.7402 177.99 43.3449H177.971L177.942 42.5208H177.133C177.152 42.8923 177.166 43.2705 177.173 43.6593V47.8071Z" fill="#231F20"/>
<path d="M180.018 46.7879L179.973 47.5756C180.352 47.7709 180.811 47.8728 181.352 47.8796C181.938 47.8728 182.363 47.7104 182.622 47.3925C182.87 47.0868 182.993 46.7032 182.993 46.2385C182.981 45.5855 182.642 45.1363 181.979 44.8892L181.68 44.7614C181.105 44.561 180.816 44.2639 180.816 43.8684C180.816 43.6506 180.891 43.4727 181.037 43.3345C181.179 43.2067 181.386 43.141 181.661 43.141C182.058 43.1496 182.392 43.2308 182.663 43.3846L182.708 42.6348C182.414 42.5174 182.053 42.4552 181.625 42.4482C181.122 42.4552 180.726 42.6003 180.44 42.8854C180.132 43.1756 179.98 43.5419 179.98 43.9858C179.98 44.3141 180.056 44.5766 180.21 44.777C180.371 44.9825 180.628 45.1743 180.981 45.3505L181.545 45.608C181.78 45.7133 181.953 45.8308 182.06 45.9586C182.152 46.0899 182.198 46.2506 182.198 46.4407C182.198 46.6392 182.117 46.8121 181.956 46.9571C181.798 47.1109 181.552 47.1868 181.226 47.1868C180.804 47.1801 180.402 47.047 180.018 46.7879Z" fill="#231F20"/>
<path d="M188.324 44.283L189.877 46.4476C189.762 46.6272 189.594 46.7844 189.369 46.9157C189.15 47.0677 188.918 47.1454 188.677 47.1454C188.279 47.1386 187.968 47.0055 187.742 46.7481C187.505 46.4976 187.386 46.1849 187.386 45.8135C187.386 45.4785 187.481 45.1795 187.668 44.9187C187.835 44.6682 188.055 44.4557 188.324 44.283ZM191.94 47.8071L190.859 46.375C191.32 45.582 191.581 44.7044 191.639 43.7439H190.8C190.772 44.4816 190.629 45.1415 190.37 45.7219L189.05 43.87C189.52 43.5868 189.862 43.2826 190.076 42.9596C190.273 42.6452 190.371 42.3256 190.371 42.0026C190.366 41.5604 190.226 41.2009 189.953 40.9246C189.673 40.6481 189.293 40.5064 188.81 40.4997C188.329 40.5064 187.946 40.6413 187.661 40.9039C187.355 41.1751 187.203 41.55 187.203 42.0336C187.21 42.3308 187.291 42.6211 187.45 42.9043C187.609 43.1876 187.771 43.4468 187.936 43.6835C186.984 44.1654 186.509 44.8979 186.509 45.8809C186.509 46.4337 186.687 46.9002 187.042 47.2819C187.39 47.6741 187.903 47.8728 188.583 47.8796C188.95 47.8796 189.288 47.8071 189.599 47.662C189.91 47.5151 190.157 47.2975 190.342 47.0072L190.897 47.8071H191.94ZM189.577 41.9801C189.577 42.2219 189.509 42.443 189.376 42.6418C189.23 42.8456 188.984 43.0598 188.639 43.2844C188.494 43.0995 188.354 42.8819 188.221 42.6331C188.074 42.3827 188.001 42.1615 188.001 41.9698C188.001 41.7262 188.081 41.5344 188.24 41.3962C188.392 41.2614 188.585 41.1924 188.82 41.1924C189.081 41.1992 189.273 41.2788 189.395 41.4307C189.516 41.5845 189.577 41.7659 189.577 41.9801Z" fill="#231F20"/>
<path d="M195.976 47.8071H196.853V41.3582H198.458V40.5722H194.369V41.3582H195.976V47.8071Z" fill="#231F20"/>
<path d="M198.912 43.7025C199.235 43.3362 199.676 43.1479 200.232 43.141C200.412 43.141 200.579 43.167 200.733 43.2153C200.887 43.2654 201.004 43.3553 201.087 43.4866C201.165 43.597 201.219 43.718 201.245 43.8493C201.267 43.9823 201.279 44.143 201.279 44.3364V44.5749H200.783C199.92 44.58 199.301 44.7459 198.924 45.0707C198.553 45.4041 198.37 45.8325 198.377 46.356C198.377 46.8622 198.52 47.2404 198.807 47.4892C199.075 47.7501 199.424 47.8796 199.852 47.8796C200.241 47.8728 200.552 47.7898 200.783 47.6309C201.011 47.4789 201.181 47.3009 201.288 47.0936H201.307L201.357 47.8071H202.115C202.088 47.6015 202.074 47.332 202.074 46.9969V44.2449C202.074 43.8769 202.032 43.5936 201.948 43.395C201.853 43.1998 201.749 43.0512 201.635 42.9492C201.557 42.8508 201.405 42.7472 201.184 42.6348C201.075 42.5813 200.946 42.5363 200.792 42.4983C200.631 42.4656 200.457 42.4482 200.272 42.4482C199.748 42.4552 199.265 42.5968 198.824 42.875L198.912 43.7025ZM201.279 45.8826C201.279 46.261 201.174 46.5719 200.963 46.8206C200.751 47.0851 200.455 47.2215 200.078 47.2284C199.502 47.2146 199.213 46.9054 199.213 46.3007C199.213 45.9812 199.339 45.7167 199.588 45.506C199.826 45.3056 200.193 45.202 200.683 45.1968C200.923 45.1968 201.122 45.202 201.279 45.2158V45.8826Z" fill="#231F20"/>
<path d="M202.894 47.8071H203.82L204.897 45.62L206.03 47.8071H206.996L205.396 44.9964L206.864 42.5208H205.942L204.955 44.4245L203.974 42.5208H203.046L204.458 44.9671L202.894 47.8071Z" fill="#231F20"/>
<path d="M211.57 40.5722L209.221 47.8071H210.105L210.665 45.9189H213.332L213.895 47.8071H214.814L212.529 40.5722H211.57ZM210.903 45.1346L212.011 41.524H212.029L213.102 45.1346H210.903Z" fill="#231F20"/>
<path d="M218.546 45.1639C218.554 46.5114 218.178 47.1868 217.414 47.1868C216.654 47.1868 216.278 46.5114 216.283 45.1639C216.278 43.8234 216.654 43.1479 217.414 43.141C218.178 43.1479 218.554 43.8234 218.546 45.1639ZM219.382 40.0332H218.546V43.2343H218.525C218.211 42.704 217.774 42.4413 217.217 42.4482C216.062 42.4482 215.473 43.3535 215.447 45.1657C215.473 46.9744 216.062 47.8796 217.217 47.8796C217.587 47.8728 217.879 47.7795 218.091 47.5999C218.302 47.4339 218.461 47.2439 218.57 47.0263H218.589L218.618 47.8071H219.427C219.397 47.4823 219.382 47.1576 219.382 46.8345V40.0332Z" fill="#231F20"/>
<path d="M221.712 47.8071H222.718L224.254 42.5208H223.371L222.222 46.9382H222.203L221.078 42.5208H220.152L221.712 47.8071Z" fill="#231F20"/>
<path d="M225.178 47.8071H226.014V42.5208H225.178V47.8071ZM225.133 40.3459V41.379H226.055V40.3459H225.133Z" fill="#231F20"/>
<path d="M227.177 46.7879L227.132 47.5756C227.51 47.7709 227.97 47.8728 228.51 47.8796C229.096 47.8728 229.521 47.7104 229.78 47.3925C230.029 47.0868 230.151 46.7032 230.151 46.2385C230.139 45.5855 229.801 45.1363 229.137 44.8892L228.838 44.7614C228.263 44.561 227.975 44.2639 227.975 43.8684C227.975 43.6506 228.049 43.4727 228.196 43.3345C228.337 43.2067 228.545 43.141 228.82 43.141C229.217 43.1496 229.55 43.2308 229.821 43.3846L229.866 42.6348C229.573 42.5174 229.212 42.4552 228.783 42.4482C228.281 42.4552 227.885 42.6003 227.598 42.8854C227.291 43.1756 227.139 43.5419 227.139 43.9858C227.139 44.3141 227.215 44.5766 227.368 44.777C227.529 44.9825 227.786 45.1743 228.139 45.3505L228.704 45.608C228.939 45.7133 229.111 45.8308 229.219 45.9586C229.31 46.0899 229.357 46.2506 229.357 46.4407C229.357 46.6392 229.276 46.8121 229.115 46.9571C228.956 47.1109 228.711 47.1868 228.384 47.1868C227.963 47.1801 227.56 47.047 227.177 46.7879Z" fill="#231F20"/>
<path d="M231.863 45.1639C231.858 43.8234 232.25 43.1479 233.043 43.141C233.835 43.1479 234.227 43.8234 234.22 45.1639C234.227 46.5114 233.835 47.1868 233.043 47.1868C232.25 47.1868 231.858 46.5114 231.863 45.1639ZM230.986 45.1639C230.986 46.0018 231.162 46.6583 231.515 47.1352C231.858 47.624 232.368 47.8728 233.043 47.8796C233.724 47.8728 234.239 47.624 234.588 47.1352C234.928 46.6601 235.097 46.0035 235.097 45.1657C235.097 44.3227 234.928 43.6593 234.588 43.1774C234.239 42.6988 233.724 42.4552 233.043 42.4482C232.368 42.4552 231.858 42.6971 231.515 43.1756C231.162 43.6593 230.986 44.321 230.986 45.1639Z" fill="#231F20"/>
<path d="M236.231 47.8071H237.067V45.0085C237.088 43.8528 237.457 43.2757 238.179 43.2757C238.295 43.2757 238.402 43.2861 238.504 43.3069V42.4482C237.782 42.4413 237.297 42.7402 237.048 43.3449H237.029L237 42.5208H236.191C236.21 42.8923 236.224 43.2705 236.231 43.6593V47.8071Z" fill="#231F20"/>
<path d="M239.076 46.7879L239.031 47.5756C239.409 47.7709 239.869 47.8728 240.41 47.8796C240.995 47.8728 241.42 47.7104 241.679 47.3925C241.928 47.0868 242.051 46.7032 242.051 46.2385C242.039 45.5855 241.7 45.1363 241.037 44.8892L240.738 44.7614C240.163 44.561 239.874 44.2639 239.874 43.8684C239.874 43.6506 239.948 43.4727 240.095 43.3345C240.237 43.2067 240.444 43.141 240.719 43.141C241.116 43.1496 241.45 43.2308 241.721 43.3846L241.766 42.6348C241.472 42.5174 241.111 42.4552 240.683 42.4482C240.18 42.4552 239.784 42.6003 239.497 42.8854C239.19 43.1756 239.038 43.5419 239.038 43.9858C239.038 44.3141 239.114 44.5766 239.268 44.777C239.428 44.9825 239.686 45.1743 240.038 45.3505L240.603 45.608C240.838 45.7133 241.011 45.8308 241.118 45.9586C241.209 46.0899 241.256 46.2506 241.256 46.4407C241.256 46.6392 241.175 46.8121 241.014 46.9571C240.855 47.1109 240.61 47.1868 240.283 47.1868C239.862 47.1801 239.459 47.047 239.076 46.7879Z" fill="#231F20"/>
<path d="M94.8085 14.789C95.1475 14.789 95.4782 14.8757 95.8017 15.0502C96.1242 15.2239 96.3764 15.4732 96.5564 15.7968C96.7363 16.1211 96.8268 16.4591 96.8268 16.81C96.8268 17.1581 96.7381 17.4935 96.56 17.8141C96.3828 18.1357 96.1342 18.3851 95.8135 18.5624C95.4928 18.7405 95.1575 18.8292 94.8085 18.8292C94.4586 18.8292 94.1233 18.7405 93.8026 18.5624C93.4819 18.3851 93.2324 18.1357 93.0543 17.8141C92.8761 17.4935 92.7865 17.1581 92.7865 16.81C92.7865 16.4591 92.877 16.1211 93.058 15.7968C93.2397 15.4732 93.4919 15.2239 93.8145 15.0502C94.1379 14.8757 94.4686 14.789 94.8085 14.789ZM94.8085 15.1234C94.5244 15.1234 94.2475 15.1965 93.9789 15.3417C93.7103 15.487 93.5002 15.6953 93.3485 15.9658C93.1968 16.2363 93.121 16.5176 93.121 16.81C93.121 17.1015 93.196 17.3801 93.3448 17.6469C93.4938 17.9136 93.7021 18.122 93.9698 18.271C94.2375 18.4199 94.5171 18.4948 94.8085 18.4948C95.099 18.4948 95.3786 18.4199 95.6464 18.271C95.914 18.122 96.1224 17.9136 96.2703 17.6469C96.4184 17.3801 96.4924 17.1015 96.4924 16.81C96.4924 16.5176 96.4166 16.2363 96.2657 15.9658C96.1151 15.6953 95.905 15.487 95.6354 15.3417C95.3659 15.1965 95.09 15.1234 94.8085 15.1234ZM93.9213 17.9247V15.7538H94.6687C94.9246 15.7538 95.1091 15.7739 95.2233 15.8141C95.3384 15.8543 95.4289 15.9237 95.4974 16.0242C95.5651 16.1238 95.5989 16.2298 95.5989 16.3422C95.5989 16.5003 95.5422 16.6391 95.428 16.7561C95.3146 16.874 95.164 16.9398 94.9758 16.9544C95.0525 16.9863 95.1146 17.0247 95.1603 17.0695C95.248 17.1544 95.3549 17.2978 95.4819 17.4998L95.7469 17.9247H95.3211L95.1273 17.5829C94.9758 17.3134 94.8524 17.1444 94.7591 17.0767C94.6953 17.0275 94.602 17.0028 94.4787 17.0037H94.2723V17.9247H93.9213ZM94.2723 16.7022H94.698C94.9016 16.7022 95.0406 16.672 95.1146 16.6118C95.1886 16.5514 95.2261 16.4709 95.2261 16.3723C95.2261 16.3084 95.2077 16.2509 95.1721 16.2006C95.1365 16.1494 95.0872 16.1119 95.0242 16.0873C94.9602 16.0625 94.8432 16.0498 94.6715 16.0498H94.2723V16.7022Z" fill="#231F20"/>
</g>
</g>
<defs>
<clipPath id="clip0_1_2">
<rect width="249" height="63" fill="white"/>
</clipPath>
</defs>
</svg>
