<svg width="224" height="67" viewBox="0 0 224 67" fill="none" xmlns="http://www.w3.org/2000/svg">
<g clip-path="url(#clip0_62_35)">
<path d="M133.495 45.0678C133.393 45.1575 133.285 45.2411 133.195 45.3368C132.116 46.4764 130.819 47.391 129.38 48.0272C127.942 48.6633 126.39 49.0083 124.816 49.0419C123.087 49.1343 121.358 48.8721 119.736 48.2717C118.113 47.6713 116.632 46.7455 115.385 45.5519C113.735 43.9579 112.686 41.8477 112.416 39.5758C112.109 37.4467 111.984 35.2956 112.043 33.1455C112.043 31.1495 112.079 29.1535 112.145 27.1694C112.248 24.3188 113.017 21.7073 115.013 19.5499C116.663 17.7869 118.863 16.6288 121.258 16.2631C123.578 15.8102 125.975 15.9334 128.236 16.6216C130.121 17.2526 131.81 18.3558 133.141 19.8248C133.237 19.9264 133.339 20.022 133.441 20.1176C133.544 20.2133 133.501 20.1176 133.592 20.1176C133.592 19.9563 133.592 19.7949 133.592 19.6336C133.592 18.779 133.592 17.9184 133.592 17.0639C133.592 16.783 133.676 16.6754 133.97 16.6754C136.122 16.6754 138.274 16.6754 140.426 16.6754C140.72 16.6754 140.829 16.789 140.792 17.0639C140.789 17.1116 140.789 17.1595 140.792 17.2073C140.792 26.9842 140.792 36.767 140.792 46.5499C140.783 48.9419 140.226 51.3003 139.164 53.4463C137.861 56.0037 135.725 58.0469 133.105 59.2431C130.527 60.5319 127.655 61.1273 124.774 60.9702C121.386 60.752 118.137 59.5465 115.433 57.5041C115.109 57.265 114.79 57.014 114.442 56.7451C114.562 56.6077 114.64 56.4941 114.736 56.3985C116.125 55.018 117.513 53.6495 118.895 52.2571C118.93 52.2026 118.976 52.1565 119.031 52.1224C119.085 52.0883 119.147 52.0669 119.212 52.06C119.276 52.0531 119.341 52.0608 119.402 52.0825C119.462 52.1042 119.517 52.1394 119.563 52.1854C120.92 53.1816 122.503 53.8283 124.173 54.0678C127.178 54.3786 129.913 53.6734 132.065 51.4085C133.06 50.3034 133.606 48.8699 133.598 47.3866C133.634 46.6276 133.598 45.8686 133.598 45.1097L133.495 45.0678ZM133.676 32.3925C133.604 30.9762 133.501 29.4702 133.447 27.9583C133.403 26.6221 132.871 25.3477 131.951 24.3726C130.683 23.0243 128.936 22.2204 127.082 22.1316C125.003 21.8818 122.907 22.4359 121.228 23.6794C120.12 24.3984 119.344 25.5244 119.07 26.8109C118.886 27.8992 118.79 29.0002 118.781 30.1037C118.781 32.1893 118.781 34.287 118.865 36.3666C118.848 37.2053 119.025 38.0367 119.381 38.7971C119.737 39.5575 120.264 40.2266 120.921 40.7531C123.554 42.8208 127.665 43.3109 130.664 41.3507C132.227 40.3288 133.309 38.9603 133.441 37.024C133.544 35.5121 133.598 34.0001 133.676 32.3925Z" fill="black"/>
<path d="M104.031 45.247C103.43 45.7789 103.009 46.2451 102.51 46.6454C100.841 47.9613 98.82 48.7613 96.6978 48.9462C94.3257 49.2486 91.916 49.0449 89.6293 48.3486C85.8906 47.1534 83.7989 44.5598 83.288 40.7172C83.0092 39.0189 83.1222 37.2799 83.6185 35.6315C84.5202 32.8765 86.5578 31.3407 89.2566 30.5339C90.8449 30.0965 92.4897 29.8951 94.1373 29.9363H103.28C103.508 29.9363 103.742 29.9363 104.031 29.9064C104.031 28.765 104.031 27.6594 104.031 26.5598C104.023 26.2006 103.973 25.8435 103.881 25.496C103.707 24.8613 103.382 24.2772 102.935 23.7927C102.487 23.3081 101.929 22.9373 101.308 22.7112C100.213 22.2705 99.0501 22.0218 97.8699 21.9761C94.555 21.6932 91.2448 22.5705 88.5113 24.4562L88.2288 24.6295L83.9191 20.3566C84.0994 20.2192 84.2978 20.0518 84.5202 19.9024C87.2429 17.9048 90.4368 16.6371 93.7947 16.2211C97.3797 15.7088 101.035 16.0279 104.476 17.1534C108.419 18.5279 110.619 21.3367 111.039 25.4482C111.112 26.1295 111.136 26.8168 111.142 27.504C111.142 34.2769 111.142 41.0498 111.142 47.8227C111.142 48.4682 111.142 48.4682 110.541 48.4682C108.545 48.4682 106.549 48.4682 104.53 48.4682C104.139 48.4682 104.013 48.3666 104.025 47.9721C104.049 47.0757 104.031 46.2331 104.031 45.247ZM98.7836 35.4343H95.4897C94.2033 35.3803 92.9157 35.5111 91.6669 35.8227C90.621 36.1275 89.6713 36.5996 89.3287 37.7172C88.8358 39.3188 89.2386 40.9383 90.8074 41.7869C91.2297 42.0243 91.6799 42.2089 92.1477 42.3367C94.8207 42.9157 97.5823 42.9645 100.274 42.4801C101.075 42.3757 101.828 42.0406 102.44 41.5161C103.052 40.9915 103.497 40.3004 103.718 39.5279C104.028 38.3588 104.162 37.1504 104.115 35.9423C104.115 35.5419 103.965 35.4462 103.586 35.4462C101.987 35.4462 100.382 35.4343 98.7836 35.4343Z" fill="black"/>
<path d="M166.121 39.4979L170.329 43.6812C169.397 44.4282 168.49 45.2469 167.498 45.9342C165.095 47.6009 162.304 48.6294 159.39 48.9222C155.689 49.4022 151.932 48.6544 148.702 46.7948C147.024 45.8292 145.573 44.5182 144.446 42.9494C143.319 41.3807 142.543 39.5906 142.169 37.6991C141.165 33.223 141.285 28.7768 143.106 24.5039C145.15 19.723 148.871 16.9681 154.046 16.2031C156.892 15.7666 159.8 15.9584 162.563 16.7649C167.161 18.1155 169.98 21.1932 171.243 25.729C171.973 28.4122 172.177 31.2102 171.844 33.9701C171.802 34.3286 171.754 34.6812 171.735 35.0398C171.717 35.3983 171.585 35.4581 171.291 35.4342C171.152 35.4342 171.008 35.4342 170.864 35.4342H149.478C148.817 35.4342 148.787 35.4342 148.835 36.0975C148.898 37.0434 149.172 37.9635 149.638 38.7905C150.104 39.6176 150.749 40.3309 151.527 40.8784C152.972 41.9233 154.696 42.5182 156.48 42.5876C159.668 42.9063 162.858 42.0044 165.4 40.0657L166.121 39.4979ZM157.508 29.984H165.707C165.941 29.984 166.194 30.0199 166.182 29.6493C166.103 26.978 165.136 24.7489 162.852 23.231C160.568 21.7131 157.839 21.3784 155.098 21.976C153.345 22.3037 151.761 23.2256 150.616 24.5845C149.471 25.9435 148.835 27.6553 148.817 29.4282C148.817 29.8525 148.919 29.99 149.364 29.984C152.074 29.972 154.791 29.984 157.508 29.984Z" fill="black"/>
<path d="M81.9175 20.2909C80.499 21.7371 79.1766 23.0877 77.8302 24.4263C77.755 24.4743 77.6691 24.5031 77.58 24.5104C77.491 24.5177 77.4014 24.5032 77.3193 24.4682C75.3038 23.2342 73.0522 22.4303 70.7075 22.1076C68.0628 21.7431 65.4482 21.7729 62.9838 22.998C62.6473 23.1607 62.3306 23.3612 62.0401 23.5956C61.7254 23.8202 61.4711 24.1182 61.2996 24.4635C61.128 24.8088 61.0445 25.1908 61.0564 25.5757C61.0683 25.9606 61.1752 26.3367 61.3677 26.6709C61.5602 27.0051 61.8324 27.2871 62.1603 27.4921C63.2039 28.2006 64.4121 28.6326 65.6706 28.747C67.6421 28.9921 69.6256 29.1235 71.6031 29.3446C74.5664 29.6494 77.4516 30.2052 79.8619 32.1116C80.6046 32.6853 81.2187 33.4069 81.6648 34.2301C82.1109 35.0534 82.3792 35.9602 82.4525 36.8925C83.0535 42.4084 80.1263 46.2869 75.2396 47.9901C72.7484 48.8046 70.1301 49.1669 67.5099 49.0598C64.2635 49.0105 61.0703 48.2322 58.1692 46.7829C56.2725 45.8564 54.5293 44.6473 53 43.1972L57.7004 38.6435L58.4277 39.2411C60.6422 41.1389 63.3835 42.3245 66.2897 42.6415C68.5275 42.9731 70.8138 42.69 72.9015 41.8227C73.7691 41.4828 74.5231 40.9071 75.0773 40.1614C75.324 39.8255 75.4879 39.4367 75.5556 39.0263C75.6234 38.6159 75.5931 38.1954 75.4674 37.7988C75.3416 37.4021 75.1238 37.0404 74.8316 36.7428C74.5394 36.4453 74.1809 36.2202 73.785 36.0857C72.807 35.7825 71.7997 35.5822 70.7797 35.4881C67.7743 35.1474 64.6788 35.0757 61.7155 34.263C59.5697 33.6654 57.5741 32.8108 56.0595 31.1016C55.0907 29.9797 54.4945 28.5874 54.3524 27.1156C53.8114 22.8188 55.8972 19.9442 59.5036 17.9901C61.5252 16.9067 63.7576 16.2688 66.0492 16.1195C70.6793 15.6841 75.3364 16.6043 79.4471 18.767C80.2886 19.2271 81.0941 19.7889 81.9175 20.2909Z" fill="black"/>
</g>
<defs>
<clipPath id="clip0_62_35">
<rect width="119" height="45" fill="white" transform="translate(53 16)"/>
</clipPath>
</defs>
</svg>
