<svg width="127" height="67" viewBox="0 0 127 67" fill="none" xmlns="http://www.w3.org/2000/svg">
<g clip-path="url(#clip0_62_35)">
<path d="M80.4955 45.0678C80.3933 45.1575 80.2851 45.2411 80.1949 45.3368C79.1156 46.4764 77.8188 47.391 76.3802 48.0272C74.9417 48.6633 73.3901 49.0083 71.816 49.0419C70.0873 49.1343 68.3581 48.8721 66.7357 48.2717C65.1133 47.6713 63.6324 46.7455 62.3852 45.5519C60.7346 43.9579 59.6861 41.8477 59.4159 39.5758C59.1087 37.4467 58.984 35.2956 59.0432 33.1455C59.0432 31.1495 59.0793 29.1535 59.1454 27.1694C59.2476 24.3188 60.017 21.7073 62.0125 19.5499C63.663 17.7869 65.8633 16.6288 68.2577 16.2631C70.5781 15.8102 72.975 15.9334 75.2361 16.6216C77.1207 17.2526 78.8099 18.3558 80.1408 19.8248C80.237 19.9264 80.3392 20.022 80.4414 20.1176C80.5435 20.2133 80.5015 20.1176 80.5916 20.1176C80.5916 19.9563 80.5916 19.7949 80.5916 19.6336C80.5916 18.779 80.5916 17.9184 80.5916 17.0639C80.5916 16.783 80.6758 16.6754 80.9703 16.6754C83.1221 16.6754 85.274 16.6754 87.4258 16.6754C87.7203 16.6754 87.8285 16.789 87.7925 17.0639C87.7895 17.1116 87.7895 17.1595 87.7925 17.2073C87.7925 26.9842 87.7925 36.767 87.7925 46.5499C87.7831 48.9419 87.2261 51.3003 86.1636 53.4463C84.8607 56.0037 82.7251 58.0469 80.1048 59.2431C77.527 60.5319 74.6549 61.1273 71.7739 60.9702C68.3856 60.752 65.1369 59.5465 62.4333 57.5041C62.1087 57.265 61.7901 57.014 61.4415 56.7451C61.5617 56.6077 61.6399 56.4941 61.736 56.3985C63.1245 55.018 64.513 53.6495 65.8954 52.2571C65.9297 52.2026 65.9759 52.1565 66.0307 52.1224C66.0854 52.0883 66.1473 52.0669 66.2115 52.06C66.2758 52.0531 66.3408 52.0608 66.4016 52.0825C66.4624 52.1042 66.5175 52.1394 66.5626 52.1854C67.9195 53.1816 69.5034 53.8283 71.1729 54.0678C74.1782 54.3786 76.9131 53.6734 79.0649 51.4085C80.0601 50.3034 80.6065 48.8699 80.5976 47.3866C80.6337 46.6276 80.5976 45.8686 80.5976 45.1097L80.4955 45.0678ZM80.6758 32.3925C80.6037 30.9762 80.5015 29.4702 80.4474 27.9583C80.4025 26.6221 79.8706 25.3477 78.9507 24.3726C77.6829 23.0243 75.9364 22.2204 74.082 22.1316C72.0031 21.8818 69.9071 22.4359 68.2276 23.6794C67.1201 24.3984 66.3442 25.5244 66.0698 26.8109C65.8864 27.8992 65.7899 29.0002 65.7812 30.1037C65.7812 32.1893 65.7812 34.287 65.8654 36.3666C65.8484 37.2053 66.0248 38.0367 66.3811 38.7971C66.7374 39.5575 67.2642 40.2266 67.9211 40.7531C70.5537 42.8208 74.6651 43.3109 77.6644 41.3507C79.2272 40.3288 80.3091 38.9603 80.4414 37.024C80.5435 35.5121 80.5976 34.0001 80.6758 32.3925Z" fill="black"/>
<path d="M51.0309 45.247C50.4298 45.7789 50.0091 46.2451 49.5102 46.6454C47.8409 47.9613 45.82 48.7613 43.6978 48.9462C41.3257 49.2486 38.916 49.0449 36.6293 48.3486C32.8906 47.1534 30.7989 44.5598 30.288 40.7172C30.0092 39.0189 30.1222 37.2799 30.6185 35.6315C31.5202 32.8765 33.5578 31.3407 36.2566 30.5339C37.8449 30.0965 39.4897 29.8951 41.1373 29.9363H50.2796C50.508 29.9363 50.7424 29.9363 51.0309 29.9064C51.0309 28.765 51.0309 27.6594 51.0309 26.5598C51.0231 26.2006 50.9727 25.8435 50.8806 25.496C50.7068 24.8613 50.3825 24.2772 49.9349 23.7927C49.4873 23.3081 48.9295 22.9373 48.3081 22.7112C47.2134 22.2705 46.0501 22.0218 44.8699 21.9761C41.555 21.6932 38.2448 22.5705 35.5113 24.4562L35.2288 24.6295L30.9191 20.3566C31.0994 20.2192 31.2978 20.0518 31.5202 19.9024C34.2429 17.9048 37.4368 16.6371 40.7947 16.2211C44.3797 15.7088 48.0353 16.0279 51.4757 17.1534C55.4187 18.5279 57.6187 21.3367 58.0394 25.4482C58.1115 26.1295 58.1356 26.8168 58.1416 27.504C58.1416 34.2769 58.1416 41.0498 58.1416 47.8227C58.1416 48.4682 58.1416 48.4682 57.5405 48.4682C55.545 48.4682 53.5494 48.4682 51.5298 48.4682C51.1391 48.4682 51.0129 48.3666 51.0249 47.9721C51.0489 47.0757 51.0309 46.2331 51.0309 45.247ZM45.7836 35.4343H42.4897C41.2033 35.3803 39.9157 35.5111 38.6669 35.8227C37.621 36.1275 36.6713 36.5996 36.3287 37.7172C35.8358 39.3188 36.2386 40.9383 37.8074 41.7869C38.2297 42.0243 38.6799 42.2089 39.1477 42.3367C41.8207 42.9157 44.5823 42.9645 47.2742 42.4801C48.0754 42.3757 48.8283 42.0406 49.4403 41.5161C50.0523 40.9915 50.4965 40.3004 50.7184 39.5279C51.0283 38.3588 51.162 37.1504 51.1151 35.9423C51.1151 35.5419 50.9648 35.4462 50.5861 35.4462C48.9873 35.4462 47.3824 35.4343 45.7836 35.4343Z" fill="black"/>
<path d="M113.121 39.4979L117.329 43.6812C116.397 44.4282 115.49 45.2469 114.498 45.9342C112.095 47.6009 109.304 48.6294 106.39 48.9222C102.689 49.4022 98.9321 48.6544 95.7025 46.7948C94.0243 45.8292 92.5732 44.5182 91.4463 42.9494C90.3195 41.3807 89.543 39.5906 89.1688 37.6991C88.165 33.223 88.2853 28.7768 90.1065 24.5039C92.1501 19.723 95.8708 16.9681 101.046 16.2031C103.892 15.7666 106.8 15.9584 109.563 16.7649C114.161 18.1155 116.98 21.1932 118.243 25.729C118.973 28.4122 119.177 31.2102 118.844 33.9701C118.802 34.3286 118.754 34.6812 118.735 35.0398C118.717 35.3983 118.585 35.4581 118.291 35.4342C118.152 35.4342 118.008 35.4342 117.864 35.4342H96.4778C95.8167 35.4342 95.7866 35.4342 95.8347 36.0975C95.8975 37.0434 96.1718 37.9635 96.6377 38.7905C97.1035 39.6176 97.7492 40.3309 98.5275 40.8784C99.9717 41.9233 101.696 42.5182 103.48 42.5876C106.668 42.9063 109.858 42.0044 112.4 40.0657L113.121 39.4979ZM104.508 29.984H112.707C112.941 29.984 113.194 30.0199 113.182 29.6493C113.103 26.978 112.136 24.7489 109.852 23.231C107.568 21.7131 104.839 21.3784 102.098 21.976C100.345 22.3037 98.7613 23.2256 97.6159 24.5845C96.4705 25.9435 95.8346 27.6553 95.8167 29.4282C95.8167 29.8525 95.9189 29.99 96.3636 29.984C99.0745 29.972 101.791 29.984 104.508 29.984Z" fill="black"/>
<path d="M28.9175 20.2909C27.499 21.7371 26.1766 23.0877 24.8302 24.4263C24.755 24.4743 24.6691 24.5031 24.58 24.5104C24.491 24.5177 24.4014 24.5032 24.3193 24.4682C22.3038 23.2342 20.0522 22.4303 17.7075 22.1076C15.0628 21.7431 12.4482 21.7729 9.98379 22.998C9.64725 23.1607 9.33062 23.3612 9.04011 23.5956C8.72542 23.8202 8.47111 24.1182 8.29956 24.4635C8.12801 24.8088 8.0445 25.1908 8.05638 25.5757C8.06825 25.9606 8.17515 26.3367 8.36766 26.6709C8.56017 27.0051 8.83238 27.2871 9.16032 27.4921C10.2039 28.2006 11.4121 28.6326 12.6706 28.747C14.6421 28.9921 16.6256 29.1235 18.6031 29.3446C21.5664 29.6494 24.4516 30.2052 26.8619 32.1116C27.6046 32.6853 28.2187 33.4069 28.6648 34.2301C29.1109 35.0534 29.3792 35.9602 29.4525 36.8925C30.0535 42.4084 27.1263 46.2869 22.2396 47.9901C19.7484 48.8046 17.1301 49.1669 14.5099 49.0598C11.2635 49.0105 8.07033 48.2322 5.16921 46.7829C3.27249 45.8564 1.5293 44.6473 0 43.1972L4.70037 38.6435L5.42767 39.2411C7.64219 41.1389 10.3835 42.3245 13.2897 42.6415C15.5275 42.9731 17.8138 42.69 19.9015 41.8227C20.7691 41.4828 21.5231 40.9071 22.0773 40.1614C22.324 39.8255 22.4879 39.4367 22.5556 39.0263C22.6234 38.6159 22.5931 38.1954 22.4674 37.7988C22.3416 37.4021 22.1238 37.0404 21.8316 36.7428C21.5394 36.4453 21.1809 36.2202 20.785 36.0857C19.807 35.7825 18.7997 35.5822 17.7797 35.4881C14.7743 35.1474 11.6788 35.0757 8.71553 34.263C6.5697 33.6654 4.57415 32.8108 3.05945 31.1016C2.09072 29.9797 1.49449 28.5874 1.35241 27.1156C0.811446 22.8188 2.89716 19.9442 6.50359 17.9901C8.52518 16.9067 10.7576 16.2688 13.0492 16.1195C17.6793 15.6841 22.3364 16.6043 26.4471 18.767C27.2886 19.2271 28.0941 19.7889 28.9175 20.2909Z" fill="black"/>
</g>
<defs>
<clipPath id="clip0_62_35">
<rect width="119" height="45" fill="white" transform="translate(0 16)"/>
</clipPath>
</defs>
</svg>
