<svg width="1222" height="1536" viewBox="0 0 1222 1536" fill="none" xmlns="http://www.w3.org/2000/svg">
<g clip-path="url(#clip0_105_72019)">
<path d="M0 0H1222V1536H0V0Z" fill="#0047AB"/>
<path d="M537.381 55.6851C546.542 47.8101 562.086 41.5777 574.764 47.2993C612.915 64.5172 650.515 81.9322 689.125 98.4178C699.921 103.027 718.502 137.464 730.502 147.802C787.43 196.845 868.834 229.893 949.893 237.503C979.227 239.89 1003.19 236.664 1029.81 228.605C1034.51 229.421 1038.49 230.507 1042.71 232.447C1055.3 238.238 1161.62 294.958 1166.73 300.862C1169.45 303.994 1170.38 308.548 1170.83 312.305C1173.22 332.442 1170.99 360.863 1170.4 381.446C1170.03 394.044 1170.23 406.646 1169.65 419.241C1168.42 445.668 1166.08 472.105 1164.35 498.518C1163.9 505.43 1164.17 512.371 1163.63 519.279C1160.89 554.696 1157.48 590.317 1152.36 625.55C1145.36 673.706 1135.41 722.445 1123.33 769.878C1113.41 807.194 1102.23 844.269 1089.83 881.06C1084.43 897.326 1079.73 913.512 1073.91 929.67C1022.01 1073.94 946.504 1203.3 852.801 1331.5C834.841 1355.65 816.269 1379.49 797.098 1402.98C781.746 1422 767.336 1441.08 750.514 1459.29C743.153 1467.26 733.125 1476.96 727.509 1485.7C723.18 1487.99 717.861 1490.98 712.418 1489.17C682.952 1479.4 654.239 1468.37 625.744 1456.74L564.237 1432.23C557.399 1429.5 541.438 1424.11 536.324 1420.84C295.681 1266.95 168.271 1028.49 97.7249 788.049C94.9182 778.483 91.5875 768.748 89.0487 759.259C84.0285 739.58 79.3251 719.844 74.9401 700.059C72.9405 691.404 69.9569 682.297 68.4275 673.673C65.7689 658.681 63.2204 644.023 59.9156 629.103C54.6838 624.172 53.2552 623.104 58.5419 617.21C54.4352 603.732 45.6296 554.61 49.7041 542.677C60.0176 537.97 71.3243 533.689 82.3085 530.21C123.865 517.049 164.924 500.196 202.548 480.357C221.864 470.378 240.347 459.309 257.867 447.227C348.232 384.097 444.289 274.324 492.34 184.285C503.176 163.547 512.418 142.25 520.01 120.524C525.12 106.048 535.945 70.0444 537.381 55.6851Z" fill="#1E3A5F"/>
<path d="M58.5416 617.21C59.3828 622.141 59.46 624.381 59.9153 629.103C54.6835 624.172 53.2549 623.104 58.5416 617.21Z" fill="white"/>
<path d="M215.596 618.398C217.095 617.949 218.574 617.46 220.035 616.93C245.34 607.756 274.802 592.19 298.243 579.676C466.698 489.741 598.082 347.517 673.779 193.486C681.593 177.588 686.162 159.659 693.586 143.949C704.346 155.277 714.408 169.014 725.667 180.605C772.748 230.005 831.968 270.337 899.306 298.861C961.758 325.849 1039.82 340.639 1109.51 331.919C1126.78 329.757 1130.15 330.729 1146.91 326.238C1148.44 328.725 1146.84 343.447 1147.09 346.984C1147.32 350.204 1147.03 353.826 1150.34 356.003C1151.85 356.998 1152.78 357.942 1153.06 359.536C1154.45 367.282 1147.59 363.102 1147.61 371.3C1147.65 397.189 1146.16 422.815 1145.13 448.695C1144.92 454.006 1144.34 470.36 1141.23 474.148C1140.21 475.393 1138.89 476.694 1138.78 478.81C1138.69 480.564 1141.46 485.154 1141.5 486.318C1141.65 491.062 1141.59 496.807 1141.41 501.511C1140.27 530.474 1137.6 559.348 1133.3 588.109C1132.66 592.432 1132.29 597.793 1131.83 602.233L1130.06 603.902C1129.82 607.32 1131.62 610.222 1130.06 613.641C1129.56 614.744 1130 614.128 1128.08 614.984L1128.67 615.697L1129.41 615.091L1128.29 615.406C1127.53 613.275 1127.34 611.04 1125.55 610.229C1120.62 616.166 1125.65 623.632 1117.02 635.046L1116.63 635.553L1117.79 636.714L1120.1 636.855C1123.14 635.529 1123.04 633.716 1125.39 630.949L1126.63 632.067C1127.85 640.267 1102.5 764.036 1097.71 769.806L1098.47 770.996C1097.73 772.887 1097.7 773.023 1096.49 774.711L1096.76 774.994C1097.49 779.387 1083 827.414 1081.14 834C1034.58 991.99 960.809 1143.46 862.152 1283.64C846.018 1306.82 828.63 1330.06 810.438 1352.12C804.962 1358.75 811.508 1360.73 807.426 1366.04L806.418 1365.86L806.127 1360.94L805.294 1360.69C799.158 1365.87 787.658 1381.82 782.586 1388.29C772.686 1400.91 725.345 1459.15 714.489 1465.4C706.897 1464.54 659.433 1422.42 650.26 1415.36C619.141 1391.4 589.659 1365.37 560.195 1339.96C554.99 1335.47 550.644 1329.51 545.682 1324.88C522.17 1302.98 501.951 1278.91 480.611 1255.54C478.846 1253.61 477.641 1249.56 476.33 1248.25C454.084 1226.04 438.138 1200.6 420.906 1175.62C417.831 1171.15 413.191 1166.7 410.498 1162.52C395.779 1139.7 380.662 1117.07 366.48 1094C359.615 1082.86 355.695 1072.81 349.92 1061.73C312.817 989.106 283.411 913.893 262.041 836.956C247.339 784.501 235.848 730.581 225.789 677.407C222.332 659.127 215.738 636.793 215.596 618.398Z" fill="white"/>
<path d="M1090.48 754.976C1088.91 757.428 1086.73 758.051 1083.78 758.346C1074.82 753.315 1080.86 734.022 1092.39 741.27C1093.96 744.422 1093.76 747.175 1094.25 750.673C1092.98 751.925 1091.13 753.513 1090.48 754.976Z" fill="#1E3A5F"/>
<path d="M1090.48 754.976C1091.13 753.513 1092.98 751.925 1094.25 750.673C1094.89 754.629 1096.3 767.122 1097.71 769.806L1098.47 770.996C1097.73 772.887 1097.7 773.023 1096.49 774.711C1091.92 772.413 1092.49 758.075 1090.48 754.976Z" fill="#1E3A5F"/>
<path d="M704.138 238.433C717.491 238.176 728.287 256.132 737.079 263.629C756.018 279.777 776.801 293.113 797.904 307.08C853.465 343.853 907.358 362.298 975.668 376.001C981.291 372.545 982.737 368.787 988.058 368.287C991.73 370.94 991.08 374.98 991.163 378.797C1019.09 386.281 1060.77 382.548 1089.85 381.958C1096.3 381.827 1102.69 376.346 1109.3 380.8C1110.5 391.535 1108.16 403.344 1107.81 414.008C1106.66 441.473 1103.83 469.494 1101.87 496.814C1096.47 571.936 1089.26 647.854 1070.4 721.583C1065.91 742.539 1062.66 765.87 1056.67 786.46C1046.25 822.327 1036.44 858.917 1023.37 894.13C1016.68 912.172 1010.61 938.768 999.074 954.658L1000.08 957.154C999.475 962.357 995.314 967.928 993.828 972.949C986.769 996.8 975.577 1018.59 964.05 1041.01C946.164 1075.82 926.748 1110.05 905.842 1143.65C894.636 1162.1 883.662 1181.12 871.356 1199.18C870.805 1199.99 866.104 1200.7 864.769 1200.95C862.84 1202.85 863.353 1201.79 863.062 1204.19L865.439 1206.46C865.974 1212.88 792.709 1309.5 782.393 1321.89C767.056 1340.33 737.883 1376.4 720.367 1393.72C720.235 1393.97 720.101 1394.21 719.968 1394.46C710.899 1401.17 698.04 1390.08 691.641 1385.15C666.667 1365.88 644.204 1344.71 620.753 1324.24C556.833 1267.61 500.999 1204.95 454.381 1137.5C448.031 1128.33 441.895 1118.36 436.009 1108.91C432.479 1103.25 425.768 1095.4 423.022 1090.41C411.92 1070.23 397.867 1047.21 388.122 1026.8C371.934 992.893 358.297 957.654 345.927 922.671C344.131 917.593 341.89 912.816 339.742 907.866C338.538 905.091 339.732 902.919 338.545 899.507C333.789 885.842 327.676 870.748 323.877 856.963C319.35 840.531 314.239 824.264 310.215 807.736C308.756 801.75 305.393 795.085 304 789.345C293.71 746.963 283.393 704.897 276.127 662.039C273.506 646.575 275.139 646.702 290.955 639.49C310.36 630.642 331.611 618.129 349.693 607.325C418.635 566.131 487.26 517.055 542.127 462.849C547.025 458.01 552.05 453.304 557.386 448.781C558.979 447.43 560.765 440.096 561.705 439.05C563.233 437.35 568.864 436.435 571.066 433.858C610.705 387.476 644.988 340.277 673.888 288.537C680.278 277.098 687.24 265.693 693.031 253.957C695.158 249.65 694.831 247.734 696.418 243.663C697.728 240.304 700.467 239.656 704.138 238.433Z" fill="#1E3A5F"/>
<path d="M802.539 356.153C805.801 357.879 810.286 359.372 813.808 360.796C872.326 384.466 935.351 403.086 1000.92 404.533C1013.14 404.803 1025.79 403.93 1038.29 404.052C1032.41 410.112 1017.16 433.294 1015.35 440.891L1015.14 441.77L1012.94 441.834C1010.73 443.687 1005.17 452.837 1003.09 455.653C990.586 472.668 978.152 489.677 967.189 507.437C962.217 515.49 955.191 522.275 950.046 529.591C934.794 551.283 917.913 571.988 902.397 593.554C888.099 613.343 874.025 633.243 860.173 653.254C853.616 662.55 841.131 681.025 833.412 688.735C833.422 686.719 833.384 684.703 833.296 682.688C828.832 580.397 729.071 566.748 655.203 635.069C609.556 676.891 583.427 733.28 597.126 789.94C601.693 808.831 611.296 815.133 620.964 830.95C626.157 832.836 643.426 842.012 648.913 844.906C649.982 848.801 648.661 856.812 648.246 861.164C646.605 878.394 642.867 894.985 641.123 912.248C640.216 921.23 638.237 922.385 638.884 932.379C633.831 937.415 628.621 947.604 624.801 953.768C618.217 964.393 611.557 971.957 601.735 980.559L600.462 981.255L600.811 982.053C597.114 985.91 592.147 995.585 589.001 1000.34C585.14 1006.17 561.361 1035.61 561.962 1039.66L564.844 1040.62C564.061 1042.02 561.048 1043.46 559.329 1044.15C554.633 1045.85 552.905 1049.79 549.908 1052.99C540.309 1063.24 532.038 1074.32 522.635 1084.69L491.298 1119.52C487.412 1123.84 483.413 1127.07 479.922 1131.57C447.004 1095.06 422.386 1039.65 399.33 997.654C397.711 994.704 396.477 987.974 394.905 984.254C391.117 975.288 387.352 966.543 382.655 957.856C384.204 953.129 410.177 920.751 415.419 913.96C430.68 894.189 447.954 871.699 462.745 851.696C514.082 782.274 556.906 709.031 604.231 637.648C618.779 616.109 633.783 594.788 649.237 573.697C655.813 564.639 662.512 555.663 669.169 546.655C674.445 539.518 664.601 536.728 671.081 530.367L672.263 530.395C673.128 532.576 673.286 533.597 675.083 535.247C680.391 533.984 688.316 520.539 691.387 516.179C700.141 503.957 708.601 491.588 716.764 479.081C730.536 458.353 745.617 436.95 759.808 416.389C772.841 397.508 787.89 374.012 802.539 356.153Z" fill="white"/>
<path d="M933.648 495.542L936.411 498.471C939.029 501.819 933.734 515.608 928.637 515.554L927.741 514.204C927.776 509.741 931.873 500.259 933.648 495.542Z" fill="#1E3A5F"/>
<path d="M928.881 463.188C933.516 466.71 928.019 477.127 923.293 480.26L922.264 479.374C920.253 473.954 923.144 466.343 928.881 463.188Z" fill="#1E3A5F"/>
<path d="M897.457 539.571C897.943 539.87 898.665 540.601 899.107 541.008C899.083 545.231 891.07 556.28 887.506 559.685L887.237 559.758L886.291 559.312C886.445 558.346 886.959 555.059 887.358 554.372C890.164 549.539 891.967 542.234 897.457 539.571Z" fill="#1E3A5F"/>
<path d="M760.516 492.441C761.824 493.191 762.204 493.988 762.997 495.134C763.184 498.278 760.781 501.953 759.191 504.946C752.794 501.353 757.351 497.189 760.516 492.441Z" fill="#1E3A5F"/>
<path d="M682.468 549.578C684.302 548.304 687.016 548.496 688.569 550.009C690.123 551.523 689.944 553.799 688.167 555.129C686.988 556.01 685.332 556.29 683.838 555.86C682.342 555.43 681.241 554.358 680.957 553.055C680.673 551.752 681.251 550.423 682.468 549.578Z" fill="#1E3A5F"/>
<path d="M845.091 400.41L849.226 401.155C849.458 401.729 849.676 402.308 849.88 402.891C851.023 406.174 850.762 407.586 848.756 410.622L847.29 410.559C845.118 408.179 845.528 403.667 845.091 400.41Z" fill="#1E3A5F"/>
<path d="M790.28 503.449C791.906 504.011 792.361 504.306 793.834 505.062C795.121 507.758 793.409 511.207 792.519 514.459C790.621 514.237 791.107 514.177 789.41 512.728C788.342 509.842 789.554 506.484 790.28 503.449Z" fill="#1E3A5F"/>
<path d="M618.711 836.64C622.917 837.968 621.376 843.803 620.122 846.774C616.508 846.057 616.749 845.68 615.684 843.076C616.102 839.733 616.429 839.358 618.711 836.64Z" fill="#1E3A5F"/>
<path d="M845.09 400.41C844.441 397.939 844.019 397.363 845.02 395.116L846.71 393.905L848.568 394.347C850.085 396.735 849.863 398.061 849.225 401.155L845.09 400.41Z" fill="#1E3A5F"/>
<path d="M933.648 495.542C934.421 493.218 935.098 490.738 937.806 489.497L938.931 490.105C939.612 493.868 938.473 494.397 936.411 498.471L933.648 495.542Z" fill="#1E3A5F"/>
<path d="M698.512 289.868C707.456 294.777 729.64 312.61 739.593 319.765C754.559 330.525 765.436 336.185 780.803 345.815C778.736 351.259 767.895 366.18 763.838 372.119L734.925 414.602L617.727 581.318C579.873 634.491 545.852 688.967 511.117 743.636C504.319 754.335 493.417 770.787 485.17 781.545C485.175 783.069 485.18 784.349 485.183 785.383C477.816 792.323 469.983 805.92 463.772 814.273C442.691 842.626 423.111 872.09 400.643 899.702C395.895 905.537 390.037 914.648 384.365 919.128C382.799 922.046 377.839 929.635 374.384 930.777L372.704 930.025C369.254 925.007 368.668 917.966 366.659 912.399C364.734 907.064 362.006 901.905 360.053 896.543C355.701 884.592 352.24 872.332 348.48 860.24C344.076 846.075 328.221 804.795 329.194 793.541C329.95 784.829 396.29 699.457 405.837 686.335C412.333 677.406 417.918 667.989 424.131 658.913C430.416 649.729 439.58 639.15 442.875 628.859C441.359 629.431 440.976 629.676 439.309 629.833L438.739 628.633C439.282 625.008 441.562 620.251 446.27 619.593L448.404 621.271C450.607 619.671 466.918 589.843 471.212 584.258C490.64 558.99 504.34 527.955 527.711 505.12C535.872 497.145 544.066 489.883 552.055 482.336C566.332 468.815 579.874 454.762 592.639 440.22C620.791 408.53 646.025 375.093 668.125 340.198C678.597 323.809 688.295 305.518 698.512 289.868Z" fill="white"/>
<path d="M465.037 732.499C467.709 738.067 448.105 760.37 443.385 764.532C436.494 757.974 459.616 738.887 465.037 732.499Z" fill="#1E3A5F"/>
<path d="M533.181 577.984L537.58 580.039L540.071 578.546L541.027 579.07C540.686 584.937 534.761 591.418 530.559 595.796C529.024 597.891 528.686 598.137 526.411 599.703L525.52 599.264C525.506 595.941 530.251 589.631 532.195 586.499C534.083 583.456 532.885 582.048 533.181 577.984Z" fill="#1E3A5F"/>
<path d="M646.608 484.054C651.402 486.821 648.495 504.581 645.843 508.816L645.053 508.574C643.027 504.305 644.33 488.062 646.608 484.054Z" fill="#1E3A5F"/>
<path d="M356.329 793.972C361.385 796.596 359.022 807.618 358.598 812.075C357.068 811.721 355.471 811.685 355.056 810.54C353.279 805.635 354.35 798.516 356.329 793.972Z" fill="#1E3A5F"/>
<path d="M636.235 474.248C637.936 474.803 637.36 474.565 638.779 475.594C638.754 481.754 639.658 490.61 637.249 496.023C635.194 490.429 633.399 479.61 636.235 474.248Z" fill="#1E3A5F"/>
<path d="M411.673 772.779L413.586 773.291C414.206 775.662 409.632 783.846 408.308 786.503C407.25 785.989 406.65 785.453 405.735 784.773C403.682 779.376 406.873 776.01 411.673 772.779Z" fill="#1E3A5F"/>
<path d="M378.012 790.248L378.87 791.079C377.217 797.54 378.475 804.294 376.991 810.388L375.295 809.419C372.443 804.927 374.364 794.177 378.012 790.248Z" fill="#1E3A5F"/>
<path d="M397.96 854.48L399.835 855.279C402.291 859.356 400.429 864.731 396.39 867.647L394.477 866.136C393.673 862.379 396.245 858.127 397.96 854.48Z" fill="#1E3A5F"/>
<path d="M373.487 884.596C375.19 885.223 374.478 884.76 375.586 886.137C375.743 889.223 376.315 892.709 374.771 895.434C368.053 892.702 370.306 888.721 373.487 884.596Z" fill="#1E3A5F"/>
<path d="M580.859 533.57C583.671 534.193 584.02 534.268 586.541 535.435C587.594 538.123 586.899 538.197 585.801 541.276C584.05 541.658 583.703 541.433 581.949 541.061C580.143 539.029 580.758 536.308 580.859 533.57Z" fill="#1E3A5F"/>
<path d="M404.346 821.63C408.714 823.752 407.216 828.793 406.13 832.109C400.037 828.289 401.17 826.904 404.346 821.63Z" fill="#1E3A5F"/>
<path d="M487.095 630.998C488.688 631.5 488.334 631.42 489.749 632.283C490.442 634.965 488.66 637.536 487.351 640.247C485.632 639.606 485.954 639.649 484.561 638.511C483.984 635.918 485.744 633.565 487.095 630.998Z" fill="#1E3A5F"/>
<path d="M710.74 401.37C715.82 403.675 715.123 407.411 713.066 411.461C709.097 408.965 709.48 404.86 710.74 401.37Z" fill="#1E3A5F"/>
<path d="M462.279 661.31C465.098 664.012 464.099 667.349 461.38 669.826C459.95 668.758 460.087 668.654 459.404 667.114C459.734 664.289 460.388 663.716 462.279 661.31Z" fill="#1E3A5F"/>
<path d="M735.705 612.073C830.003 606.567 825.452 712.091 792.007 758.744C784.388 769.371 775.178 779.403 768.65 790.429C769.037 800.336 771.602 806.765 773.501 816.26C781.437 855.937 793.037 894.997 800.338 934.757C802.199 944.893 808.957 960.996 808.073 970.748C800.752 978.179 704.353 1018.53 688.194 1025.46C684.832 1026.79 647.759 1042.35 646.709 1042.3C645.543 1034.3 650.593 998.976 651.67 989.397L665.23 872.683C666.078 865.622 670.189 836.849 669.571 831.68C668.366 830.162 641.851 817.732 638.028 813.666C630.041 805.175 620.788 793.325 617.145 782.23C613.195 770.203 614.171 751.065 613.32 738.23C617.227 724.249 628.574 694.854 637.13 682.347C659.353 649.864 691.334 621.885 735.705 612.073Z" fill="white"/>
<path d="M736.491 628.806C747.495 626.071 770.54 633.998 778.112 641.054C824.223 684.026 792.209 755.175 750.281 790.101C750.77 795.963 752.938 804.295 754.466 810.13C767.183 858.717 777.761 908.652 790.65 957.085C782.291 972.383 742.99 983.469 725.738 992.325C721.042 994.735 717.071 997.711 712.418 1000.1C711.697 999.892 708.567 999.015 708.071 999.575C703.706 1004.51 700.179 1005.53 693.497 1007.65C688.542 1010.11 670.924 1017.15 665.559 1017.85C660.263 1013.38 664.05 999.767 664.696 993.693C666.642 975.316 669.109 956.981 672.096 938.702C676.599 909.595 679.977 879.713 684.516 850.475C685.334 845.196 689.321 822.969 689.018 819.014C684.528 813.6 668.827 812.964 657.518 805.465C640.355 795.399 633.404 779.386 630.591 762.213C621.971 709.58 670.228 636.228 736.491 628.806Z" fill="#1E3A5F"/>
<path d="M740.258 747.568L744.924 751.583C741.303 765.498 741.879 769.188 729.901 779.583C728.375 779.674 728.481 779.696 727.109 779.134C726.893 774.367 737.106 752.097 740.258 747.568Z" fill="white"/>
<path d="M710.329 734.929C713.705 735.538 717.373 736.368 720.755 737.07C719.305 740.039 717.64 742.899 716 745.796C712.783 747.092 712.404 747.617 709.396 747.062L708.163 745.335C707.75 742.01 709.281 738.233 710.329 734.929Z" fill="white"/>
<path d="M732.752 713.39C738.432 713.968 738.026 720.267 735.55 723.59L733.835 723.854C732.501 724.387 731.255 724.824 729.897 725.297C726.348 722.592 729.999 715.908 732.752 713.39Z" fill="white"/>
<path d="M731.835 916.232C735.244 917.784 735.165 918.133 735.493 920.997C734.088 924.139 733.478 924.642 731.002 927.092C727.437 926.244 727.033 926.182 726.354 923.31C727.184 920.471 729.584 918.476 731.835 916.232Z" fill="white"/>
<path d="M688.451 965.552C691.611 966.708 690.538 965.984 692.57 968.258C692.746 970.779 689.757 974.596 688.179 977.523L686.299 977.257C683.375 973.758 685.161 968.484 688.451 965.552Z" fill="white"/>
<path d="M776.865 701.726L779.255 703.653C781.432 708.388 779.62 710.254 774.503 712.083C771.929 710.58 772.513 711.371 771.647 709.146C772.257 706.242 774.664 704.16 776.865 701.726Z" fill="white"/>
<path d="M765.925 739.213C768.316 740.509 769.217 741.488 769.942 743.681C769.063 747.088 769.394 746.05 766.378 748.839C764.238 748.123 763.546 748.075 762.286 746.451C761.944 743.891 764.203 741.601 765.925 739.213Z" fill="white"/>
<path d="M685.054 906.347C686.678 906.376 687.699 906.665 689.249 907.001C690.884 909.299 690.313 909.726 690.276 912.68L685.608 911.903C683.894 910.134 684.697 909.256 685.054 906.347Z" fill="white"/>
<path d="M678.48 1344.63C670.179 1342.36 616.647 1291.29 608.693 1282.28C605.932 1279.15 632.6 1250.93 635.343 1246.71C640.089 1239.42 678.037 1193.53 678.199 1190.88C675.779 1186.86 674.282 1187.46 674.815 1184.24L676.456 1182.87C678.64 1183.43 678.54 1184.02 680.293 1185.9C688.166 1181.54 721.216 1132.78 729.479 1121.53L855.48 952.944C862.139 944.21 869.58 935.964 875.773 926.972C877.648 924.252 882.079 922.564 884.313 919.306C916.176 872.838 949.927 827.009 985.985 782.717C991.409 776.054 994.06 769.732 1000.19 763.416C999.108 771.238 998.051 781.527 996.288 789.092C990.693 813.111 981.693 835.982 973.668 859.246L955.175 911.275C953.426 916.254 952.077 921.34 950.377 926.304C948.612 931.277 943.9 937.269 942.561 942.169C939.141 954.677 934.927 966.645 930.144 978.811C928.628 982.667 931.477 986.124 927.838 992.508C925.712 993.295 925.782 993.238 923.599 993.321C920.721 997.739 917.389 1006.96 915.075 1009.85C908.87 1017.6 909.145 1030.05 901.137 1035.35L899.328 1035.4C898.3 1034.24 897.312 1033.05 896.363 1031.84L895.323 1033.05C901.296 1047.15 894.239 1050.54 887.167 1062.87L849.85 1127.1C845.109 1135.07 840.52 1143.14 836.376 1151.33C829.936 1164.06 820.023 1175.14 812.014 1187.03C803.082 1200.29 793.826 1213.29 784.799 1226.49L753.426 1271.69C750.501 1275.88 747.858 1281.2 744.679 1285.1C729.793 1303.38 716.191 1322.43 701.053 1340.53C697.775 1344.45 693.498 1347.49 689.922 1351.38C686.225 1352.41 684.312 1348.7 682.256 1346.27C680.374 1345.87 680.065 1345.54 678.48 1344.63Z" fill="white"/>
<path d="M678.48 1344.63C676.515 1341.37 670.924 1334.29 672.535 1330.84C677.225 1332.53 683.324 1341.73 682.256 1346.27C680.374 1345.87 680.065 1345.54 678.48 1344.63Z" fill="#1E3A5F"/>
<path d="M742.694 1240.05L743.938 1240.63C745.684 1243.54 743.12 1250.74 742.786 1254.04C742.466 1257.2 740.76 1257.78 738.102 1259.53C736.73 1257.5 736.477 1256.83 735.647 1254.59C736.523 1249.79 738.927 1243.81 742.694 1240.05Z" fill="url(#paint0_linear_105_72019)"/>
<path d="M659.773 1246C661.436 1246.5 661.657 1246.71 663.133 1247.48C665.127 1252.03 662.583 1259.31 658.394 1262.59C656.987 1261.74 657.064 1261.61 655.95 1260.43C654.713 1254.58 657.085 1251.41 659.773 1246Z" fill="#1E3A5F"/>
<path d="M883.589 947.567L885.397 948.869C885.379 956.735 891.753 957.388 887.736 964.915C887.03 965.049 885.842 965.075 885.074 965.12C879.454 961.169 882.16 952.805 883.589 947.567Z" fill="#1E3A5F"/>
<path d="M944.795 877.968C950.235 881.964 944.789 888.512 941.826 892.284C936.426 887.994 940.83 881.677 944.795 877.968Z" fill="#1E3A5F"/>
<path d="M681.216 1292.67C686.48 1295.55 683.42 1303.62 681.857 1307.7C676.204 1304.68 678.361 1296.6 681.216 1292.67Z" fill="#1E3A5F"/>
<path d="M842.622 997.972C844.474 999.136 844.376 999.024 845.061 1000.88C844.819 1004.52 842.123 1007.85 839.962 1011.07C837.026 1005.4 838.598 1002.55 842.622 997.972Z" fill="#1E3A5F"/>
<path d="M710.88 1254.92C712.563 1255.35 712.177 1255.25 713.706 1256.01C715.068 1261.34 714.334 1264.32 711.547 1269.16L711.46 1269.59L710.76 1269.77C709.547 1267.57 710.674 1257.98 710.88 1254.92Z" fill="#1E3A5F"/>
<path d="M665.468 1289.87L666.099 1290.21C666.56 1293.18 665.975 1298.48 664.916 1301.34C658.559 1298.46 660.859 1293.22 665.468 1289.87Z" fill="#1E3A5F"/>
<path d="M717.586 1228.75C719.746 1229.27 719.594 1229.22 721.189 1230.56C722.418 1233.42 721.248 1237.78 720.695 1240.94L719.183 1239.88C717.395 1236.53 717.217 1232.36 717.586 1228.75Z" fill="#1E3A5F"/>
<path d="M780.795 1170.33L781.054 1170.51C782.758 1175.2 782.474 1176.44 780.802 1180.85C776.836 1175.72 780.895 1175.71 780.795 1170.33Z" fill="#1E3A5F"/>
<path d="M768.045 1142.52L769.985 1143.81C770.908 1146.03 769.674 1147.94 768.736 1150.32L766.963 1149.55C766.071 1147.58 767.376 1144.71 768.045 1142.52Z" fill="#1E3A5F"/>
<path d="M1048.98 423.578C1050.52 429.113 1046.59 458.135 1045.78 464.545C1036.36 538.992 1034.2 614.215 1016.43 687.844C1014.89 694.388 1014.98 702.434 1012.13 708.644C1007.7 718.29 1000 726.57 994.587 735.775C980.476 759.768 961.423 781.535 943.602 803.647C938.185 810.368 933.587 817.837 928.24 824.62C914.836 841.02 903.263 858.463 890.308 875.069C881.23 886.706 872.083 898.082 863.618 910.126C853.309 924.795 834.325 942.414 827.051 957.873C825.717 949.38 821.327 936.29 820.646 929.118C818.663 914.787 814.904 906.308 811.934 892.697C804.818 859.522 797.326 826.404 789.462 793.347C800.689 781.087 812.1 763.598 818.848 749.185C822.612 742.185 825.232 733.112 829.879 726.677C862.321 681.745 896.834 638.005 928.226 592.527C941.1 573.878 956.745 557.178 968.977 538.16C968.42 535.282 965.762 537.834 961.733 534.446L961.97 533.468C964.762 532.412 967.046 534.737 969.997 534.574C974.807 534.308 1039.13 435.129 1048.98 423.578Z" fill="white"/>
<path d="M971.808 579.96C975.33 581.07 975.857 581.678 976.376 584.532C975.403 587.186 973.592 588.416 971.311 590.385L968.614 590.298C964.927 587.681 969.554 582.523 971.808 579.96Z" fill="#1E3A5F"/>
<path d="M909.23 646.18C915.788 649.706 910.339 656.109 907.349 659.736C904.873 659.082 905.758 659.691 904.414 658.077C904.539 654.528 907.529 649.795 909.23 646.18Z" fill="#1E3A5F"/>
<path d="M826.733 907.054C828.874 907.653 827.94 907.171 829.519 908.693C829.14 910.944 827.324 911.918 825.252 913.575L823.288 913.045C823.375 910.258 824.603 909.717 826.733 907.054Z" fill="#1E3A5F"/>
<path d="M989.517 732.407L991.117 733.948C990.542 736.752 989.24 736.947 986.327 739.306L985.226 738.99C985.265 736.655 987.636 734.696 989.517 732.407Z" fill="#1E3A5F"/>
<path d="M631.628 976.278C635.677 980.273 629.81 1007.47 630.742 1010.81L633.306 1011.37L633.993 1012.44C632.925 1015.41 633.749 1014.33 629.471 1016.39C626.473 1021.53 624.439 1049.57 624.049 1056.78C623.918 1059.22 623.525 1061.65 625.752 1063.5C627.92 1065.3 631.491 1066.46 634.552 1066.3C637.927 1066.11 756.284 1016.48 758.868 1013.91C760.837 1011.95 759.967 1008.78 759.839 1006.35C761.357 1004 760.451 1004.58 763.056 1003.82L764.651 1004.91C764.973 1006.94 764.894 1007.24 766.153 1008.91C775.051 1010.96 791.768 994.802 797.892 997.373C770.749 1029.55 748.252 1065.39 720.327 1097.14C717.734 1100.08 717.422 1106.05 715.013 1109.02L712.896 1107.91C711.403 1110.39 713.927 1113.33 711.378 1116.54C710.38 1116.48 709.385 1116.39 708.392 1116.29C703.499 1121.92 696.516 1131.01 692.886 1137.42C691.466 1139.92 692.776 1142.2 691.916 1143.96C691.104 1144.1 688.252 1144.59 687.874 1145.05C684.282 1149.46 668.832 1165.33 668.504 1169.81C659.788 1179.17 652.58 1191.55 644.849 1201.7C628.159 1223.77 610.15 1245.11 590.893 1265.65C582.461 1255.02 567.96 1243.82 557.609 1231.74C534.514 1204.81 513.64 1177.45 491.848 1149.95C495.736 1142.4 508.423 1128.87 514.776 1121.87C553.96 1078.73 589.886 1034.43 622.82 987.765C625.759 983.602 626.244 978.532 631.628 976.278Z" fill="white"/>
<path d="M609.288 1138.33C612.537 1141.15 609.164 1154.02 605.323 1156.85L603.516 1155.28C601.952 1151.49 607.323 1142.28 609.288 1138.33Z" fill="#1E3A5F"/>
<path d="M684.816 1082.15C684.945 1082.65 684.951 1084.24 684.974 1084.85C682.608 1088.08 678.241 1093.61 673.97 1094.85C670.46 1087.36 678.01 1084.69 684.816 1082.15Z" fill="#1E3A5F"/>
<path d="M563.877 1154.06C566.472 1155.46 566.968 1156.7 567.537 1159.15C566.518 1162.54 567.345 1161.29 564.215 1163.83C560.799 1163.13 561.744 1163.76 559.849 1161.75C559.805 1158.97 562.072 1156.58 563.877 1154.06Z" fill="#1E3A5F"/>
<path d="M587.571 1222.25C589.328 1221.6 591.385 1222.17 592.331 1223.57C593.278 1224.97 592.804 1226.74 591.237 1227.67C590.073 1228.36 588.543 1228.43 587.292 1227.86C586.04 1227.29 585.284 1226.18 585.344 1224.98C585.404 1223.79 586.267 1222.73 587.571 1222.25Z" fill="#1E3A5F"/>
<path d="M468.541 551.028L469.296 551.195C470.777 554.938 408.482 643.488 402.933 654.411C403.46 656.89 404.56 659.52 401.537 660.963C400.736 659.944 400.83 659.97 399.578 659.365C396.25 663.165 393.711 667.553 390.812 671.607C374.245 694.778 357.134 717.694 340.579 740.872C333.987 750.1 329.124 759.521 321.236 768.115L318.06 753.321C317.327 746.65 314.615 737.242 313.192 730.217C309.647 712.716 305.384 695.324 302.873 677.667C301.962 671.261 300.08 665.335 299.808 658.751C301.965 654.536 333.47 639.51 340.156 635.792C373.322 617.35 404.074 597.46 434.543 576.08C441.683 571.07 463.89 553.373 468.541 551.028Z" fill="white"/>
<path d="M967.847 967.47C968.484 967.776 968.059 967.602 969.286 967.862L970.381 968.09C972.503 970.564 972.167 973.086 972.341 976.25C970.143 978.662 968.895 980.929 967.241 983.61L965.104 983.666C960.919 980.02 964.163 970.958 967.847 967.47Z" fill="white"/>
<path d="M1009.09 799.954C1018.08 805.807 1013.69 810.124 1009.14 817.025C1007.43 817.407 1008.04 817.285 1006.15 817.037C1003.71 812.954 1007.41 804.605 1009.09 799.954Z" fill="white"/>
<path d="M1077.6 547.931C1079.94 548.255 1078.93 547.871 1080.76 549.098C1082.04 553.739 1079.47 556.595 1076.74 560.673L1075.8 560.762L1073.89 559.339C1071.53 553.476 1072.03 551.157 1077.6 547.931Z" fill="white"/>
<path d="M1068.86 563.608L1070.26 564.289C1070.93 567.967 1072.12 575.32 1068.32 578.011C1066.26 578.224 1066.29 578.273 1064.14 577.903L1063.12 576.427C1063.35 573.036 1067.1 567.009 1068.86 563.608Z" fill="white"/>
<path d="M1030.96 748C1038.42 750.575 1035.26 756.286 1032.36 760.439C1029.69 760.329 1030.44 760.658 1028.44 759.537C1028.06 757.029 1030.24 751.336 1030.96 748Z" fill="white"/>
<path d="M1059.12 542.645C1064.31 546.213 1061.84 551.719 1060.01 556.151C1058.08 554.726 1057.43 554.1 1055.81 552.417C1055.22 549.729 1057.92 545.579 1059.12 542.645Z" fill="white"/>
<path d="M1036.09 779.421L1039.41 779.69C1044 783.269 1039.97 786.344 1036.66 789.55L1035.75 790.103C1034.05 787.412 1035.54 782.963 1036.09 779.421Z" fill="white"/>
<path d="M1063.51 480.758L1063.82 480.801L1064.61 481.859C1062.81 486.635 1062.53 487.334 1058.39 490.597C1053.44 486.535 1058.19 482.308 1063.51 480.758Z" fill="white"/>
<path d="M601.4 615.311C604.628 617.089 604.085 616.206 604.921 618.713C603.657 621.478 602.033 622.31 599.373 624.28C597.579 623.999 597.664 623.852 596.311 622.767L596.564 621.207C598.88 618.871 599.601 617.869 601.4 615.311Z" fill="white"/>
<path d="M828.455 1228.05C831.575 1228.34 832.182 1228.45 833.621 1230.67C833.376 1233.81 831.013 1236.39 829.02 1239.19L827.983 1238.57C827.861 1235.15 827.011 1231.1 828.455 1228.05Z" fill="white"/>
<path d="M776.443 307.391C784.507 307.587 785.207 311.788 785.285 317.419C781.842 314.515 777.131 311.203 776.443 307.391Z" fill="white"/>
<path d="M708.69 274.001C710.959 274.794 711.444 275.812 712.165 277.616C711.122 280.95 712.018 279.739 708.424 282.071L705.574 281.61L704.732 280.227C705.212 277.765 706.96 276.103 708.69 274.001Z" fill="white"/>
<path d="M1038.75 799.818C1040.9 800.03 1040.99 799.961 1043.04 800.762C1043.78 803.614 1042.39 804.889 1040.9 808.069C1036.28 806.399 1036.41 802.972 1038.75 799.818Z" fill="white"/>
<path d="M812.708 1247.1L813.296 1247.44L813.527 1249.02C811.717 1251.28 810.932 1252.83 807.987 1253.83C805.638 1251.47 805.989 1252.46 805.511 1249.69C808.21 1247.54 808.74 1247.97 812.708 1247.1Z" fill="white"/>
<path d="M810.106 1220.5C812.458 1221.07 812.331 1221.04 814.076 1222.51C814.227 1224.81 812.16 1226.58 810.435 1228.61L808.793 1228.66L807.92 1227.1C808.099 1223.79 808.223 1223.41 810.106 1220.5Z" fill="white"/>
<path d="M541.492 704.767C544.401 706.012 544.807 706.037 546.648 708.179C546.735 710.959 546.89 709.94 544.828 712.609C541.659 711.046 540.518 709.728 539.753 706.949L541.492 704.767Z" fill="white"/>
<path d="M620.593 604.265L620.994 606.656C620.233 609.246 617.925 610.479 615.44 612.337C614.974 610.826 615.132 610.64 615.386 609.125C618.132 607.418 618.86 606.734 620.593 604.265Z" fill="white"/>
<path d="M280.872 811.359C295.726 813.068 304.457 823.948 290.117 832.215C273.077 833.256 273.434 817.104 280.872 811.359Z" fill="#1E3A5F"/>
<path d="M472.164 1193.02L473.168 1192.77C486.301 1195.76 485.491 1208.83 475.21 1213.45C466.465 1212.32 465.701 1209.73 461.955 1203.43L462.315 1200.37C462.622 1197.54 462.373 1197.02 464.422 1194.71C467.24 1192.92 468.711 1193.11 472.164 1193.02Z" fill="#1E3A5F"/>
<path d="M710.81 1418.01C726.541 1419.88 729.613 1434.99 719.57 1438.17C713.759 1438.87 707.201 1439.4 704.969 1433.03C702.94 1427.26 707.395 1422.72 710.81 1418.01Z" fill="#1E3A5F"/>
<path d="M691.608 192.651C703.827 193.001 704.203 195.315 705.843 204.861C703.45 208.462 701.988 210.28 698.082 212.727C683.887 216.555 682.335 200.876 691.608 192.651Z" fill="#1E3A5F"/>
<path d="M593.393 1324.56C608.883 1323.97 608.479 1337.89 597 1344.61C594.76 1344.01 592.603 1343.21 590.567 1342.22C586.559 1340.24 586.118 1337.44 584.914 1333.73C587.267 1329.24 587.785 1326.12 593.393 1324.56Z" fill="#1E3A5F"/>
<path d="M831.524 284.312C843.588 286.682 841.874 297.203 834.999 303.172C832.903 304.992 831.008 304.298 828.299 304.105C821.937 306.376 814.966 289.448 831.524 284.312Z" fill="#1E3A5F"/>
<path d="M339.021 978.105C342.008 979.234 344.892 978.585 345.655 978.915C356.439 983.584 353.857 993.137 345.503 997.587C339.284 997.861 333.32 993.032 332.288 988.154C331.601 984.905 336.658 980.794 339.021 978.105Z" fill="#1E3A5F"/>
<path d="M841.375 1271.13C843.48 1270.67 842.371 1270.68 844.76 1271.62C848.359 1279.47 845.964 1287.85 835.941 1291.03C833.916 1290.54 832.689 1290.22 830.738 1289.56C822.689 1281.23 830.426 1272.67 841.375 1271.13Z" fill="#1E3A5F"/>
<path d="M1128.96 347.273C1135.54 347.006 1141.22 347.885 1140.22 355.409C1139.42 361.476 1137.35 363.141 1131.95 366.669C1127.12 367.811 1122.62 365.781 1122.15 361.358C1121.51 355.352 1124.46 351.623 1128.96 347.273Z" fill="#1E3A5F"/>
<path d="M240.134 630.865C255.378 630.987 256.748 643.126 244.009 649.904C242.498 649.424 235.605 644.989 234.673 643.898C229.617 637.983 234.479 633.701 240.134 630.865Z" fill="#1E3A5F"/>
<path d="M935.434 1117.17L938.623 1117.4C946.436 1122.05 951.425 1131.7 940.705 1135.48C937.242 1137.68 934.877 1138.13 930.95 1136.85C925.591 1131.42 930.71 1121.84 935.434 1117.17Z" fill="#1E3A5F"/>
<path d="M476.227 472.2C479.176 472.835 484.081 474.676 487.056 475.71C488.559 478.259 489.777 481.102 491.011 483.765C488.999 486.751 487.499 488.511 485.09 491.287C481.09 490.49 477.135 490.136 474.205 487.461C468.265 482.037 469.674 476.87 476.227 472.2Z" fill="#1E3A5F"/>
<path d="M965.669 335.099C978.812 336.076 979.056 348.825 967.982 354.725C963.816 354.872 962.535 354.625 959.536 352.132C957.489 348.255 958.539 345.066 959.158 340.804L965.669 335.099Z" fill="#1E3A5F"/>
<path d="M582.487 364.577C586.648 364.502 589.655 364.475 592.835 367.143C594.545 368.582 595.418 370.576 595.226 372.6C594.835 377.2 591.396 379.889 587.493 382.531C584.57 382.964 584.208 382.878 581.396 382.047C578.486 380.25 577.431 377.586 575.951 374.822C577.631 369.488 577.616 368.103 582.487 364.577Z" fill="#1E3A5F"/>
<path d="M1122.45 541.261C1134.29 544.741 1126.67 557.544 1119.57 561.973C1108.93 555.082 1111.1 545.66 1122.45 541.261Z" fill="#1E3A5F"/>
<path d="M366.335 558.895C377.035 559.35 376.471 561.67 379.757 569.68C377.456 571.389 373.296 573.823 370.713 575.424L369.232 575.682C360.654 574.069 357.844 563.771 366.335 558.895Z" fill="#1E3A5F"/>
<path d="M1019.87 945.645C1020.45 945.727 1021.02 945.808 1021.59 945.89C1032.99 946.896 1028.28 960.227 1020.35 963.109C1017.7 963.162 1016.31 963.341 1013.8 962.726C1008.75 957.548 1015.41 949.76 1019.87 945.645Z" fill="#1E3A5F"/>
<path d="M388.429 1057.76C390.205 1058.21 389.685 1058.08 391.272 1058.99C394.185 1064.54 406.827 1087.33 405.075 1091.74L402.638 1090.8C398.872 1086.45 397.463 1080.59 395.488 1075.43C393.37 1069.9 387.995 1063.34 388.429 1057.76Z" fill="#1E3A5F"/>
<path d="M1122.73 397.69L1125.28 398.522C1129.42 403.09 1128.34 410.637 1127.79 416.05C1124.48 415.422 1125.42 415.99 1123.24 414.157C1120.96 407.798 1121.06 404.161 1122.73 397.69Z" fill="#1E3A5F"/>
<path d="M1132.16 494.642C1137.37 498.203 1135.15 505.732 1131.39 509.53C1127.21 507.003 1128.86 497.269 1132.16 494.642Z" fill="#1E3A5F"/>
<path d="M407.777 1135.95C411.99 1137.38 420.336 1150.6 419.868 1154.25L418.513 1154.1C414.827 1152.36 409.366 1139.72 407.777 1135.95Z" fill="#1E3A5F"/>
<path d="M1040.96 901.34C1043.22 907.54 1039.88 912.385 1034.74 916.468C1033.29 910.851 1036.82 905.51 1040.96 901.34Z" fill="#1E3A5F"/>
<path d="M1070.97 765.252C1071.99 765.721 1071.94 765.845 1072.78 766.596C1073.06 770.661 1070.97 774.812 1069.42 778.759C1067.43 777.991 1068.34 778.547 1067.03 776.655C1066.91 772.403 1068.7 768.954 1070.97 765.252Z" fill="#1E3A5F"/>
<path d="M329.169 928.274L331.6 929.311C333.843 933.466 335.158 936.096 336.834 940.416C334.47 941.131 335.538 941.211 333.522 940.553C330.758 937.065 329.696 932.403 329.169 928.274Z" fill="#1E3A5F"/>
<path d="M625.844 1355.48C631.009 1357.56 631.485 1361.42 629.181 1365.53L628.001 1366.05L626.577 1365.06C625.441 1362.24 625.793 1358.52 625.844 1355.48Z" fill="#1E3A5F"/>
<path d="M1107.43 691.16C1109.41 693.958 1108.61 697.423 1107.89 700.441C1105.72 697.363 1106.44 694.42 1107.43 691.16Z" fill="#373B43"/>
<path d="M542.529 126.86C549.573 106.742 553.438 84.0288 559.93 66.5723C565.022 66.2453 576.784 70.1075 582.296 71.6631C588.27 73.3489 597.457 80.8998 604.241 84.0764C613.709 88.51 625.397 92.3582 634.543 96.6935C648.982 103.538 662.004 109.428 676.651 115.788C673.735 171.51 603.476 279.421 565.09 327.879C558.399 336.326 550.947 347.853 542.131 354.71C540.641 355.869 539.597 356.784 537.45 356.559C533.668 356.164 441.85 313.811 434.232 309.55C439.043 304.878 443.791 297.858 447.842 292.517C484.064 244.746 516.368 194.32 537.087 140.29C538.372 136.938 540.743 131.639 542.702 128.614C542.437 128.042 542.537 127.541 542.529 126.86Z" fill="white"/>
<path d="M542.702 128.614C542.437 128.042 542.537 127.541 542.528 126.86C545.569 127.659 546.749 127.406 548.104 130.149C550.205 134.403 549.746 146.981 544.778 149.413C542.885 146.201 547.239 133.924 542.702 128.614Z" fill="#1E3A5F"/>
<path d="M572.806 74.374C580.669 77.942 577.213 85.1572 575.881 91.2716C573.368 90.3324 573.23 90.271 571.21 88.7346C569.289 84.7094 571.609 78.7673 572.806 74.374Z" fill="#1E3A5F"/>
<path d="M590.428 159.395C592.278 159.571 592.508 159.735 594.185 160.323C597.165 164.311 597.398 167.426 593.125 170.88L589.062 170.788C584.036 167.072 587.527 163.236 590.428 159.395Z" fill="#1E3A5F"/>
<path d="M558.656 144.626C565.023 148.45 562.269 153.337 560.169 158.445C557.94 157.883 558.979 158.336 557.178 156.719C556.416 153.441 556.553 147.603 558.656 144.626Z" fill="#1E3A5F"/>
<path d="M595.294 248.048C597.565 249.194 597.295 250.224 597.12 252.051C595.044 254.633 591.818 255.949 588.612 257.589L587.131 256.4L587.107 254.966C588.952 251.877 592.047 250.204 595.294 248.048Z" fill="#1E3A5F"/>
<path d="M594.373 91.8086C595.408 92.297 595.65 92.5891 596.543 93.2651C596.314 96.6541 594.997 102.327 593.369 105.389C590.845 104.645 591.785 105.289 590.378 103.471C590.374 99.5385 592.251 95.2795 594.373 91.8086Z" fill="#1E3A5F"/>
<path d="M547.042 173.409C547.893 173.684 549.027 174.21 549.87 174.57C551.594 177.804 551.131 180.623 548.684 183.492L545.71 182.216C544.122 179.165 545.716 176.927 547.042 173.409Z" fill="#1E3A5F"/>
<path d="M649.657 127.962L653.315 130.075C654.46 132.613 653.798 132.723 652.921 135.706C649.47 135.615 650.21 136.04 647.662 134.686C647.202 131.859 648.288 130.933 649.657 127.962Z" fill="#1E3A5F"/>
<path d="M475.746 303.915L478.068 304.982C479.012 308.139 475.837 312.287 474.005 315.399L472.438 315.35C471.546 313.035 474.63 306.824 475.746 303.915Z" fill="#1E3A5F"/>
<path d="M304.672 438.475C309.614 439.678 310.609 442.2 314.401 443.674C339.315 453.359 363.775 464.572 388.107 475.283C391.793 476.906 404.542 482.734 406.93 484.624C405.072 487.226 400.724 489.492 398.039 491.592C351.354 528.099 298.84 559.221 243.681 586.09C229.631 592.934 213.786 598.372 199.303 605.252C193.651 604.01 192.744 602.059 187.708 600.496C164.141 593.43 137.158 578.345 113.83 569.748C108.21 567.676 82.0426 556.838 78.2539 554.313C80.7467 550.507 131.432 534.114 141.016 530.279C161.437 522.058 181.422 513.1 200.918 503.43C214.91 496.551 218.354 495.658 229.494 485.391C231.28 486.543 230.314 486.217 232.45 486.503C257.331 473.607 281.609 453.717 304.672 438.475Z" fill="white"/>
<path d="M163.941 555.455C171.207 558.214 171.288 571.227 169.693 576.628C168.061 576.134 166.214 575.927 165.778 574.579C164.432 570.422 162.295 559.427 163.941 555.455Z" fill="#1E3A5F"/>
<path d="M100.917 709.199C112.311 713.26 110.77 713.965 110.878 723.9C112.981 725.476 111.77 725.071 114.665 725.08C117.584 722.641 115.124 719.735 117.986 717.054C125.112 718.097 160.457 734.557 169.632 738.277C183.854 744.045 203.115 751.767 217.269 757.994C219.552 760.404 237.698 831.688 240.599 842.458C251.578 883.2 268.16 923.019 280.824 963.087L271.007 959.359C262.905 954.467 244.001 948.669 234.238 944.57C219.106 938.355 204.095 931.878 188.99 925.614C185.384 924.118 174.029 917.884 171.047 918.098L168.992 920.302L167.951 920.383C163.565 908.251 136.728 844.84 138.604 837.829C139.531 834.366 140.386 830.155 137.911 827.064C136.371 826.89 135.635 826.933 134.115 827.197C128.609 816.536 124.984 800.389 122.258 788.805C121.295 784.715 127.72 771.786 121.686 769.067C116.681 771.365 120.892 772.377 118.789 776.364C114.044 769.019 103.332 720.656 100.917 709.199Z" fill="white"/>
<path d="M218.1 897.354C222.548 899.395 226.398 914.927 227.629 919.344C225.482 919.064 225.509 919.109 223.435 918.258C219.343 912.078 216.919 904.393 218.1 897.354Z" fill="#1E3A5F"/>
<path d="M144.077 781.861C149.582 784.563 150.512 798.247 148.889 803.114C143.743 800.656 141.317 785.954 144.077 781.861Z" fill="#1E3A5F"/>
<path d="M171.919 876.409L173.699 877.575C175.518 881.176 176.798 889.671 173.504 892.836C170.118 888.516 167.203 880.595 171.919 876.409Z" fill="#1E3A5F"/>
<path d="M184.267 748.092C187.963 751.757 190.751 758.851 188.778 763.544L186.191 762.06C183.47 757.448 180.322 752.573 184.267 748.092Z" fill="#1E3A5F"/>
<path d="M198.32 855.185C204.677 858.105 204.239 860.956 202.873 866.062C197.821 863.114 196.543 860.054 198.32 855.185Z" fill="#1E3A5F"/>
<path d="M219.109 843.273C220.35 843.657 220.723 843.944 221.877 844.548C224.743 848.268 224.937 851.022 224.073 855.301C219.103 852.668 219.534 847.727 219.109 843.273Z" fill="#1E3A5F"/>
<path d="M426.404 319.338C432.467 323.361 441.386 327.166 448.178 330.674C467.372 340.588 487.495 348.497 506.953 358.105C514.508 361.836 521.969 364.028 530.005 368.424C527.408 372.722 516.483 384.159 512.602 388.385C484.402 419.632 453.125 448.843 419.097 475.711C410.296 470.046 400.683 467.074 391.21 462.583C366.678 450.953 340.511 441.029 316.002 429.571C316.54 427.512 363.082 386.268 368.836 380.62C380.724 368.755 392.239 356.629 403.364 344.255C409.491 337.41 419.655 325.067 426.404 319.338Z" fill="white"/>
<path d="M406.969 428.012C409.159 428.089 409.08 428.032 411.2 428.849L411.112 430.453C408.464 434.143 406.853 436.16 402.412 438.262L400.421 439.25L399.118 438.796C398.477 434.673 403.778 430.672 406.969 428.012Z" fill="#1E3A5F"/>
<path d="M333.295 421.828C336.365 423.931 335.669 422.925 336.751 425.654C336.012 428.035 334.106 428.973 331.798 430.644L330.741 430.939L329.894 430.225C330.373 426.659 331.488 425.068 333.295 421.828Z" fill="#1E3A5F"/>
<path d="M255.8 1098.19C263.61 1097.21 297.635 1110.85 304.966 1115.47C307.537 1117.1 305.631 1126.58 312.277 1127.81C313.95 1125.09 311.287 1122.46 311.866 1118.28C316.593 1117.95 361.178 1134.73 368.005 1137.41C371.725 1146.74 381.467 1158.01 387.585 1167.06C415.888 1208.71 446.823 1249.07 480.262 1287.97C488.639 1297.55 498.447 1307.39 506.735 1317.27C508.89 1319.84 510.944 1320.53 513.13 1322.95L512.376 1323.79C507.546 1322.28 502.236 1318.28 497.516 1317.06C491.183 1315.42 485.18 1312.3 479.423 1310.38L478.736 1310.16C476.268 1308.66 460.62 1302.68 457.313 1301.46C455.973 1297.42 447.505 1278.47 444.676 1276.48C438.911 1281.83 452.45 1293.92 447.407 1297.15C427.331 1290.43 406.776 1280.84 386.961 1272.81C374.944 1257.03 359.192 1241.15 346.523 1225.43L347.563 1224.32C351.631 1223.11 357.146 1224.11 362.252 1223.84L362.855 1222.93C358.877 1218.44 350.211 1219.41 343.334 1217.97C330.538 1215.3 335.525 1204.2 329.004 1195.59L327.977 1195.5L327.852 1200.94L326.929 1201.43C319.207 1195.37 293.423 1155.45 285.973 1144.89C282.79 1140.38 280.166 1130.23 274.711 1124.4C271.926 1123.2 271.241 1123.31 268.147 1123.28L267.202 1123.27C267.537 1116.1 267.008 1116.66 262.746 1110.25C260.144 1106.34 258.872 1102.1 255.8 1098.19Z" fill="white"/>
<path d="M381.389 1212.59C385.381 1215.42 389.009 1226.06 388.32 1230.59L385.745 1229.35C382.121 1224.33 379.926 1218.46 381.389 1212.59Z" fill="#1E3A5F"/>
<path d="M413.08 1265.41L415.373 1266.31C418.431 1270.67 420.48 1276.69 417.538 1281.25C417.107 1281.17 416.676 1281.09 416.245 1281.01C414.343 1276.78 411.718 1269.77 413.08 1265.41Z" fill="#1E3A5F"/>
<path d="M348.522 1172.53L350.54 1174C352.75 1179.39 354.263 1183.79 353.905 1189.53L353.473 1189.52C348.993 1184.47 347.855 1178.6 348.522 1172.53Z" fill="#1E3A5F"/>
<path d="M320.73 1156.93L322.042 1157.52C324.238 1160.04 326.952 1166.48 326.426 1169.77C319.017 1168.45 319.678 1161.87 320.73 1156.93Z" fill="#1E3A5F"/>
<path d="M352.189 1195.07C356.612 1197.03 359.365 1202.24 357.244 1206.18L355.392 1205.25C352.975 1202 351.495 1198.92 352.189 1195.07Z" fill="#1E3A5F"/>
<path d="M214.413 1019.84C213.717 1019.5 213.02 1019.15 212.324 1018.81C206.639 1006.39 171.576 938.668 174.38 931.067C180.09 935.502 184.483 934.218 188.674 937.008C191.019 938.57 193.656 948.402 197.262 950.732C200.172 947.733 198.561 944.572 197.538 941.073C213.57 948.813 234.677 956.196 251.626 962.873C258.687 965.654 280.414 974.914 286.586 976.47C298.32 1015.93 324.322 1057.87 342.862 1095.62C345.153 1100.28 356.063 1115.06 355.175 1119.15L354.143 1120.16L272.368 1090.72C267.837 1089.06 253.155 1084.93 251.151 1083.82C249.131 1079.76 240.68 1060.13 239.61 1058.63L238.19 1058.37C236.993 1060.07 236.603 1060.82 234.928 1062.18C232.577 1060.96 214.457 1025.99 216.086 1022.73L214.413 1019.84Z" fill="white"/>
<path d="M214.412 1019.84C213.864 1011.84 210.217 1005.91 213.108 1000.51L214.369 1000.13C217.758 1003.97 219.575 1016.16 220.62 1021.27C218.775 1022.88 219.387 1022.37 216.085 1022.73L214.412 1019.84Z" fill="#1E3A5F"/>
<path d="M271.818 1015.11C272.815 1015.21 274.161 1015.49 275.174 1015.68C279.56 1020.85 283.452 1035.57 286.754 1042.24C293.591 1056.03 307.703 1075.5 310.101 1090.21C309.486 1090.27 308.415 1090.13 307.744 1090.07C298.608 1082.74 274.136 1026.96 271.818 1015.11Z" fill="#1E3A5F"/>
<path d="M223.591 958.999C226.996 961.704 233.033 977.55 231.608 981.359C229.01 980.793 227.25 980.347 225.908 978.262C222.143 972.346 221.31 965.425 223.591 958.999Z" fill="#1E3A5F"/>
<path d="M230.405 1022.69C233.48 1024.46 232.402 1026.87 232.714 1029.93C233.234 1035.05 237.868 1045.1 236.512 1049.58C235.621 1049.39 234.487 1049 233.598 1048.73C230.092 1043.13 226.408 1028.4 230.405 1022.69Z" fill="#1E3A5F"/>
<path d="M267.936 992.499C274.213 993.669 274.465 995.755 274.429 1000.93C271.676 1000.37 271.506 1000.21 269.085 998.891C267.322 996.636 267.779 995.248 267.936 992.499Z" fill="#1E3A5F"/>
<path d="M74.0283 574.225C77.2424 574.839 95.6693 582.917 99.3808 584.626C116.259 592.345 133.745 598.78 150.559 606.598C163.732 612.722 177.963 617.521 191.609 623.132C194.534 626.228 194.42 637.664 195.207 642.108C198.964 663.329 203.721 684.393 207.775 705.572C208.498 709.353 209.75 711.884 209.732 715.843C208.616 716.653 207.923 716.957 206.668 717.596C198.378 714.905 187.255 709.96 178.643 706.97C175.454 705.863 176.48 703.585 173.351 702.638C145.753 694.285 117.424 678.432 91.73 668.555C91.2008 662.31 88.896 656.689 87.8314 650.585C83.7778 627.342 79.2528 604.186 76.423 580.804C76.0857 578.017 75.6639 576.67 74.0283 574.225Z" fill="white"/>
<path d="M175.821 625.04C177.398 625.272 177.964 625.501 179.444 625.969C180.47 627.624 181.294 629.362 181.9 631.156C183.414 635.536 183.539 639.996 180.917 643.923C172.131 645.029 175.63 628.883 175.821 625.04Z" fill="#1E3A5F"/>
<path d="M135.142 645.164L136.542 646.242C137.583 652.88 137.09 654.361 132.882 660.061C127.371 654.297 126.895 648.864 135.142 645.164Z" fill="#1E3A5F"/>
<path d="M115.597 627.262L118.524 628.908C119.114 631.467 117.906 635 115.88 636.965C112.677 635.503 111.675 634.517 111.412 631.431C112.78 628.474 112.035 629.538 115.597 627.262Z" fill="#1E3A5F"/>
<path d="M831.394 229.65C841.04 231.779 857.116 239.826 868.005 242.659C875.823 245.016 883.743 247.114 891.707 248.301C897.157 249.113 885.279 263.632 893.827 267.122C898.85 264.871 896.104 256.737 899.369 251.168C901.328 250.677 921.339 254.819 925.382 255.395C958.049 260.056 994.587 260.035 1025.9 250.553C1037.64 247.001 1043.28 255.593 1047.19 262.839L1048.67 263.077C1049.34 261.511 1049.27 261.351 1050.68 260.104C1057.96 260.621 1117.7 294.863 1126.51 300.812C1128.68 302.192 1136.03 306.437 1136.68 308.106C1103.23 316.092 1042.21 314.118 1008.44 308.788C994.64 299.166 996.915 306.798 992.293 305.948C939.611 296.253 888.195 274.251 844.761 247.748C844.768 247.752 843.9 243.093 843.706 242.701C841.854 236.433 837.813 242.571 832.183 239.982C830.417 237.113 831.11 232.953 831.394 229.65Z" fill="white"/>
<path d="M934.342 259.013C940.22 262.486 936.505 268.637 933.656 272.524L933.28 272.368C932.041 269.299 931.975 261.66 934.342 259.013Z" fill="#1E3A5F"/>
<path d="M445.63 1309.64C452.786 1312.17 457.244 1315.52 464.584 1317.71L470.102 1326.61L473.103 1325.97C472.705 1324.6 472.285 1323.23 471.846 1321.87L472.466 1321.19C480.598 1324.07 494.529 1328.06 501.07 1332.67C504.767 1335.28 504.597 1342.65 510.526 1343.56C511.082 1340.15 508.887 1339.03 510.051 1336.66C512.493 1336.5 539.108 1347.8 540.136 1349.74C545.314 1357.46 551.276 1360.24 558.251 1365.74C569.047 1374.26 579.669 1385.77 590.47 1394.1C602.737 1403.56 614.193 1412.42 625.472 1422.86C634.789 1431.49 643.819 1435.8 652.086 1445.72C651.952 1445.47 651.759 1445.23 651.588 1444.99C650.499 1445.17 640.511 1441.59 638.207 1441.03C635.016 1440.26 629.768 1436.96 626.392 1435.98C617.172 1432.58 611.144 1430.84 602.868 1425.98C601.577 1423.15 600.786 1420.85 598.295 1418.61L597.07 1418.68L597.335 1422.85C593.437 1425.05 564.102 1411.95 561.03 1408.6L561.005 1407.65C560.902 1404.62 561.021 1403.58 558.574 1401.22L557.635 1401.03C557.841 1404.47 558.846 1405.21 556.985 1407.32C547.81 1408.33 532.709 1393.14 525.529 1388.28C513.864 1380.39 501.997 1372.19 491.005 1363.67C486.331 1360.05 481.727 1346.23 477.989 1344.55C477.123 1347.82 477.691 1349.59 475.331 1351.19C471.34 1350.26 460.465 1341.02 456.649 1338.13C446.49 1330.43 445.715 1320.48 445.63 1309.64Z" fill="white"/>
<path d="M550.655 1392.07C548.801 1387.8 543.059 1377.93 547.309 1374.53L550.727 1375.91C552.229 1377.9 552.877 1384.03 554.597 1388.11L554.996 1389.04C553.26 1390.52 552.774 1391.07 550.655 1392.07Z" fill="#1E3A5F"/>
<path d="M470.103 1326.61L473.104 1325.97C474.284 1329.36 478.578 1337.95 476.696 1340.85C472.649 1335.79 472.2 1329.27 470.103 1326.61Z" fill="#1E3A5F"/>
<path d="M554.997 1389.04C555.414 1394.12 559.158 1396.65 558.574 1401.22L557.635 1401.03C555.232 1397.58 554.585 1394.16 550.655 1392.07C552.775 1391.07 553.26 1390.52 554.997 1389.04Z" fill="#1E3A5F"/>
<path d="M515.259 1354.16C516.796 1354.99 520.053 1359.12 521.239 1360.61C523.51 1363.47 522.868 1364.08 522.074 1366.86C516.717 1364.37 514.264 1359.12 515.259 1354.16Z" fill="#1E3A5F"/>
<path d="M116.119 690.931C124.666 692.896 195.512 725.853 211.029 730.659C212.075 730.982 213.825 733.528 213.672 735.026C213.359 738.103 216.885 743.363 215.637 746.044C201.827 741.146 182.881 732.558 168.959 726.722C153.273 720.146 130.604 711.532 116.774 703.72C115.788 698.163 115.502 696.482 116.119 690.931Z" fill="white"/>
<path d="M414.194 1296.63C431.206 1299.56 439.674 1309.7 441.436 1323.53L439.585 1322.64C437.3 1317.18 415.69 1305.47 414.194 1296.63Z" fill="white"/>
<path d="M95.1084 682.184C108.206 687.273 112.62 688.287 109.389 700.932C107.851 698.994 107.799 698.909 105.519 697.639C102.268 697.522 100.288 697.79 97.8316 696.117C95.266 692.75 95.1277 686.21 95.1084 682.184Z" fill="white"/>
<path d="M800.04 216.858C804.407 217.754 817.395 223.407 820.437 226.445C822.453 228.459 822.117 230.499 822.126 233.043C815.475 231.387 802.923 221.937 800.04 216.858Z" fill="white"/>
</g>
<defs>
<linearGradient id="paint0_linear_105_72019" x1="738.978" y1="1256.31" x2="739.631" y2="1241.93" gradientUnits="userSpaceOnUse">
<stop stop-color="#00256B"/>
<stop offset="1" stop-color="#044081"/>
</linearGradient>
<clipPath id="clip0_105_72019">
<rect width="1222" height="1536" fill="white"/>
</clipPath>
</defs>
</svg>
