<svg width="1024" height="1024" viewBox="0 0 1024 1024" fill="none" xmlns="http://www.w3.org/2000/svg">
<g clip-path="url(#clip0_103_59206)">
<path d="M0 0H1024V1024H0V0Z" fill="#0047AB"/>
<path d="M816.484 41.1871C820.671 40.8433 825.781 41.3662 829.944 42.0123C846.692 44.6115 863.475 47.1831 880.167 50.1276C892.145 52.2406 901.872 58.6107 908.589 68.7446C914.165 77.158 916.412 85.8773 916.779 95.9326C917.084 107.32 917.011 118.814 917.034 130.222C917.157 154.577 917.026 178.934 916.642 203.286L916.627 325.001L916.484 689.958L916.526 862.68C916.498 874.28 916.536 885.879 916.637 897.478C916.801 909.069 917.827 923.312 915.485 934.551C911.965 951.438 899.085 969.633 881.99 974.7C874.472 976.928 865.924 978.102 858.273 980.056C848.616 981.345 828.009 989.369 819.163 987.849C790.213 982.875 754.458 972.981 726.328 966.377L458.691 902.034C455.022 905.875 448.433 914.963 444.477 919.717C434.356 931.78 423.98 943.626 413.354 955.247C410.02 958.889 398.388 972.295 394.9 973.555C387.9 976.084 372.277 976.614 364.468 976.483C357.403 970.798 348.446 959.43 342.396 952.593C331.18 939.92 321.097 927.172 310.762 913.789C306.012 907.06 299.687 900.407 295.353 894.121C282.93 876.1 269.651 857.892 258.286 839.248C244.18 836.056 230.045 832.989 215.884 830.049C198.944 826.514 177.211 824.023 164.511 811.918C159.203 806.858 152.639 797.063 151.564 789.705C149.646 776.579 150.537 761.944 150.456 748.614L150.458 642.207C150.388 629 150.805 614.157 150.263 601.195C150.069 596.558 144.976 580.113 143.561 574.468C139.43 557.54 135.47 540.572 131.679 523.566C121.632 478.01 117.263 442.539 112.734 396.67C111.811 387.034 110.946 377.392 110.14 367.746C109.482 360.428 108.561 353.028 108.427 345.702C112.011 339.708 125.31 335.038 131.958 332.06C138.196 329.316 144.273 326.222 150.161 322.791C150.351 313.683 149.419 303.377 150.698 294.573C155.545 261.194 173.291 252.886 202.813 244.858C223.867 239.132 244.888 230.732 265.932 224.46C272.251 221.361 289.741 218.249 294.289 213.74C318.782 189.46 338.354 161.09 350.13 128.551C352.286 122.593 378.141 120.862 384.699 118.155C386.527 117.4 390.238 117.545 391.541 119.394C403.013 140.581 416.298 154.509 436.567 167.541C445.894 163.188 469.469 155.916 480.098 152.357L567.978 123.009L724.311 70.5384C742.899 64.1935 761.249 58.0485 780.01 52.1655C792.031 48.396 803.777 42.7878 816.484 41.1871Z" fill="#0047AB"/>
<path d="M356.063 142.564C412.924 207.565 539.621 214.822 620.425 222.344C627.969 223.046 636.204 222.962 643.658 224.025C643.481 395.94 609.386 566.505 534.26 721.625C515.417 761.214 493.655 799.344 469.154 835.703C449.494 864.681 428.259 892.557 405.544 919.208C397.412 928.641 389.177 937.983 380.842 947.235C376.893 951.628 369.479 959.376 366.191 963.872C356.358 954.103 345.656 940.951 336.603 930.122C269.582 849.956 215.106 751.003 178.857 653.146C177.99 650.766 177.14 648.379 176.309 645.986C166.067 619.186 158.988 593.196 152.03 565.458C140 517.988 131.022 469.796 125.15 421.178C123.428 406.042 122.027 390.872 120.949 375.677C120.317 366.987 120.139 358.842 119.064 350.142C138.436 339.943 157.596 331.375 176.825 319.924C233.589 286.122 288.37 243.795 328.297 190.654C340.44 174.492 347.479 160.239 356.063 142.564Z" fill="white"/>
<path d="M177.062 640.396C177.764 630.631 185.495 622.844 195.254 622.069C205.014 621.295 213.876 627.767 216.109 637.299C218.342 646.831 213.277 656.565 204.189 660.207C195.101 663.848 184.716 660.305 179.749 651.868L178.857 653.147C177.99 650.767 177.14 648.38 176.309 645.987C177.313 644.466 176.479 643.026 177.062 640.396Z" fill="#0047AB"/>
<path d="M176.309 645.986C177.313 644.465 176.479 643.025 177.062 640.395C176.773 644.403 177.711 648.404 179.749 651.867L178.857 653.146C177.99 650.766 177.14 648.379 176.309 645.986Z" fill="white"/>
<path d="M194.631 629.557C211.677 628.724 213.307 648.044 198.408 654.153C193.116 654.822 188.173 653.003 185.791 647.953C184.343 644.827 184.223 641.247 185.457 638.031C187.331 633.205 190.239 631.448 194.631 629.557Z" fill="white"/>
<path d="M366.486 229.943C371.96 229.917 397.687 239.158 404.911 241.203C421.892 246.009 439.117 250.304 456.233 254.61C483.485 261.467 511.263 266.669 538.951 271.44C546.116 272.675 579.648 276.491 583.177 279.254C584.12 279.992 584.35 280.691 584.496 281.881C585.511 290.164 583.609 299.99 582.806 308.32C580.883 330.112 578.31 351.842 575.09 373.481C550.909 547.897 491.504 725.556 380.927 864.781C378.73 867.597 376.517 870.873 373.86 873.252C372.433 874.53 370.276 876.093 368.23 875.704C361.403 874.409 324.623 822.429 318.001 813.037C296.149 782.044 277.182 748.685 260.288 714.769C229.716 654.827 206.866 591.251 192.284 525.562C186.621 499.243 182.071 472.696 178.647 445.993C175.807 425.461 173.286 403.882 172.705 383.204C172.621 380.184 187.23 372.014 190.393 370.002C198.227 364.911 206.021 359.76 213.776 354.549C235.073 340.318 251.581 327.22 271.287 311.482C287.618 298.656 303.64 285.443 319.34 271.853C330.948 261.746 342.477 251.47 353.682 240.919C357.581 237.247 362.103 232.972 366.486 229.943Z" fill="#0047AB"/>
<path d="M369.203 240.471C380.278 245.181 404.552 251.267 416.788 254.783C432.496 258.678 448.443 263.9 464.259 267.124C500.406 274.492 537.993 282.987 574.572 287.142C571.222 334.176 564.452 378.201 556.385 424.538C537.235 534.535 505.105 636.619 452.737 735.52C431.449 776.494 406.446 815.429 378.042 851.833L369.312 863.18C304.224 788.121 254.514 692.404 222.703 598.689C199.249 529.596 189.7 460.237 182.486 388.06C193.305 379.63 208.905 370.158 220.708 361.882C242.841 346.267 264.566 330.08 285.86 313.338C307.77 296.245 328.877 276.679 349.909 258.488C356.417 252.859 362.524 246.101 369.203 240.471Z" fill="white"/>
<path d="M389.871 380.213C454.103 376.984 491.54 429.979 493.835 489.233C495.651 539.285 477.574 588.02 443.557 624.781C421.789 648.075 391.144 664.568 358.875 665.632C336.712 666.827 312.477 657.62 295.993 643.05C205.426 563.005 274.345 389.385 389.871 380.213Z" fill="#0047AB"/>
<path d="M391.049 390.212C391.23 390.199 391.411 390.187 391.592 390.175C413.073 389.208 434.079 396.683 450.119 411.003C471.884 430.505 482.382 460.056 483.959 488.681C486.248 534.743 470.353 579.861 439.696 614.315C418.19 638.254 391.274 654.18 358.626 655.935C337.287 656.123 316.622 648.462 300.563 634.41C264.892 603.335 258.255 548.872 269.395 504.902C283.439 449.467 330.656 393.786 391.049 390.212Z" fill="white"/>
<path d="M389.898 399.232C410.772 399.315 430.997 405.614 446.047 420.713C503.702 478.558 472.673 593.214 406.596 631.709C391.602 640.444 376.32 646.507 358.693 646.573C338.322 646.501 315.917 638.261 301.585 623.764C230.86 552.226 291.399 402.281 389.898 399.232Z" fill="#0047AB"/>
<path d="M384.65 409.694C384.849 409.668 385.048 409.642 385.247 409.615C403.375 407.804 421.467 413.376 435.434 425.072C445.911 433.769 453.714 445.637 458.704 458.239C485.09 524.875 440.088 629.52 363.425 636.075C347.538 637.943 327.261 631.962 314.975 621.798C241.197 560.763 294.322 419.949 384.65 409.694Z" fill="white"/>
<path d="M424.48 438.977C425.327 439.031 426.729 439.104 427.425 439.535C433.176 443.093 443.654 457.598 446.044 463.118C444.255 465.935 439.039 471.696 436.507 474.535C431.485 480.165 427.575 484.937 423.052 490.983C401.905 518.916 384.08 549.215 369.937 581.269C366.91 588.334 364.156 595.514 361.681 602.791C360.232 607.005 357.693 617.432 353.974 619.398C352.634 619.323 351.027 619.132 350.276 617.864C342.032 603.947 333.104 592.622 322.23 580.625C316.1 574.262 306.926 565.971 299.281 561.974C297.128 560.849 295.141 559.742 293.806 557.695C293.537 553.9 300.606 528.013 302.309 525.144C308.424 514.841 341.547 549.653 345.69 554.019C360.652 519.899 388.271 480.857 412.194 452.434C414.671 449.492 421.672 440.876 424.48 438.977Z" fill="#0047AB"/>
<path d="M425.402 451.855C427.304 453.435 432.433 459.73 434.244 461.857C400.09 500.869 368.737 552.051 351.037 600.994C341.999 586.123 332.052 574.698 318.703 563.447C313.985 559.877 309.229 556.357 304.436 552.888C305.909 546.588 307.465 540.308 309.104 534.049C320.514 543.473 331.409 552.564 341.153 563.665C349.718 573.666 352.289 561.496 355.508 555.203C367.267 532.212 380.852 508.872 396.671 488.438C406.087 476.276 415.234 463.385 425.402 451.855Z" fill="#0047AB"/>
<path d="M360.843 894.278C368.266 892.895 375.859 895.627 380.698 901.424C385.538 907.22 386.871 915.178 384.185 922.236C381.499 929.294 375.213 934.352 367.744 935.465C356.481 937.143 345.95 929.49 344.069 918.26C342.187 907.03 349.648 896.362 360.843 894.278Z" fill="#0047AB"/>
<path d="M363.844 901.532C378.65 900.704 384.167 921.542 365.927 927.528C349.748 928.476 346.023 907.357 363.844 901.532Z" fill="white"/>
<path d="M439.438 803.663C446.773 802.055 454.405 804.526 459.407 810.127C464.409 815.727 466.005 823.589 463.581 830.697C461.158 837.804 455.092 843.054 447.71 844.432C436.541 846.518 425.764 839.255 423.505 828.12C421.245 816.984 428.339 806.096 439.438 803.663Z" fill="#0047AB"/>
<path d="M441.431 811.566C445.97 810.784 450.576 812.519 453.472 816.101C456.367 819.683 457.098 824.552 455.382 828.826C453.666 833.1 449.772 836.111 445.203 836.697C438.347 837.576 432.045 832.813 431.019 825.977C429.993 819.142 434.618 812.739 441.431 811.566Z" fill="white"/>
<path d="M514.737 673.567C522.165 672.674 529.499 675.842 533.942 681.861C538.384 687.88 539.25 695.822 536.208 702.657C533.167 709.492 526.687 714.165 519.241 714.893C507.905 716.002 497.787 707.781 496.553 696.458C495.319 685.134 503.428 674.926 514.737 673.567Z" fill="#0047AB"/>
<path d="M516.66 681.577C523.623 681.277 529.543 686.609 529.972 693.565C530.4 700.521 525.179 706.54 518.232 707.097C513.622 707.467 509.172 705.319 506.594 701.479C504.016 697.64 503.712 692.708 505.799 688.581C507.886 684.454 512.04 681.776 516.66 681.577Z" fill="white"/>
<path d="M566.962 526.578C578.25 525.026 588.667 532.898 590.256 544.182C591.845 555.465 584.008 565.908 572.73 567.534C561.399 569.168 550.897 561.286 549.3 549.95C547.704 538.614 555.621 528.137 566.962 526.578Z" fill="#0047AB"/>
<path d="M566.919 534.838C573.75 533.473 580.403 537.874 581.818 544.695C583.234 551.516 578.883 558.201 572.073 559.668C565.191 561.15 558.419 556.742 556.988 549.849C555.557 542.956 560.015 536.217 566.919 534.838Z" fill="white"/>
<path d="M598.25 380.96C609.223 379.23 619.533 386.689 621.322 397.653C623.111 408.617 615.708 418.967 604.754 420.815C593.716 422.677 583.27 415.205 581.467 404.157C579.664 393.109 587.193 382.704 598.25 380.96Z" fill="#0047AB"/>
<path d="M599.136 388.587C601.504 388.378 603.387 388.115 605.63 389C608.835 390.301 611.358 392.873 612.597 396.103C615.641 403.899 611.52 410.432 603.974 413.03C594.983 413.736 591.343 409.517 589.233 401.373C590.949 394.213 592.618 391.948 599.136 388.587Z" fill="white"/>
<path d="M499.78 216.005C506.99 215.304 514.021 218.532 518.188 224.457C522.356 230.382 523.017 238.09 519.92 244.639C516.823 251.188 510.445 255.566 503.221 256.103C492.226 256.921 482.621 248.74 481.678 237.755C480.735 226.771 488.807 217.073 499.78 216.005Z" fill="#0047AB"/>
<path d="M499.612 223.589C501.921 223.436 503.992 223.564 506.186 224.424C509.14 225.549 511.484 227.867 512.644 230.808C515.876 238.919 511.159 245.743 503.636 248.803C497.75 249.034 492.715 247.329 490.34 241.438C489.083 238.243 489.147 234.68 490.515 231.532C492.457 227.088 495.292 225.228 499.612 223.589Z" fill="white"/>
<path d="M612.628 235.03C619.808 234.448 626.745 237.778 630.783 243.744C634.82 249.71 635.331 257.388 632.122 263.837C628.912 270.287 622.478 274.508 615.284 274.884C604.379 275.455 595.038 267.162 594.312 256.266C593.585 245.371 601.744 235.911 612.628 235.03Z" fill="#0047AB"/>
<path d="M612.027 243.247C618.522 241.976 624.822 246.199 626.114 252.691C627.405 259.182 623.202 265.495 616.714 266.807C610.198 268.125 603.851 263.899 602.554 257.378C601.256 250.858 605.502 244.524 612.027 243.247Z" fill="white"/>
<path d="M255.311 752.097C266.129 750.344 276.323 757.684 278.091 768.5C279.859 779.316 272.532 789.52 261.718 791.301C250.885 793.086 240.658 785.743 238.887 774.907C237.117 764.071 244.473 753.854 255.311 752.097Z" fill="#0047AB"/>
<path d="M255.581 759.52C257.48 759.382 259.62 759.329 261.467 759.846C264.467 760.671 267.012 762.665 268.529 765.381C270.149 768.306 270.477 771.773 269.436 774.95C267.991 779.359 265.029 781.713 261.074 783.734C244.965 785.817 241.21 766.466 255.581 759.52Z" fill="white"/>
<path d="M362.584 177.1C372.96 176.424 380.897 181.58 382.521 192.219C383.442 198.042 381.975 203.991 378.452 208.719C374.441 214.076 369.893 215.951 363.619 216.904C339.23 218.546 335.784 182.207 362.584 177.1Z" fill="#0047AB"/>
<path d="M361.579 184.591C363.518 184.477 365.125 184.365 367.005 184.957C369.862 185.829 372.218 187.869 373.489 190.572C377.339 198.695 372.233 206.266 364.479 209.321C362.887 209.356 360.677 209.061 359.173 208.551C356.225 207.564 353.814 205.406 352.506 202.586C351.111 199.509 351.032 195.995 352.288 192.859C354.211 188.173 357.251 186.388 361.579 184.591Z" fill="white"/>
<path d="M144.304 347.305C155.182 347.093 164.185 355.714 164.443 366.591C164.7 377.468 156.116 386.507 145.24 386.81C134.3 387.114 125.197 378.468 124.938 367.527C124.679 356.586 133.362 347.519 144.304 347.305Z" fill="#0047AB"/>
<path d="M142.726 354.562C147.98 354.216 152.587 356.289 154.908 361.232C156.353 364.281 156.48 367.79 155.259 370.936C153.503 375.385 150.618 377.169 146.433 378.889C131.5 380.109 126.69 361.641 142.726 354.562Z" fill="white"/>
<path d="M244.418 279.453C255.01 277.701 265.036 284.808 266.891 295.382C268.746 305.956 261.738 316.051 251.182 318.01C240.48 319.995 230.213 312.868 228.332 302.146C226.452 291.425 233.679 281.229 244.418 279.453Z" fill="#0047AB"/>
<path d="M245.137 286.563C247.289 286.426 249.457 286.317 251.531 287.035C254.461 288.069 256.847 290.246 258.146 293.068C259.522 296.103 259.573 299.573 258.287 302.647C256.676 306.562 254.079 308.544 250.321 310.081C234.908 312.983 230.226 294.134 245.137 286.563Z" fill="white"/>
<path d="M159.241 489.792C169.814 487.511 180.223 494.273 182.436 504.86C184.648 515.448 177.819 525.812 167.218 527.956C156.713 530.081 146.463 523.327 144.271 512.837C142.078 502.346 148.765 492.052 159.241 489.792Z" fill="#0047AB"/>
<path d="M161.683 496.542C163.922 496.462 166.039 496.684 168.128 497.578C170.981 498.787 173.205 501.127 174.267 504.038C177 511.342 172.383 518.203 165.314 520.483C148.812 521.348 146.801 502.49 161.683 496.542Z" fill="white"/>
<path d="M847.896 111.051C849.353 114.079 848.296 330.176 848.274 351.658L848.114 719.52L848.182 837.571C848.355 867.116 848.189 896.662 847.683 926.203C818.546 919.698 786.824 912.618 758.018 905.562L757.975 889.876L757.961 689.147C757.96 659.11 756.946 624.277 757.961 594.74C762.096 590.978 765.729 587.914 769.515 583.728C786.824 564.608 795.807 539.383 794.48 513.627C792.931 484.817 779.568 462.341 758.55 443.453L758.559 268.924C758.257 226.249 758.23 183.573 758.477 140.898L812.655 123.131C825.086 119.114 835.826 116.252 847.896 111.051Z" fill="white"/>
<path d="M817.701 51.664C829.105 50.7207 842.471 62.6321 845.737 73.1897C848.865 83.3016 848.602 89.7992 848.414 100.17C833.985 106.087 810.466 113.016 795.337 117.889L676.182 155.319C666.549 158.421 656.737 162.495 646.968 165.537C618.429 174.425 589.869 183.821 561.333 192.607C556.439 194.114 535.889 201.621 532.705 201.686C521.253 201.92 498.702 195.647 487.516 192.578C472.155 188.092 460.204 182.471 446.449 174.576C459.343 169.844 473.329 165.484 486.431 161.127C508.187 153.665 530.006 146.39 551.887 139.303L718.798 83.6535L787.801 60.9383C794.364 58.7926 811.993 52.3132 817.701 51.664Z" fill="white"/>
<path d="M846.457 56.2754C862.439 59.5256 877.45 75.7801 878.302 92.2968C879.035 106.51 878.626 121.663 878.691 135.978C878.96 164.046 879.087 192.115 879.072 220.185L879.107 490.012L878.986 781.481L878.978 875.042C878.977 883.369 878.932 891.861 878.973 900.175C879.094 925.283 880.608 946.314 859.69 964.013C854.611 968.059 851.476 969.719 845.373 971.63C860.741 949.589 858.041 936.288 858.056 910.629L858.158 856.363L858.089 641.829L858.415 254.281L858.514 141.014L858.566 104.944C858.587 82.1905 860.142 75.5252 846.457 56.2754Z" fill="white"/>
<path d="M873.175 59.4707C874.213 59.5446 875.186 59.719 876.188 59.8086C894.696 61.466 907.409 79.1136 907.911 96.8614C908.114 104.063 907.968 111.4 908.01 118.67C908.18 134.268 908.25 149.868 908.222 165.468L908.249 294.862L907.931 673.439L907.809 852.486L907.704 899.249C907.683 923.087 909.179 945.435 887.357 961.171C881.992 964.183 878.549 964.981 872.517 966.559C881.151 957.147 886.683 945.309 888.364 932.648C889.52 923.769 888.764 909.554 888.72 900.102L888.766 842.422L888.86 598.079L888.98 256.187L888.766 151.347L888.672 113.821C888.605 86.7036 890.361 81.5588 873.175 59.4707Z" fill="white"/>
<path d="M491.478 857.025C508.252 861.481 525.875 864.704 542.848 868.407L612.85 883.959L764.659 918.229L823.729 931.294C831.243 933.024 840.24 934.726 847.482 936.948C844.946 954.674 839.825 969.476 821.785 976.136C818.376 976.728 815.401 976.774 812.003 976.009C800.769 973.479 789.546 970.602 778.367 967.861L730.648 956.503C686.929 946.329 643.277 935.874 599.693 925.139L509.436 903.624C497.063 900.67 477.5 896.669 465.712 892.962C474.735 881.301 483.33 869.314 491.478 857.025Z" fill="white"/>
<path d="M747.37 602.533C748.382 604.401 747.926 837.691 748.002 858.891C729.696 855.306 711.138 850.369 692.715 846.613C689.134 845.759 685.097 845.034 681.456 844.297L681.513 613.224C705.586 618.061 725.776 614.217 747.37 602.533Z" fill="white"/>
<path d="M626.012 575.426C638.364 593.892 651.662 602.467 671.477 610.959L671.504 842.2L654.866 838.412C638.599 835.254 622.389 831.813 606.241 828.09L606.052 685.579L605.926 654.321C605.898 650.245 605.473 638.475 606.32 635.122C607.833 629.127 611.246 619.799 613.387 613.722C617.739 601.364 621.428 587.535 626.012 575.426Z" fill="white"/>
<path d="M747.22 215.617L747.487 215.648C747.669 215.881 747.85 216.115 748.032 216.349C748.804 278.423 748.278 376.75 747.988 435.67C726.949 426.084 716.159 421.738 691.949 424.631C687.787 425.245 685.941 425.675 681.895 426.86C680.845 401.002 681.563 368.271 681.759 342.123L681.525 234.555C702.311 228.792 726.382 220.008 747.22 215.617Z" fill="white"/>
<path d="M654.457 227.619C658.535 229.331 662.006 231.185 665.901 233.231C665.344 295.099 660.357 356.849 650.981 418.005C626.513 588.386 559.672 749.9 456.585 887.744C440.587 909.001 423.537 929.445 405.5 949.001C402.327 952.445 393.626 962.104 390.377 964.539C386.576 965.117 382.569 965.264 378.717 965.483C380.26 963.564 382.106 961.64 383.774 959.813C415.384 925.181 444.804 889.748 471.353 850.96C544.211 742.574 596.128 621.504 624.421 494.009C634.881 445.953 642.609 397.342 647.568 348.411C649.562 328.871 651.747 308.565 652.899 289.012C653.968 268.565 654.488 248.094 654.457 227.619Z" fill="white"/>
<path d="M696.33 434.695C704.202 433.497 716.237 435.134 723.805 437.216C744.359 443.033 761.803 456.696 772.374 475.257C784.036 496.013 787.702 519.72 781.185 542.796C774.903 565.18 759.812 584.06 739.363 595.12C720.25 605.761 697.625 608.147 676.713 601.726C656.38 595.642 639.827 581.068 629.742 562.558C631.976 555.113 633.142 547.414 635.487 539.784C637.139 543.615 638.905 547.396 640.78 551.123C643.521 556.147 646.909 560.79 650.856 564.935C662.499 577.254 678.71 585.595 695.815 585.908C711.043 586.186 728.807 579.959 739.861 569.341C753.559 556.281 761.388 538.233 761.566 519.308C761.809 501.616 755.395 483.716 742.886 471.02C731.437 459.401 715.803 452.865 699.491 452.879C678.528 452.854 665.48 459.262 651.192 473.491C652.999 465.706 654.534 457.859 655.793 449.967C667.883 441.695 681.787 436.456 696.33 434.695Z" fill="white"/>
<path d="M596.259 661.857C597.388 666.628 596.06 696.744 596.043 703.197L596.092 825.787C589.948 825.089 580.974 822.981 574.835 821.669L541.731 814.594C538.443 814.016 534.323 812.979 530.998 812.242C530.988 808.535 530.639 796.653 531.996 794.11C542.735 773.992 554.054 753.113 564.191 732.731C570.165 720.728 575.831 708.574 581.185 696.282C585.824 685.466 591.06 672.141 596.259 661.857Z" fill="white"/>
<path d="M695.51 463.21C714.762 461.895 732.992 471.103 742.923 487.753C768.095 529.956 735.066 586.193 683.754 573.754C691.924 573.676 709.625 574.161 716.184 568.842C717.226 567.997 718.413 565.025 718.406 563.643C718.348 551.162 717.044 538.628 716.415 526.142C725.586 515.993 727.014 505.165 721.585 492.728C705.207 464.603 664.708 481.211 668.019 511.229C668.69 517.32 672.053 523.107 677.006 526.797C675.133 541.187 674.413 555.703 674.851 570.207C671.562 568.614 668.459 566.663 665.597 564.389C653.538 554.997 643.782 539.251 642.177 524.201C640.799 511.269 647.909 492.321 656.451 482.539C667.733 469.619 678.856 464.608 695.51 463.21Z" fill="white"/>
<path d="M746.233 144.465L747.507 144.583C748.34 146.126 748.001 198.17 748 204.217C726.601 210.914 704.756 216.252 683.114 222.968L681.805 223.111C680.617 220.024 681.313 172.446 681.41 165.434C703.076 158.625 724.684 151.635 746.233 144.465Z" fill="white"/>
<path d="M160.508 634.814C161.124 635.724 164.169 643.932 164.825 645.607L177.688 678.72C186.08 700.298 196.504 723.023 206.433 744.019C208.602 748.604 221.817 772.056 221.727 775.268C201.142 769.904 181.27 765.021 160.153 761.81C159.715 731.902 160.529 701.657 160.212 671.709C160.085 659.71 159.927 646.77 160.508 634.814Z" fill="white"/>
<path d="M275.349 233.049L276.05 233.029L275.901 233.632C258.446 248.813 241.053 264.191 222.154 277.548C202.81 291.219 182.542 305.099 161.818 316.616L161.205 316.442C161.133 316.287 161.06 316.132 160.987 315.977C158.39 294.669 163.209 268.066 186.883 260.932C216.464 252.019 245.889 242.546 275.349 233.049Z" fill="white"/>
<path d="M160.519 771.799C167.273 772.407 179.801 776.015 186.796 777.53C200.587 780.517 214.416 783.401 228.198 786.425C229.477 788.641 230.729 791.069 231.894 793.359C237.877 805.115 244.437 816.385 251.11 827.758C236.269 823.714 220.772 820.938 205.775 817.479C199.081 815.935 188.504 814.148 182.339 811.65C177.555 809.714 173.231 806.796 169.646 803.085C160.759 793.838 160.215 783.749 160.519 771.799Z" fill="white"/>
<path d="M670.024 168.518C670.052 168.541 670.088 168.556 670.108 168.587C671.407 170.582 670.85 218.142 670.582 224.127C664.489 221.831 654.769 214.957 652.336 214.271C644.888 212.173 626.058 211.881 617.376 211.398L604.685 210.434C604.6 203.626 604.7 196.643 604.722 189.82C618.44 185.547 632.134 181.194 645.802 176.763C653.81 174.166 662.25 171.634 670.024 168.518Z" fill="white"/>
<path d="M681.48 855.197C702.059 858.835 727.599 866.296 747.714 868.635C747.881 880.077 747.861 891.52 747.651 902.961C745.379 903.154 736.495 900.968 733.849 900.491C716.394 897.341 698.864 892.084 681.514 888.978L681.48 855.197Z" fill="white"/>
<path d="M606.511 839.371C628.723 843.353 649.498 848.077 671.49 852.836L671.388 886.742C650.574 880.746 627.528 877.335 606.489 871.695C605.911 861.414 606.34 849.762 606.511 839.371Z" fill="white"/>
<path d="M530.987 822.75C533.589 823.207 536.353 823.86 538.936 824.446C557.877 828.744 577.053 832.273 595.907 836.926L595.844 869.257C574.316 864.844 552.864 860.07 531.496 854.939C531.548 844.207 531.378 833.475 530.987 822.75Z" fill="white"/>
<path d="M694.923 488.143C713.283 486.996 721.522 507.652 708.242 519.829C706.272 521.635 703.544 523.041 701.199 524.362C703.031 525.996 704.17 527.284 705.799 529.088C707.184 536.348 707.292 554.73 707.431 562.506L698.083 563.085C693.978 563.555 689.118 563.787 684.943 564.094C685.262 556.468 685.73 548.734 685.81 541.112C685.886 533.835 685.855 530.678 689.269 524.201C683.807 520.597 679.63 517.724 678.083 510.823C675.356 498.664 683.678 490.613 694.923 488.143Z" fill="white"/>
<path d="M385.487 128.682C386.462 129.683 392.542 141.051 394.703 143.746C409.073 161.667 422.073 171.257 441.651 182.431C435.48 180.749 430.045 178.386 424.163 175.948C402.279 167.873 377.42 151.715 362.477 133.834C368.629 131.997 378.917 130.097 385.487 128.682Z" fill="white"/>
<path d="M671.123 342.361C671.664 345.472 671.442 364.648 671.45 368.782C671.4 389.08 671.457 409.378 671.62 429.675C667.629 431.86 662.87 434.046 658.737 436.063C658.341 433.884 662.33 409.663 662.967 406.354C666.876 386.062 666.868 362.237 671.123 342.361Z" fill="white"/>
<path d="M515.911 819.766L521.182 820.988C520.951 831.418 521.048 842.393 520.998 852.864L506.212 849.62L498.1 848.149C503.942 838.469 510.257 829.934 515.911 819.766Z" fill="white"/>
<path d="M592.766 193.484L593.287 193.518C594.536 195.099 593.98 206.814 593.952 209.623C583.974 209.498 570.103 207.83 560.116 206.515L554.03 205.534C560.095 203.557 566.694 202.048 572.832 200.144C579.523 198.068 586.143 195.765 592.766 193.484Z" fill="white"/>
</g>
<defs>
<clipPath id="clip0_103_59206">
<rect width="1024" height="1024" fill="white"/>
</clipPath>
</defs>
</svg>
