<?xml version="1.0" encoding="utf-8" ?><svg xmlns="http://www.w3.org/2000/svg" xmlns:xlink="http://www.w3.org/1999/xlink" width="1024" height="1024" viewBox="0 0 1024 1024"><path fill="#FDFDFC" transform="scale(0.5 0.5)" d="M440.657 1028.75C439.17 1001.9 440.779 967.672 440.725 940.121L440.255 753.475L439.986 636.948C439.919 602.759 435.118 563.691 456.691 534.953C482.133 501.06 515.299 503.987 552.941 504.188L619.067 504.613C645.163 504.824 680.66 504.317 653.192 471.149C639.003 454.016 633.064 429.809 637.341 407.766C641.743 385.367 654.773 365.596 673.621 352.719C696.622 337.553 724.697 332.126 751.692 337.628C776.313 342.709 798.239 356.776 811.939 378.02C828.116 403.106 830.809 436.087 814.6 461.785C809.73 469.507 798.699 480.856 797.819 489.754C797.538 492.605 798.045 493.633 800.035 495.677C805.226 501.009 816.699 502.594 823.874 503.413C845.02 505.826 866.95 504.416 888.197 504.285C930.392 504.023 972.885 502.985 1015.06 503.922C1019.34 504.017 1029.77 504.232 1032.54 507.831C1044.29 523.068 1025.54 689.792 1043.32 707.033C1054.19 717.568 1073.48 695.895 1083.46 691.082C1094.51 685.853 1106.63 683.274 1118.86 683.552C1141.11 683.944 1159.76 692.793 1175 708.884C1192.23 726.771 1201.58 750.817 1200.95 775.648C1199.96 800.18 1189.25 823.31 1171.18 839.937C1142.17 866.492 1097.92 869.456 1067.4 843.647C1027.89 810.238 1035.75 893.039 1035.77 911.831L1036.1 1012.21L1166.6 1012.22C1187.7 1012.22 1210.6 1013.11 1231.53 1011.52C1266.18 1008.87 1243.49 989.035 1234.96 973.901C1231.88 968.531 1229.66 962.712 1228.39 956.655C1224.21 936.475 1228.42 915.462 1240.05 898.45C1250.45 882.91 1269.25 867.895 1287.81 864.204C1305.66 857.296 1332.41 858.462 1350.2 865.182C1396.08 881.003 1424.03 937.894 1393.71 981.089C1390.16 986.145 1380.46 997.99 1384.59 1004.43C1395.94 1015.93 1442.3 1012.23 1455.81 1012.2L1550.76 1011.92C1563.43 1011.87 1594.75 1009.5 1604.64 1015.51C1611.45 1025.07 1606.52 1131.52 1608.08 1148.68C1608.47 1152.94 1607.67 1190.53 1606.47 1193.65C1604.75 1205.01 1599.21 1219.46 1588.27 1224.8C1569.04 1242.99 1540.74 1214.15 1523.26 1206.65C1492 1193.24 1459.62 1213.81 1446.73 1242.81C1438.11 1262.57 1437.64 1284.94 1445.44 1305.05C1452.18 1322.17 1465.57 1337.39 1482.75 1344.5C1490.11 1347.57 1498.06 1348.98 1506.03 1348.62C1539.31 1347.18 1552.35 1312.22 1583.94 1324.63C1593.39 1328.35 1601.91 1341.34 1604.54 1350.93C1609.37 1368.58 1606.98 1387.89 1607.23 1405.95C1607.49 1428.21 1609.51 1450.99 1606.93 1473.08C1605.43 1486 1602.26 1493.35 1597.06 1504.31C1590.76 1517.61 1566.72 1538.03 1552.61 1540.67C1514.79 1547.76 1467.56 1541.22 1428.64 1543.23C1418.63 1543.75 1407.58 1543.77 1398.04 1546.41C1392.89 1547.83 1389.22 1550.13 1386.67 1554.71C1385.66 1562.62 1398.6 1577.44 1403.74 1586.07C1414.49 1604.4 1417.47 1626.27 1412.01 1646.81C1405.87 1670.1 1391.44 1688.51 1370.6 1700.45C1347 1713.69 1319.11 1717.03 1293.06 1709.73C1268.93 1703 1248.16 1687.58 1236.02 1665.5C1221.98 1640.32 1222.94 1609.45 1238.52 1585.19C1242.73 1578.52 1258.89 1557.83 1253.15 1552.17C1241.04 1540.23 1192.76 1543.76 1178.53 1543.76L1072.27 1543.95C1057.62 1544 1040.91 1545.64 1026.48 1543.38C1023.27 1542.88 1016.6 1541.58 1014.36 1538.94C1010.08 1533.88 1013.78 1382.69 1011.31 1363.22C1010.49 1356.73 1009.24 1349.15 1005.02 1343.96C1003.14 1341.65 1000.2 1339.55 997.111 1339.56C986.543 1339.59 969.127 1356.89 957.604 1361.13C946.185 1365.33 931.752 1365.97 919.788 1364.21C897.648 1360.86 877.781 1348.76 864.652 1330.62C850.389 1310.98 844.518 1286.47 848.333 1262.5C857.823 1202.57 922.214 1167.79 975.057 1201.75C980.59 1205.31 991.167 1214.53 996.962 1215.24C1008.11 1216.62 1010.7 1194.64 1011.82 1186.77C1013.44 1168.82 1012.33 1150.29 1012.21 1132.23L1011.74 1036.15L888.775 1036.02C871.412 1036.02 809.709 1032.02 799.766 1044.02C796.553 1052.37 811.89 1072.22 815.566 1080.86C837.352 1132.08 796.535 1182.5 743.78 1188.5C718.084 1191.64 692.211 1184.25 672.059 1168C648.058 1148.67 634.556 1114.89 645.61 1084.97C650.824 1070.87 666.488 1056.58 664.636 1042.64C641.203 1032.77 612.96 1035.89 587.807 1035.96C553.324 1036.17 518.841 1036.14 484.359 1035.85C473.774 1036.49 458.92 1036.07 448.009 1036.03L440.657 1028.75ZM783.203 1027.07C799.393 1014.45 811.541 1011.97 831.936 1011.94C891.512 1011.83 952.232 1013.54 1011.74 1012.11L1011.78 914.948C1011.72 888.717 1007 839.934 1028.22 821.154C1066.48 787.3 1085.64 851.428 1130.74 837.259C1197.66 817.232 1190.07 710.676 1118.13 706.289C1082.26 704.103 1060.36 756.791 1026.71 723.799C1006.65 704.139 1011.66 656.502 1011.75 630.439L1011.84 527.628C967.821 527.133 923.8 527.044 879.781 527.361C856.897 527.381 831.303 528.019 808.554 525.173C798.949 523.548 790.052 517.534 783.202 511.362C769.367 498.898 773.891 476.732 785.25 464.044C825.679 418.884 790.64 360.144 732.533 358.157C729.977 358.052 727.417 358.079 724.863 358.237C702.302 361.809 684.29 368.857 670.339 387.72C657.952 404.468 654.329 431.995 665.943 449.784C676.39 465.785 697.814 484.914 682.85 506.546C664.609 532.913 622.639 527.896 594.158 527.285C577.571 527.048 560.982 526.917 544.393 526.893C530.798 526.847 515.428 526.265 502.339 530.291C491.737 533.516 482.435 540.028 475.776 548.886C465.264 562.721 463.991 574.659 463.9 591.534C463.833 603.96 463.725 616.464 463.712 628.899L463.965 729.899L464.01 911.794C464.015 944.928 463.533 979.156 464.315 1012.14L583.602 1012.26C610.332 1012.21 689.472 1002.96 689.523 1048.67C689.552 1074 657.09 1085.1 666.492 1119.58C668.872 1128.4 673.446 1136.48 679.788 1143.07C693.62 1157.53 711.249 1165.64 731.337 1165.94C750.126 1166.13 768.215 1158.81 781.586 1145.61C796.53 1130.81 804.33 1104.87 793.63 1086.65C782.126 1067.06 762.257 1051.27 783.203 1027.07ZM1272.51 1539.81C1280.19 1553.5 1280.89 1564.45 1271.57 1577.94C1263.76 1588.77 1251.54 1605.18 1250 1618.12C1242.6 1680.07 1321.41 1710.12 1366.29 1675.09C1389.77 1656.77 1397.84 1626.67 1385.31 1600.08C1378.08 1584.73 1358.77 1571.96 1362.88 1551.36C1369.8 1519.69 1409.1 1520.08 1433.46 1520.14L1487.1 1520.51C1517.67 1520.85 1541.68 1524.48 1567.42 1504.95C1584.58 1484.6 1584.61 1464.8 1585.26 1439.31C1584.46 1418.32 1587.7 1360.95 1576.67 1346.78C1566.96 1341.74 1538.65 1365.97 1525.45 1369.1C1490.59 1377.36 1457.86 1365.47 1436.1 1336.35C1420.06 1314.54 1413.39 1287.22 1417.56 1260.47C1421.19 1234.64 1435 1211.34 1455.91 1195.76C1481.88 1176.73 1514.3 1173.97 1542.62 1190.32C1551.31 1195.35 1560.69 1203.98 1570.7 1205.61C1572.92 1205.97 1575.76 1205.49 1577.35 1203.83C1581.09 1199.94 1582.98 1188.86 1583.37 1183.4C1584.56 1166.81 1584.13 1149.15 1584.14 1132.47L1583.85 1036.12C1529.19 1035.36 1474.26 1036.63 1419.57 1036.02C1397.92 1035.78 1372.33 1033.96 1360.93 1012.05C1350.36 991.73 1374.08 975.5 1379.94 957.264C1390.47 924.479 1368.64 895.311 1337.62 885.55C1319.54 879.938 1299.96 881.873 1283.33 890.914C1268.63 898.743 1256.72 911.585 1251.97 927.507C1245.09 950.556 1259.64 967.596 1270.27 986.06C1274.54 993.46 1275.8 1000.76 1272.81 1008.9C1266.11 1027.38 1249.5 1033.07 1231.68 1035.31C1216.28 1037.02 1182.29 1036.02 1165.48 1036.01L1035.92 1035.95L1036.08 1132C1036.21 1164.07 1044.3 1236.94 996.878 1238.74C986.187 1239.14 972.85 1229.06 964.365 1222.86C941.099 1205.87 914.516 1207.77 893.276 1226.63C880.067 1238.25 872.095 1254.7 871.159 1272.27C869.341 1307.96 891.797 1338.81 928.438 1342.33C962.623 1345.61 987.503 1295.54 1019.4 1324.86C1035.6 1340.05 1036.61 1369.06 1036.05 1389.21L1035.92 1393.35C1036.82 1434.01 1035.89 1478.97 1035.8 1519.93C1068.31 1520.23 1100.82 1520.32 1133.33 1520.2C1150.69 1520.16 1171.01 1519.61 1188.16 1520.23C1216.13 1519.91 1253.86 1514.87 1272.51 1539.81Z"/><path fill="#FDFDFC" transform="scale(0.5 0.5)" d="M1052.5 504.502L1509.85 504.2C1539.03 504.118 1562.12 504.89 1583.69 526.608C1595.2 538.041 1602.86 552.772 1605.61 568.756C1608.53 585.411 1607.77 608.867 1607.76 626.347L1607.75 703.954L1607.88 996.154L1404.75 996.289C1413.08 983.196 1418.72 973.279 1421.51 957.835C1431.55 902.379 1390.32 852.774 1336.03 844.629C1302.79 839.642 1274.99 846.93 1247.74 866.227C1239.33 874.092 1232.86 880.501 1225.84 889.696C1222.77 893.707 1218.37 904.462 1216.31 905.917C1206.93 941.337 1207.19 965.387 1229.26 996.335C1203.95 996.152 1178.64 996.1 1153.33 996.178C1138.98 996.203 1121.36 996.677 1107.35 995.97C1090.41 996.814 1069.71 996.225 1052.52 996.117C1051.01 952.555 1051.87 899.056 1052.39 855.167C1067.69 864.762 1080.32 873.399 1098.24 876.724C1124.08 881.653 1150.81 875.969 1172.41 860.954C1195.61 844.775 1211.3 818.015 1216.13 790.333C1221.08 761.774 1214.4 732.423 1197.59 708.815C1181.72 686.672 1157.64 671.806 1130.74 667.536C1099.42 662.854 1077 673.223 1052.55 691.398C1050.99 631.309 1052.43 564.994 1052.5 504.502Z"/><path fill="#FDFDFC" transform="scale(0.5 0.5)" d="M440.274 1052.6C470.676 1051.72 500.661 1052.59 531 1052.56C568.887 1052.15 606.776 1051.97 644.666 1052.04C637.551 1062.27 631.119 1072.17 628.024 1084.42C614.204 1139.13 650.826 1189.31 704.197 1202.52C734.024 1209.79 765.519 1204.89 791.726 1188.9L797.049 1185.56C840.832 1149.58 853.495 1099.3 818.31 1051.94L995.573 1052.3L995.78 1195.37C982.421 1186.81 974.997 1182.95 960.49 1176.76C931.188 1168.81 911.216 1169.2 883.684 1184.86C859.338 1198.8 841.504 1221.82 834.082 1248.88C826.563 1276.95 830.652 1306.87 845.428 1331.9C870.95 1375.25 923.24 1394.56 970.615 1373.27C978.976 1369.51 986.977 1363.29 995.422 1359.66C995.806 1374.38 995.868 1389.12 995.607 1403.85C995.564 1449.78 994.969 1497.51 996.11 1543.31L878.721 1542.94C864.035 1542.93 826.871 1543.89 814.493 1541.08C808.98 1540.91 797.373 1534.04 793.454 1530.34C766.798 1506.63 799.978 1484.06 805.377 1465.32C828.56 1384.86 717.112 1348.14 669.991 1406.12C662.902 1414.68 658.278 1425.01 656.616 1436C651.522 1471.39 680.462 1487.43 682.134 1508.48C682.726 1516.2 680.029 1523.82 674.705 1529.45C656.186 1549.19 606.334 1544.26 580.431 1543.78C540.14 1543.04 494.45 1552.37 463.389 1521.13C435.603 1493.18 440.3 1459.48 440.383 1423.05L440.538 1341.05L440.274 1052.6Z"/></svg>