<svg width="1024" height="1024" viewBox="0 0 1024 1024" fill="none" xmlns="http://www.w3.org/2000/svg">
<g clip-path="url(#clip0_103_59270)">
<path d="M0 0H1024V1024H0V0Z" fill="#0047AB"/>
<path d="M318.183 19.1221C378.319 40.7079 438.345 62.5967 498.259 84.7877L561.25 107.992C570.385 111.291 579.422 115.012 588.683 117.893C620.963 103.546 634.933 83.6732 674.868 95.4502C694.122 100.577 707.286 110.593 721.821 123.268C737.576 137.009 746.884 151.392 757.669 169.173C762.558 177.233 767.986 185.234 772.628 193.567C792.996 196.374 807.305 202.168 818.865 220.215C824.967 229.742 827.917 241.292 831.888 251.847C838.455 269.304 844.108 287.237 851.108 304.528C867.874 310.901 887.577 323.44 894.77 340.321C908.267 371.998 920.842 405.21 932.997 437.469C940.606 457.661 953.735 476.421 946.195 498.608C941.208 513.282 932.417 520.221 919.116 527.104C925.874 548.485 934.88 569.272 941.765 590.664C948.024 609.52 955.57 627.982 961.995 646.763C970.327 667.786 962.78 703.068 942.955 716.008C923.079 728.98 896.159 740.14 874.578 751.88C837.04 772.128 799.216 791.842 761.118 811.016C709.522 837.584 658.14 864.564 606.975 891.953C563.389 915.328 519.641 938.401 475.735 961.17L429.064 985.8C421.152 989.909 409.786 996.093 401.695 999.297C370.582 1011.62 333.784 1013.93 302.484 1001.11C270.222 987.909 246.439 966.594 232.599 934.562C229.059 926.37 226.087 917.303 223.042 908.917L206.002 862.048L145.746 697.071C125.053 641.086 104.834 584.927 85.091 528.6C77.3218 506.905 68.2326 485.577 61.0144 463.651C57.2092 452.685 56.1418 441.231 58.7011 429.704C64.7816 402.315 76.2566 373.976 85.8154 347.65L124.336 242.649L162.756 137.603L184.164 79.141C187.785 69.4021 191.336 59.1338 195.247 49.5791C213.328 55.9685 223.789 62.4473 243.919 67.7705C247.673 58.1597 250.873 47.9844 255.369 38.7039C268.959 44.411 289.464 52.8591 303.494 56.6692C308.367 44.1938 312.477 31.2037 318.183 19.1221Z" fill="#0047AB"/>
<path d="M780.301 218.606C785.569 218.001 790.905 218.659 795.869 220.524C807.455 224.877 813.461 232.712 817.377 244.091C820.192 252.269 823.405 260.569 826.451 268.676L851.909 336.009C856.136 347.241 860.915 361.733 865.702 372.431C859.743 376.808 848.285 382.486 841.387 385.877C839.092 380.705 837.34 372.38 833.356 368.364C831.46 367.17 827.685 368.221 827.126 370.555C825.7 376.509 830.1 385.991 832.096 391.605C831.065 391.938 830.049 392.319 829.053 392.747C821.881 395.787 803.115 405.783 796.059 409.729C777.747 419.968 751.494 431.243 736.516 444.773C725.621 454.726 717.103 467.001 711.594 480.691C702.703 502.866 701.744 525.027 711.453 547.175C718.635 563.74 732.247 576.669 749.158 582.99C761.823 587.824 784.627 591.134 798.007 587.862C804.888 586.18 813.313 581.725 819.801 578.49C831.81 572.467 843.732 566.273 855.564 559.91C861.722 556.629 869.773 551.979 875.904 549.294L876.593 548.996C878.038 554.363 879.954 559.13 881.97 564.269C884.953 571.871 889.223 583.744 897.386 571.552C895.484 563.335 889.197 553.592 886.555 544.544C892.884 540.408 902.193 535.642 909.044 532.632C911.703 537.955 915.995 550.694 918.181 556.669C923.641 571.274 928.992 585.92 934.232 600.606L945.749 632.646C948.444 640.009 952.079 648.745 953.784 656.28C957.863 674.3 949.954 697.555 935.015 708.673C929.57 712.725 920.727 716.72 914.577 719.844L875.177 739.725C865.572 744.634 856.171 750.011 846.591 755.007L761.499 799.386L525.984 923.274L452.558 962.026C440.886 968.399 429.089 974.542 417.175 980.45C410.358 983.894 402.854 987.896 395.801 990.658C375.853 998.448 354.234 1000.97 333.029 997.975C311.728 994.806 292.537 987.452 275.486 974.361C270.512 970.542 266.635 968.036 262.902 962.964C265.167 961.908 266.29 961.492 267.482 959.273C267.802 955.288 262.784 952.292 259.808 950.224C249.968 943.386 244.717 938.286 240.53 927.026C194.965 803.919 150.109 680.551 105.963 556.929C103.244 549.132 100.623 541.3 98.1014 533.437C122.427 548.166 143.809 554.93 172.346 555.541C217.947 556.517 254.04 537.917 292.967 517.475C312.478 507.461 331.885 497.245 351.183 486.828L522.848 396.469C556.462 379.06 589.953 361.413 623.318 343.529C632.265 338.841 668.178 321.467 672.9 316.649C674.058 315.468 674.486 314.196 674.402 312.527C674.318 310.852 673.154 309.038 671.747 308.168C670.473 307.381 669.043 307.312 667.665 307.843C657.75 311.661 647.77 318.492 638.293 323.495L571.359 358.735L342.758 478.667L278.215 512.527C270.206 516.763 261.073 522.684 253.244 526.305C239.15 532.773 224.394 537.688 209.236 540.964C182.383 546.524 151.171 544.996 125.298 535.364C113.738 531.06 100.457 522.915 90.1917 516.183C85.3938 504.089 81.5501 490.728 76.5635 478.151C112.222 520.784 172.671 528.311 222.771 509.594C240.25 503.064 258.602 492.295 275.18 483.452L319.208 460.369C326.745 456.335 334.341 451.751 341.837 447.855C456.742 388.117 571.289 327.692 685.472 266.584L738.941 237.991C750.52 231.835 768.207 220.978 780.301 218.606Z" fill="white"/>
<path d="M275.869 961.445C281.232 961.329 287.416 965.636 292.952 967.424C299.363 969.494 305.565 971.156 312.378 971.604C315.799 971.997 321.904 971.068 324.553 973.706C327.485 976.624 325.084 979.851 322.719 981.991C311.249 982.884 297.336 979.808 286.524 976.112C281.211 974.296 264.783 968.236 275.869 961.445Z" fill="#0047AB"/>
<path d="M716.319 784.009C717.168 783.946 718.159 783.811 719.002 783.923C720.325 784.097 721.22 784.683 722.031 785.723C722.992 786.956 723.622 789.107 723.071 790.613C721.521 794.853 692.159 808.616 686.385 811.439C683.856 811.763 682.308 811.629 680.652 809.362C675.652 802.516 692.494 796.498 697.089 794.187C703.546 790.883 709.956 787.49 716.319 784.009Z" fill="#0047AB"/>
<path d="M918.848 647.969C928.428 647.157 927.749 658.316 926.997 665.04C925.74 676.283 919.357 686.021 910.447 692.829C907.445 693.39 903.901 692.738 903.213 689.141C902.652 686.203 907.957 681.491 909.958 679.569C917.362 672.456 917.368 664.091 916.695 654.622C916.522 651.047 916.461 650.506 918.848 647.969Z" fill="#0047AB"/>
<path d="M764.798 257.984C769.186 257.973 773.848 261.484 771.624 264.397C766.391 271.251 745.774 280.85 738.382 284.064C735.614 284.359 733.824 284.479 732.254 281.748C731.401 280.295 731.234 278.538 731.799 276.951C732.179 275.873 733.018 274.543 733.996 274.003C743.269 268.883 755.315 262.316 764.798 257.984Z" fill="#0047AB"/>
<path d="M548.596 872.599C551.303 872.954 552.54 873.255 554.469 875.182C554.904 876.483 555.125 876.926 554.686 878.29C552.933 883.733 524.631 896.797 518.239 900.039C512.287 900.662 510.72 893.173 512.67 892.138C521.148 887.64 540.139 874.654 548.596 872.599Z" fill="#0047AB"/>
<path d="M791.282 265.465C792.519 265.519 795.388 265.639 796.016 266.518C800.209 272.387 808.999 298.358 810.267 304.154C808.587 305.919 807.729 306.543 805.753 308.002C804.688 307.922 803.729 307.868 802.769 307.356C797.969 304.799 789.007 277.461 787.053 271.086C788.319 268.468 788.912 267.095 791.282 265.465Z" fill="#0047AB"/>
<path d="M437.423 930.97C439.327 931.02 441.369 932.099 443.004 932.996C444.899 935.899 442.872 938.888 440.359 940.393C430.305 946.411 418.78 952.914 408.254 957.966C407.155 958.146 405.611 958.305 404.51 958.074C403.31 957.821 402.548 957.378 401.926 956.284C401.214 955.031 401.17 952.404 401.702 951.057C403.018 947.726 432.206 933.719 437.423 930.97Z" fill="#0047AB"/>
<path d="M383.009 958.568C386.906 959.162 390.288 962.816 387.534 965.448C379.568 973.06 359.046 977.362 348.612 979.352C343.169 978.007 341.081 970.93 345.485 969.614C354.58 966.896 364.162 965.784 373.065 961.985C375.946 960.756 380 959.206 383.009 958.568Z" fill="#0047AB"/>
<path d="M491.684 901.992C494.367 902.17 496.948 902.576 498.869 904.584C499.19 905.636 499.337 906.041 499.009 907.142C497.143 913.417 470.53 925.271 463.292 928.915C458.366 930.411 456.03 926.605 457.108 922.525C457.96 919.298 466.344 915.76 469.464 914.079C476.849 910.101 484.522 906.552 491.684 901.992Z" fill="#0047AB"/>
<path d="M603.918 843.482C604.544 843.495 605.17 843.51 605.793 843.57C607.461 843.731 609.052 844.455 610.004 845.899C610.723 846.989 610.704 847.777 610.302 848.974C608.499 854.34 580.39 867.347 573.939 870.515C570.09 870.574 566.805 867.676 567.747 863.696C570.974 859.829 597.497 846.505 603.918 843.482Z" fill="#0047AB"/>
<path d="M658.007 814.416C669.564 813.708 665.635 823.748 655.584 827.636C647.707 830.683 638.707 837.237 630.232 840.584C628.523 840.795 625.478 840.919 624.366 839.128C622.651 836.367 622.854 833.151 625.946 831.406C636.512 825.446 647.726 820.977 658.007 814.416Z" fill="#0047AB"/>
<path d="M774.185 754.583C776.951 755.299 781.458 759.093 778.938 761.15C771.659 767.092 752.008 778.416 743.229 781.339C735.539 778.508 737.476 772.311 742.704 769.989C751.903 765.906 765.05 757.418 774.185 754.583Z" fill="#0047AB"/>
<path d="M828.625 725.586C829.726 725.455 830.894 725.26 832.001 725.28C833.195 725.302 834.059 725.776 834.76 726.744C835.5 727.767 835.587 729.609 835.27 730.75C834.326 734.146 804.064 749.305 798.396 752.363C797.595 752.608 796.351 753.101 795.493 753.026C794.281 752.919 793.658 752.479 792.961 751.511C791.987 750.16 791.876 748.008 792.468 746.514C794.122 742.343 822.754 728.555 828.625 725.586Z" fill="#0047AB"/>
<path d="M885.942 695.99C887.751 696.102 889.041 697.07 890.406 698.137C890.813 699.207 891.055 700.111 890.607 701.244C888.419 706.78 859.798 720.004 853.108 722.978C851.321 722.297 849.557 721.681 848.774 719.772C848.408 718.881 848.506 717.892 848.945 717.037C851.547 711.962 879.731 698.041 885.942 695.99Z" fill="#0047AB"/>
<path d="M315.153 745.623C316.604 745.453 321.19 744.685 322.011 746.525C326.897 757.475 331.829 769.803 334.676 781.409C334.962 782.574 333.002 784.084 332.152 784.764C330.371 785.301 328.406 786.067 326.614 785.125C323.619 783.551 314.816 755.45 313.745 750.759C313.251 748.59 313.983 747.325 315.153 745.623Z" fill="#0047AB"/>
<path d="M712.371 284.544C718.676 284.113 720.739 289.722 719.194 291.764C716.012 295.969 694.5 306.4 690.34 308.512C689.029 308.604 687.338 308.734 686.076 308.322C684.858 307.925 683.952 307.119 683.377 305.972C682.735 304.692 682.77 303.551 683.199 302.219C684.907 296.9 706.721 287.129 712.371 284.544Z" fill="#0047AB"/>
<path d="M301.259 692.611L302.035 692.781C306.316 698.195 311.894 719.276 314.965 726.581C316.97 731.349 314.123 733.444 309.491 733.96C303.554 730.105 300.598 713.588 297.098 707.054C296.217 705.41 294.969 701.362 294.442 699.389C292.937 693.752 297.074 693.134 301.259 692.611Z" fill="#0047AB"/>
<path d="M278.617 641.462C283.024 641.461 284.255 642.228 285.861 646.318C289.715 656.134 294.183 666.414 296.514 676.649C296.833 678.05 293.713 680.089 292.926 680.649C291.914 680.923 290.825 681.053 289.782 680.847C288.425 680.58 287.246 679.747 286.541 678.557C285.204 676.288 275.261 648.135 275.496 644.094C275.557 643.054 277.567 642.058 278.617 641.462Z" fill="#0047AB"/>
<path d="M899.547 589.441C901.043 589.993 901.986 590.405 902.886 591.792C905.365 595.617 917.773 625.87 916.615 629.104C915.904 631.092 914.378 631.885 912.653 632.849C910.932 632.465 909.245 631.975 908.392 630.279C905.891 625.167 903.949 619.762 901.92 614.432C899.679 608.299 896.874 602.228 895.117 595.947C894.186 592.616 896.942 590.548 899.547 589.441Z" fill="#0047AB"/>
<path d="M336.03 797.435C340.8 797.464 341.538 798.644 343.072 803.097C346.506 813.062 351.289 823.234 353.258 833.523C353.487 834.72 350.215 836.759 349.51 837.221C348.064 837.362 345.199 837.317 344.597 835.928C342.051 830.05 332.223 806.752 332.468 801.423C333.231 799.422 334.302 798.858 336.03 797.435Z" fill="#0047AB"/>
<path d="M810.203 318.442C813.361 318.371 815.279 318.665 816.683 321.738C821.245 331.725 825.651 342.371 828.74 352.88C829.157 354.299 826.951 356.635 826.148 357.469C824.248 357.599 821.362 357.843 820.179 356.424C816.949 352.548 807.301 325.201 807.25 322.208C808 320.155 808.487 319.95 810.203 318.442Z" fill="#0047AB"/>
<path d="M353.136 848.033C355.145 847.968 358.226 847.506 359.194 849.68C361.766 855.458 371.631 878.528 370.718 883.517C369.877 885.183 369.044 885.376 367.367 886.235C365.147 886.459 363.787 886.405 362.011 885.067C359.416 880.348 351.966 858.449 350.287 852.05C349.985 850.899 352.133 848.913 353.136 848.033Z" fill="#0047AB"/>
<path d="M261.41 591.012C262.867 591.099 264.497 591.158 265.818 591.85C268.722 593.369 277.057 620.876 278.135 625.716C276.805 627.765 276.529 628.027 274.643 629.591C270.345 629.641 268.976 629.064 267.596 624.913C264.361 615.184 259.959 605.219 258.005 595.211C257.72 593.752 260.571 591.648 261.41 591.012Z" fill="#0047AB"/>
<path d="M372.477 897.519C374.23 897.605 376.733 897.64 377.65 899.613C380.284 905.595 382.583 912.006 384.615 918.235C386.336 923.514 388.589 927.196 382.477 929.951C381.415 929.835 378.52 929.668 377.88 928.27C374.497 920.88 369.611 909 368.363 901.123C368.139 899.706 371.183 898.147 372.477 897.519Z" fill="#0047AB"/>
<path d="M248.689 548.546C250.124 548.654 250.15 548.701 251.524 549.184C254.01 552.422 257.404 566.723 259.323 571.1C261.854 576.875 259.946 578.655 254.367 580.197C249.116 578.379 243.721 558.093 242.021 552.277C244.581 550.029 245.396 549.415 248.689 548.546Z" fill="#0047AB"/>
<path d="M323.977 31.9385C420.585 66.7221 516.964 102.138 613.107 138.184C609.671 147.624 606.515 158.8 603.436 168.49L589.691 210.694C579.65 241.77 568.809 272.802 558.534 303.882C551.122 308.676 539.704 314.244 531.561 318.491C518.653 325.375 505.646 332.072 492.544 338.58C495.879 330.799 499.225 320.073 501.891 311.983L514.533 273.569C516.996 266.05 529.504 234.041 530.74 224.549C530.859 223.628 522.517 214.615 520.73 212.283C515.62 205.713 511.603 198.362 508.834 190.513C505.079 180.036 503.938 171.712 504.469 160.551C504.688 155.944 505.641 150.683 504.799 146.177C500.313 142.394 412.601 111.304 403.025 108.448C400.289 111.675 397.194 117.39 394.132 121.117C381.692 136.256 368.554 143.086 349.923 147.216C345.122 147.806 335.786 147.798 331.899 148.327C328.657 148.768 321.632 171.781 320.398 175.229C314.584 191.175 308.934 207.179 303.45 223.241C296.667 242.895 288.784 262.119 282.027 282.004L267.16 325.518C264.422 333.651 260.316 347.273 256.484 354.528L255.64 354.806C254.034 355.319 252.829 355.763 251.296 356.464C201.161 379.368 178.083 437.966 202.257 488.036C184.454 492.483 163.658 495.452 145.861 489.137C150.11 489.851 156.37 491.948 158.299 486.642C160.807 479.739 163.039 472.751 165.565 465.852L186.434 408.789L284.745 138.033L309.831 68.8593C314.124 57.1717 318.989 43.1913 323.977 31.9385Z" fill="white"/>
<path d="M896.971 374.738C899.983 380.397 903.568 389.734 906.038 395.838L920.444 431.844L931.066 458.153C932.98 462.905 936.346 470.992 937.592 475.818C938.708 480.298 938.917 484.956 938.205 489.517C937.103 496.665 932.038 508.46 925.792 512.097C905.808 523.731 883.616 534.491 863.149 545.039L820.432 567.178C802.233 576.526 795.572 582.044 774.271 578.848C761.92 575.441 751.155 567.811 743.85 557.284C720.057 523.583 731.076 476.669 766.016 455.461C772.519 451.514 780.082 448.372 786.876 444.795L849.342 411.625C863.105 404.372 893.947 391.749 896.971 374.738Z" fill="white"/>
<path d="M784.198 460.976C806.45 458.046 826.858 473.728 829.757 495.985C832.656 518.241 816.946 538.627 794.685 541.494C772.469 544.356 752.132 528.684 749.239 506.472C746.346 484.259 761.99 463.901 784.198 460.976Z" fill="#0047AB"/>
<path d="M784.041 466.623C826.094 462.75 836.901 523.083 796.123 532.388C788.162 533.719 779.99 532.032 773.207 527.655C750.193 513.017 755.049 472.693 784.041 466.623Z" fill="#0047AB"/>
<path d="M793.327 478.14C796.23 477.365 799.324 478.223 801.413 480.382C803.502 482.541 804.257 485.663 803.386 488.538C802.515 491.413 800.154 493.59 797.219 494.228C792.825 495.181 788.474 492.454 787.417 488.084C786.36 483.714 788.984 479.3 793.327 478.14Z" fill="white"/>
<path d="M260.17 52.2295C272.307 56.8435 290.143 62.419 301.365 67.6181C299.747 72.9632 296.263 81.5014 294.251 86.9743L281.31 122.855L238.379 241.639C210.195 320.333 181.57 398.868 152.505 477.24C139.177 472.967 123.828 465.799 110.592 462.634C112.728 454.709 116.659 444.398 119.424 436.51C125.521 418.617 132.045 400.872 138.989 383.29C147.866 360.193 156.703 335.098 165.201 311.812C195.933 224.949 227.591 138.417 260.17 52.2295Z" fill="white"/>
<path d="M376.331 229.709C398.82 226.588 425.647 239.604 440.417 255.647C462.353 279.441 467.973 313.679 456.975 343.791C450.423 361.729 451.058 360.274 435.101 368.913C418.312 378.002 409.022 382.515 389.377 380.954C381.789 380.417 366.063 378.894 360.623 373.905C345.606 360.134 333.509 354.781 314.036 349.172C300.72 326.254 298.392 304.478 308.268 279.499C319.645 250.727 345.612 232.422 376.331 229.709Z" fill="white"/>
<path d="M405.872 117.196C409.594 118.169 416.439 120.717 420.23 122.018C431.566 125.918 442.834 130.015 454.028 134.308C468.357 139.756 483.538 145.034 497.615 150.754C495.338 184.821 500.76 200.811 522.894 226.582C514.494 250.063 506.333 273.629 498.414 297.277C495.137 306.972 490.809 321.777 487.257 330.672L486.874 330.755C487.248 328.583 488.498 322.527 488.591 320.713C489.914 295.131 483.453 276.121 470.57 254.759C466.997 249.089 462.925 243.749 458.402 238.803C423.125 199.951 364.425 193.135 321.905 224.443C316.231 228.621 311.915 232.351 306.727 237.089C312.238 220.137 318.741 202.686 324.552 185.765C328.349 174.709 332.249 166.346 335.333 154.685C344.597 154.685 351.428 154.708 360.473 151.969C381.173 145.701 393.915 134.677 405.872 117.196Z" fill="#B6C3CD"/>
<path d="M200.519 62.6045C211.694 67.4757 229.261 74.6295 240.917 77.9408C235.938 93.1971 230.433 107.097 225.014 122.101L195.85 202.894L111.91 433.267C99.0752 428.419 84.2505 422.707 71.1621 418.854C75.7979 403.307 83.3153 383.838 89.0181 368.308L111.303 307.188L177.766 125.259C185.252 104.264 193.602 83.8251 200.519 62.6045Z" fill="white"/>
<path d="M284.783 372.177C287.459 371.666 292.12 371.79 294.902 371.744C318.383 371.363 347.78 386.87 356.837 409.429C347.197 415.283 331.382 423.029 320.856 428.655C315.793 418.641 314.479 417.493 304.356 412.063C305.315 408.942 311.89 394.672 300.738 397.982C297.95 398.809 295.855 408.016 294.86 411.187C281.75 413.669 274.822 417.336 270.521 430.916C268.818 439.942 271.326 444.699 277.011 451.355C261.989 459.921 242.096 471.15 226.5 478.623C222.107 472.4 219.311 463.196 218.363 455.683C212.963 412.927 242.659 377.901 284.783 372.177Z" fill="white"/>
<path d="M771.294 204.586C786.082 203.237 796.533 206.996 806.253 218.253C779.687 199.86 763.106 215.125 738.359 227.862C710.047 242.199 682.033 257.114 654.332 272.599C619.033 291.579 583.591 310.291 548.007 328.731L343.276 436.54L269.631 475.539C253.719 484.034 236.996 493.82 220.148 500.048C172.613 517.621 110.024 510.759 80.5664 464.87C72.5977 452.376 69.6833 441.559 69.0205 427.032C72.3743 427.898 75.6455 428.982 78.9458 430.033C79.1246 433.495 79.3287 438.263 80.2396 441.488C97.0692 501.084 171.678 512.528 222.106 491.152C236.656 484.984 249.117 477.211 262.547 470.257L348.842 424.561C457.012 368.463 564.796 311.626 672.189 254.053L721.776 227.672C733.888 221.248 759.179 207.131 771.294 204.586Z" fill="white"/>
<path d="M600.414 206.3C624.596 216.015 643.245 227.586 654.65 252.535C650.316 255.657 643.125 258.883 638.313 261.428C631.683 264.934 625.024 268.45 618.39 271.955C610.947 275.698 602.929 280.489 595.31 284.443C591.53 283.625 581.387 279.758 577.086 278.298C583.734 255.13 593.004 229.932 600.414 206.3Z" fill="white"/>
<path d="M664.812 138.666C676.04 137.559 685.718 142.576 694.639 148.816C708.132 158.253 716.089 172.082 724.448 185.827C729.051 193.395 733.82 200.765 737.701 208.742C734.437 211.036 732.698 212.065 729.163 213.936C722.012 198.706 713.876 181.15 700.818 170.383C691.595 164.026 680.67 163.335 670.915 169.031C657.741 176.722 644.041 183.49 630.837 191.062C623.53 188.319 617.06 184.128 609.211 181.99C611.408 174.844 613.726 167.736 616.164 160.669C621.848 157.95 627.48 155.123 633.055 152.187C643.634 146.512 652.868 140.35 664.812 138.666Z" fill="white"/>
<path d="M377.647 213.714C393.037 212.495 408.428 217.145 422.417 223.134C466.981 242.214 493.52 305.603 471.215 350.281C467.644 352.3 464.118 354.098 460.471 355.963C473.631 321.339 474.947 291.181 452.988 259.352C438.935 238.983 418.725 227.924 394.618 223.629C381.086 221.418 367.218 222.605 354.259 227.083C331.349 234.859 314.032 249.783 303.469 271.645C294.829 289.733 292.783 310.273 297.684 329.71C299.203 335.573 301.945 342.212 303.994 348.049L294.583 347.943C290.017 337.907 287.281 327.136 286.504 316.138C284.87 289.777 292.547 266.55 310.126 246.665C327.241 226.99 351.606 215.1 377.647 213.714Z" fill="white"/>
<path d="M288.192 356.706C298.279 355.351 314.905 358.582 324.472 361.752C342.395 367.69 363.629 384.478 370.503 402.472L364.896 405.476C359.385 396.249 352.234 388.107 343.795 381.452C318.076 361.072 280.19 359.532 251.836 375.08C241.563 380.713 234.581 387.235 227.403 396.365C208.762 421.574 203.29 453.826 219.178 481.991L210.713 485.347C206.019 475.124 202.852 465.363 201.774 454.073C199.702 431.19 206.763 408.416 221.417 390.719C239.677 368.763 260.24 359.215 288.192 356.706Z" fill="white"/>
<path d="M856.019 317.166C872.538 325.354 881.245 332.322 888.401 349.26C899.991 376.693 871.342 388.642 852.379 398.965C832.233 409.877 811.977 420.585 791.614 431.087C779.934 437.121 761.179 445.316 751.575 453.344C717.21 482.069 709.953 530.023 738.444 565.829L738.742 566.197L738.507 566.681C733.57 562.897 729.276 558.343 725.788 553.193C715.645 538.376 712.533 518.471 715.939 501.036C719.751 481.571 729.818 463.883 744.608 450.666C753.519 442.735 767.449 435.914 778.248 430.201L830.23 403.247C843.492 396.499 857.187 389.658 869.748 381.709C885.109 371.988 892.108 356.5 880.706 340.329C875.656 333.292 868.037 328.526 859.499 327.065C858.313 323.775 857.153 320.475 856.019 317.166Z" fill="white"/>
<path d="M649.194 118.092C659.627 117.228 673.081 119.806 682.725 123.251C711.28 133.45 726.828 150.64 741.778 175.855C746.634 184.045 751.544 190.738 755.849 199.807C753.053 201.019 750.132 202.436 747.353 203.727C741.951 194.642 736.416 185.638 730.749 176.718C720.61 159.987 710.692 144.52 692.398 135.313C686.661 132.406 680.506 130.41 674.154 129.397C657.228 126.869 648.562 133.716 634.396 141.517C629.871 144.009 623.917 147.539 619.059 148.983C620.439 144.466 622.83 139.027 622.916 134.275C622.944 132.708 621.841 131.714 620.776 130.605C629.679 125.716 639.311 120.347 649.194 118.092Z" fill="white"/>
<path d="M685.471 174.591C699.889 174.826 709.029 196.547 715.814 207.475C710.683 203.731 705.662 200.537 699.561 198.725C693.972 200.616 678.387 209.025 672.881 212.04C669.685 213.914 666.382 215.968 662.985 217.406C655.777 208.285 650.551 203.682 641.094 197.089C652.087 191.473 675.414 176.893 685.471 174.591Z" fill="white"/>
<path d="M606.018 190.864C635.094 200.806 655.495 217.022 669.656 244.485L665.692 246.699C665.255 246.957 662.065 248.893 661.668 248.288C657.488 241.723 654.047 235.031 648.922 229.077C635.212 213.147 621.664 206.735 602.854 198.891L606.018 190.864Z" fill="white"/>
<path d="M650.139 101.709C674.992 99.5788 701.567 116.545 718.645 133.051C714.726 130.588 710.492 127.086 706.306 124.408C694.972 117.156 685.162 113.838 672.411 110.593C644.495 104.651 634.134 113.323 610.075 125.904C606.574 124.851 603.813 123.946 600.404 122.643C604.233 121.296 608.99 118.49 612.525 116.474C627.484 107.945 632.764 103.311 650.139 101.709Z" fill="white"/>
<path d="M700.604 209.121C705.654 212.711 711.307 216.326 716.503 219.767C710.674 224.289 689.973 234.145 682.639 237.746L677.797 240.003C675.378 235.47 672.388 230.573 669.785 226.095C676.73 221.201 692.739 213.127 700.604 209.121Z" fill="white"/>
<path d="M291.431 425.6C300.376 424.574 306.054 426.184 309.687 434.792C306.709 436.672 302.341 438.795 299.135 440.468C295.43 442.402 292.936 443.607 289.073 445.161C282.991 437.947 281.95 430.276 291.431 425.6Z" fill="white"/>
<path d="M277.314 318.427C277.448 318.608 283.823 346.058 284.445 348.41L273.394 349.891L266.329 351.399C270.226 340.835 273.84 329.195 277.314 318.427Z" fill="white"/>
<path d="M86.085 433.081L95.1076 435.495C94.6479 443.842 95.9456 448.213 99.0804 455.993C100.025 458.335 101.196 461.243 101.617 463.704C93.6135 461.298 87.7248 440.096 86.085 433.081Z" fill="white"/>
<path d="M863.295 337.47C872.049 340.962 879.598 352.809 876.064 362.485C875.17 363.516 875.18 363.767 873.913 364.093C871.999 362.286 864.5 341.195 863.295 337.47Z" fill="white"/>
<path d="M371.802 386.793C380.571 388.519 385.463 389.655 394.496 390.186L389.319 392.639C386.283 394.053 382.066 396.531 379.036 398.188C376.626 394.04 374.466 390.748 371.802 386.793Z" fill="white"/>
<path d="M575.005 285.196C577.82 286.432 582.136 287.492 584.236 289.05L584.26 289.997C582.646 291.818 580.181 292.545 577.853 293.522C575.388 294.778 573.167 295.751 570.635 296.851C571.998 292.931 573.456 289.045 575.005 285.196Z" fill="white"/>
<path d="M101.67 437.332C110.026 440.068 108.971 440.683 106.599 448.887L105.829 450.209L104.967 450.087C103.043 447.404 102.254 440.831 101.67 437.332Z" fill="white"/>
<path d="M283.51 423.965C280.174 428.919 275.946 439.935 280.923 445.045C281.78 445.925 282.028 446.353 282.572 447.483C281.579 447.338 280.26 447.139 279.737 446.189C275.435 438.366 275.741 428.956 282.876 423.825L283.51 423.965Z" fill="#0047AB"/>
<path d="M111.789 470.026C115.534 470.393 144.841 481.323 148.768 483.419C145.062 483.348 116.208 472.393 111.789 470.026Z" fill="#B6C3CD"/>
</g>
<defs>
<clipPath id="clip0_103_59270">
<rect width="1024" height="1024" fill="white"/>
</clipPath>
</defs>
</svg>
