<svg width="224" height="67" viewBox="0 0 224 67" fill="none" xmlns="http://www.w3.org/2000/svg">
<g clip-path="url(#clip0_62_49)">
<path d="M109.916 4.16234C115.199 3.69672 120.509 4.66602 125.287 6.96791C130.065 9.2698 134.132 12.8189 137.061 17.2406C139.989 21.6623 141.669 26.7925 141.924 32.0897C142.178 37.387 140.998 42.6547 138.508 47.3369C136.017 52.0191 132.309 55.9421 127.774 58.6918C123.239 61.4414 118.046 62.9157 112.743 62.9591C107.44 63.0025 102.223 61.6133 97.6439 58.9382C93.0647 56.2631 89.2926 52.4012 86.7259 47.7604C85.0136 44.6748 83.8742 41.3046 83.3629 37.813C82.6544 33.0393 83.1309 28.1647 84.7504 23.6186C86.3698 19.0725 89.0825 14.9945 92.6495 11.7438C97.413 7.38429 103.483 4.71922 109.916 4.16234Z" fill="black"/>
<path d="M102.019 38.2614C100.4 36.6605 98.7805 35.0459 97.16 33.4175C98.8209 31.7448 100.494 30.0869 102.157 28.4025C102.306 28.2531 102.401 28.0581 102.427 27.8486C102.453 27.6391 102.408 27.427 102.299 27.2461C102.227 27.1333 102.13 27.0376 102.017 26.9658C101.904 26.894 101.777 26.8477 101.644 26.8303C101.511 26.8129 101.376 26.8247 101.248 26.8649C101.12 26.9052 101.003 26.9728 100.904 27.0632C99.226 28.7388 97.5543 30.4163 95.8886 32.0959C94.21 30.4675 92.561 28.8066 90.906 27.1487C90.7947 27.0298 90.6554 26.9406 90.5009 26.8891C90.3464 26.8376 90.1814 26.8254 90.021 26.8537C89.7925 26.8983 89.5894 27.0277 89.4526 27.216C89.3157 27.4043 89.2553 27.6375 89.2835 27.8685C89.3337 28.2491 89.6464 28.4998 89.8971 28.7535C91.435 30.2816 92.971 31.8127 94.505 33.3467L94.5375 33.4381C92.8914 35.1255 91.201 36.7746 89.5431 38.4531C89.4277 38.5729 89.3476 38.7222 89.3116 38.8846C89.2757 39.0471 89.2854 39.2163 89.3396 39.3735C89.4086 39.584 89.5515 39.7623 89.7419 39.8757C89.9322 39.989 90.1571 40.0296 90.375 39.9901C90.729 39.9399 90.9444 39.6302 91.1863 39.4001C92.7675 37.8543 94.3162 36.279 95.8827 34.7214C97.5465 36.3734 99.2014 38.0372 100.862 39.6951C100.976 39.8222 101.123 39.9151 101.287 39.9636C101.45 40.012 101.624 40.014 101.789 39.9694C101.994 39.9146 102.174 39.789 102.296 39.6147C102.418 39.4403 102.474 39.2285 102.455 39.0166C102.437 38.8679 102.388 38.7245 102.313 38.5948C102.238 38.4651 102.138 38.3517 102.019 38.2614Z" fill="white"/>
<path d="M113.6 28.7211C112.598 27.7137 111.29 27.0674 109.88 26.8832C108.162 26.6373 106.417 27.0759 105.019 28.1045C104.168 28.7299 103.48 29.5504 103.012 30.4971C102.544 31.4437 102.309 32.4888 102.329 33.5446C102.349 34.6005 102.622 35.6361 103.124 36.5647C103.627 37.4933 104.346 38.2876 105.219 38.8809C106.457 39.7372 107.952 40.1395 109.453 40.0196C110.512 39.9273 111.535 39.59 112.441 39.0343C113.132 38.5747 113.741 38.0011 114.241 37.338C114.344 37.1996 114.413 37.0387 114.442 36.8685C114.471 36.6983 114.46 36.5236 114.409 36.3586C114.363 36.2351 114.291 36.1228 114.198 36.0294C114.105 35.9359 113.993 35.8634 113.87 35.8167C113.747 35.77 113.615 35.7503 113.484 35.7588C113.352 35.7673 113.224 35.8038 113.108 35.866C112.813 36.0223 112.671 36.335 112.456 36.574C111.654 37.5007 110.519 38.0742 109.297 38.1702C108.075 38.2663 106.864 37.8772 105.927 37.0873C105.02 36.3442 104.416 35.295 104.228 34.1373C107.273 34.1373 110.317 34.1373 113.373 34.1373C113.851 34.1809 114.33 34.078 114.748 33.8423C115.011 33.6691 115.217 33.4216 115.34 33.1311C115.462 32.8406 115.495 32.5203 115.435 32.2109C115.192 30.8883 114.552 29.671 113.6 28.7211ZM104.296 32.3201C104.592 31.1434 105.318 30.1204 106.332 29.4527C106.939 29.0564 107.628 28.8046 108.348 28.7166C109.067 28.6286 109.798 28.7069 110.482 28.9453C111.234 29.2088 111.908 29.6552 112.444 30.2444C112.98 30.8336 113.362 31.5469 113.553 32.3201H104.296Z" fill="white"/>
<path d="M134.817 31.016C134.262 29.5839 133.225 28.3903 131.884 27.6412C130.719 26.9893 129.384 26.7055 128.054 26.827C126.724 26.9486 125.462 27.4698 124.434 28.3222C123.406 29.1745 122.66 30.3181 122.295 31.6025C121.929 32.8868 121.961 34.2517 122.385 35.5177C122.809 36.7832 123.608 37.8901 124.675 38.6919C125.831 39.559 127.239 40.025 128.685 40.0191C130.13 40.0133 131.534 39.5359 132.684 38.6595C133.819 37.7882 134.641 36.5719 135.025 35.1936C135.41 33.8152 135.337 32.3492 134.817 31.016ZM132.519 36.1225C131.831 37.1056 130.796 37.7901 129.622 38.037C128.57 38.2636 127.473 38.1197 126.515 37.6299C125.878 37.3066 125.323 36.8428 124.891 36.2735C124.459 35.7042 124.162 35.0444 124.023 34.3436C123.852 33.4876 123.922 32.6011 124.225 31.7826C124.528 30.9641 125.052 30.2456 125.739 29.707C126.426 29.1684 127.249 28.8308 128.116 28.7317C128.983 28.6326 129.861 28.776 130.651 29.1457C131.305 29.4525 131.879 29.9043 132.332 30.4666C132.784 31.0289 133.102 31.687 133.262 32.3907C133.406 33.0301 133.415 33.6927 133.287 34.3355C133.159 34.9784 132.897 35.5872 132.519 36.1225Z" fill="white"/>
<path d="M122.459 28.0928C122.496 27.9748 122.509 27.8506 122.496 27.7276C122.483 27.6047 122.445 27.4858 122.384 27.3782C122.323 27.2706 122.241 27.1767 122.142 27.1022C122.043 27.0277 121.93 26.9743 121.81 26.9452C120.824 26.8148 119.825 27.0729 119.025 27.665C118.956 27.4296 118.798 27.2303 118.584 27.1093C118.371 26.9882 118.119 26.9547 117.881 27.016C117.681 27.0717 117.506 27.1944 117.386 27.3636C117.266 27.5328 117.207 27.7381 117.22 27.9453C117.22 31.6052 117.22 35.2672 117.22 38.9311C117.213 39.0565 117.231 39.1821 117.274 39.3002C117.317 39.4184 117.383 39.5267 117.469 39.6185C117.554 39.7103 117.658 39.7838 117.773 39.8345C117.888 39.8852 118.012 39.912 118.137 39.9134C118.257 39.9146 118.375 39.892 118.486 39.8469C118.596 39.8019 118.697 39.7353 118.782 39.651C118.866 39.5667 118.933 39.4664 118.978 39.356C119.024 39.2455 119.047 39.1272 119.046 39.0078C119.046 36.8838 119.046 34.7568 119.046 32.6299C119.008 31.8346 119.054 31.0376 119.185 30.2522C119.228 30.0157 119.319 29.7908 119.454 29.5917C119.589 29.3926 119.763 29.2237 119.966 29.0958C120.489 28.8389 121.063 28.7057 121.645 28.7064C121.828 28.7032 122.006 28.6421 122.152 28.5318C122.298 28.4216 122.406 28.2679 122.459 28.0928Z" fill="white"/>
<path d="M128.221 31.8185C127.96 31.8931 127.722 32.029 127.526 32.2149C127.329 32.4007 127.18 32.631 127.091 32.8864C126.994 33.1754 126.98 33.4853 127.049 33.782C127.118 34.0787 127.267 34.3506 127.481 34.5676C127.694 34.7847 127.964 34.9384 128.26 35.0119C128.555 35.0853 128.865 35.0756 129.156 34.9839C129.563 34.8484 129.901 34.56 130.099 34.1796C130.297 33.7993 130.34 33.3567 130.217 32.9456C130.095 32.5345 129.818 32.1871 129.444 31.9767C129.07 31.7664 128.629 31.7096 128.215 31.8185H128.221Z" fill="white"/>
</g>
<defs>
<clipPath id="clip0_62_49">
<rect width="59" height="59" fill="white" transform="translate(83 4)"/>
</clipPath>
</defs>
</svg>
