<svg width="97" height="67" viewBox="0 0 97 67" fill="none" xmlns="http://www.w3.org/2000/svg">
<g clip-path="url(#clip0_62_49)">
<path d="M40.9158 4.16234C46.1987 3.69672 51.5093 4.66602 56.287 6.96791C61.0648 9.2698 65.1325 12.8189 68.0607 17.2406C70.9889 21.6623 72.669 26.7925 72.9237 32.0897C73.1784 37.387 71.9982 42.6547 69.5077 47.3369C67.0173 52.0191 63.3089 55.9421 58.774 58.6918C54.2391 61.4414 49.046 62.9157 43.7428 62.9591C38.4396 63.0025 33.2231 61.6133 28.6439 58.9382C24.0647 56.2631 20.2926 52.4012 17.7259 47.7604C16.0136 44.6748 14.8742 41.3046 14.3629 37.813C13.6544 33.0393 14.1309 28.1647 15.7504 23.6186C17.3698 19.0725 20.0825 14.9945 23.6495 11.7438C28.413 7.38429 34.4825 4.71922 40.9158 4.16234Z" fill="black"/>
<path d="M33.0187 38.2614C31.4001 36.6605 29.7805 35.0459 28.16 33.4175C29.8209 31.7448 31.4935 30.0869 33.1573 28.4025C33.3064 28.2531 33.4013 28.0581 33.427 27.8486C33.4526 27.6391 33.4076 27.427 33.2989 27.2461C33.2266 27.1333 33.1304 27.0376 33.0173 26.9658C32.9041 26.894 32.7766 26.8477 32.6437 26.8303C32.5108 26.8129 32.3758 26.8247 32.2479 26.8649C32.1201 26.9052 32.0025 26.9728 31.9036 27.0632C30.226 28.7388 28.5543 30.4163 26.8886 32.0959C25.21 30.4675 23.561 28.8066 21.906 27.1487C21.7947 27.0298 21.6554 26.9406 21.5009 26.8891C21.3464 26.8376 21.1814 26.8254 21.021 26.8537C20.7925 26.8983 20.5894 27.0277 20.4526 27.216C20.3157 27.4043 20.2553 27.6375 20.2835 27.8685C20.3337 28.2491 20.6464 28.4998 20.8971 28.7535C22.435 30.2816 23.971 31.8127 25.505 33.3467L25.5375 33.4381C23.8914 35.1255 22.201 36.7746 20.5431 38.4531C20.4277 38.5729 20.3476 38.7222 20.3116 38.8846C20.2757 39.0471 20.2854 39.2163 20.3396 39.3735C20.4086 39.584 20.5515 39.7623 20.7419 39.8757C20.9322 39.989 21.1571 40.0296 21.375 39.9901C21.729 39.9399 21.9444 39.6302 22.1863 39.4001C23.7675 37.8543 25.3162 36.279 26.8827 34.7214C28.5465 36.3734 30.2014 38.0372 31.8623 39.6951C31.9761 39.8222 32.1229 39.9151 32.2865 39.9636C32.4501 40.012 32.6239 40.014 32.7886 39.9694C32.9942 39.9146 33.1738 39.789 33.2958 39.6147C33.4178 39.4403 33.4742 39.2285 33.4553 39.0166C33.4366 38.8679 33.3884 38.7245 33.3134 38.5948C33.2384 38.4651 33.1382 38.3517 33.0187 38.2614Z" fill="white"/>
<path d="M44.6004 28.7211C43.5979 27.7137 42.2896 27.0674 40.8804 26.8832C39.1624 26.6373 37.4166 27.0759 36.0188 28.1045C35.1679 28.7299 34.4796 29.5504 34.0115 30.4971C33.5435 31.4437 33.3095 32.4888 33.3291 33.5446C33.3488 34.6005 33.6215 35.6361 34.1245 36.5647C34.6274 37.4933 35.3458 38.2876 36.2194 38.8809C37.457 39.7372 38.9525 40.1395 40.4526 40.0196C41.5117 39.9273 42.5347 39.59 43.441 39.0343C44.1324 38.5747 44.7409 38.0011 45.2405 37.338C45.3438 37.1996 45.4129 37.0387 45.4421 36.8685C45.4714 36.6983 45.4599 36.5236 45.4087 36.3586C45.3628 36.2351 45.2909 36.1228 45.1981 36.0294C45.1052 35.9359 44.9934 35.8634 44.8701 35.8167C44.7469 35.77 44.6151 35.7503 44.4836 35.7588C44.3521 35.7673 44.2239 35.8038 44.1077 35.866C43.8127 36.0223 43.6711 36.335 43.4558 36.574C42.6536 37.5007 41.5188 38.0742 40.2969 38.1702C39.075 38.2663 37.8645 37.8772 36.9274 37.0873C36.02 36.3442 35.4156 35.295 35.2282 34.1373C38.2726 34.1373 41.317 34.1373 44.3732 34.1373C44.8508 34.1809 45.3303 34.078 45.7479 33.8423C46.0113 33.6691 46.2172 33.4216 46.3396 33.1311C46.462 32.8406 46.4953 32.5203 46.4352 32.2109C46.1923 30.8883 45.5523 29.671 44.6004 28.7211ZM35.2961 32.3201C35.5922 31.1434 36.3184 30.1204 37.3315 29.4527C37.9386 29.0564 38.6284 28.8046 39.3479 28.7166C40.0675 28.6286 40.7976 28.7069 41.4822 28.9453C42.2339 29.2088 42.9082 29.6552 43.4444 30.2444C43.9805 30.8336 44.3615 31.5469 44.5532 32.3201H35.2961Z" fill="white"/>
<path d="M65.8167 31.016C65.2622 29.5839 64.2251 28.3903 62.8844 27.6412C61.719 26.9893 60.3835 26.7055 59.0537 26.827C57.7238 26.9486 56.4619 27.4698 55.434 28.3222C54.406 29.1745 53.6602 30.3181 53.2945 31.6025C52.9289 32.8868 52.9606 34.2517 53.3854 35.5177C53.8095 36.7832 54.6078 37.8901 55.6746 38.6919C56.8312 39.559 58.2392 40.025 59.6847 40.0191C61.1302 40.0133 62.5343 39.5359 63.6839 38.6595C64.8191 37.7882 65.6408 36.5719 66.0254 35.1936C66.41 33.8152 66.3368 32.3492 65.8167 31.016ZM63.5187 36.1225C62.8314 37.1056 61.7956 37.7901 60.6218 38.037C59.5704 38.2636 58.473 38.1197 57.5154 37.6299C56.8783 37.3066 56.3229 36.8428 55.8911 36.2735C55.4593 35.7042 55.1623 35.0444 55.0227 34.3436C54.8521 33.4876 54.9222 32.6011 55.2252 31.7826C55.5282 30.9641 56.0523 30.2456 56.7391 29.707C57.426 29.1684 58.2487 28.8308 59.1159 28.7317C59.983 28.6326 60.8607 28.776 61.6513 29.1457C62.3046 29.4525 62.8792 29.9043 63.3316 30.4666C63.784 31.0289 64.1022 31.687 64.2621 32.3907C64.4063 33.0301 64.4147 33.6927 64.2866 34.3355C64.1585 34.9784 63.8969 35.5872 63.5187 36.1225Z" fill="white"/>
<path d="M53.4592 28.0928C53.4962 27.9748 53.5086 27.8506 53.4956 27.7276C53.4826 27.6047 53.4445 27.4858 53.3837 27.3782C53.3228 27.2706 53.2405 27.1767 53.1419 27.1022C53.0433 27.0277 52.9304 26.9743 52.8102 26.9452C51.8238 26.8148 50.8252 27.0729 50.0254 27.665C49.956 27.4296 49.7978 27.2303 49.5843 27.1093C49.3707 26.9882 49.1185 26.9547 48.8808 27.016C48.6809 27.0717 48.5061 27.1944 48.3858 27.3636C48.2656 27.5328 48.207 27.7381 48.22 27.9453C48.22 31.6052 48.22 35.2672 48.22 38.9311C48.2129 39.0565 48.2312 39.1821 48.2739 39.3002C48.3166 39.4184 48.3829 39.5267 48.4686 39.6185C48.5544 39.7103 48.6579 39.7838 48.7729 39.8345C48.8878 39.8852 49.0119 39.912 49.1375 39.9134C49.2569 39.9146 49.3753 39.892 49.4859 39.8469C49.5965 39.8019 49.697 39.7353 49.7816 39.651C49.8661 39.5667 49.9331 39.4664 49.9785 39.356C50.0239 39.2455 50.0469 39.1272 50.0461 39.0078C50.0461 36.8838 50.0461 34.7568 50.0461 32.6299C50.008 31.8346 50.0544 31.0376 50.1847 30.2522C50.2277 30.0157 50.3194 29.7908 50.4539 29.5917C50.5885 29.3926 50.7631 29.2237 50.9665 29.0958C51.4887 28.8389 52.0631 28.7057 52.645 28.7064C52.8282 28.7032 53.0056 28.6421 53.1518 28.5318C53.2981 28.4216 53.4057 28.2679 53.4592 28.0928Z" fill="white"/>
<path d="M59.2205 31.8185C58.9605 31.8931 58.7222 32.029 58.5256 32.2149C58.329 32.4007 58.1798 32.631 58.0907 32.8864C57.9944 33.1754 57.9799 33.4853 58.0487 33.782C58.1176 34.0787 58.2671 34.3506 58.4808 34.5676C58.6944 34.7847 58.964 34.9384 59.2596 35.0119C59.5551 35.0853 59.8653 35.0756 60.1557 34.9839C60.5626 34.8484 60.901 34.56 61.0991 34.1796C61.2973 33.7993 61.3397 33.3567 61.2175 32.9456C61.0953 32.5345 60.818 32.1871 60.4442 31.9767C60.0704 31.7664 59.6295 31.7096 59.2146 31.8185H59.2205Z" fill="white"/>
</g>
<defs>
<clipPath id="clip0_62_49">
<rect width="59" height="59" fill="white" transform="translate(14 4)"/>
</clipPath>
</defs>
</svg>
